M48
; DRILL file {KiCad (5.1.10)-1} date 06/14/21 15:07:03
; FORMAT={-:-/ absolute / inch / decimal}
; #@! TF.CreationDate,2021-06-14T15:07:03+02:00
; #@! TF.GenerationSoftware,Kicad,Pcbnew,(5.1.10)-1
FMAT,2
INCH
T1C0.0157
T2C0.0315
T3C0.0394
T4C0.0400
T5C0.1063
%
G90
G05
T1
X6.1685Y-4.3621
X8.9609Y-3.282
T2
X5.8Y-3.35
X5.8Y-3.4287
X5.8Y-3.5075
X5.8Y-3.5862
X5.8Y-3.665
X5.8Y-3.7437
X5.8Y-3.8224
X5.8Y-3.9012
X5.8Y-3.9799
X5.8Y-4.0587
X5.8Y-4.1374
X5.8Y-4.2161
X5.8Y-4.2949
X5.8Y-4.3736
X5.8Y-4.4524
X5.8Y-4.5311
X5.8Y-4.6098
X5.8Y-4.6886
X5.8Y-4.7673
X5.8Y-4.8461
X5.8787Y-3.35
X5.8787Y-3.4287
X5.8787Y-3.5075
X5.8787Y-3.5862
X5.8787Y-3.665
X5.8787Y-3.7437
X5.8787Y-3.8224
X5.8787Y-3.9012
X5.8787Y-3.9799
X5.8787Y-4.0587
X5.8787Y-4.1374
X5.8787Y-4.2161
X5.8787Y-4.2949
X5.8787Y-4.3736
X5.8787Y-4.4524
X5.8787Y-4.5311
X5.8787Y-4.6098
X5.8787Y-4.6886
X5.8787Y-4.7673
X5.8787Y-4.8461
X6.4Y-3.35
X6.4Y-3.45
X6.4Y-3.55
X6.4Y-3.65
X6.4Y-3.75
X6.4Y-3.85
X6.4Y-3.95
X6.4Y-4.05
X6.4Y-4.15
X6.4Y-4.25
X6.55Y-3.35
X6.55Y-3.45
X6.55Y-3.55
X6.55Y-3.65
X6.55Y-3.75
X6.55Y-3.85
X6.55Y-3.95
X6.55Y-4.05
X6.55Y-4.15
X6.55Y-4.25
X6.7Y-3.35
X6.7Y-3.45
X6.7Y-3.55
X6.7Y-3.65
X6.7Y-3.75
X6.7Y-3.85
X6.7Y-3.95
X6.7Y-4.05
X6.7Y-4.15
X6.7Y-4.25
X6.85Y-3.35
X6.85Y-3.45
X6.85Y-3.55
X6.85Y-3.65
X6.85Y-3.75
X6.85Y-3.85
X6.85Y-3.95
X6.85Y-4.05
X6.85Y-4.15
X6.85Y-4.25
T3
X6.4Y-4.7
X6.4Y-4.8
X6.55Y-4.7
X6.55Y-4.8
X7.5Y-4.9
X7.6Y-4.9
X7.7Y-4.9
X7.8Y-4.9
T4
X7.202Y-3.95
X7.202Y-4.55
X7.302Y-3.95
X7.302Y-4.55
X7.402Y-3.95
X7.402Y-4.55
X7.502Y-3.95
X7.502Y-4.55
X7.602Y-3.95
X7.602Y-4.55
X7.702Y-3.95
X7.702Y-4.55
X7.802Y-3.95
X7.802Y-4.55
X7.902Y-3.95
X7.902Y-4.55
X8.002Y-3.95
X8.002Y-4.55
X8.102Y-3.95
X8.102Y-4.55
X8.202Y-3.95
X8.202Y-4.55
X8.302Y-3.95
X8.302Y-4.55
X8.402Y-3.95
X8.402Y-4.55
X8.502Y-3.95
X8.502Y-4.55
X8.602Y-3.95
X8.602Y-4.55
X8.702Y-3.95
X8.702Y-4.55
X8.802Y-3.95
X8.802Y-4.55
X8.902Y-3.95
X8.902Y-4.55
X8.952Y-4.2004
X8.952Y-4.3004
X9.002Y-3.95
X9.002Y-4.55
X9.102Y-3.95
X9.104Y-4.55
T5
X6.15Y-3.4
X8.6Y-4.85
T0
M30
