%TF.GenerationSoftware,KiCad,Pcbnew,(5.1.10)-1*%
%TF.CreationDate,2021-06-14T15:07:00+02:00*%
%TF.ProjectId,bluepill_scsi,626c7565-7069-46c6-9c5f-736373692e6b,rev?*%
%TF.SameCoordinates,Original*%
%TF.FileFunction,Copper,L1,Top*%
%TF.FilePolarity,Positive*%
%FSLAX46Y46*%
G04 Gerber Fmt 4.6, Leading zero omitted, Abs format (unit mm)*
G04 Created by KiCad (PCBNEW (5.1.10)-1) date 2021-06-14 15:07:00*
%MOMM*%
%LPD*%
G01*
G04 APERTURE LIST*
%TA.AperFunction,ComponentPad*%
%ADD10O,1.727200X1.727200*%
%TD*%
%TA.AperFunction,ComponentPad*%
%ADD11O,1.727200X2.250000*%
%TD*%
%TA.AperFunction,ComponentPad*%
%ADD12R,1.727200X2.250000*%
%TD*%
%TA.AperFunction,ComponentPad*%
%ADD13O,1.600000X1.600000*%
%TD*%
%TA.AperFunction,ComponentPad*%
%ADD14R,1.600000X1.600000*%
%TD*%
%TA.AperFunction,ComponentPad*%
%ADD15O,1.700000X1.700000*%
%TD*%
%TA.AperFunction,ComponentPad*%
%ADD16R,1.700000X1.700000*%
%TD*%
%TA.AperFunction,ComponentPad*%
%ADD17O,1.350000X1.350000*%
%TD*%
%TA.AperFunction,ComponentPad*%
%ADD18R,1.350000X1.350000*%
%TD*%
%TA.AperFunction,SMDPad,CuDef*%
%ADD19R,0.850000X1.100000*%
%TD*%
%TA.AperFunction,SMDPad,CuDef*%
%ADD20R,0.750000X1.100000*%
%TD*%
%TA.AperFunction,SMDPad,CuDef*%
%ADD21R,1.170000X1.800000*%
%TD*%
%TA.AperFunction,SMDPad,CuDef*%
%ADD22R,1.550000X1.350000*%
%TD*%
%TA.AperFunction,SMDPad,CuDef*%
%ADD23R,1.200000X1.000000*%
%TD*%
%TA.AperFunction,SMDPad,CuDef*%
%ADD24R,1.900000X1.350000*%
%TD*%
%TA.AperFunction,ViaPad*%
%ADD25C,0.800000*%
%TD*%
%TA.AperFunction,Conductor*%
%ADD26C,0.250000*%
%TD*%
%TA.AperFunction,Conductor*%
%ADD27C,0.254000*%
%TD*%
%TA.AperFunction,Conductor*%
%ADD28C,0.100000*%
%TD*%
G04 APERTURE END LIST*
D10*
%TO.P,U1,42*%
%TO.N,N/C*%
X227380800Y-106690000D03*
%TO.P,U1,41*%
X227380800Y-109230000D03*
D11*
%TO.P,U1,40*%
%TO.N,+3V3*%
X231241600Y-115570000D03*
%TO.P,U1,39*%
%TO.N,GND*%
X228650800Y-115570000D03*
%TO.P,U1,38*%
%TO.N,VCC*%
X226110800Y-115570000D03*
%TO.P,U1,37*%
%TO.N,/SCSI_DAT1*%
X223570800Y-115570000D03*
%TO.P,U1,36*%
%TO.N,/SCSI_DAT0*%
X221030800Y-115570000D03*
%TO.P,U1,35*%
%TO.N,/SCSI_IO*%
X218490800Y-115570000D03*
%TO.P,U1,34*%
%TO.N,/SCSI_REQ*%
X215950800Y-115570000D03*
%TO.P,U1,33*%
%TO.N,/SCSI_CD*%
X213410800Y-115570000D03*
%TO.P,U1,32*%
%TO.N,/SCSI_SEL*%
X210870800Y-115570000D03*
%TO.P,U1,31*%
%TO.N,/SCSI_MSG*%
X208330800Y-115570000D03*
%TO.P,U1,30*%
%TO.N,/SCSI_RST*%
X205790800Y-115570000D03*
%TO.P,U1,29*%
%TO.N,N/C*%
X203250800Y-115570000D03*
%TO.P,U1,28*%
X200710800Y-115570000D03*
%TO.P,U1,27*%
%TO.N,/SCSI_ACK*%
X198170800Y-115570000D03*
%TO.P,U1,26*%
%TO.N,/SCSI_BSY*%
X195630800Y-115570000D03*
%TO.P,U1,25*%
%TO.N,/SCSI_ATN*%
X193090800Y-115570000D03*
%TO.P,U1,24*%
%TO.N,/SCSI_DAT7*%
X190550800Y-115570000D03*
%TO.P,U1,23*%
%TO.N,/SCSI_DAT6*%
X188010800Y-115570000D03*
%TO.P,U1,22*%
%TO.N,/SCSI_DAT5*%
X185470800Y-115570000D03*
%TO.P,U1,21*%
%TO.N,/SCSI_DAT4*%
X182930800Y-115570000D03*
%TO.P,U1,20*%
%TO.N,GND*%
X182930800Y-100330000D03*
%TO.P,U1,19*%
X185470800Y-100330000D03*
%TO.P,U1,18*%
%TO.N,+3V3*%
X188010800Y-100330000D03*
%TO.P,U1,17*%
%TO.N,N/C*%
X190550800Y-100330000D03*
%TO.P,U1,16*%
%TO.N,/SCSI_DAT3*%
X193090800Y-100330000D03*
%TO.P,U1,15*%
%TO.N,/SCSI_DAT2*%
X195630800Y-100330000D03*
%TO.P,U1,14*%
%TO.N,N/C*%
X198170800Y-100330000D03*
%TO.P,U1,13*%
%TO.N,/SCSI_DBP*%
X200710800Y-100330000D03*
%TO.P,U1,12*%
%TO.N,/SD_MOSI*%
X203250800Y-100330000D03*
%TO.P,U1,11*%
%TO.N,/SD_MISO*%
X205790800Y-100330000D03*
%TO.P,U1,10*%
%TO.N,/SD_CLK*%
X208330800Y-100330000D03*
%TO.P,U1,9*%
%TO.N,/SD_CS*%
X210870800Y-100330000D03*
%TO.P,U1,8*%
%TO.N,N/C*%
X213410800Y-100330000D03*
%TO.P,U1,7*%
X215950800Y-100330000D03*
%TO.P,U1,6*%
X218490800Y-100330000D03*
%TO.P,U1,5*%
X221030800Y-100330000D03*
%TO.P,U1,4*%
X223570800Y-100330000D03*
%TO.P,U1,3*%
X226110800Y-100330000D03*
%TO.P,U1,2*%
X228650800Y-100330000D03*
D12*
%TO.P,U1,1*%
X231190800Y-100330000D03*
%TD*%
D13*
%TO.P,RN4,10*%
%TO.N,/SCSI_DAT7*%
X173990000Y-107950000D03*
%TO.P,RN4,9*%
%TO.N,/SCSI_DAT6*%
X173990000Y-105410000D03*
%TO.P,RN4,8*%
%TO.N,/SCSI_DAT5*%
X173990000Y-102870000D03*
%TO.P,RN4,7*%
%TO.N,/SCSI_DAT4*%
X173990000Y-100330000D03*
%TO.P,RN4,6*%
%TO.N,/SCSI_DAT3*%
X173990000Y-97790000D03*
%TO.P,RN4,5*%
%TO.N,/SCSI_DAT2*%
X173990000Y-95250000D03*
%TO.P,RN4,4*%
%TO.N,/SCSI_DAT1*%
X173990000Y-92710000D03*
%TO.P,RN4,3*%
%TO.N,/SCSI_DAT0*%
X173990000Y-90170000D03*
%TO.P,RN4,2*%
%TO.N,/SCSI_DBP*%
X173990000Y-87630000D03*
D14*
%TO.P,RN4,1*%
%TO.N,Net-(JP1-Pad1)*%
X173990000Y-85090000D03*
%TD*%
D13*
%TO.P,RN3,10*%
%TO.N,/SCSI_DAT7*%
X170180000Y-107950000D03*
%TO.P,RN3,9*%
%TO.N,/SCSI_DAT6*%
X170180000Y-105410000D03*
%TO.P,RN3,8*%
%TO.N,/SCSI_DAT5*%
X170180000Y-102870000D03*
%TO.P,RN3,7*%
%TO.N,/SCSI_DAT4*%
X170180000Y-100330000D03*
%TO.P,RN3,6*%
%TO.N,/SCSI_DAT3*%
X170180000Y-97790000D03*
%TO.P,RN3,5*%
%TO.N,/SCSI_DAT2*%
X170180000Y-95250000D03*
%TO.P,RN3,4*%
%TO.N,/SCSI_DAT1*%
X170180000Y-92710000D03*
%TO.P,RN3,3*%
%TO.N,/SCSI_DAT0*%
X170180000Y-90170000D03*
%TO.P,RN3,2*%
%TO.N,/SCSI_DBP*%
X170180000Y-87630000D03*
D14*
%TO.P,RN3,1*%
%TO.N,Net-(JP2-Pad1)*%
X170180000Y-85090000D03*
%TD*%
%TO.P,RN2,1*%
%TO.N,Net-(JP1-Pad1)*%
X166370000Y-85090000D03*
D13*
%TO.P,RN2,2*%
%TO.N,/SCSI_IO*%
X166370000Y-87630000D03*
%TO.P,RN2,3*%
%TO.N,/SCSI_REQ*%
X166370000Y-90170000D03*
%TO.P,RN2,4*%
%TO.N,/SCSI_CD*%
X166370000Y-92710000D03*
%TO.P,RN2,5*%
%TO.N,/SCSI_MSG*%
X166370000Y-95250000D03*
%TO.P,RN2,6*%
%TO.N,/SCSI_BSY*%
X166370000Y-97790000D03*
%TO.P,RN2,7*%
%TO.N,/SCSI_SEL*%
X166370000Y-100330000D03*
%TO.P,RN2,8*%
%TO.N,/SCSI_RST*%
X166370000Y-102870000D03*
%TO.P,RN2,9*%
%TO.N,/SCSI_ACK*%
X166370000Y-105410000D03*
%TO.P,RN2,10*%
%TO.N,/SCSI_ATN*%
X166370000Y-107950000D03*
%TD*%
%TO.P,RN1,10*%
%TO.N,/SCSI_ATN*%
X162560000Y-107950000D03*
%TO.P,RN1,9*%
%TO.N,/SCSI_ACK*%
X162560000Y-105410000D03*
%TO.P,RN1,8*%
%TO.N,/SCSI_RST*%
X162560000Y-102870000D03*
%TO.P,RN1,7*%
%TO.N,/SCSI_SEL*%
X162560000Y-100330000D03*
%TO.P,RN1,6*%
%TO.N,/SCSI_BSY*%
X162560000Y-97790000D03*
%TO.P,RN1,5*%
%TO.N,/SCSI_MSG*%
X162560000Y-95250000D03*
%TO.P,RN1,4*%
%TO.N,/SCSI_CD*%
X162560000Y-92710000D03*
%TO.P,RN1,3*%
%TO.N,/SCSI_REQ*%
X162560000Y-90170000D03*
%TO.P,RN1,2*%
%TO.N,/SCSI_IO*%
X162560000Y-87630000D03*
D14*
%TO.P,RN1,1*%
%TO.N,Net-(JP2-Pad1)*%
X162560000Y-85090000D03*
%TD*%
D15*
%TO.P,JP2,2*%
%TO.N,VCC*%
X162560000Y-119380000D03*
D16*
%TO.P,JP2,1*%
%TO.N,Net-(JP2-Pad1)*%
X162560000Y-121920000D03*
%TD*%
D15*
%TO.P,JP1,2*%
%TO.N,GND*%
X166370000Y-119380000D03*
D16*
%TO.P,JP1,1*%
%TO.N,Net-(JP1-Pad1)*%
X166370000Y-121920000D03*
%TD*%
D17*
%TO.P,J5,40*%
%TO.N,N/C*%
X149320000Y-123090000D03*
%TO.P,J5,39*%
X147320000Y-123090000D03*
%TO.P,J5,38*%
%TO.N,GND*%
X149320000Y-121090000D03*
%TO.P,J5,37*%
X147320000Y-121090000D03*
%TO.P,J5,36*%
%TO.N,/SCSI_REQ*%
X149320000Y-119090000D03*
%TO.P,J5,35*%
%TO.N,GND*%
X147320000Y-119090000D03*
%TO.P,J5,34*%
%TO.N,/SCSI_CD*%
X149320000Y-117090000D03*
%TO.P,J5,33*%
%TO.N,/SCSI_IO*%
X147320000Y-117090000D03*
%TO.P,J5,32*%
%TO.N,/SCSI_SEL*%
X149320000Y-115090000D03*
%TO.P,J5,31*%
%TO.N,GND*%
X147320000Y-115090000D03*
%TO.P,J5,30*%
%TO.N,/SCSI_MSG*%
X149320000Y-113090000D03*
%TO.P,J5,29*%
%TO.N,/SCSI_RST*%
X147320000Y-113090000D03*
%TO.P,J5,28*%
%TO.N,/SCSI_ACK*%
X149320000Y-111090000D03*
%TO.P,J5,27*%
%TO.N,GND*%
X147320000Y-111090000D03*
%TO.P,J5,26*%
%TO.N,/SCSI_BSY*%
X149320000Y-109090000D03*
%TO.P,J5,25*%
%TO.N,/SCSI_ATN*%
X147320000Y-109090000D03*
%TO.P,J5,24*%
%TO.N,N/C*%
X149320000Y-107090000D03*
%TO.P,J5,23*%
%TO.N,GND*%
X147320000Y-107090000D03*
%TO.P,J5,22*%
%TO.N,/SCSI_DBP*%
X149320000Y-105090000D03*
%TO.P,J5,21*%
%TO.N,GND*%
X147320000Y-105090000D03*
%TO.P,J5,20*%
%TO.N,/SCSI_DAT7*%
X149320000Y-103090000D03*
%TO.P,J5,19*%
%TO.N,GND*%
X147320000Y-103090000D03*
%TO.P,J5,18*%
%TO.N,/SCSI_DAT6*%
X149320000Y-101090000D03*
%TO.P,J5,17*%
%TO.N,N/C*%
X147320000Y-101090000D03*
%TO.P,J5,16*%
%TO.N,/SCSI_DAT5*%
X149320000Y-99090000D03*
%TO.P,J5,15*%
%TO.N,GND*%
X147320000Y-99090000D03*
%TO.P,J5,14*%
%TO.N,/SCSI_DAT4*%
X149320000Y-97090000D03*
%TO.P,J5,13*%
%TO.N,GND*%
X147320000Y-97090000D03*
%TO.P,J5,12*%
%TO.N,/SCSI_DAT3*%
X149320000Y-95090000D03*
%TO.P,J5,11*%
%TO.N,GND*%
X147320000Y-95090000D03*
%TO.P,J5,10*%
%TO.N,/SCSI_DAT2*%
X149320000Y-93090000D03*
%TO.P,J5,9*%
%TO.N,GND*%
X147320000Y-93090000D03*
%TO.P,J5,8*%
%TO.N,/SCSI_DAT1*%
X149320000Y-91090000D03*
%TO.P,J5,7*%
%TO.N,GND*%
X147320000Y-91090000D03*
%TO.P,J5,6*%
%TO.N,/SCSI_DAT0*%
X149320000Y-89090000D03*
%TO.P,J5,5*%
%TO.N,GND*%
X147320000Y-89090000D03*
%TO.P,J5,4*%
X149320000Y-87090000D03*
%TO.P,J5,3*%
X147320000Y-87090000D03*
%TO.P,J5,2*%
%TO.N,VCC*%
X149320000Y-85090000D03*
D18*
%TO.P,J5,1*%
%TO.N,N/C*%
X147320000Y-85090000D03*
%TD*%
D16*
%TO.P,J3,1*%
%TO.N,+3V3*%
X190500000Y-124460000D03*
D15*
%TO.P,J3,2*%
%TO.N,GND*%
X193040000Y-124460000D03*
%TO.P,J3,3*%
%TO.N,/SCSI_BSY*%
X195580000Y-124460000D03*
%TO.P,J3,4*%
%TO.N,/SCSI_ACK*%
X198120000Y-124460000D03*
%TD*%
D19*
%TO.P,MicroSD,1*%
%TO.N,N/C*%
X226765000Y-82180000D03*
D20*
%TO.P,MicroSD,8*%
X234415000Y-82180000D03*
D19*
%TO.P,MicroSD,2*%
%TO.N,/SD_CS*%
X227865000Y-82180000D03*
%TO.P,MicroSD,3*%
%TO.N,/SD_MOSI*%
X228965000Y-82180000D03*
%TO.P,MicroSD,4*%
%TO.N,+3V3*%
X230065000Y-82180000D03*
%TO.P,MicroSD,5*%
%TO.N,/SD_CLK*%
X231165000Y-82180000D03*
%TO.P,MicroSD,6*%
%TO.N,GND*%
X232265000Y-82180000D03*
%TO.P,MicroSD,7*%
%TO.N,/SD_MISO*%
X233365000Y-82180000D03*
D21*
%TO.P,MicroSD,11*%
%TO.N,N/C*%
X235625000Y-82530000D03*
D22*
X224305000Y-82305000D03*
D23*
%TO.P,MicroSD,10*%
X224130000Y-92030000D03*
%TO.P,MicroSD,9*%
%TO.N,GND*%
X224130000Y-88330000D03*
D24*
%TO.P,MicroSD,11*%
%TO.N,N/C*%
X227630000Y-93005000D03*
X233600000Y-93005000D03*
%TD*%
D25*
%TO.N,/SD_CS*%
X227606300Y-83363900D03*
%TO.N,/SCSI_ACK*%
X156681000Y-110798000D03*
%TD*%
D26*
%TO.N,GND*%
X225101200Y-90126500D02*
X224130000Y-89155300D01*
X228193000Y-115570000D02*
X224894400Y-112271400D01*
X224894400Y-112271400D02*
X224894400Y-93010800D01*
X224894400Y-93010800D02*
X225101200Y-92804000D01*
X225101200Y-92804000D02*
X225101200Y-90126500D01*
X225101200Y-90126500D02*
X229973600Y-90126500D01*
X229973600Y-90126500D02*
X236535300Y-83564800D01*
X236535300Y-83564800D02*
X236535300Y-81422900D01*
X236535300Y-81422900D02*
X236417100Y-81304700D01*
X236417100Y-81304700D02*
X232265000Y-81304700D01*
X232265000Y-82180000D02*
X232265000Y-81304700D01*
X224130000Y-88330000D02*
X224130000Y-89155300D01*
X228193000Y-115570000D02*
X228650800Y-115570000D01*
X193040000Y-121148000D02*
X222479000Y-121148000D01*
X222479000Y-121148000D02*
X227462000Y-116164000D01*
X227462000Y-116164000D02*
X227462000Y-115570000D01*
X227462000Y-115570000D02*
X228193000Y-115570000D01*
X185471000Y-100330000D02*
X185470800Y-100330000D01*
X185471000Y-100330000D02*
X186660000Y-100330000D01*
X147320000Y-111090000D02*
X146264000Y-110034000D01*
X146264000Y-110034000D02*
X146264000Y-108146000D01*
X146264000Y-108146000D02*
X147320000Y-107090000D01*
X147320000Y-115090000D02*
X146264000Y-114034000D01*
X146264000Y-114034000D02*
X146264000Y-112146000D01*
X146264000Y-112146000D02*
X147320000Y-111090000D01*
X228650800Y-115570000D02*
X228651000Y-115570000D01*
X193040000Y-124460000D02*
X193040000Y-121148000D01*
X166370000Y-119380000D02*
X165195000Y-119380000D01*
X165195000Y-119380000D02*
X164019000Y-120555000D01*
X164019000Y-120555000D02*
X159730000Y-120555000D01*
X159730000Y-120555000D02*
X156160000Y-124126000D01*
X156160000Y-124126000D02*
X146932000Y-124126000D01*
X146932000Y-124126000D02*
X146303000Y-123497000D01*
X146303000Y-123497000D02*
X146303000Y-120107000D01*
X166370000Y-119380000D02*
X167545000Y-119380000D01*
X167545000Y-119380000D02*
X169313000Y-121148000D01*
X169313000Y-121148000D02*
X193040000Y-121148000D01*
X149320000Y-121090000D02*
X147320000Y-121090000D01*
X146337000Y-120107000D02*
X146303000Y-120107000D01*
%TO.N,/SD_MISO*%
X205790800Y-100330000D02*
X206979700Y-100330000D01*
X233365000Y-82180000D02*
X233365000Y-83055300D01*
X233365000Y-83055300D02*
X228915600Y-87504700D01*
X228915600Y-87504700D02*
X223395200Y-87504700D01*
X223395200Y-87504700D02*
X212221800Y-98678100D01*
X212221800Y-98678100D02*
X212221800Y-100944200D01*
X212221800Y-100944200D02*
X211367600Y-101798400D01*
X211367600Y-101798400D02*
X207853700Y-101798400D01*
X207853700Y-101798400D02*
X206979700Y-100924400D01*
X206979700Y-100924400D02*
X206979700Y-100330000D01*
%TO.N,/SD_CLK*%
X208330800Y-100330000D02*
X209519700Y-100330000D01*
X231165000Y-82180000D02*
X231165000Y-83055300D01*
X231165000Y-83055300D02*
X228565900Y-85654400D01*
X228565900Y-85654400D02*
X223600900Y-85654400D01*
X223600900Y-85654400D02*
X209519700Y-99735600D01*
X209519700Y-99735600D02*
X209519700Y-100330000D01*
%TO.N,+3V3*%
X232430500Y-115570000D02*
X236989600Y-111010900D01*
X236989600Y-111010900D02*
X236989600Y-81232500D01*
X236989600Y-81232500D02*
X236611500Y-80854400D01*
X236611500Y-80854400D02*
X230515300Y-80854400D01*
X230515300Y-80854400D02*
X230065000Y-81304700D01*
X230065000Y-82180000D02*
X230065000Y-81304700D01*
X231241600Y-115570000D02*
X232430500Y-115570000D01*
X188011000Y-100330000D02*
X188010800Y-100330000D01*
X188011000Y-100330000D02*
X189200000Y-100330000D01*
%TO.N,/SD_MOSI*%
X228965000Y-83055300D02*
X227897500Y-84122800D01*
X227897500Y-84122800D02*
X220052400Y-84122800D01*
X220052400Y-84122800D02*
X204439700Y-99735500D01*
X204439700Y-99735500D02*
X204439700Y-100330000D01*
X203250800Y-100330000D02*
X204439700Y-100330000D01*
X228965000Y-82180000D02*
X228965000Y-83055300D01*
%TO.N,/SD_CS*%
X227865000Y-82180000D02*
X227865000Y-83055300D01*
X227865000Y-83055300D02*
X227606300Y-83314000D01*
X227606300Y-83314000D02*
X227606300Y-83363900D01*
%TO.N,/SCSI_ACK*%
X198170800Y-115570000D02*
X198171000Y-115570000D01*
X166370000Y-105410000D02*
X167495000Y-105410000D01*
X167495000Y-105410000D02*
X168621000Y-106535000D01*
X168621000Y-106535000D02*
X176094000Y-106535000D01*
X176094000Y-106535000D02*
X181828000Y-112269000D01*
X181828000Y-112269000D02*
X194275000Y-112269000D01*
X194275000Y-112269000D02*
X196982000Y-114976000D01*
X196982000Y-114976000D02*
X196982000Y-115570000D01*
X196982000Y-115570000D02*
X198170800Y-115570000D01*
X156681000Y-110798000D02*
X150612000Y-110798000D01*
X150612000Y-110798000D02*
X150320000Y-111090000D01*
X150320000Y-111090000D02*
X149320000Y-111090000D01*
X166370000Y-105410000D02*
X162560000Y-105410000D01*
%TO.N,/SCSI_BSY*%
X195630800Y-115570000D02*
X194442000Y-115570000D01*
X194442000Y-115570000D02*
X194442000Y-116164000D01*
X194442000Y-116164000D02*
X193582000Y-117024000D01*
X193582000Y-117024000D02*
X180994000Y-117024000D01*
X180994000Y-117024000D02*
X178414000Y-114445000D01*
X178414000Y-114445000D02*
X162524000Y-114445000D01*
X162524000Y-114445000D02*
X157169000Y-109090000D01*
X157169000Y-109090000D02*
X149320000Y-109090000D01*
X195631000Y-115570000D02*
X195630800Y-115570000D01*
X166370000Y-97790000D02*
X162560000Y-97790000D01*
%TO.N,/SCSI_REQ*%
X215950800Y-115570000D02*
X215951000Y-115570000D01*
X149320000Y-119090000D02*
X150320000Y-119090000D01*
X150320000Y-119090000D02*
X151664000Y-117746000D01*
X151664000Y-117746000D02*
X179487000Y-117746000D01*
X179487000Y-117746000D02*
X180115000Y-118375000D01*
X180115000Y-118375000D02*
X212552000Y-118375000D01*
X212552000Y-118375000D02*
X214762000Y-116164000D01*
X214762000Y-116164000D02*
X214762000Y-115570000D01*
X214762000Y-115570000D02*
X215950800Y-115570000D01*
X166370000Y-90170000D02*
X162560000Y-90170000D01*
%TO.N,/SCSI_CD*%
X213410800Y-115570000D02*
X213411000Y-115570000D01*
X149320000Y-117090000D02*
X179468000Y-117090000D01*
X179468000Y-117090000D02*
X180302000Y-117924000D01*
X180302000Y-117924000D02*
X210462000Y-117924000D01*
X210462000Y-117924000D02*
X212222000Y-116164000D01*
X212222000Y-116164000D02*
X212222000Y-115570000D01*
X212222000Y-115570000D02*
X213410800Y-115570000D01*
X166370000Y-92710000D02*
X162560000Y-92710000D01*
%TO.N,/SCSI_IO*%
X147320000Y-117090000D02*
X145755000Y-115525000D01*
X145755000Y-115525000D02*
X145755000Y-84789900D01*
X145755000Y-84789900D02*
X146510000Y-84035400D01*
X146510000Y-84035400D02*
X157840000Y-84035400D01*
X157840000Y-84035400D02*
X161435000Y-87630000D01*
X161435000Y-87630000D02*
X162560000Y-87630000D01*
X166370000Y-87630000D02*
X162560000Y-87630000D01*
%TO.N,/SCSI_SEL*%
X210870800Y-115570000D02*
X210871000Y-115570000D01*
X149320000Y-115090000D02*
X178104000Y-115090000D01*
X178104000Y-115090000D02*
X180489000Y-117474000D01*
X180489000Y-117474000D02*
X208372000Y-117474000D01*
X208372000Y-117474000D02*
X209682000Y-116164000D01*
X209682000Y-116164000D02*
X209682000Y-115570000D01*
X209682000Y-115570000D02*
X210870800Y-115570000D01*
X166370000Y-100330000D02*
X162560000Y-100330000D01*
%TO.N,/SCSI_MSG*%
X208330800Y-115570000D02*
X208331000Y-115570000D01*
X166370000Y-95250000D02*
X167495000Y-95250000D01*
X167495000Y-95250000D02*
X168621000Y-96375300D01*
X168621000Y-96375300D02*
X175686000Y-96375300D01*
X175686000Y-96375300D02*
X188612000Y-109301000D01*
X188612000Y-109301000D02*
X201467000Y-109301000D01*
X201467000Y-109301000D02*
X207142000Y-114976000D01*
X207142000Y-114976000D02*
X207142000Y-115570000D01*
X207142000Y-115570000D02*
X208330800Y-115570000D01*
X166370000Y-95250000D02*
X162560000Y-95250000D01*
%TO.N,/SCSI_RST*%
X205790800Y-115570000D02*
X205791000Y-115570000D01*
X166370000Y-102870000D02*
X167495000Y-102870000D01*
X167495000Y-102870000D02*
X168621000Y-103995000D01*
X168621000Y-103995000D02*
X174191000Y-103995000D01*
X174191000Y-103995000D02*
X180271000Y-110076000D01*
X180271000Y-110076000D02*
X199702000Y-110076000D01*
X199702000Y-110076000D02*
X204602000Y-114976000D01*
X204602000Y-114976000D02*
X204602000Y-115570000D01*
X204602000Y-115570000D02*
X205790800Y-115570000D01*
X166370000Y-102870000D02*
X162560000Y-102870000D01*
%TO.N,/SCSI_ATN*%
X193090800Y-115570000D02*
X193091000Y-115570000D01*
X166370000Y-107950000D02*
X167495000Y-107950000D01*
X167495000Y-107950000D02*
X173026000Y-113481000D01*
X173026000Y-113481000D02*
X190407000Y-113481000D01*
X190407000Y-113481000D02*
X191902000Y-114976000D01*
X191902000Y-114976000D02*
X191902000Y-115570000D01*
X191902000Y-115570000D02*
X193090800Y-115570000D01*
X162560000Y-107950000D02*
X166370000Y-107950000D01*
%TO.N,/SCSI_DBP*%
X170180000Y-87630000D02*
X173990000Y-87630000D01*
%TO.N,/SCSI_DAT7*%
X149320000Y-103090000D02*
X150320000Y-103090000D01*
X150320000Y-103090000D02*
X153766000Y-106535000D01*
X153766000Y-106535000D02*
X166718000Y-106535000D01*
X166718000Y-106535000D02*
X168132000Y-107950000D01*
X168132000Y-107950000D02*
X170180000Y-107950000D01*
X170180000Y-107950000D02*
X173990000Y-107950000D01*
%TO.N,/SCSI_DAT6*%
X149320000Y-101090000D02*
X150320000Y-101090000D01*
X150320000Y-101090000D02*
X153226000Y-103995000D01*
X153226000Y-103995000D02*
X166718000Y-103995000D01*
X166718000Y-103995000D02*
X168132000Y-105410000D01*
X168132000Y-105410000D02*
X170180000Y-105410000D01*
X170180000Y-105410000D02*
X173990000Y-105410000D01*
%TO.N,/SCSI_DAT5*%
X149320000Y-99090000D02*
X150320000Y-99090000D01*
X150320000Y-99090000D02*
X152975000Y-101745000D01*
X152975000Y-101745000D02*
X167929000Y-101745000D01*
X167929000Y-101745000D02*
X169055000Y-102870000D01*
X169055000Y-102870000D02*
X170180000Y-102870000D01*
X170180000Y-102870000D02*
X173990000Y-102870000D01*
%TO.N,/SCSI_DAT4*%
X170180000Y-100330000D02*
X173990000Y-100330000D01*
X149320000Y-97090000D02*
X150320000Y-97090000D01*
X150320000Y-97090000D02*
X152435000Y-99204700D01*
X152435000Y-99204700D02*
X167929000Y-99204700D01*
X167929000Y-99204700D02*
X169055000Y-100330000D01*
X169055000Y-100330000D02*
X170180000Y-100330000D01*
%TO.N,/SCSI_DAT3*%
X149320000Y-95090000D02*
X150320000Y-95090000D01*
X150320000Y-95090000D02*
X151750000Y-96520000D01*
X151750000Y-96520000D02*
X167190000Y-96520000D01*
X167190000Y-96520000D02*
X168460000Y-97790000D01*
X168460000Y-97790000D02*
X170180000Y-97790000D01*
X170180000Y-97790000D02*
X173990000Y-97790000D01*
%TO.N,/SCSI_DAT2*%
X149320000Y-93090000D02*
X150320000Y-93090000D01*
X150320000Y-93090000D02*
X151355000Y-94124700D01*
X151355000Y-94124700D02*
X167929000Y-94124700D01*
X167929000Y-94124700D02*
X169055000Y-95250000D01*
X169055000Y-95250000D02*
X170180000Y-95250000D01*
X170180000Y-95250000D02*
X173990000Y-95250000D01*
%TO.N,/SCSI_DAT1*%
X223570800Y-115570000D02*
X223571000Y-115570000D01*
X173990000Y-92710000D02*
X173990000Y-93835300D01*
X173990000Y-93835300D02*
X174454000Y-93835300D01*
X174454000Y-93835300D02*
X189469000Y-108851000D01*
X189469000Y-108851000D02*
X216257000Y-108851000D01*
X216257000Y-108851000D02*
X222382000Y-114976000D01*
X222382000Y-114976000D02*
X222382000Y-115570000D01*
X222382000Y-115570000D02*
X223570800Y-115570000D01*
X170180000Y-92710000D02*
X173990000Y-92710000D01*
X149320000Y-91090000D02*
X150320000Y-91090000D01*
X150320000Y-91090000D02*
X150815000Y-91584700D01*
X150815000Y-91584700D02*
X167929000Y-91584700D01*
X167929000Y-91584700D02*
X169055000Y-92710000D01*
X169055000Y-92710000D02*
X170180000Y-92710000D01*
%TO.N,/SCSI_DAT0*%
X149320000Y-89090000D02*
X150320000Y-89090000D01*
X150320000Y-89090000D02*
X150536000Y-89305400D01*
X150536000Y-89305400D02*
X159143000Y-89305400D01*
X159143000Y-89305400D02*
X159404000Y-89044700D01*
X159404000Y-89044700D02*
X167929000Y-89044700D01*
X167929000Y-89044700D02*
X169055000Y-90170000D01*
X169055000Y-90170000D02*
X170180000Y-90170000D01*
X170180000Y-90170000D02*
X173990000Y-90170000D01*
%TO.N,VCC*%
X226110800Y-115570000D02*
X226111000Y-115570000D01*
X162560000Y-119380000D02*
X163735000Y-119380000D01*
X163735000Y-119380000D02*
X164919000Y-118197000D01*
X164919000Y-118197000D02*
X175240000Y-118197000D01*
X175240000Y-118197000D02*
X175869000Y-118825000D01*
X175869000Y-118825000D02*
X222261000Y-118825000D01*
X222261000Y-118825000D02*
X224922000Y-116164000D01*
X224922000Y-116164000D02*
X224922000Y-115570000D01*
X224922000Y-115570000D02*
X226110800Y-115570000D01*
%TO.N,Net-(JP1-Pad1)*%
X166370000Y-85090000D02*
X167495000Y-85090000D01*
X167495000Y-85090000D02*
X168621000Y-86215300D01*
X168621000Y-86215300D02*
X171739000Y-86215300D01*
X171739000Y-86215300D02*
X172865000Y-85090000D01*
X172865000Y-85090000D02*
X173990000Y-85090000D01*
%TO.N,Net-(JP2-Pad1)*%
X162560000Y-85090000D02*
X163685000Y-85090000D01*
X163685000Y-85090000D02*
X164811000Y-83964700D01*
X164811000Y-83964700D02*
X167929000Y-83964700D01*
X167929000Y-83964700D02*
X169055000Y-85090000D01*
X169055000Y-85090000D02*
X170180000Y-85090000D01*
%TD*%
D27*
%TO.N,GND*%
X236830000Y-80126483D02*
X236760486Y-80105397D01*
X236648833Y-80094400D01*
X236648822Y-80094400D01*
X236611500Y-80090724D01*
X236574178Y-80094400D01*
X230552622Y-80094400D01*
X230515299Y-80090724D01*
X230477976Y-80094400D01*
X230477967Y-80094400D01*
X230366314Y-80105397D01*
X230223053Y-80148854D01*
X230091024Y-80219426D01*
X229975299Y-80314399D01*
X229951496Y-80343403D01*
X229553998Y-80740901D01*
X229525000Y-80764699D01*
X229501202Y-80793697D01*
X229501201Y-80793698D01*
X229430026Y-80880424D01*
X229370425Y-80991928D01*
X228540000Y-80991928D01*
X228415518Y-81004188D01*
X228415000Y-81004345D01*
X228414482Y-81004188D01*
X228290000Y-80991928D01*
X227440000Y-80991928D01*
X227315518Y-81004188D01*
X227315000Y-81004345D01*
X227314482Y-81004188D01*
X227190000Y-80991928D01*
X226340000Y-80991928D01*
X226215518Y-81004188D01*
X226095820Y-81040498D01*
X225985506Y-81099463D01*
X225888815Y-81178815D01*
X225809463Y-81275506D01*
X225750498Y-81385820D01*
X225714188Y-81505518D01*
X225710000Y-81548041D01*
X225705812Y-81505518D01*
X225669502Y-81385820D01*
X225610537Y-81275506D01*
X225531185Y-81178815D01*
X225434494Y-81099463D01*
X225324180Y-81040498D01*
X225204482Y-81004188D01*
X225080000Y-80991928D01*
X223530000Y-80991928D01*
X223405518Y-81004188D01*
X223285820Y-81040498D01*
X223175506Y-81099463D01*
X223078815Y-81178815D01*
X222999463Y-81275506D01*
X222940498Y-81385820D01*
X222904188Y-81505518D01*
X222891928Y-81630000D01*
X222891928Y-82980000D01*
X222904188Y-83104482D01*
X222940498Y-83224180D01*
X222999463Y-83334494D01*
X223022693Y-83362800D01*
X220089722Y-83362800D01*
X220052399Y-83359124D01*
X220015076Y-83362800D01*
X220015067Y-83362800D01*
X219903414Y-83373797D01*
X219760153Y-83417254D01*
X219628123Y-83487826D01*
X219597588Y-83512886D01*
X219512399Y-83582799D01*
X219488601Y-83611797D01*
X204195312Y-98905087D01*
X204087406Y-98816531D01*
X203827064Y-98677375D01*
X203544577Y-98591684D01*
X203250800Y-98562749D01*
X202957024Y-98591684D01*
X202674537Y-98677375D01*
X202414195Y-98816531D01*
X202186003Y-99003803D01*
X201998731Y-99231994D01*
X201980800Y-99265540D01*
X201962869Y-99231994D01*
X201775597Y-99003803D01*
X201547406Y-98816531D01*
X201287064Y-98677375D01*
X201004577Y-98591684D01*
X200710800Y-98562749D01*
X200417024Y-98591684D01*
X200134537Y-98677375D01*
X199874195Y-98816531D01*
X199646003Y-99003803D01*
X199458731Y-99231994D01*
X199440800Y-99265540D01*
X199422869Y-99231994D01*
X199235597Y-99003803D01*
X199007406Y-98816531D01*
X198747064Y-98677375D01*
X198464577Y-98591684D01*
X198170800Y-98562749D01*
X197877024Y-98591684D01*
X197594537Y-98677375D01*
X197334195Y-98816531D01*
X197106003Y-99003803D01*
X196918731Y-99231994D01*
X196900800Y-99265540D01*
X196882869Y-99231994D01*
X196695597Y-99003803D01*
X196467406Y-98816531D01*
X196207064Y-98677375D01*
X195924577Y-98591684D01*
X195630800Y-98562749D01*
X195337024Y-98591684D01*
X195054537Y-98677375D01*
X194794195Y-98816531D01*
X194566003Y-99003803D01*
X194378731Y-99231994D01*
X194360800Y-99265540D01*
X194342869Y-99231994D01*
X194155597Y-99003803D01*
X193927406Y-98816531D01*
X193667064Y-98677375D01*
X193384577Y-98591684D01*
X193090800Y-98562749D01*
X192797024Y-98591684D01*
X192514537Y-98677375D01*
X192254195Y-98816531D01*
X192026003Y-99003803D01*
X191838731Y-99231994D01*
X191820800Y-99265540D01*
X191802869Y-99231994D01*
X191615597Y-99003803D01*
X191387406Y-98816531D01*
X191127064Y-98677375D01*
X190844577Y-98591684D01*
X190550800Y-98562749D01*
X190257024Y-98591684D01*
X189974537Y-98677375D01*
X189714195Y-98816531D01*
X189486003Y-99003803D01*
X189298731Y-99231994D01*
X189280800Y-99265540D01*
X189262869Y-99231994D01*
X189075597Y-99003803D01*
X188847406Y-98816531D01*
X188587064Y-98677375D01*
X188304577Y-98591684D01*
X188010800Y-98562749D01*
X187717024Y-98591684D01*
X187434537Y-98677375D01*
X187174195Y-98816531D01*
X186946003Y-99003803D01*
X186758731Y-99231994D01*
X186737693Y-99271353D01*
X186646283Y-99130426D01*
X186440668Y-98919127D01*
X186197781Y-98752002D01*
X185926957Y-98635473D01*
X185829826Y-98613642D01*
X185597800Y-98734783D01*
X185597800Y-100203000D01*
X185617800Y-100203000D01*
X185617800Y-100457000D01*
X185597800Y-100457000D01*
X185597800Y-101925217D01*
X185829826Y-102046358D01*
X185926957Y-102024527D01*
X186197781Y-101907998D01*
X186440668Y-101740873D01*
X186646283Y-101529574D01*
X186737694Y-101388647D01*
X186758731Y-101428005D01*
X186946003Y-101656197D01*
X187174194Y-101843469D01*
X187434536Y-101982625D01*
X187717023Y-102068316D01*
X188010800Y-102097251D01*
X188304576Y-102068316D01*
X188587063Y-101982625D01*
X188847405Y-101843469D01*
X189075597Y-101656197D01*
X189262869Y-101428006D01*
X189280800Y-101394459D01*
X189298731Y-101428005D01*
X189486003Y-101656197D01*
X189714194Y-101843469D01*
X189974536Y-101982625D01*
X190257023Y-102068316D01*
X190550800Y-102097251D01*
X190844576Y-102068316D01*
X191127063Y-101982625D01*
X191387405Y-101843469D01*
X191615597Y-101656197D01*
X191802869Y-101428006D01*
X191820800Y-101394459D01*
X191838731Y-101428005D01*
X192026003Y-101656197D01*
X192254194Y-101843469D01*
X192514536Y-101982625D01*
X192797023Y-102068316D01*
X193090800Y-102097251D01*
X193384576Y-102068316D01*
X193667063Y-101982625D01*
X193927405Y-101843469D01*
X194155597Y-101656197D01*
X194342869Y-101428006D01*
X194360800Y-101394459D01*
X194378731Y-101428005D01*
X194566003Y-101656197D01*
X194794194Y-101843469D01*
X195054536Y-101982625D01*
X195337023Y-102068316D01*
X195630800Y-102097251D01*
X195924576Y-102068316D01*
X196207063Y-101982625D01*
X196467405Y-101843469D01*
X196695597Y-101656197D01*
X196882869Y-101428006D01*
X196900800Y-101394459D01*
X196918731Y-101428005D01*
X197106003Y-101656197D01*
X197334194Y-101843469D01*
X197594536Y-101982625D01*
X197877023Y-102068316D01*
X198170800Y-102097251D01*
X198464576Y-102068316D01*
X198747063Y-101982625D01*
X199007405Y-101843469D01*
X199235597Y-101656197D01*
X199422869Y-101428006D01*
X199440800Y-101394459D01*
X199458731Y-101428005D01*
X199646003Y-101656197D01*
X199874194Y-101843469D01*
X200134536Y-101982625D01*
X200417023Y-102068316D01*
X200710800Y-102097251D01*
X201004576Y-102068316D01*
X201287063Y-101982625D01*
X201547405Y-101843469D01*
X201775597Y-101656197D01*
X201962869Y-101428006D01*
X201980800Y-101394459D01*
X201998731Y-101428005D01*
X202186003Y-101656197D01*
X202414194Y-101843469D01*
X202674536Y-101982625D01*
X202957023Y-102068316D01*
X203250800Y-102097251D01*
X203544576Y-102068316D01*
X203827063Y-101982625D01*
X204087405Y-101843469D01*
X204315597Y-101656197D01*
X204502869Y-101428006D01*
X204520800Y-101394459D01*
X204538731Y-101428005D01*
X204726003Y-101656197D01*
X204954194Y-101843469D01*
X205214536Y-101982625D01*
X205497023Y-102068316D01*
X205790800Y-102097251D01*
X206084576Y-102068316D01*
X206367063Y-101982625D01*
X206627405Y-101843469D01*
X206735366Y-101754868D01*
X207289901Y-102309403D01*
X207313699Y-102338401D01*
X207429424Y-102433374D01*
X207561453Y-102503946D01*
X207704714Y-102547403D01*
X207816367Y-102558400D01*
X207816375Y-102558400D01*
X207853700Y-102562076D01*
X207891025Y-102558400D01*
X211330278Y-102558400D01*
X211367600Y-102562076D01*
X211404922Y-102558400D01*
X211404933Y-102558400D01*
X211516586Y-102547403D01*
X211659847Y-102503946D01*
X211791876Y-102433374D01*
X211907601Y-102338401D01*
X211931403Y-102309398D01*
X212477054Y-101763748D01*
X212574194Y-101843469D01*
X212834536Y-101982625D01*
X213117023Y-102068316D01*
X213410800Y-102097251D01*
X213704576Y-102068316D01*
X213987063Y-101982625D01*
X214247405Y-101843469D01*
X214475597Y-101656197D01*
X214662869Y-101428006D01*
X214680800Y-101394459D01*
X214698731Y-101428005D01*
X214886003Y-101656197D01*
X215114194Y-101843469D01*
X215374536Y-101982625D01*
X215657023Y-102068316D01*
X215950800Y-102097251D01*
X216244576Y-102068316D01*
X216527063Y-101982625D01*
X216787405Y-101843469D01*
X217015597Y-101656197D01*
X217202869Y-101428006D01*
X217220800Y-101394459D01*
X217238731Y-101428005D01*
X217426003Y-101656197D01*
X217654194Y-101843469D01*
X217914536Y-101982625D01*
X218197023Y-102068316D01*
X218490800Y-102097251D01*
X218784576Y-102068316D01*
X219067063Y-101982625D01*
X219327405Y-101843469D01*
X219555597Y-101656197D01*
X219742869Y-101428006D01*
X219760800Y-101394459D01*
X219778731Y-101428005D01*
X219966003Y-101656197D01*
X220194194Y-101843469D01*
X220454536Y-101982625D01*
X220737023Y-102068316D01*
X221030800Y-102097251D01*
X221324576Y-102068316D01*
X221607063Y-101982625D01*
X221867405Y-101843469D01*
X222095597Y-101656197D01*
X222282869Y-101428006D01*
X222300800Y-101394459D01*
X222318731Y-101428005D01*
X222506003Y-101656197D01*
X222734194Y-101843469D01*
X222994536Y-101982625D01*
X223277023Y-102068316D01*
X223570800Y-102097251D01*
X223864576Y-102068316D01*
X224147063Y-101982625D01*
X224407405Y-101843469D01*
X224635597Y-101656197D01*
X224822869Y-101428006D01*
X224840800Y-101394459D01*
X224858731Y-101428005D01*
X225046003Y-101656197D01*
X225274194Y-101843469D01*
X225534536Y-101982625D01*
X225817023Y-102068316D01*
X226110800Y-102097251D01*
X226404576Y-102068316D01*
X226687063Y-101982625D01*
X226947405Y-101843469D01*
X227175597Y-101656197D01*
X227362869Y-101428006D01*
X227380800Y-101394459D01*
X227398731Y-101428005D01*
X227586003Y-101656197D01*
X227814194Y-101843469D01*
X228074536Y-101982625D01*
X228357023Y-102068316D01*
X228650800Y-102097251D01*
X228944576Y-102068316D01*
X229227063Y-101982625D01*
X229487405Y-101843469D01*
X229715597Y-101656197D01*
X229722214Y-101648135D01*
X229737698Y-101699180D01*
X229796663Y-101809494D01*
X229876015Y-101906185D01*
X229972706Y-101985537D01*
X230083020Y-102044502D01*
X230202718Y-102080812D01*
X230327200Y-102093072D01*
X232054400Y-102093072D01*
X232178882Y-102080812D01*
X232298580Y-102044502D01*
X232408894Y-101985537D01*
X232505585Y-101906185D01*
X232584937Y-101809494D01*
X232643902Y-101699180D01*
X232680212Y-101579482D01*
X232692472Y-101455000D01*
X232692472Y-99205000D01*
X232680212Y-99080518D01*
X232643902Y-98960820D01*
X232584937Y-98850506D01*
X232505585Y-98753815D01*
X232408894Y-98674463D01*
X232298580Y-98615498D01*
X232178882Y-98579188D01*
X232054400Y-98566928D01*
X230327200Y-98566928D01*
X230202718Y-98579188D01*
X230083020Y-98615498D01*
X229972706Y-98674463D01*
X229876015Y-98753815D01*
X229796663Y-98850506D01*
X229737698Y-98960820D01*
X229722214Y-99011865D01*
X229715597Y-99003803D01*
X229487406Y-98816531D01*
X229227064Y-98677375D01*
X228944577Y-98591684D01*
X228650800Y-98562749D01*
X228357024Y-98591684D01*
X228074537Y-98677375D01*
X227814195Y-98816531D01*
X227586003Y-99003803D01*
X227398731Y-99231994D01*
X227380800Y-99265540D01*
X227362869Y-99231994D01*
X227175597Y-99003803D01*
X226947406Y-98816531D01*
X226687064Y-98677375D01*
X226404577Y-98591684D01*
X226110800Y-98562749D01*
X225817024Y-98591684D01*
X225534537Y-98677375D01*
X225274195Y-98816531D01*
X225046003Y-99003803D01*
X224858731Y-99231994D01*
X224840800Y-99265540D01*
X224822869Y-99231994D01*
X224635597Y-99003803D01*
X224407406Y-98816531D01*
X224147064Y-98677375D01*
X223864577Y-98591684D01*
X223570800Y-98562749D01*
X223277024Y-98591684D01*
X222994537Y-98677375D01*
X222734195Y-98816531D01*
X222506003Y-99003803D01*
X222318731Y-99231994D01*
X222300800Y-99265540D01*
X222282869Y-99231994D01*
X222095597Y-99003803D01*
X221867406Y-98816531D01*
X221607064Y-98677375D01*
X221324577Y-98591684D01*
X221030800Y-98562749D01*
X220737024Y-98591684D01*
X220454537Y-98677375D01*
X220194195Y-98816531D01*
X219966003Y-99003803D01*
X219778731Y-99231994D01*
X219760800Y-99265540D01*
X219742869Y-99231994D01*
X219555597Y-99003803D01*
X219327406Y-98816531D01*
X219067064Y-98677375D01*
X218784577Y-98591684D01*
X218490800Y-98562749D01*
X218197024Y-98591684D01*
X217914537Y-98677375D01*
X217654195Y-98816531D01*
X217426003Y-99003803D01*
X217238731Y-99231994D01*
X217220800Y-99265540D01*
X217202869Y-99231994D01*
X217015597Y-99003803D01*
X216787406Y-98816531D01*
X216527064Y-98677375D01*
X216244577Y-98591684D01*
X215950800Y-98562749D01*
X215657024Y-98591684D01*
X215374537Y-98677375D01*
X215114195Y-98816531D01*
X214886003Y-99003803D01*
X214698731Y-99231994D01*
X214680800Y-99265540D01*
X214662869Y-99231994D01*
X214475597Y-99003803D01*
X214247406Y-98816531D01*
X213987064Y-98677375D01*
X213704577Y-98591684D01*
X213411849Y-98562852D01*
X220444701Y-91530000D01*
X222891928Y-91530000D01*
X222891928Y-92530000D01*
X222904188Y-92654482D01*
X222940498Y-92774180D01*
X222999463Y-92884494D01*
X223078815Y-92981185D01*
X223175506Y-93060537D01*
X223285820Y-93119502D01*
X223405518Y-93155812D01*
X223530000Y-93168072D01*
X224730000Y-93168072D01*
X224854482Y-93155812D01*
X224974180Y-93119502D01*
X225084494Y-93060537D01*
X225181185Y-92981185D01*
X225260537Y-92884494D01*
X225319502Y-92774180D01*
X225355812Y-92654482D01*
X225368072Y-92530000D01*
X225368072Y-92330000D01*
X226041928Y-92330000D01*
X226041928Y-93680000D01*
X226054188Y-93804482D01*
X226090498Y-93924180D01*
X226149463Y-94034494D01*
X226228815Y-94131185D01*
X226325506Y-94210537D01*
X226435820Y-94269502D01*
X226555518Y-94305812D01*
X226680000Y-94318072D01*
X228580000Y-94318072D01*
X228704482Y-94305812D01*
X228824180Y-94269502D01*
X228934494Y-94210537D01*
X229031185Y-94131185D01*
X229110537Y-94034494D01*
X229169502Y-93924180D01*
X229205812Y-93804482D01*
X229218072Y-93680000D01*
X229218072Y-92330000D01*
X232011928Y-92330000D01*
X232011928Y-93680000D01*
X232024188Y-93804482D01*
X232060498Y-93924180D01*
X232119463Y-94034494D01*
X232198815Y-94131185D01*
X232295506Y-94210537D01*
X232405820Y-94269502D01*
X232525518Y-94305812D01*
X232650000Y-94318072D01*
X234550000Y-94318072D01*
X234674482Y-94305812D01*
X234794180Y-94269502D01*
X234904494Y-94210537D01*
X235001185Y-94131185D01*
X235080537Y-94034494D01*
X235139502Y-93924180D01*
X235175812Y-93804482D01*
X235188072Y-93680000D01*
X235188072Y-92330000D01*
X235175812Y-92205518D01*
X235139502Y-92085820D01*
X235080537Y-91975506D01*
X235001185Y-91878815D01*
X234904494Y-91799463D01*
X234794180Y-91740498D01*
X234674482Y-91704188D01*
X234550000Y-91691928D01*
X232650000Y-91691928D01*
X232525518Y-91704188D01*
X232405820Y-91740498D01*
X232295506Y-91799463D01*
X232198815Y-91878815D01*
X232119463Y-91975506D01*
X232060498Y-92085820D01*
X232024188Y-92205518D01*
X232011928Y-92330000D01*
X229218072Y-92330000D01*
X229205812Y-92205518D01*
X229169502Y-92085820D01*
X229110537Y-91975506D01*
X229031185Y-91878815D01*
X228934494Y-91799463D01*
X228824180Y-91740498D01*
X228704482Y-91704188D01*
X228580000Y-91691928D01*
X226680000Y-91691928D01*
X226555518Y-91704188D01*
X226435820Y-91740498D01*
X226325506Y-91799463D01*
X226228815Y-91878815D01*
X226149463Y-91975506D01*
X226090498Y-92085820D01*
X226054188Y-92205518D01*
X226041928Y-92330000D01*
X225368072Y-92330000D01*
X225368072Y-91530000D01*
X225355812Y-91405518D01*
X225319502Y-91285820D01*
X225260537Y-91175506D01*
X225181185Y-91078815D01*
X225084494Y-90999463D01*
X224974180Y-90940498D01*
X224854482Y-90904188D01*
X224730000Y-90891928D01*
X223530000Y-90891928D01*
X223405518Y-90904188D01*
X223285820Y-90940498D01*
X223175506Y-90999463D01*
X223078815Y-91078815D01*
X222999463Y-91175506D01*
X222940498Y-91285820D01*
X222904188Y-91405518D01*
X222891928Y-91530000D01*
X220444701Y-91530000D01*
X222931194Y-89043508D01*
X222940498Y-89074180D01*
X222999463Y-89184494D01*
X223078815Y-89281185D01*
X223175506Y-89360537D01*
X223285820Y-89419502D01*
X223405518Y-89455812D01*
X223530000Y-89468072D01*
X223844250Y-89465000D01*
X224003000Y-89306250D01*
X224003000Y-88457000D01*
X224257000Y-88457000D01*
X224257000Y-89306250D01*
X224415750Y-89465000D01*
X224730000Y-89468072D01*
X224854482Y-89455812D01*
X224974180Y-89419502D01*
X225084494Y-89360537D01*
X225181185Y-89281185D01*
X225260537Y-89184494D01*
X225319502Y-89074180D01*
X225355812Y-88954482D01*
X225368072Y-88830000D01*
X225365000Y-88615750D01*
X225206250Y-88457000D01*
X224257000Y-88457000D01*
X224003000Y-88457000D01*
X223983000Y-88457000D01*
X223983000Y-88264700D01*
X228878278Y-88264700D01*
X228915600Y-88268376D01*
X228952922Y-88264700D01*
X228952933Y-88264700D01*
X229064586Y-88253703D01*
X229207847Y-88210246D01*
X229339876Y-88139674D01*
X229455601Y-88044701D01*
X229479404Y-88015697D01*
X233876003Y-83619099D01*
X233905001Y-83595301D01*
X233999974Y-83479576D01*
X234059575Y-83368072D01*
X234401928Y-83368072D01*
X234401928Y-83430000D01*
X234414188Y-83554482D01*
X234450498Y-83674180D01*
X234509463Y-83784494D01*
X234588815Y-83881185D01*
X234685506Y-83960537D01*
X234795820Y-84019502D01*
X234915518Y-84055812D01*
X235040000Y-84068072D01*
X236210000Y-84068072D01*
X236229601Y-84066142D01*
X236229600Y-110696098D01*
X232475655Y-114450044D01*
X232306397Y-114243803D01*
X232078205Y-114056531D01*
X231817863Y-113917375D01*
X231535376Y-113831684D01*
X231241600Y-113802749D01*
X230947823Y-113831684D01*
X230665336Y-113917375D01*
X230404994Y-114056531D01*
X230176803Y-114243803D01*
X229989531Y-114471995D01*
X229945544Y-114554289D01*
X229826283Y-114370426D01*
X229620668Y-114159127D01*
X229377781Y-113992002D01*
X229106957Y-113875473D01*
X229009826Y-113853642D01*
X228777800Y-113974783D01*
X228777800Y-115443000D01*
X228797800Y-115443000D01*
X228797800Y-115697000D01*
X228777800Y-115697000D01*
X228777800Y-117165217D01*
X229009826Y-117286358D01*
X229106957Y-117264527D01*
X229377781Y-117147998D01*
X229620668Y-116980873D01*
X229826283Y-116769574D01*
X229945543Y-116585711D01*
X229989531Y-116668006D01*
X230176803Y-116896197D01*
X230404995Y-117083469D01*
X230665337Y-117222625D01*
X230947824Y-117308316D01*
X231241600Y-117337251D01*
X231535377Y-117308316D01*
X231817864Y-117222625D01*
X232078206Y-117083469D01*
X232306397Y-116896197D01*
X232493669Y-116668006D01*
X232632825Y-116407664D01*
X232667851Y-116292198D01*
X232722747Y-116275546D01*
X232854776Y-116204974D01*
X232970501Y-116110001D01*
X232994304Y-116080997D01*
X236830001Y-112245301D01*
X236830001Y-126340000D01*
X144170000Y-126340000D01*
X144170000Y-122960976D01*
X146010000Y-122960976D01*
X146010000Y-123219024D01*
X146060342Y-123472113D01*
X146159093Y-123710518D01*
X146302456Y-123925077D01*
X146484923Y-124107544D01*
X146699482Y-124250907D01*
X146937887Y-124349658D01*
X147190976Y-124400000D01*
X147449024Y-124400000D01*
X147702113Y-124349658D01*
X147940518Y-124250907D01*
X148155077Y-124107544D01*
X148320000Y-123942621D01*
X148484923Y-124107544D01*
X148699482Y-124250907D01*
X148937887Y-124349658D01*
X149190976Y-124400000D01*
X149449024Y-124400000D01*
X149702113Y-124349658D01*
X149940518Y-124250907D01*
X150155077Y-124107544D01*
X150337544Y-123925077D01*
X150480907Y-123710518D01*
X150522543Y-123610000D01*
X189011928Y-123610000D01*
X189011928Y-125310000D01*
X189024188Y-125434482D01*
X189060498Y-125554180D01*
X189119463Y-125664494D01*
X189198815Y-125761185D01*
X189295506Y-125840537D01*
X189405820Y-125899502D01*
X189525518Y-125935812D01*
X189650000Y-125948072D01*
X191350000Y-125948072D01*
X191474482Y-125935812D01*
X191594180Y-125899502D01*
X191704494Y-125840537D01*
X191801185Y-125761185D01*
X191880537Y-125664494D01*
X191939502Y-125554180D01*
X191963966Y-125473534D01*
X192039731Y-125557588D01*
X192273080Y-125731641D01*
X192535901Y-125856825D01*
X192683110Y-125901476D01*
X192913000Y-125780155D01*
X192913000Y-124587000D01*
X192893000Y-124587000D01*
X192893000Y-124333000D01*
X192913000Y-124333000D01*
X192913000Y-123139845D01*
X193167000Y-123139845D01*
X193167000Y-124333000D01*
X193187000Y-124333000D01*
X193187000Y-124587000D01*
X193167000Y-124587000D01*
X193167000Y-125780155D01*
X193396890Y-125901476D01*
X193544099Y-125856825D01*
X193806920Y-125731641D01*
X194040269Y-125557588D01*
X194235178Y-125341355D01*
X194304805Y-125224466D01*
X194426525Y-125406632D01*
X194633368Y-125613475D01*
X194876589Y-125775990D01*
X195146842Y-125887932D01*
X195433740Y-125945000D01*
X195726260Y-125945000D01*
X196013158Y-125887932D01*
X196283411Y-125775990D01*
X196526632Y-125613475D01*
X196733475Y-125406632D01*
X196850000Y-125232240D01*
X196966525Y-125406632D01*
X197173368Y-125613475D01*
X197416589Y-125775990D01*
X197686842Y-125887932D01*
X197973740Y-125945000D01*
X198266260Y-125945000D01*
X198553158Y-125887932D01*
X198823411Y-125775990D01*
X199066632Y-125613475D01*
X199273475Y-125406632D01*
X199435990Y-125163411D01*
X199547932Y-124893158D01*
X199605000Y-124606260D01*
X199605000Y-124313740D01*
X199547932Y-124026842D01*
X199435990Y-123756589D01*
X199273475Y-123513368D01*
X199066632Y-123306525D01*
X198823411Y-123144010D01*
X198553158Y-123032068D01*
X198364268Y-122994495D01*
X216455000Y-122994495D01*
X216455000Y-123385505D01*
X216531282Y-123769003D01*
X216680915Y-124130250D01*
X216898149Y-124455364D01*
X217174636Y-124731851D01*
X217499750Y-124949085D01*
X217860997Y-125098718D01*
X218244495Y-125175000D01*
X218635505Y-125175000D01*
X219019003Y-125098718D01*
X219380250Y-124949085D01*
X219705364Y-124731851D01*
X219981851Y-124455364D01*
X220199085Y-124130250D01*
X220348718Y-123769003D01*
X220425000Y-123385505D01*
X220425000Y-122994495D01*
X220348718Y-122610997D01*
X220199085Y-122249750D01*
X219981851Y-121924636D01*
X219705364Y-121648149D01*
X219380250Y-121430915D01*
X219019003Y-121281282D01*
X218635505Y-121205000D01*
X218244495Y-121205000D01*
X217860997Y-121281282D01*
X217499750Y-121430915D01*
X217174636Y-121648149D01*
X216898149Y-121924636D01*
X216680915Y-122249750D01*
X216531282Y-122610997D01*
X216455000Y-122994495D01*
X198364268Y-122994495D01*
X198266260Y-122975000D01*
X197973740Y-122975000D01*
X197686842Y-123032068D01*
X197416589Y-123144010D01*
X197173368Y-123306525D01*
X196966525Y-123513368D01*
X196850000Y-123687760D01*
X196733475Y-123513368D01*
X196526632Y-123306525D01*
X196283411Y-123144010D01*
X196013158Y-123032068D01*
X195726260Y-122975000D01*
X195433740Y-122975000D01*
X195146842Y-123032068D01*
X194876589Y-123144010D01*
X194633368Y-123306525D01*
X194426525Y-123513368D01*
X194304805Y-123695534D01*
X194235178Y-123578645D01*
X194040269Y-123362412D01*
X193806920Y-123188359D01*
X193544099Y-123063175D01*
X193396890Y-123018524D01*
X193167000Y-123139845D01*
X192913000Y-123139845D01*
X192683110Y-123018524D01*
X192535901Y-123063175D01*
X192273080Y-123188359D01*
X192039731Y-123362412D01*
X191963966Y-123446466D01*
X191939502Y-123365820D01*
X191880537Y-123255506D01*
X191801185Y-123158815D01*
X191704494Y-123079463D01*
X191594180Y-123020498D01*
X191474482Y-122984188D01*
X191350000Y-122971928D01*
X189650000Y-122971928D01*
X189525518Y-122984188D01*
X189405820Y-123020498D01*
X189295506Y-123079463D01*
X189198815Y-123158815D01*
X189119463Y-123255506D01*
X189060498Y-123365820D01*
X189024188Y-123485518D01*
X189011928Y-123610000D01*
X150522543Y-123610000D01*
X150579658Y-123472113D01*
X150630000Y-123219024D01*
X150630000Y-122960976D01*
X150579658Y-122707887D01*
X150480907Y-122469482D01*
X150337544Y-122254923D01*
X150165940Y-122083319D01*
X150298303Y-121961227D01*
X150449473Y-121753629D01*
X150557238Y-121520528D01*
X150587910Y-121419400D01*
X150464224Y-121217000D01*
X149447000Y-121217000D01*
X149447000Y-121237000D01*
X149193000Y-121237000D01*
X149193000Y-121217000D01*
X147447000Y-121217000D01*
X147447000Y-121237000D01*
X147193000Y-121237000D01*
X147193000Y-121217000D01*
X146175776Y-121217000D01*
X146052090Y-121419400D01*
X146082762Y-121520528D01*
X146190527Y-121753629D01*
X146341697Y-121961227D01*
X146474060Y-122083319D01*
X146302456Y-122254923D01*
X146159093Y-122469482D01*
X146060342Y-122707887D01*
X146010000Y-122960976D01*
X144170000Y-122960976D01*
X144170000Y-119419400D01*
X146052090Y-119419400D01*
X146082762Y-119520528D01*
X146190527Y-119753629D01*
X146341697Y-119961227D01*
X146481304Y-120090000D01*
X146341697Y-120218773D01*
X146190527Y-120426371D01*
X146082762Y-120659472D01*
X146052090Y-120760600D01*
X146175776Y-120963000D01*
X147193000Y-120963000D01*
X147193000Y-119217000D01*
X146175776Y-119217000D01*
X146052090Y-119419400D01*
X144170000Y-119419400D01*
X144170000Y-84789648D01*
X144991324Y-84789648D01*
X144995001Y-84827109D01*
X144995000Y-115487678D01*
X144991324Y-115525000D01*
X144995000Y-115562322D01*
X144995000Y-115562332D01*
X145005997Y-115673985D01*
X145049454Y-115817246D01*
X145120026Y-115949276D01*
X145156957Y-115994276D01*
X145214999Y-116065001D01*
X145244003Y-116088804D01*
X146027615Y-116872417D01*
X146010000Y-116960976D01*
X146010000Y-117219024D01*
X146060342Y-117472113D01*
X146159093Y-117710518D01*
X146302456Y-117925077D01*
X146474060Y-118096681D01*
X146341697Y-118218773D01*
X146190527Y-118426371D01*
X146082762Y-118659472D01*
X146052090Y-118760600D01*
X146175776Y-118963000D01*
X147193000Y-118963000D01*
X147193000Y-118943000D01*
X147447000Y-118943000D01*
X147447000Y-118963000D01*
X147467000Y-118963000D01*
X147467000Y-119217000D01*
X147447000Y-119217000D01*
X147447000Y-120963000D01*
X149193000Y-120963000D01*
X149193000Y-120943000D01*
X149447000Y-120943000D01*
X149447000Y-120963000D01*
X150464224Y-120963000D01*
X150587910Y-120760600D01*
X150557238Y-120659472D01*
X150449473Y-120426371D01*
X150298303Y-120218773D01*
X150165940Y-120096681D01*
X150337544Y-119925077D01*
X150389848Y-119846797D01*
X150468986Y-119839003D01*
X150612247Y-119795546D01*
X150744276Y-119724974D01*
X150860001Y-119630001D01*
X150883804Y-119600997D01*
X151978802Y-118506000D01*
X161357994Y-118506000D01*
X161244010Y-118676589D01*
X161132068Y-118946842D01*
X161075000Y-119233740D01*
X161075000Y-119526260D01*
X161132068Y-119813158D01*
X161244010Y-120083411D01*
X161406525Y-120326632D01*
X161538380Y-120458487D01*
X161465820Y-120480498D01*
X161355506Y-120539463D01*
X161258815Y-120618815D01*
X161179463Y-120715506D01*
X161120498Y-120825820D01*
X161084188Y-120945518D01*
X161071928Y-121070000D01*
X161071928Y-122770000D01*
X161084188Y-122894482D01*
X161120498Y-123014180D01*
X161179463Y-123124494D01*
X161258815Y-123221185D01*
X161355506Y-123300537D01*
X161465820Y-123359502D01*
X161585518Y-123395812D01*
X161710000Y-123408072D01*
X163410000Y-123408072D01*
X163534482Y-123395812D01*
X163654180Y-123359502D01*
X163764494Y-123300537D01*
X163861185Y-123221185D01*
X163940537Y-123124494D01*
X163999502Y-123014180D01*
X164035812Y-122894482D01*
X164048072Y-122770000D01*
X164048072Y-121070000D01*
X164881928Y-121070000D01*
X164881928Y-122770000D01*
X164894188Y-122894482D01*
X164930498Y-123014180D01*
X164989463Y-123124494D01*
X165068815Y-123221185D01*
X165165506Y-123300537D01*
X165275820Y-123359502D01*
X165395518Y-123395812D01*
X165520000Y-123408072D01*
X167220000Y-123408072D01*
X167344482Y-123395812D01*
X167464180Y-123359502D01*
X167574494Y-123300537D01*
X167671185Y-123221185D01*
X167750537Y-123124494D01*
X167809502Y-123014180D01*
X167845812Y-122894482D01*
X167858072Y-122770000D01*
X167858072Y-121070000D01*
X167845812Y-120945518D01*
X167809502Y-120825820D01*
X167750537Y-120715506D01*
X167671185Y-120618815D01*
X167574494Y-120539463D01*
X167464180Y-120480498D01*
X167383534Y-120456034D01*
X167467588Y-120380269D01*
X167641641Y-120146920D01*
X167766825Y-119884099D01*
X167811476Y-119736890D01*
X167690155Y-119507000D01*
X166497000Y-119507000D01*
X166497000Y-119527000D01*
X166243000Y-119527000D01*
X166243000Y-119507000D01*
X165049845Y-119507000D01*
X164928524Y-119736890D01*
X164973175Y-119884099D01*
X165098359Y-120146920D01*
X165272412Y-120380269D01*
X165356466Y-120456034D01*
X165275820Y-120480498D01*
X165165506Y-120539463D01*
X165068815Y-120618815D01*
X164989463Y-120715506D01*
X164930498Y-120825820D01*
X164894188Y-120945518D01*
X164881928Y-121070000D01*
X164048072Y-121070000D01*
X164035812Y-120945518D01*
X163999502Y-120825820D01*
X163940537Y-120715506D01*
X163861185Y-120618815D01*
X163764494Y-120539463D01*
X163654180Y-120480498D01*
X163581620Y-120458487D01*
X163713475Y-120326632D01*
X163842808Y-120133072D01*
X163883669Y-120129065D01*
X163883820Y-120129019D01*
X163883986Y-120129003D01*
X163957312Y-120106760D01*
X164026948Y-120085669D01*
X164027088Y-120085594D01*
X164027247Y-120085546D01*
X164094450Y-120049625D01*
X164159007Y-120015153D01*
X164159130Y-120015052D01*
X164159276Y-120014974D01*
X164217834Y-119966916D01*
X164245764Y-119944015D01*
X164245875Y-119943904D01*
X164275001Y-119920001D01*
X164298700Y-119891124D01*
X165011011Y-119179414D01*
X165049845Y-119253000D01*
X166243000Y-119253000D01*
X166243000Y-119233000D01*
X166497000Y-119233000D01*
X166497000Y-119253000D01*
X167690155Y-119253000D01*
X167811476Y-119023110D01*
X167791424Y-118957000D01*
X174925552Y-118957000D01*
X175305394Y-119336239D01*
X175328999Y-119365001D01*
X175358229Y-119388990D01*
X175358446Y-119389206D01*
X175387256Y-119412811D01*
X175444724Y-119459974D01*
X175444994Y-119460118D01*
X175445229Y-119460311D01*
X175510623Y-119495198D01*
X175576753Y-119530546D01*
X175577048Y-119530635D01*
X175577315Y-119530778D01*
X175648231Y-119552228D01*
X175720014Y-119574003D01*
X175720319Y-119574033D01*
X175720610Y-119574121D01*
X175794170Y-119581307D01*
X175831667Y-119585000D01*
X175831976Y-119585000D01*
X175869607Y-119588676D01*
X175906629Y-119585000D01*
X222223678Y-119585000D01*
X222261000Y-119588676D01*
X222298322Y-119585000D01*
X222298333Y-119585000D01*
X222409986Y-119574003D01*
X222553247Y-119530546D01*
X222685276Y-119459974D01*
X222801001Y-119365001D01*
X222824804Y-119335997D01*
X225166069Y-116994733D01*
X225274195Y-117083469D01*
X225534537Y-117222625D01*
X225817024Y-117308316D01*
X226110800Y-117337251D01*
X226404577Y-117308316D01*
X226687064Y-117222625D01*
X226947406Y-117083469D01*
X227175597Y-116896197D01*
X227362869Y-116668006D01*
X227383907Y-116628647D01*
X227475317Y-116769574D01*
X227680932Y-116980873D01*
X227923819Y-117147998D01*
X228194643Y-117264527D01*
X228291774Y-117286358D01*
X228523800Y-117165217D01*
X228523800Y-115697000D01*
X228503800Y-115697000D01*
X228503800Y-115443000D01*
X228523800Y-115443000D01*
X228523800Y-113974783D01*
X228291774Y-113853642D01*
X228194643Y-113875473D01*
X227923819Y-113992002D01*
X227680932Y-114159127D01*
X227475317Y-114370426D01*
X227383907Y-114511353D01*
X227362869Y-114471994D01*
X227175597Y-114243803D01*
X226947405Y-114056531D01*
X226687063Y-113917375D01*
X226404576Y-113831684D01*
X226110800Y-113802749D01*
X225817023Y-113831684D01*
X225534536Y-113917375D01*
X225274194Y-114056531D01*
X225046003Y-114243803D01*
X224858731Y-114471995D01*
X224840800Y-114505541D01*
X224822869Y-114471994D01*
X224635597Y-114243803D01*
X224407405Y-114056531D01*
X224147063Y-113917375D01*
X223864576Y-113831684D01*
X223570800Y-113802749D01*
X223277023Y-113831684D01*
X222994536Y-113917375D01*
X222734194Y-114056531D01*
X222626069Y-114145267D01*
X216820804Y-108340003D01*
X216797001Y-108310999D01*
X216681276Y-108216026D01*
X216549247Y-108145454D01*
X216405986Y-108101997D01*
X216294333Y-108091000D01*
X216294322Y-108091000D01*
X216257000Y-108087324D01*
X216219678Y-108091000D01*
X189783813Y-108091000D01*
X188235287Y-106542401D01*
X225882200Y-106542401D01*
X225882200Y-106837599D01*
X225939790Y-107127125D01*
X226052758Y-107399853D01*
X226216761Y-107645302D01*
X226425498Y-107854039D01*
X226584081Y-107960000D01*
X226425498Y-108065961D01*
X226216761Y-108274698D01*
X226052758Y-108520147D01*
X225939790Y-108792875D01*
X225882200Y-109082401D01*
X225882200Y-109377599D01*
X225939790Y-109667125D01*
X226052758Y-109939853D01*
X226216761Y-110185302D01*
X226425498Y-110394039D01*
X226670947Y-110558042D01*
X226943675Y-110671010D01*
X227233201Y-110728600D01*
X227528399Y-110728600D01*
X227817925Y-110671010D01*
X228090653Y-110558042D01*
X228336102Y-110394039D01*
X228544839Y-110185302D01*
X228708842Y-109939853D01*
X228821810Y-109667125D01*
X228879400Y-109377599D01*
X228879400Y-109082401D01*
X228821810Y-108792875D01*
X228708842Y-108520147D01*
X228544839Y-108274698D01*
X228336102Y-108065961D01*
X228177519Y-107960000D01*
X228336102Y-107854039D01*
X228544839Y-107645302D01*
X228708842Y-107399853D01*
X228821810Y-107127125D01*
X228879400Y-106837599D01*
X228879400Y-106542401D01*
X228821810Y-106252875D01*
X228708842Y-105980147D01*
X228544839Y-105734698D01*
X228336102Y-105525961D01*
X228090653Y-105361958D01*
X227817925Y-105248990D01*
X227528399Y-105191400D01*
X227233201Y-105191400D01*
X226943675Y-105248990D01*
X226670947Y-105361958D01*
X226425498Y-105525961D01*
X226216761Y-105734698D01*
X226052758Y-105980147D01*
X225939790Y-106252875D01*
X225882200Y-106542401D01*
X188235287Y-106542401D01*
X183618150Y-101925050D01*
X183657781Y-101907998D01*
X183900668Y-101740873D01*
X184106283Y-101529574D01*
X184200800Y-101383858D01*
X184295317Y-101529574D01*
X184500932Y-101740873D01*
X184743819Y-101907998D01*
X185014643Y-102024527D01*
X185111774Y-102046358D01*
X185343800Y-101925217D01*
X185343800Y-100457000D01*
X183057800Y-100457000D01*
X183057800Y-100477000D01*
X182803800Y-100477000D01*
X182803800Y-100457000D01*
X182783800Y-100457000D01*
X182783800Y-100203000D01*
X182803800Y-100203000D01*
X182803800Y-98734783D01*
X183057800Y-98734783D01*
X183057800Y-100203000D01*
X185343800Y-100203000D01*
X185343800Y-98734783D01*
X185111774Y-98613642D01*
X185014643Y-98635473D01*
X184743819Y-98752002D01*
X184500932Y-98919127D01*
X184295317Y-99130426D01*
X184200800Y-99276142D01*
X184106283Y-99130426D01*
X183900668Y-98919127D01*
X183657781Y-98752002D01*
X183386957Y-98635473D01*
X183289826Y-98613642D01*
X183057800Y-98734783D01*
X182803800Y-98734783D01*
X182571774Y-98613642D01*
X182474643Y-98635473D01*
X182203819Y-98752002D01*
X181960932Y-98919127D01*
X181755317Y-99130426D01*
X181594875Y-99377778D01*
X181485772Y-99651678D01*
X181463798Y-99770598D01*
X175190198Y-93496707D01*
X175261680Y-93389727D01*
X175369853Y-93128574D01*
X175425000Y-92851335D01*
X175425000Y-92568665D01*
X175369853Y-92291426D01*
X175261680Y-92030273D01*
X175104637Y-91795241D01*
X174904759Y-91595363D01*
X174672241Y-91440000D01*
X174904759Y-91284637D01*
X175104637Y-91084759D01*
X175261680Y-90849727D01*
X175369853Y-90588574D01*
X175425000Y-90311335D01*
X175425000Y-90028665D01*
X175369853Y-89751426D01*
X175261680Y-89490273D01*
X175104637Y-89255241D01*
X174904759Y-89055363D01*
X174672241Y-88900000D01*
X174904759Y-88744637D01*
X175104637Y-88544759D01*
X175261680Y-88309727D01*
X175369853Y-88048574D01*
X175425000Y-87771335D01*
X175425000Y-87488665D01*
X175369853Y-87211426D01*
X175261680Y-86950273D01*
X175104637Y-86715241D01*
X174906039Y-86516643D01*
X174914482Y-86515812D01*
X175034180Y-86479502D01*
X175144494Y-86420537D01*
X175241185Y-86341185D01*
X175320537Y-86244494D01*
X175379502Y-86134180D01*
X175415812Y-86014482D01*
X175428072Y-85890000D01*
X175428072Y-84290000D01*
X175415812Y-84165518D01*
X175379502Y-84045820D01*
X175320537Y-83935506D01*
X175241185Y-83838815D01*
X175144494Y-83759463D01*
X175034180Y-83700498D01*
X174914482Y-83664188D01*
X174790000Y-83651928D01*
X173190000Y-83651928D01*
X173065518Y-83664188D01*
X172945820Y-83700498D01*
X172835506Y-83759463D01*
X172738815Y-83838815D01*
X172659463Y-83935506D01*
X172600498Y-84045820D01*
X172564188Y-84165518D01*
X172551928Y-84290000D01*
X172551928Y-84395585D01*
X172507078Y-84419559D01*
X172440921Y-84454894D01*
X172440828Y-84454971D01*
X172440724Y-84455026D01*
X172383749Y-84501784D01*
X172354172Y-84526042D01*
X172354086Y-84526128D01*
X172324999Y-84549999D01*
X172301278Y-84578903D01*
X171618072Y-85261685D01*
X171618072Y-84290000D01*
X171605812Y-84165518D01*
X171569502Y-84045820D01*
X171510537Y-83935506D01*
X171431185Y-83838815D01*
X171334494Y-83759463D01*
X171224180Y-83700498D01*
X171104482Y-83664188D01*
X170980000Y-83651928D01*
X169380000Y-83651928D01*
X169255518Y-83664188D01*
X169135820Y-83700498D01*
X169025506Y-83759463D01*
X168928815Y-83838815D01*
X168905996Y-83866621D01*
X168492726Y-83453609D01*
X168469001Y-83424699D01*
X168439908Y-83400823D01*
X168439827Y-83400742D01*
X168411831Y-83377781D01*
X168353276Y-83329726D01*
X168353170Y-83329669D01*
X168353078Y-83329594D01*
X168287589Y-83294615D01*
X168221247Y-83259154D01*
X168221132Y-83259119D01*
X168221027Y-83259063D01*
X168149995Y-83237540D01*
X168077986Y-83215697D01*
X168077866Y-83215685D01*
X168077753Y-83215651D01*
X168005328Y-83208541D01*
X167966333Y-83204700D01*
X167966207Y-83204700D01*
X167928763Y-83201024D01*
X167891558Y-83204700D01*
X164848450Y-83204700D01*
X164811237Y-83201023D01*
X164773786Y-83204700D01*
X164773667Y-83204700D01*
X164736232Y-83208387D01*
X164662247Y-83215651D01*
X164662134Y-83215685D01*
X164662014Y-83215697D01*
X164590005Y-83237540D01*
X164518973Y-83259063D01*
X164518868Y-83259119D01*
X164518753Y-83259154D01*
X164453078Y-83294259D01*
X164386921Y-83329594D01*
X164386828Y-83329671D01*
X164386724Y-83329726D01*
X164329749Y-83376484D01*
X164300172Y-83400742D01*
X164300086Y-83400828D01*
X164270999Y-83424699D01*
X164247278Y-83453603D01*
X163834004Y-83866620D01*
X163811185Y-83838815D01*
X163714494Y-83759463D01*
X163604180Y-83700498D01*
X163484482Y-83664188D01*
X163360000Y-83651928D01*
X161760000Y-83651928D01*
X161635518Y-83664188D01*
X161515820Y-83700498D01*
X161405506Y-83759463D01*
X161308815Y-83838815D01*
X161229463Y-83935506D01*
X161170498Y-84045820D01*
X161134188Y-84165518D01*
X161121928Y-84290000D01*
X161121928Y-85890000D01*
X161134188Y-86014482D01*
X161170498Y-86134180D01*
X161229463Y-86244494D01*
X161308815Y-86341185D01*
X161405506Y-86420537D01*
X161515820Y-86479502D01*
X161635518Y-86515812D01*
X161643961Y-86516643D01*
X161520178Y-86640426D01*
X158403786Y-83524381D01*
X158380001Y-83495399D01*
X158350986Y-83471587D01*
X158350971Y-83471572D01*
X158325586Y-83450742D01*
X158264276Y-83400426D01*
X158264253Y-83400414D01*
X158264240Y-83400403D01*
X158209952Y-83371389D01*
X158132247Y-83329854D01*
X158132224Y-83329847D01*
X158132207Y-83329838D01*
X158067850Y-83310320D01*
X157988986Y-83286397D01*
X157988963Y-83286395D01*
X157988944Y-83286389D01*
X157925176Y-83280112D01*
X157877333Y-83275400D01*
X157877304Y-83275400D01*
X157839958Y-83271724D01*
X157802656Y-83275400D01*
X146547450Y-83275400D01*
X146510253Y-83271724D01*
X146472801Y-83275400D01*
X146472667Y-83275400D01*
X146433736Y-83279234D01*
X146361262Y-83286348D01*
X146361142Y-83286384D01*
X146361014Y-83286397D01*
X146289336Y-83308140D01*
X146217987Y-83329757D01*
X146217874Y-83329817D01*
X146217753Y-83329854D01*
X146151574Y-83365228D01*
X146085934Y-83400286D01*
X146085837Y-83400366D01*
X146085724Y-83400426D01*
X146027293Y-83448379D01*
X145999184Y-83471432D01*
X145999097Y-83471519D01*
X145969999Y-83495399D01*
X145946279Y-83524302D01*
X145244093Y-84226023D01*
X145215000Y-84249899D01*
X145168419Y-84306659D01*
X145120167Y-84365414D01*
X145120106Y-84365527D01*
X145120027Y-84365624D01*
X145085356Y-84430489D01*
X145049551Y-84497420D01*
X145049513Y-84497544D01*
X145049455Y-84497653D01*
X145028182Y-84567782D01*
X145006047Y-84640666D01*
X145006034Y-84640794D01*
X145005998Y-84640914D01*
X144998829Y-84713703D01*
X144991324Y-84789648D01*
X144170000Y-84789648D01*
X144170000Y-79400000D01*
X236830000Y-79400000D01*
X236830000Y-80126483D01*
%TA.AperFunction,Conductor*%
D28*
G36*
X236830000Y-80126483D02*
G01*
X236760486Y-80105397D01*
X236648833Y-80094400D01*
X236648822Y-80094400D01*
X236611500Y-80090724D01*
X236574178Y-80094400D01*
X230552622Y-80094400D01*
X230515299Y-80090724D01*
X230477976Y-80094400D01*
X230477967Y-80094400D01*
X230366314Y-80105397D01*
X230223053Y-80148854D01*
X230091024Y-80219426D01*
X229975299Y-80314399D01*
X229951496Y-80343403D01*
X229553998Y-80740901D01*
X229525000Y-80764699D01*
X229501202Y-80793697D01*
X229501201Y-80793698D01*
X229430026Y-80880424D01*
X229370425Y-80991928D01*
X228540000Y-80991928D01*
X228415518Y-81004188D01*
X228415000Y-81004345D01*
X228414482Y-81004188D01*
X228290000Y-80991928D01*
X227440000Y-80991928D01*
X227315518Y-81004188D01*
X227315000Y-81004345D01*
X227314482Y-81004188D01*
X227190000Y-80991928D01*
X226340000Y-80991928D01*
X226215518Y-81004188D01*
X226095820Y-81040498D01*
X225985506Y-81099463D01*
X225888815Y-81178815D01*
X225809463Y-81275506D01*
X225750498Y-81385820D01*
X225714188Y-81505518D01*
X225710000Y-81548041D01*
X225705812Y-81505518D01*
X225669502Y-81385820D01*
X225610537Y-81275506D01*
X225531185Y-81178815D01*
X225434494Y-81099463D01*
X225324180Y-81040498D01*
X225204482Y-81004188D01*
X225080000Y-80991928D01*
X223530000Y-80991928D01*
X223405518Y-81004188D01*
X223285820Y-81040498D01*
X223175506Y-81099463D01*
X223078815Y-81178815D01*
X222999463Y-81275506D01*
X222940498Y-81385820D01*
X222904188Y-81505518D01*
X222891928Y-81630000D01*
X222891928Y-82980000D01*
X222904188Y-83104482D01*
X222940498Y-83224180D01*
X222999463Y-83334494D01*
X223022693Y-83362800D01*
X220089722Y-83362800D01*
X220052399Y-83359124D01*
X220015076Y-83362800D01*
X220015067Y-83362800D01*
X219903414Y-83373797D01*
X219760153Y-83417254D01*
X219628123Y-83487826D01*
X219597588Y-83512886D01*
X219512399Y-83582799D01*
X219488601Y-83611797D01*
X204195312Y-98905087D01*
X204087406Y-98816531D01*
X203827064Y-98677375D01*
X203544577Y-98591684D01*
X203250800Y-98562749D01*
X202957024Y-98591684D01*
X202674537Y-98677375D01*
X202414195Y-98816531D01*
X202186003Y-99003803D01*
X201998731Y-99231994D01*
X201980800Y-99265540D01*
X201962869Y-99231994D01*
X201775597Y-99003803D01*
X201547406Y-98816531D01*
X201287064Y-98677375D01*
X201004577Y-98591684D01*
X200710800Y-98562749D01*
X200417024Y-98591684D01*
X200134537Y-98677375D01*
X199874195Y-98816531D01*
X199646003Y-99003803D01*
X199458731Y-99231994D01*
X199440800Y-99265540D01*
X199422869Y-99231994D01*
X199235597Y-99003803D01*
X199007406Y-98816531D01*
X198747064Y-98677375D01*
X198464577Y-98591684D01*
X198170800Y-98562749D01*
X197877024Y-98591684D01*
X197594537Y-98677375D01*
X197334195Y-98816531D01*
X197106003Y-99003803D01*
X196918731Y-99231994D01*
X196900800Y-99265540D01*
X196882869Y-99231994D01*
X196695597Y-99003803D01*
X196467406Y-98816531D01*
X196207064Y-98677375D01*
X195924577Y-98591684D01*
X195630800Y-98562749D01*
X195337024Y-98591684D01*
X195054537Y-98677375D01*
X194794195Y-98816531D01*
X194566003Y-99003803D01*
X194378731Y-99231994D01*
X194360800Y-99265540D01*
X194342869Y-99231994D01*
X194155597Y-99003803D01*
X193927406Y-98816531D01*
X193667064Y-98677375D01*
X193384577Y-98591684D01*
X193090800Y-98562749D01*
X192797024Y-98591684D01*
X192514537Y-98677375D01*
X192254195Y-98816531D01*
X192026003Y-99003803D01*
X191838731Y-99231994D01*
X191820800Y-99265540D01*
X191802869Y-99231994D01*
X191615597Y-99003803D01*
X191387406Y-98816531D01*
X191127064Y-98677375D01*
X190844577Y-98591684D01*
X190550800Y-98562749D01*
X190257024Y-98591684D01*
X189974537Y-98677375D01*
X189714195Y-98816531D01*
X189486003Y-99003803D01*
X189298731Y-99231994D01*
X189280800Y-99265540D01*
X189262869Y-99231994D01*
X189075597Y-99003803D01*
X188847406Y-98816531D01*
X188587064Y-98677375D01*
X188304577Y-98591684D01*
X188010800Y-98562749D01*
X187717024Y-98591684D01*
X187434537Y-98677375D01*
X187174195Y-98816531D01*
X186946003Y-99003803D01*
X186758731Y-99231994D01*
X186737693Y-99271353D01*
X186646283Y-99130426D01*
X186440668Y-98919127D01*
X186197781Y-98752002D01*
X185926957Y-98635473D01*
X185829826Y-98613642D01*
X185597800Y-98734783D01*
X185597800Y-100203000D01*
X185617800Y-100203000D01*
X185617800Y-100457000D01*
X185597800Y-100457000D01*
X185597800Y-101925217D01*
X185829826Y-102046358D01*
X185926957Y-102024527D01*
X186197781Y-101907998D01*
X186440668Y-101740873D01*
X186646283Y-101529574D01*
X186737694Y-101388647D01*
X186758731Y-101428005D01*
X186946003Y-101656197D01*
X187174194Y-101843469D01*
X187434536Y-101982625D01*
X187717023Y-102068316D01*
X188010800Y-102097251D01*
X188304576Y-102068316D01*
X188587063Y-101982625D01*
X188847405Y-101843469D01*
X189075597Y-101656197D01*
X189262869Y-101428006D01*
X189280800Y-101394459D01*
X189298731Y-101428005D01*
X189486003Y-101656197D01*
X189714194Y-101843469D01*
X189974536Y-101982625D01*
X190257023Y-102068316D01*
X190550800Y-102097251D01*
X190844576Y-102068316D01*
X191127063Y-101982625D01*
X191387405Y-101843469D01*
X191615597Y-101656197D01*
X191802869Y-101428006D01*
X191820800Y-101394459D01*
X191838731Y-101428005D01*
X192026003Y-101656197D01*
X192254194Y-101843469D01*
X192514536Y-101982625D01*
X192797023Y-102068316D01*
X193090800Y-102097251D01*
X193384576Y-102068316D01*
X193667063Y-101982625D01*
X193927405Y-101843469D01*
X194155597Y-101656197D01*
X194342869Y-101428006D01*
X194360800Y-101394459D01*
X194378731Y-101428005D01*
X194566003Y-101656197D01*
X194794194Y-101843469D01*
X195054536Y-101982625D01*
X195337023Y-102068316D01*
X195630800Y-102097251D01*
X195924576Y-102068316D01*
X196207063Y-101982625D01*
X196467405Y-101843469D01*
X196695597Y-101656197D01*
X196882869Y-101428006D01*
X196900800Y-101394459D01*
X196918731Y-101428005D01*
X197106003Y-101656197D01*
X197334194Y-101843469D01*
X197594536Y-101982625D01*
X197877023Y-102068316D01*
X198170800Y-102097251D01*
X198464576Y-102068316D01*
X198747063Y-101982625D01*
X199007405Y-101843469D01*
X199235597Y-101656197D01*
X199422869Y-101428006D01*
X199440800Y-101394459D01*
X199458731Y-101428005D01*
X199646003Y-101656197D01*
X199874194Y-101843469D01*
X200134536Y-101982625D01*
X200417023Y-102068316D01*
X200710800Y-102097251D01*
X201004576Y-102068316D01*
X201287063Y-101982625D01*
X201547405Y-101843469D01*
X201775597Y-101656197D01*
X201962869Y-101428006D01*
X201980800Y-101394459D01*
X201998731Y-101428005D01*
X202186003Y-101656197D01*
X202414194Y-101843469D01*
X202674536Y-101982625D01*
X202957023Y-102068316D01*
X203250800Y-102097251D01*
X203544576Y-102068316D01*
X203827063Y-101982625D01*
X204087405Y-101843469D01*
X204315597Y-101656197D01*
X204502869Y-101428006D01*
X204520800Y-101394459D01*
X204538731Y-101428005D01*
X204726003Y-101656197D01*
X204954194Y-101843469D01*
X205214536Y-101982625D01*
X205497023Y-102068316D01*
X205790800Y-102097251D01*
X206084576Y-102068316D01*
X206367063Y-101982625D01*
X206627405Y-101843469D01*
X206735366Y-101754868D01*
X207289901Y-102309403D01*
X207313699Y-102338401D01*
X207429424Y-102433374D01*
X207561453Y-102503946D01*
X207704714Y-102547403D01*
X207816367Y-102558400D01*
X207816375Y-102558400D01*
X207853700Y-102562076D01*
X207891025Y-102558400D01*
X211330278Y-102558400D01*
X211367600Y-102562076D01*
X211404922Y-102558400D01*
X211404933Y-102558400D01*
X211516586Y-102547403D01*
X211659847Y-102503946D01*
X211791876Y-102433374D01*
X211907601Y-102338401D01*
X211931403Y-102309398D01*
X212477054Y-101763748D01*
X212574194Y-101843469D01*
X212834536Y-101982625D01*
X213117023Y-102068316D01*
X213410800Y-102097251D01*
X213704576Y-102068316D01*
X213987063Y-101982625D01*
X214247405Y-101843469D01*
X214475597Y-101656197D01*
X214662869Y-101428006D01*
X214680800Y-101394459D01*
X214698731Y-101428005D01*
X214886003Y-101656197D01*
X215114194Y-101843469D01*
X215374536Y-101982625D01*
X215657023Y-102068316D01*
X215950800Y-102097251D01*
X216244576Y-102068316D01*
X216527063Y-101982625D01*
X216787405Y-101843469D01*
X217015597Y-101656197D01*
X217202869Y-101428006D01*
X217220800Y-101394459D01*
X217238731Y-101428005D01*
X217426003Y-101656197D01*
X217654194Y-101843469D01*
X217914536Y-101982625D01*
X218197023Y-102068316D01*
X218490800Y-102097251D01*
X218784576Y-102068316D01*
X219067063Y-101982625D01*
X219327405Y-101843469D01*
X219555597Y-101656197D01*
X219742869Y-101428006D01*
X219760800Y-101394459D01*
X219778731Y-101428005D01*
X219966003Y-101656197D01*
X220194194Y-101843469D01*
X220454536Y-101982625D01*
X220737023Y-102068316D01*
X221030800Y-102097251D01*
X221324576Y-102068316D01*
X221607063Y-101982625D01*
X221867405Y-101843469D01*
X222095597Y-101656197D01*
X222282869Y-101428006D01*
X222300800Y-101394459D01*
X222318731Y-101428005D01*
X222506003Y-101656197D01*
X222734194Y-101843469D01*
X222994536Y-101982625D01*
X223277023Y-102068316D01*
X223570800Y-102097251D01*
X223864576Y-102068316D01*
X224147063Y-101982625D01*
X224407405Y-101843469D01*
X224635597Y-101656197D01*
X224822869Y-101428006D01*
X224840800Y-101394459D01*
X224858731Y-101428005D01*
X225046003Y-101656197D01*
X225274194Y-101843469D01*
X225534536Y-101982625D01*
X225817023Y-102068316D01*
X226110800Y-102097251D01*
X226404576Y-102068316D01*
X226687063Y-101982625D01*
X226947405Y-101843469D01*
X227175597Y-101656197D01*
X227362869Y-101428006D01*
X227380800Y-101394459D01*
X227398731Y-101428005D01*
X227586003Y-101656197D01*
X227814194Y-101843469D01*
X228074536Y-101982625D01*
X228357023Y-102068316D01*
X228650800Y-102097251D01*
X228944576Y-102068316D01*
X229227063Y-101982625D01*
X229487405Y-101843469D01*
X229715597Y-101656197D01*
X229722214Y-101648135D01*
X229737698Y-101699180D01*
X229796663Y-101809494D01*
X229876015Y-101906185D01*
X229972706Y-101985537D01*
X230083020Y-102044502D01*
X230202718Y-102080812D01*
X230327200Y-102093072D01*
X232054400Y-102093072D01*
X232178882Y-102080812D01*
X232298580Y-102044502D01*
X232408894Y-101985537D01*
X232505585Y-101906185D01*
X232584937Y-101809494D01*
X232643902Y-101699180D01*
X232680212Y-101579482D01*
X232692472Y-101455000D01*
X232692472Y-99205000D01*
X232680212Y-99080518D01*
X232643902Y-98960820D01*
X232584937Y-98850506D01*
X232505585Y-98753815D01*
X232408894Y-98674463D01*
X232298580Y-98615498D01*
X232178882Y-98579188D01*
X232054400Y-98566928D01*
X230327200Y-98566928D01*
X230202718Y-98579188D01*
X230083020Y-98615498D01*
X229972706Y-98674463D01*
X229876015Y-98753815D01*
X229796663Y-98850506D01*
X229737698Y-98960820D01*
X229722214Y-99011865D01*
X229715597Y-99003803D01*
X229487406Y-98816531D01*
X229227064Y-98677375D01*
X228944577Y-98591684D01*
X228650800Y-98562749D01*
X228357024Y-98591684D01*
X228074537Y-98677375D01*
X227814195Y-98816531D01*
X227586003Y-99003803D01*
X227398731Y-99231994D01*
X227380800Y-99265540D01*
X227362869Y-99231994D01*
X227175597Y-99003803D01*
X226947406Y-98816531D01*
X226687064Y-98677375D01*
X226404577Y-98591684D01*
X226110800Y-98562749D01*
X225817024Y-98591684D01*
X225534537Y-98677375D01*
X225274195Y-98816531D01*
X225046003Y-99003803D01*
X224858731Y-99231994D01*
X224840800Y-99265540D01*
X224822869Y-99231994D01*
X224635597Y-99003803D01*
X224407406Y-98816531D01*
X224147064Y-98677375D01*
X223864577Y-98591684D01*
X223570800Y-98562749D01*
X223277024Y-98591684D01*
X222994537Y-98677375D01*
X222734195Y-98816531D01*
X222506003Y-99003803D01*
X222318731Y-99231994D01*
X222300800Y-99265540D01*
X222282869Y-99231994D01*
X222095597Y-99003803D01*
X221867406Y-98816531D01*
X221607064Y-98677375D01*
X221324577Y-98591684D01*
X221030800Y-98562749D01*
X220737024Y-98591684D01*
X220454537Y-98677375D01*
X220194195Y-98816531D01*
X219966003Y-99003803D01*
X219778731Y-99231994D01*
X219760800Y-99265540D01*
X219742869Y-99231994D01*
X219555597Y-99003803D01*
X219327406Y-98816531D01*
X219067064Y-98677375D01*
X218784577Y-98591684D01*
X218490800Y-98562749D01*
X218197024Y-98591684D01*
X217914537Y-98677375D01*
X217654195Y-98816531D01*
X217426003Y-99003803D01*
X217238731Y-99231994D01*
X217220800Y-99265540D01*
X217202869Y-99231994D01*
X217015597Y-99003803D01*
X216787406Y-98816531D01*
X216527064Y-98677375D01*
X216244577Y-98591684D01*
X215950800Y-98562749D01*
X215657024Y-98591684D01*
X215374537Y-98677375D01*
X215114195Y-98816531D01*
X214886003Y-99003803D01*
X214698731Y-99231994D01*
X214680800Y-99265540D01*
X214662869Y-99231994D01*
X214475597Y-99003803D01*
X214247406Y-98816531D01*
X213987064Y-98677375D01*
X213704577Y-98591684D01*
X213411849Y-98562852D01*
X220444701Y-91530000D01*
X222891928Y-91530000D01*
X222891928Y-92530000D01*
X222904188Y-92654482D01*
X222940498Y-92774180D01*
X222999463Y-92884494D01*
X223078815Y-92981185D01*
X223175506Y-93060537D01*
X223285820Y-93119502D01*
X223405518Y-93155812D01*
X223530000Y-93168072D01*
X224730000Y-93168072D01*
X224854482Y-93155812D01*
X224974180Y-93119502D01*
X225084494Y-93060537D01*
X225181185Y-92981185D01*
X225260537Y-92884494D01*
X225319502Y-92774180D01*
X225355812Y-92654482D01*
X225368072Y-92530000D01*
X225368072Y-92330000D01*
X226041928Y-92330000D01*
X226041928Y-93680000D01*
X226054188Y-93804482D01*
X226090498Y-93924180D01*
X226149463Y-94034494D01*
X226228815Y-94131185D01*
X226325506Y-94210537D01*
X226435820Y-94269502D01*
X226555518Y-94305812D01*
X226680000Y-94318072D01*
X228580000Y-94318072D01*
X228704482Y-94305812D01*
X228824180Y-94269502D01*
X228934494Y-94210537D01*
X229031185Y-94131185D01*
X229110537Y-94034494D01*
X229169502Y-93924180D01*
X229205812Y-93804482D01*
X229218072Y-93680000D01*
X229218072Y-92330000D01*
X232011928Y-92330000D01*
X232011928Y-93680000D01*
X232024188Y-93804482D01*
X232060498Y-93924180D01*
X232119463Y-94034494D01*
X232198815Y-94131185D01*
X232295506Y-94210537D01*
X232405820Y-94269502D01*
X232525518Y-94305812D01*
X232650000Y-94318072D01*
X234550000Y-94318072D01*
X234674482Y-94305812D01*
X234794180Y-94269502D01*
X234904494Y-94210537D01*
X235001185Y-94131185D01*
X235080537Y-94034494D01*
X235139502Y-93924180D01*
X235175812Y-93804482D01*
X235188072Y-93680000D01*
X235188072Y-92330000D01*
X235175812Y-92205518D01*
X235139502Y-92085820D01*
X235080537Y-91975506D01*
X235001185Y-91878815D01*
X234904494Y-91799463D01*
X234794180Y-91740498D01*
X234674482Y-91704188D01*
X234550000Y-91691928D01*
X232650000Y-91691928D01*
X232525518Y-91704188D01*
X232405820Y-91740498D01*
X232295506Y-91799463D01*
X232198815Y-91878815D01*
X232119463Y-91975506D01*
X232060498Y-92085820D01*
X232024188Y-92205518D01*
X232011928Y-92330000D01*
X229218072Y-92330000D01*
X229205812Y-92205518D01*
X229169502Y-92085820D01*
X229110537Y-91975506D01*
X229031185Y-91878815D01*
X228934494Y-91799463D01*
X228824180Y-91740498D01*
X228704482Y-91704188D01*
X228580000Y-91691928D01*
X226680000Y-91691928D01*
X226555518Y-91704188D01*
X226435820Y-91740498D01*
X226325506Y-91799463D01*
X226228815Y-91878815D01*
X226149463Y-91975506D01*
X226090498Y-92085820D01*
X226054188Y-92205518D01*
X226041928Y-92330000D01*
X225368072Y-92330000D01*
X225368072Y-91530000D01*
X225355812Y-91405518D01*
X225319502Y-91285820D01*
X225260537Y-91175506D01*
X225181185Y-91078815D01*
X225084494Y-90999463D01*
X224974180Y-90940498D01*
X224854482Y-90904188D01*
X224730000Y-90891928D01*
X223530000Y-90891928D01*
X223405518Y-90904188D01*
X223285820Y-90940498D01*
X223175506Y-90999463D01*
X223078815Y-91078815D01*
X222999463Y-91175506D01*
X222940498Y-91285820D01*
X222904188Y-91405518D01*
X222891928Y-91530000D01*
X220444701Y-91530000D01*
X222931194Y-89043508D01*
X222940498Y-89074180D01*
X222999463Y-89184494D01*
X223078815Y-89281185D01*
X223175506Y-89360537D01*
X223285820Y-89419502D01*
X223405518Y-89455812D01*
X223530000Y-89468072D01*
X223844250Y-89465000D01*
X224003000Y-89306250D01*
X224003000Y-88457000D01*
X224257000Y-88457000D01*
X224257000Y-89306250D01*
X224415750Y-89465000D01*
X224730000Y-89468072D01*
X224854482Y-89455812D01*
X224974180Y-89419502D01*
X225084494Y-89360537D01*
X225181185Y-89281185D01*
X225260537Y-89184494D01*
X225319502Y-89074180D01*
X225355812Y-88954482D01*
X225368072Y-88830000D01*
X225365000Y-88615750D01*
X225206250Y-88457000D01*
X224257000Y-88457000D01*
X224003000Y-88457000D01*
X223983000Y-88457000D01*
X223983000Y-88264700D01*
X228878278Y-88264700D01*
X228915600Y-88268376D01*
X228952922Y-88264700D01*
X228952933Y-88264700D01*
X229064586Y-88253703D01*
X229207847Y-88210246D01*
X229339876Y-88139674D01*
X229455601Y-88044701D01*
X229479404Y-88015697D01*
X233876003Y-83619099D01*
X233905001Y-83595301D01*
X233999974Y-83479576D01*
X234059575Y-83368072D01*
X234401928Y-83368072D01*
X234401928Y-83430000D01*
X234414188Y-83554482D01*
X234450498Y-83674180D01*
X234509463Y-83784494D01*
X234588815Y-83881185D01*
X234685506Y-83960537D01*
X234795820Y-84019502D01*
X234915518Y-84055812D01*
X235040000Y-84068072D01*
X236210000Y-84068072D01*
X236229601Y-84066142D01*
X236229600Y-110696098D01*
X232475655Y-114450044D01*
X232306397Y-114243803D01*
X232078205Y-114056531D01*
X231817863Y-113917375D01*
X231535376Y-113831684D01*
X231241600Y-113802749D01*
X230947823Y-113831684D01*
X230665336Y-113917375D01*
X230404994Y-114056531D01*
X230176803Y-114243803D01*
X229989531Y-114471995D01*
X229945544Y-114554289D01*
X229826283Y-114370426D01*
X229620668Y-114159127D01*
X229377781Y-113992002D01*
X229106957Y-113875473D01*
X229009826Y-113853642D01*
X228777800Y-113974783D01*
X228777800Y-115443000D01*
X228797800Y-115443000D01*
X228797800Y-115697000D01*
X228777800Y-115697000D01*
X228777800Y-117165217D01*
X229009826Y-117286358D01*
X229106957Y-117264527D01*
X229377781Y-117147998D01*
X229620668Y-116980873D01*
X229826283Y-116769574D01*
X229945543Y-116585711D01*
X229989531Y-116668006D01*
X230176803Y-116896197D01*
X230404995Y-117083469D01*
X230665337Y-117222625D01*
X230947824Y-117308316D01*
X231241600Y-117337251D01*
X231535377Y-117308316D01*
X231817864Y-117222625D01*
X232078206Y-117083469D01*
X232306397Y-116896197D01*
X232493669Y-116668006D01*
X232632825Y-116407664D01*
X232667851Y-116292198D01*
X232722747Y-116275546D01*
X232854776Y-116204974D01*
X232970501Y-116110001D01*
X232994304Y-116080997D01*
X236830001Y-112245301D01*
X236830001Y-126340000D01*
X144170000Y-126340000D01*
X144170000Y-122960976D01*
X146010000Y-122960976D01*
X146010000Y-123219024D01*
X146060342Y-123472113D01*
X146159093Y-123710518D01*
X146302456Y-123925077D01*
X146484923Y-124107544D01*
X146699482Y-124250907D01*
X146937887Y-124349658D01*
X147190976Y-124400000D01*
X147449024Y-124400000D01*
X147702113Y-124349658D01*
X147940518Y-124250907D01*
X148155077Y-124107544D01*
X148320000Y-123942621D01*
X148484923Y-124107544D01*
X148699482Y-124250907D01*
X148937887Y-124349658D01*
X149190976Y-124400000D01*
X149449024Y-124400000D01*
X149702113Y-124349658D01*
X149940518Y-124250907D01*
X150155077Y-124107544D01*
X150337544Y-123925077D01*
X150480907Y-123710518D01*
X150522543Y-123610000D01*
X189011928Y-123610000D01*
X189011928Y-125310000D01*
X189024188Y-125434482D01*
X189060498Y-125554180D01*
X189119463Y-125664494D01*
X189198815Y-125761185D01*
X189295506Y-125840537D01*
X189405820Y-125899502D01*
X189525518Y-125935812D01*
X189650000Y-125948072D01*
X191350000Y-125948072D01*
X191474482Y-125935812D01*
X191594180Y-125899502D01*
X191704494Y-125840537D01*
X191801185Y-125761185D01*
X191880537Y-125664494D01*
X191939502Y-125554180D01*
X191963966Y-125473534D01*
X192039731Y-125557588D01*
X192273080Y-125731641D01*
X192535901Y-125856825D01*
X192683110Y-125901476D01*
X192913000Y-125780155D01*
X192913000Y-124587000D01*
X192893000Y-124587000D01*
X192893000Y-124333000D01*
X192913000Y-124333000D01*
X192913000Y-123139845D01*
X193167000Y-123139845D01*
X193167000Y-124333000D01*
X193187000Y-124333000D01*
X193187000Y-124587000D01*
X193167000Y-124587000D01*
X193167000Y-125780155D01*
X193396890Y-125901476D01*
X193544099Y-125856825D01*
X193806920Y-125731641D01*
X194040269Y-125557588D01*
X194235178Y-125341355D01*
X194304805Y-125224466D01*
X194426525Y-125406632D01*
X194633368Y-125613475D01*
X194876589Y-125775990D01*
X195146842Y-125887932D01*
X195433740Y-125945000D01*
X195726260Y-125945000D01*
X196013158Y-125887932D01*
X196283411Y-125775990D01*
X196526632Y-125613475D01*
X196733475Y-125406632D01*
X196850000Y-125232240D01*
X196966525Y-125406632D01*
X197173368Y-125613475D01*
X197416589Y-125775990D01*
X197686842Y-125887932D01*
X197973740Y-125945000D01*
X198266260Y-125945000D01*
X198553158Y-125887932D01*
X198823411Y-125775990D01*
X199066632Y-125613475D01*
X199273475Y-125406632D01*
X199435990Y-125163411D01*
X199547932Y-124893158D01*
X199605000Y-124606260D01*
X199605000Y-124313740D01*
X199547932Y-124026842D01*
X199435990Y-123756589D01*
X199273475Y-123513368D01*
X199066632Y-123306525D01*
X198823411Y-123144010D01*
X198553158Y-123032068D01*
X198364268Y-122994495D01*
X216455000Y-122994495D01*
X216455000Y-123385505D01*
X216531282Y-123769003D01*
X216680915Y-124130250D01*
X216898149Y-124455364D01*
X217174636Y-124731851D01*
X217499750Y-124949085D01*
X217860997Y-125098718D01*
X218244495Y-125175000D01*
X218635505Y-125175000D01*
X219019003Y-125098718D01*
X219380250Y-124949085D01*
X219705364Y-124731851D01*
X219981851Y-124455364D01*
X220199085Y-124130250D01*
X220348718Y-123769003D01*
X220425000Y-123385505D01*
X220425000Y-122994495D01*
X220348718Y-122610997D01*
X220199085Y-122249750D01*
X219981851Y-121924636D01*
X219705364Y-121648149D01*
X219380250Y-121430915D01*
X219019003Y-121281282D01*
X218635505Y-121205000D01*
X218244495Y-121205000D01*
X217860997Y-121281282D01*
X217499750Y-121430915D01*
X217174636Y-121648149D01*
X216898149Y-121924636D01*
X216680915Y-122249750D01*
X216531282Y-122610997D01*
X216455000Y-122994495D01*
X198364268Y-122994495D01*
X198266260Y-122975000D01*
X197973740Y-122975000D01*
X197686842Y-123032068D01*
X197416589Y-123144010D01*
X197173368Y-123306525D01*
X196966525Y-123513368D01*
X196850000Y-123687760D01*
X196733475Y-123513368D01*
X196526632Y-123306525D01*
X196283411Y-123144010D01*
X196013158Y-123032068D01*
X195726260Y-122975000D01*
X195433740Y-122975000D01*
X195146842Y-123032068D01*
X194876589Y-123144010D01*
X194633368Y-123306525D01*
X194426525Y-123513368D01*
X194304805Y-123695534D01*
X194235178Y-123578645D01*
X194040269Y-123362412D01*
X193806920Y-123188359D01*
X193544099Y-123063175D01*
X193396890Y-123018524D01*
X193167000Y-123139845D01*
X192913000Y-123139845D01*
X192683110Y-123018524D01*
X192535901Y-123063175D01*
X192273080Y-123188359D01*
X192039731Y-123362412D01*
X191963966Y-123446466D01*
X191939502Y-123365820D01*
X191880537Y-123255506D01*
X191801185Y-123158815D01*
X191704494Y-123079463D01*
X191594180Y-123020498D01*
X191474482Y-122984188D01*
X191350000Y-122971928D01*
X189650000Y-122971928D01*
X189525518Y-122984188D01*
X189405820Y-123020498D01*
X189295506Y-123079463D01*
X189198815Y-123158815D01*
X189119463Y-123255506D01*
X189060498Y-123365820D01*
X189024188Y-123485518D01*
X189011928Y-123610000D01*
X150522543Y-123610000D01*
X150579658Y-123472113D01*
X150630000Y-123219024D01*
X150630000Y-122960976D01*
X150579658Y-122707887D01*
X150480907Y-122469482D01*
X150337544Y-122254923D01*
X150165940Y-122083319D01*
X150298303Y-121961227D01*
X150449473Y-121753629D01*
X150557238Y-121520528D01*
X150587910Y-121419400D01*
X150464224Y-121217000D01*
X149447000Y-121217000D01*
X149447000Y-121237000D01*
X149193000Y-121237000D01*
X149193000Y-121217000D01*
X147447000Y-121217000D01*
X147447000Y-121237000D01*
X147193000Y-121237000D01*
X147193000Y-121217000D01*
X146175776Y-121217000D01*
X146052090Y-121419400D01*
X146082762Y-121520528D01*
X146190527Y-121753629D01*
X146341697Y-121961227D01*
X146474060Y-122083319D01*
X146302456Y-122254923D01*
X146159093Y-122469482D01*
X146060342Y-122707887D01*
X146010000Y-122960976D01*
X144170000Y-122960976D01*
X144170000Y-119419400D01*
X146052090Y-119419400D01*
X146082762Y-119520528D01*
X146190527Y-119753629D01*
X146341697Y-119961227D01*
X146481304Y-120090000D01*
X146341697Y-120218773D01*
X146190527Y-120426371D01*
X146082762Y-120659472D01*
X146052090Y-120760600D01*
X146175776Y-120963000D01*
X147193000Y-120963000D01*
X147193000Y-119217000D01*
X146175776Y-119217000D01*
X146052090Y-119419400D01*
X144170000Y-119419400D01*
X144170000Y-84789648D01*
X144991324Y-84789648D01*
X144995001Y-84827109D01*
X144995000Y-115487678D01*
X144991324Y-115525000D01*
X144995000Y-115562322D01*
X144995000Y-115562332D01*
X145005997Y-115673985D01*
X145049454Y-115817246D01*
X145120026Y-115949276D01*
X145156957Y-115994276D01*
X145214999Y-116065001D01*
X145244003Y-116088804D01*
X146027615Y-116872417D01*
X146010000Y-116960976D01*
X146010000Y-117219024D01*
X146060342Y-117472113D01*
X146159093Y-117710518D01*
X146302456Y-117925077D01*
X146474060Y-118096681D01*
X146341697Y-118218773D01*
X146190527Y-118426371D01*
X146082762Y-118659472D01*
X146052090Y-118760600D01*
X146175776Y-118963000D01*
X147193000Y-118963000D01*
X147193000Y-118943000D01*
X147447000Y-118943000D01*
X147447000Y-118963000D01*
X147467000Y-118963000D01*
X147467000Y-119217000D01*
X147447000Y-119217000D01*
X147447000Y-120963000D01*
X149193000Y-120963000D01*
X149193000Y-120943000D01*
X149447000Y-120943000D01*
X149447000Y-120963000D01*
X150464224Y-120963000D01*
X150587910Y-120760600D01*
X150557238Y-120659472D01*
X150449473Y-120426371D01*
X150298303Y-120218773D01*
X150165940Y-120096681D01*
X150337544Y-119925077D01*
X150389848Y-119846797D01*
X150468986Y-119839003D01*
X150612247Y-119795546D01*
X150744276Y-119724974D01*
X150860001Y-119630001D01*
X150883804Y-119600997D01*
X151978802Y-118506000D01*
X161357994Y-118506000D01*
X161244010Y-118676589D01*
X161132068Y-118946842D01*
X161075000Y-119233740D01*
X161075000Y-119526260D01*
X161132068Y-119813158D01*
X161244010Y-120083411D01*
X161406525Y-120326632D01*
X161538380Y-120458487D01*
X161465820Y-120480498D01*
X161355506Y-120539463D01*
X161258815Y-120618815D01*
X161179463Y-120715506D01*
X161120498Y-120825820D01*
X161084188Y-120945518D01*
X161071928Y-121070000D01*
X161071928Y-122770000D01*
X161084188Y-122894482D01*
X161120498Y-123014180D01*
X161179463Y-123124494D01*
X161258815Y-123221185D01*
X161355506Y-123300537D01*
X161465820Y-123359502D01*
X161585518Y-123395812D01*
X161710000Y-123408072D01*
X163410000Y-123408072D01*
X163534482Y-123395812D01*
X163654180Y-123359502D01*
X163764494Y-123300537D01*
X163861185Y-123221185D01*
X163940537Y-123124494D01*
X163999502Y-123014180D01*
X164035812Y-122894482D01*
X164048072Y-122770000D01*
X164048072Y-121070000D01*
X164881928Y-121070000D01*
X164881928Y-122770000D01*
X164894188Y-122894482D01*
X164930498Y-123014180D01*
X164989463Y-123124494D01*
X165068815Y-123221185D01*
X165165506Y-123300537D01*
X165275820Y-123359502D01*
X165395518Y-123395812D01*
X165520000Y-123408072D01*
X167220000Y-123408072D01*
X167344482Y-123395812D01*
X167464180Y-123359502D01*
X167574494Y-123300537D01*
X167671185Y-123221185D01*
X167750537Y-123124494D01*
X167809502Y-123014180D01*
X167845812Y-122894482D01*
X167858072Y-122770000D01*
X167858072Y-121070000D01*
X167845812Y-120945518D01*
X167809502Y-120825820D01*
X167750537Y-120715506D01*
X167671185Y-120618815D01*
X167574494Y-120539463D01*
X167464180Y-120480498D01*
X167383534Y-120456034D01*
X167467588Y-120380269D01*
X167641641Y-120146920D01*
X167766825Y-119884099D01*
X167811476Y-119736890D01*
X167690155Y-119507000D01*
X166497000Y-119507000D01*
X166497000Y-119527000D01*
X166243000Y-119527000D01*
X166243000Y-119507000D01*
X165049845Y-119507000D01*
X164928524Y-119736890D01*
X164973175Y-119884099D01*
X165098359Y-120146920D01*
X165272412Y-120380269D01*
X165356466Y-120456034D01*
X165275820Y-120480498D01*
X165165506Y-120539463D01*
X165068815Y-120618815D01*
X164989463Y-120715506D01*
X164930498Y-120825820D01*
X164894188Y-120945518D01*
X164881928Y-121070000D01*
X164048072Y-121070000D01*
X164035812Y-120945518D01*
X163999502Y-120825820D01*
X163940537Y-120715506D01*
X163861185Y-120618815D01*
X163764494Y-120539463D01*
X163654180Y-120480498D01*
X163581620Y-120458487D01*
X163713475Y-120326632D01*
X163842808Y-120133072D01*
X163883669Y-120129065D01*
X163883820Y-120129019D01*
X163883986Y-120129003D01*
X163957312Y-120106760D01*
X164026948Y-120085669D01*
X164027088Y-120085594D01*
X164027247Y-120085546D01*
X164094450Y-120049625D01*
X164159007Y-120015153D01*
X164159130Y-120015052D01*
X164159276Y-120014974D01*
X164217834Y-119966916D01*
X164245764Y-119944015D01*
X164245875Y-119943904D01*
X164275001Y-119920001D01*
X164298700Y-119891124D01*
X165011011Y-119179414D01*
X165049845Y-119253000D01*
X166243000Y-119253000D01*
X166243000Y-119233000D01*
X166497000Y-119233000D01*
X166497000Y-119253000D01*
X167690155Y-119253000D01*
X167811476Y-119023110D01*
X167791424Y-118957000D01*
X174925552Y-118957000D01*
X175305394Y-119336239D01*
X175328999Y-119365001D01*
X175358229Y-119388990D01*
X175358446Y-119389206D01*
X175387256Y-119412811D01*
X175444724Y-119459974D01*
X175444994Y-119460118D01*
X175445229Y-119460311D01*
X175510623Y-119495198D01*
X175576753Y-119530546D01*
X175577048Y-119530635D01*
X175577315Y-119530778D01*
X175648231Y-119552228D01*
X175720014Y-119574003D01*
X175720319Y-119574033D01*
X175720610Y-119574121D01*
X175794170Y-119581307D01*
X175831667Y-119585000D01*
X175831976Y-119585000D01*
X175869607Y-119588676D01*
X175906629Y-119585000D01*
X222223678Y-119585000D01*
X222261000Y-119588676D01*
X222298322Y-119585000D01*
X222298333Y-119585000D01*
X222409986Y-119574003D01*
X222553247Y-119530546D01*
X222685276Y-119459974D01*
X222801001Y-119365001D01*
X222824804Y-119335997D01*
X225166069Y-116994733D01*
X225274195Y-117083469D01*
X225534537Y-117222625D01*
X225817024Y-117308316D01*
X226110800Y-117337251D01*
X226404577Y-117308316D01*
X226687064Y-117222625D01*
X226947406Y-117083469D01*
X227175597Y-116896197D01*
X227362869Y-116668006D01*
X227383907Y-116628647D01*
X227475317Y-116769574D01*
X227680932Y-116980873D01*
X227923819Y-117147998D01*
X228194643Y-117264527D01*
X228291774Y-117286358D01*
X228523800Y-117165217D01*
X228523800Y-115697000D01*
X228503800Y-115697000D01*
X228503800Y-115443000D01*
X228523800Y-115443000D01*
X228523800Y-113974783D01*
X228291774Y-113853642D01*
X228194643Y-113875473D01*
X227923819Y-113992002D01*
X227680932Y-114159127D01*
X227475317Y-114370426D01*
X227383907Y-114511353D01*
X227362869Y-114471994D01*
X227175597Y-114243803D01*
X226947405Y-114056531D01*
X226687063Y-113917375D01*
X226404576Y-113831684D01*
X226110800Y-113802749D01*
X225817023Y-113831684D01*
X225534536Y-113917375D01*
X225274194Y-114056531D01*
X225046003Y-114243803D01*
X224858731Y-114471995D01*
X224840800Y-114505541D01*
X224822869Y-114471994D01*
X224635597Y-114243803D01*
X224407405Y-114056531D01*
X224147063Y-113917375D01*
X223864576Y-113831684D01*
X223570800Y-113802749D01*
X223277023Y-113831684D01*
X222994536Y-113917375D01*
X222734194Y-114056531D01*
X222626069Y-114145267D01*
X216820804Y-108340003D01*
X216797001Y-108310999D01*
X216681276Y-108216026D01*
X216549247Y-108145454D01*
X216405986Y-108101997D01*
X216294333Y-108091000D01*
X216294322Y-108091000D01*
X216257000Y-108087324D01*
X216219678Y-108091000D01*
X189783813Y-108091000D01*
X188235287Y-106542401D01*
X225882200Y-106542401D01*
X225882200Y-106837599D01*
X225939790Y-107127125D01*
X226052758Y-107399853D01*
X226216761Y-107645302D01*
X226425498Y-107854039D01*
X226584081Y-107960000D01*
X226425498Y-108065961D01*
X226216761Y-108274698D01*
X226052758Y-108520147D01*
X225939790Y-108792875D01*
X225882200Y-109082401D01*
X225882200Y-109377599D01*
X225939790Y-109667125D01*
X226052758Y-109939853D01*
X226216761Y-110185302D01*
X226425498Y-110394039D01*
X226670947Y-110558042D01*
X226943675Y-110671010D01*
X227233201Y-110728600D01*
X227528399Y-110728600D01*
X227817925Y-110671010D01*
X228090653Y-110558042D01*
X228336102Y-110394039D01*
X228544839Y-110185302D01*
X228708842Y-109939853D01*
X228821810Y-109667125D01*
X228879400Y-109377599D01*
X228879400Y-109082401D01*
X228821810Y-108792875D01*
X228708842Y-108520147D01*
X228544839Y-108274698D01*
X228336102Y-108065961D01*
X228177519Y-107960000D01*
X228336102Y-107854039D01*
X228544839Y-107645302D01*
X228708842Y-107399853D01*
X228821810Y-107127125D01*
X228879400Y-106837599D01*
X228879400Y-106542401D01*
X228821810Y-106252875D01*
X228708842Y-105980147D01*
X228544839Y-105734698D01*
X228336102Y-105525961D01*
X228090653Y-105361958D01*
X227817925Y-105248990D01*
X227528399Y-105191400D01*
X227233201Y-105191400D01*
X226943675Y-105248990D01*
X226670947Y-105361958D01*
X226425498Y-105525961D01*
X226216761Y-105734698D01*
X226052758Y-105980147D01*
X225939790Y-106252875D01*
X225882200Y-106542401D01*
X188235287Y-106542401D01*
X183618150Y-101925050D01*
X183657781Y-101907998D01*
X183900668Y-101740873D01*
X184106283Y-101529574D01*
X184200800Y-101383858D01*
X184295317Y-101529574D01*
X184500932Y-101740873D01*
X184743819Y-101907998D01*
X185014643Y-102024527D01*
X185111774Y-102046358D01*
X185343800Y-101925217D01*
X185343800Y-100457000D01*
X183057800Y-100457000D01*
X183057800Y-100477000D01*
X182803800Y-100477000D01*
X182803800Y-100457000D01*
X182783800Y-100457000D01*
X182783800Y-100203000D01*
X182803800Y-100203000D01*
X182803800Y-98734783D01*
X183057800Y-98734783D01*
X183057800Y-100203000D01*
X185343800Y-100203000D01*
X185343800Y-98734783D01*
X185111774Y-98613642D01*
X185014643Y-98635473D01*
X184743819Y-98752002D01*
X184500932Y-98919127D01*
X184295317Y-99130426D01*
X184200800Y-99276142D01*
X184106283Y-99130426D01*
X183900668Y-98919127D01*
X183657781Y-98752002D01*
X183386957Y-98635473D01*
X183289826Y-98613642D01*
X183057800Y-98734783D01*
X182803800Y-98734783D01*
X182571774Y-98613642D01*
X182474643Y-98635473D01*
X182203819Y-98752002D01*
X181960932Y-98919127D01*
X181755317Y-99130426D01*
X181594875Y-99377778D01*
X181485772Y-99651678D01*
X181463798Y-99770598D01*
X175190198Y-93496707D01*
X175261680Y-93389727D01*
X175369853Y-93128574D01*
X175425000Y-92851335D01*
X175425000Y-92568665D01*
X175369853Y-92291426D01*
X175261680Y-92030273D01*
X175104637Y-91795241D01*
X174904759Y-91595363D01*
X174672241Y-91440000D01*
X174904759Y-91284637D01*
X175104637Y-91084759D01*
X175261680Y-90849727D01*
X175369853Y-90588574D01*
X175425000Y-90311335D01*
X175425000Y-90028665D01*
X175369853Y-89751426D01*
X175261680Y-89490273D01*
X175104637Y-89255241D01*
X174904759Y-89055363D01*
X174672241Y-88900000D01*
X174904759Y-88744637D01*
X175104637Y-88544759D01*
X175261680Y-88309727D01*
X175369853Y-88048574D01*
X175425000Y-87771335D01*
X175425000Y-87488665D01*
X175369853Y-87211426D01*
X175261680Y-86950273D01*
X175104637Y-86715241D01*
X174906039Y-86516643D01*
X174914482Y-86515812D01*
X175034180Y-86479502D01*
X175144494Y-86420537D01*
X175241185Y-86341185D01*
X175320537Y-86244494D01*
X175379502Y-86134180D01*
X175415812Y-86014482D01*
X175428072Y-85890000D01*
X175428072Y-84290000D01*
X175415812Y-84165518D01*
X175379502Y-84045820D01*
X175320537Y-83935506D01*
X175241185Y-83838815D01*
X175144494Y-83759463D01*
X175034180Y-83700498D01*
X174914482Y-83664188D01*
X174790000Y-83651928D01*
X173190000Y-83651928D01*
X173065518Y-83664188D01*
X172945820Y-83700498D01*
X172835506Y-83759463D01*
X172738815Y-83838815D01*
X172659463Y-83935506D01*
X172600498Y-84045820D01*
X172564188Y-84165518D01*
X172551928Y-84290000D01*
X172551928Y-84395585D01*
X172507078Y-84419559D01*
X172440921Y-84454894D01*
X172440828Y-84454971D01*
X172440724Y-84455026D01*
X172383749Y-84501784D01*
X172354172Y-84526042D01*
X172354086Y-84526128D01*
X172324999Y-84549999D01*
X172301278Y-84578903D01*
X171618072Y-85261685D01*
X171618072Y-84290000D01*
X171605812Y-84165518D01*
X171569502Y-84045820D01*
X171510537Y-83935506D01*
X171431185Y-83838815D01*
X171334494Y-83759463D01*
X171224180Y-83700498D01*
X171104482Y-83664188D01*
X170980000Y-83651928D01*
X169380000Y-83651928D01*
X169255518Y-83664188D01*
X169135820Y-83700498D01*
X169025506Y-83759463D01*
X168928815Y-83838815D01*
X168905996Y-83866621D01*
X168492726Y-83453609D01*
X168469001Y-83424699D01*
X168439908Y-83400823D01*
X168439827Y-83400742D01*
X168411831Y-83377781D01*
X168353276Y-83329726D01*
X168353170Y-83329669D01*
X168353078Y-83329594D01*
X168287589Y-83294615D01*
X168221247Y-83259154D01*
X168221132Y-83259119D01*
X168221027Y-83259063D01*
X168149995Y-83237540D01*
X168077986Y-83215697D01*
X168077866Y-83215685D01*
X168077753Y-83215651D01*
X168005328Y-83208541D01*
X167966333Y-83204700D01*
X167966207Y-83204700D01*
X167928763Y-83201024D01*
X167891558Y-83204700D01*
X164848450Y-83204700D01*
X164811237Y-83201023D01*
X164773786Y-83204700D01*
X164773667Y-83204700D01*
X164736232Y-83208387D01*
X164662247Y-83215651D01*
X164662134Y-83215685D01*
X164662014Y-83215697D01*
X164590005Y-83237540D01*
X164518973Y-83259063D01*
X164518868Y-83259119D01*
X164518753Y-83259154D01*
X164453078Y-83294259D01*
X164386921Y-83329594D01*
X164386828Y-83329671D01*
X164386724Y-83329726D01*
X164329749Y-83376484D01*
X164300172Y-83400742D01*
X164300086Y-83400828D01*
X164270999Y-83424699D01*
X164247278Y-83453603D01*
X163834004Y-83866620D01*
X163811185Y-83838815D01*
X163714494Y-83759463D01*
X163604180Y-83700498D01*
X163484482Y-83664188D01*
X163360000Y-83651928D01*
X161760000Y-83651928D01*
X161635518Y-83664188D01*
X161515820Y-83700498D01*
X161405506Y-83759463D01*
X161308815Y-83838815D01*
X161229463Y-83935506D01*
X161170498Y-84045820D01*
X161134188Y-84165518D01*
X161121928Y-84290000D01*
X161121928Y-85890000D01*
X161134188Y-86014482D01*
X161170498Y-86134180D01*
X161229463Y-86244494D01*
X161308815Y-86341185D01*
X161405506Y-86420537D01*
X161515820Y-86479502D01*
X161635518Y-86515812D01*
X161643961Y-86516643D01*
X161520178Y-86640426D01*
X158403786Y-83524381D01*
X158380001Y-83495399D01*
X158350986Y-83471587D01*
X158350971Y-83471572D01*
X158325586Y-83450742D01*
X158264276Y-83400426D01*
X158264253Y-83400414D01*
X158264240Y-83400403D01*
X158209952Y-83371389D01*
X158132247Y-83329854D01*
X158132224Y-83329847D01*
X158132207Y-83329838D01*
X158067850Y-83310320D01*
X157988986Y-83286397D01*
X157988963Y-83286395D01*
X157988944Y-83286389D01*
X157925176Y-83280112D01*
X157877333Y-83275400D01*
X157877304Y-83275400D01*
X157839958Y-83271724D01*
X157802656Y-83275400D01*
X146547450Y-83275400D01*
X146510253Y-83271724D01*
X146472801Y-83275400D01*
X146472667Y-83275400D01*
X146433736Y-83279234D01*
X146361262Y-83286348D01*
X146361142Y-83286384D01*
X146361014Y-83286397D01*
X146289336Y-83308140D01*
X146217987Y-83329757D01*
X146217874Y-83329817D01*
X146217753Y-83329854D01*
X146151574Y-83365228D01*
X146085934Y-83400286D01*
X146085837Y-83400366D01*
X146085724Y-83400426D01*
X146027293Y-83448379D01*
X145999184Y-83471432D01*
X145999097Y-83471519D01*
X145969999Y-83495399D01*
X145946279Y-83524302D01*
X145244093Y-84226023D01*
X145215000Y-84249899D01*
X145168419Y-84306659D01*
X145120167Y-84365414D01*
X145120106Y-84365527D01*
X145120027Y-84365624D01*
X145085356Y-84430489D01*
X145049551Y-84497420D01*
X145049513Y-84497544D01*
X145049455Y-84497653D01*
X145028182Y-84567782D01*
X145006047Y-84640666D01*
X145006034Y-84640794D01*
X145005998Y-84640914D01*
X144998829Y-84713703D01*
X144991324Y-84789648D01*
X144170000Y-84789648D01*
X144170000Y-79400000D01*
X236830000Y-79400000D01*
X236830000Y-80126483D01*
G37*
%TD.AperFunction*%
D27*
X147447000Y-114963000D02*
X147467000Y-114963000D01*
X147467000Y-115217000D01*
X147447000Y-115217000D01*
X147447000Y-115237000D01*
X147193000Y-115237000D01*
X147193000Y-115217000D01*
X147173000Y-115217000D01*
X147173000Y-114963000D01*
X147193000Y-114963000D01*
X147193000Y-114943000D01*
X147447000Y-114943000D01*
X147447000Y-114963000D01*
%TA.AperFunction,Conductor*%
D28*
G36*
X147447000Y-114963000D02*
G01*
X147467000Y-114963000D01*
X147467000Y-115217000D01*
X147447000Y-115217000D01*
X147447000Y-115237000D01*
X147193000Y-115237000D01*
X147193000Y-115217000D01*
X147173000Y-115217000D01*
X147173000Y-114963000D01*
X147193000Y-114963000D01*
X147193000Y-114943000D01*
X147447000Y-114943000D01*
X147447000Y-114963000D01*
G37*
%TD.AperFunction*%
D27*
X147447000Y-110963000D02*
X147467000Y-110963000D01*
X147467000Y-111217000D01*
X147447000Y-111217000D01*
X147447000Y-111237000D01*
X147193000Y-111237000D01*
X147193000Y-111217000D01*
X147173000Y-111217000D01*
X147173000Y-110963000D01*
X147193000Y-110963000D01*
X147193000Y-110943000D01*
X147447000Y-110943000D01*
X147447000Y-110963000D01*
%TA.AperFunction,Conductor*%
D28*
G36*
X147447000Y-110963000D02*
G01*
X147467000Y-110963000D01*
X147467000Y-111217000D01*
X147447000Y-111217000D01*
X147447000Y-111237000D01*
X147193000Y-111237000D01*
X147193000Y-111217000D01*
X147173000Y-111217000D01*
X147173000Y-110963000D01*
X147193000Y-110963000D01*
X147193000Y-110943000D01*
X147447000Y-110943000D01*
X147447000Y-110963000D01*
G37*
%TD.AperFunction*%
D27*
X147447000Y-102963000D02*
X147467000Y-102963000D01*
X147467000Y-103217000D01*
X147447000Y-103217000D01*
X147447000Y-104963000D01*
X147467000Y-104963000D01*
X147467000Y-105217000D01*
X147447000Y-105217000D01*
X147447000Y-106963000D01*
X147467000Y-106963000D01*
X147467000Y-107217000D01*
X147447000Y-107217000D01*
X147447000Y-107237000D01*
X147193000Y-107237000D01*
X147193000Y-107217000D01*
X147173000Y-107217000D01*
X147173000Y-106963000D01*
X147193000Y-106963000D01*
X147193000Y-105217000D01*
X147173000Y-105217000D01*
X147173000Y-104963000D01*
X147193000Y-104963000D01*
X147193000Y-103217000D01*
X147173000Y-103217000D01*
X147173000Y-102963000D01*
X147193000Y-102963000D01*
X147193000Y-102943000D01*
X147447000Y-102943000D01*
X147447000Y-102963000D01*
%TA.AperFunction,Conductor*%
D28*
G36*
X147447000Y-102963000D02*
G01*
X147467000Y-102963000D01*
X147467000Y-103217000D01*
X147447000Y-103217000D01*
X147447000Y-104963000D01*
X147467000Y-104963000D01*
X147467000Y-105217000D01*
X147447000Y-105217000D01*
X147447000Y-106963000D01*
X147467000Y-106963000D01*
X147467000Y-107217000D01*
X147447000Y-107217000D01*
X147447000Y-107237000D01*
X147193000Y-107237000D01*
X147193000Y-107217000D01*
X147173000Y-107217000D01*
X147173000Y-106963000D01*
X147193000Y-106963000D01*
X147193000Y-105217000D01*
X147173000Y-105217000D01*
X147173000Y-104963000D01*
X147193000Y-104963000D01*
X147193000Y-103217000D01*
X147173000Y-103217000D01*
X147173000Y-102963000D01*
X147193000Y-102963000D01*
X147193000Y-102943000D01*
X147447000Y-102943000D01*
X147447000Y-102963000D01*
G37*
%TD.AperFunction*%
D27*
X154944636Y-84818149D02*
X154668149Y-85094636D01*
X154450915Y-85419750D01*
X154301282Y-85780997D01*
X154225000Y-86164495D01*
X154225000Y-86555505D01*
X154301282Y-86939003D01*
X154450915Y-87300250D01*
X154668149Y-87625364D01*
X154944636Y-87901851D01*
X155269750Y-88119085D01*
X155630997Y-88268718D01*
X156014495Y-88345000D01*
X156405505Y-88345000D01*
X156789003Y-88268718D01*
X157150250Y-88119085D01*
X157475364Y-87901851D01*
X157751851Y-87625364D01*
X157969085Y-87300250D01*
X158118718Y-86939003D01*
X158195000Y-86555505D01*
X158195000Y-86164495D01*
X158118718Y-85780997D01*
X157969085Y-85419750D01*
X157751851Y-85094636D01*
X157475364Y-84818149D01*
X157441318Y-84795400D01*
X157525223Y-84795400D01*
X160871219Y-88141024D01*
X160894999Y-88170001D01*
X160924008Y-88193808D01*
X160924028Y-88193828D01*
X160954428Y-88218773D01*
X161010724Y-88264974D01*
X161010744Y-88264985D01*
X161010759Y-88264997D01*
X161047625Y-88284700D01*
X159441544Y-88284700D01*
X159404439Y-88281024D01*
X159366894Y-88284700D01*
X159366667Y-88284700D01*
X159328556Y-88288454D01*
X159255444Y-88295612D01*
X159255235Y-88295675D01*
X159255014Y-88295697D01*
X159183088Y-88317515D01*
X159112160Y-88338986D01*
X159111967Y-88339089D01*
X159111753Y-88339154D01*
X159045327Y-88374660D01*
X158980090Y-88409482D01*
X158979920Y-88409621D01*
X158979724Y-88409726D01*
X158921598Y-88457429D01*
X158893322Y-88480607D01*
X158893169Y-88480760D01*
X158863999Y-88504699D01*
X158840337Y-88533531D01*
X158828455Y-88545400D01*
X150854397Y-88545400D01*
X150830590Y-88525862D01*
X150830218Y-88525491D01*
X150801992Y-88502393D01*
X150744276Y-88455026D01*
X150743802Y-88454773D01*
X150743392Y-88454437D01*
X150678429Y-88419829D01*
X150612247Y-88384454D01*
X150611730Y-88384297D01*
X150611264Y-88384049D01*
X150540683Y-88362746D01*
X150468986Y-88340997D01*
X150468452Y-88340944D01*
X150467944Y-88340791D01*
X150394596Y-88333670D01*
X150389848Y-88333203D01*
X150337544Y-88254923D01*
X150165940Y-88083319D01*
X150298303Y-87961227D01*
X150449473Y-87753629D01*
X150557238Y-87520528D01*
X150587910Y-87419400D01*
X150464224Y-87217000D01*
X149447000Y-87217000D01*
X149447000Y-87237000D01*
X149193000Y-87237000D01*
X149193000Y-87217000D01*
X147447000Y-87217000D01*
X147447000Y-88963000D01*
X147467000Y-88963000D01*
X147467000Y-89217000D01*
X147447000Y-89217000D01*
X147447000Y-90963000D01*
X147467000Y-90963000D01*
X147467000Y-91217000D01*
X147447000Y-91217000D01*
X147447000Y-92963000D01*
X147467000Y-92963000D01*
X147467000Y-93217000D01*
X147447000Y-93217000D01*
X147447000Y-94963000D01*
X147467000Y-94963000D01*
X147467000Y-95217000D01*
X147447000Y-95217000D01*
X147447000Y-96963000D01*
X147467000Y-96963000D01*
X147467000Y-97217000D01*
X147447000Y-97217000D01*
X147447000Y-98963000D01*
X147467000Y-98963000D01*
X147467000Y-99217000D01*
X147447000Y-99217000D01*
X147447000Y-99237000D01*
X147193000Y-99237000D01*
X147193000Y-99217000D01*
X147173000Y-99217000D01*
X147173000Y-98963000D01*
X147193000Y-98963000D01*
X147193000Y-97217000D01*
X147173000Y-97217000D01*
X147173000Y-96963000D01*
X147193000Y-96963000D01*
X147193000Y-95217000D01*
X147173000Y-95217000D01*
X147173000Y-94963000D01*
X147193000Y-94963000D01*
X147193000Y-93217000D01*
X147173000Y-93217000D01*
X147173000Y-92963000D01*
X147193000Y-92963000D01*
X147193000Y-91217000D01*
X147173000Y-91217000D01*
X147173000Y-90963000D01*
X147193000Y-90963000D01*
X147193000Y-89217000D01*
X147173000Y-89217000D01*
X147173000Y-88963000D01*
X147193000Y-88963000D01*
X147193000Y-87217000D01*
X147173000Y-87217000D01*
X147173000Y-86963000D01*
X147193000Y-86963000D01*
X147193000Y-86943000D01*
X147447000Y-86943000D01*
X147447000Y-86963000D01*
X149193000Y-86963000D01*
X149193000Y-86943000D01*
X149447000Y-86943000D01*
X149447000Y-86963000D01*
X150464224Y-86963000D01*
X150587910Y-86760600D01*
X150557238Y-86659472D01*
X150449473Y-86426371D01*
X150298303Y-86218773D01*
X150165940Y-86096681D01*
X150337544Y-85925077D01*
X150480907Y-85710518D01*
X150579658Y-85472113D01*
X150630000Y-85219024D01*
X150630000Y-84960976D01*
X150597065Y-84795400D01*
X154978682Y-84795400D01*
X154944636Y-84818149D01*
%TA.AperFunction,Conductor*%
D28*
G36*
X154944636Y-84818149D02*
G01*
X154668149Y-85094636D01*
X154450915Y-85419750D01*
X154301282Y-85780997D01*
X154225000Y-86164495D01*
X154225000Y-86555505D01*
X154301282Y-86939003D01*
X154450915Y-87300250D01*
X154668149Y-87625364D01*
X154944636Y-87901851D01*
X155269750Y-88119085D01*
X155630997Y-88268718D01*
X156014495Y-88345000D01*
X156405505Y-88345000D01*
X156789003Y-88268718D01*
X157150250Y-88119085D01*
X157475364Y-87901851D01*
X157751851Y-87625364D01*
X157969085Y-87300250D01*
X158118718Y-86939003D01*
X158195000Y-86555505D01*
X158195000Y-86164495D01*
X158118718Y-85780997D01*
X157969085Y-85419750D01*
X157751851Y-85094636D01*
X157475364Y-84818149D01*
X157441318Y-84795400D01*
X157525223Y-84795400D01*
X160871219Y-88141024D01*
X160894999Y-88170001D01*
X160924008Y-88193808D01*
X160924028Y-88193828D01*
X160954428Y-88218773D01*
X161010724Y-88264974D01*
X161010744Y-88264985D01*
X161010759Y-88264997D01*
X161047625Y-88284700D01*
X159441544Y-88284700D01*
X159404439Y-88281024D01*
X159366894Y-88284700D01*
X159366667Y-88284700D01*
X159328556Y-88288454D01*
X159255444Y-88295612D01*
X159255235Y-88295675D01*
X159255014Y-88295697D01*
X159183088Y-88317515D01*
X159112160Y-88338986D01*
X159111967Y-88339089D01*
X159111753Y-88339154D01*
X159045327Y-88374660D01*
X158980090Y-88409482D01*
X158979920Y-88409621D01*
X158979724Y-88409726D01*
X158921598Y-88457429D01*
X158893322Y-88480607D01*
X158893169Y-88480760D01*
X158863999Y-88504699D01*
X158840337Y-88533531D01*
X158828455Y-88545400D01*
X150854397Y-88545400D01*
X150830590Y-88525862D01*
X150830218Y-88525491D01*
X150801992Y-88502393D01*
X150744276Y-88455026D01*
X150743802Y-88454773D01*
X150743392Y-88454437D01*
X150678429Y-88419829D01*
X150612247Y-88384454D01*
X150611730Y-88384297D01*
X150611264Y-88384049D01*
X150540683Y-88362746D01*
X150468986Y-88340997D01*
X150468452Y-88340944D01*
X150467944Y-88340791D01*
X150394596Y-88333670D01*
X150389848Y-88333203D01*
X150337544Y-88254923D01*
X150165940Y-88083319D01*
X150298303Y-87961227D01*
X150449473Y-87753629D01*
X150557238Y-87520528D01*
X150587910Y-87419400D01*
X150464224Y-87217000D01*
X149447000Y-87217000D01*
X149447000Y-87237000D01*
X149193000Y-87237000D01*
X149193000Y-87217000D01*
X147447000Y-87217000D01*
X147447000Y-88963000D01*
X147467000Y-88963000D01*
X147467000Y-89217000D01*
X147447000Y-89217000D01*
X147447000Y-90963000D01*
X147467000Y-90963000D01*
X147467000Y-91217000D01*
X147447000Y-91217000D01*
X147447000Y-92963000D01*
X147467000Y-92963000D01*
X147467000Y-93217000D01*
X147447000Y-93217000D01*
X147447000Y-94963000D01*
X147467000Y-94963000D01*
X147467000Y-95217000D01*
X147447000Y-95217000D01*
X147447000Y-96963000D01*
X147467000Y-96963000D01*
X147467000Y-97217000D01*
X147447000Y-97217000D01*
X147447000Y-98963000D01*
X147467000Y-98963000D01*
X147467000Y-99217000D01*
X147447000Y-99217000D01*
X147447000Y-99237000D01*
X147193000Y-99237000D01*
X147193000Y-99217000D01*
X147173000Y-99217000D01*
X147173000Y-98963000D01*
X147193000Y-98963000D01*
X147193000Y-97217000D01*
X147173000Y-97217000D01*
X147173000Y-96963000D01*
X147193000Y-96963000D01*
X147193000Y-95217000D01*
X147173000Y-95217000D01*
X147173000Y-94963000D01*
X147193000Y-94963000D01*
X147193000Y-93217000D01*
X147173000Y-93217000D01*
X147173000Y-92963000D01*
X147193000Y-92963000D01*
X147193000Y-91217000D01*
X147173000Y-91217000D01*
X147173000Y-90963000D01*
X147193000Y-90963000D01*
X147193000Y-89217000D01*
X147173000Y-89217000D01*
X147173000Y-88963000D01*
X147193000Y-88963000D01*
X147193000Y-87217000D01*
X147173000Y-87217000D01*
X147173000Y-86963000D01*
X147193000Y-86963000D01*
X147193000Y-86943000D01*
X147447000Y-86943000D01*
X147447000Y-86963000D01*
X149193000Y-86963000D01*
X149193000Y-86943000D01*
X149447000Y-86943000D01*
X149447000Y-86963000D01*
X150464224Y-86963000D01*
X150587910Y-86760600D01*
X150557238Y-86659472D01*
X150449473Y-86426371D01*
X150298303Y-86218773D01*
X150165940Y-86096681D01*
X150337544Y-85925077D01*
X150480907Y-85710518D01*
X150579658Y-85472113D01*
X150630000Y-85219024D01*
X150630000Y-84960976D01*
X150597065Y-84795400D01*
X154978682Y-84795400D01*
X154944636Y-84818149D01*
G37*
%TD.AperFunction*%
D27*
X232301928Y-82327000D02*
X232228072Y-82327000D01*
X232228072Y-82033000D01*
X232301928Y-82033000D01*
X232301928Y-82327000D01*
%TA.AperFunction,Conductor*%
D28*
G36*
X232301928Y-82327000D02*
G01*
X232228072Y-82327000D01*
X232228072Y-82033000D01*
X232301928Y-82033000D01*
X232301928Y-82327000D01*
G37*
%TD.AperFunction*%
%TD*%
M02*
