%TF.GenerationSoftware,KiCad,Pcbnew,(5.1.10)-1*%
%TF.CreationDate,2021-06-14T15:07:00+02:00*%
%TF.ProjectId,bluepill_scsi,626c7565-7069-46c6-9c5f-736373692e6b,rev?*%
%TF.SameCoordinates,Original*%
%TF.FileFunction,Copper,L2,Bot*%
%TF.FilePolarity,Positive*%
%FSLAX46Y46*%
G04 Gerber Fmt 4.6, Leading zero omitted, Abs format (unit mm)*
G04 Created by KiCad (PCBNEW (5.1.10)-1) date 2021-06-14 15:07:00*
%MOMM*%
%LPD*%
G01*
G04 APERTURE LIST*
%TA.AperFunction,ComponentPad*%
%ADD10O,1.727200X1.727200*%
%TD*%
%TA.AperFunction,ComponentPad*%
%ADD11O,1.727200X2.250000*%
%TD*%
%TA.AperFunction,ComponentPad*%
%ADD12R,1.727200X2.250000*%
%TD*%
%TA.AperFunction,ComponentPad*%
%ADD13O,1.600000X1.600000*%
%TD*%
%TA.AperFunction,ComponentPad*%
%ADD14R,1.600000X1.600000*%
%TD*%
%TA.AperFunction,ComponentPad*%
%ADD15O,1.700000X1.700000*%
%TD*%
%TA.AperFunction,ComponentPad*%
%ADD16R,1.700000X1.700000*%
%TD*%
%TA.AperFunction,ComponentPad*%
%ADD17O,1.350000X1.350000*%
%TD*%
%TA.AperFunction,ComponentPad*%
%ADD18R,1.350000X1.350000*%
%TD*%
%TA.AperFunction,ViaPad*%
%ADD19C,0.800000*%
%TD*%
%TA.AperFunction,Conductor*%
%ADD20C,0.250000*%
%TD*%
%TA.AperFunction,Conductor*%
%ADD21C,0.254000*%
%TD*%
%TA.AperFunction,Conductor*%
%ADD22C,0.100000*%
%TD*%
G04 APERTURE END LIST*
D10*
%TO.P,U1,42*%
%TO.N,N/C*%
X227380800Y-106690000D03*
%TO.P,U1,41*%
X227380800Y-109230000D03*
D11*
%TO.P,U1,40*%
%TO.N,+3V3*%
X231241600Y-115570000D03*
%TO.P,U1,39*%
%TO.N,GND*%
X228650800Y-115570000D03*
%TO.P,U1,38*%
%TO.N,VCC*%
X226110800Y-115570000D03*
%TO.P,U1,37*%
%TO.N,/SCSI_DAT1*%
X223570800Y-115570000D03*
%TO.P,U1,36*%
%TO.N,/SCSI_DAT0*%
X221030800Y-115570000D03*
%TO.P,U1,35*%
%TO.N,/SCSI_IO*%
X218490800Y-115570000D03*
%TO.P,U1,34*%
%TO.N,/SCSI_REQ*%
X215950800Y-115570000D03*
%TO.P,U1,33*%
%TO.N,/SCSI_CD*%
X213410800Y-115570000D03*
%TO.P,U1,32*%
%TO.N,/SCSI_SEL*%
X210870800Y-115570000D03*
%TO.P,U1,31*%
%TO.N,/SCSI_MSG*%
X208330800Y-115570000D03*
%TO.P,U1,30*%
%TO.N,/SCSI_RST*%
X205790800Y-115570000D03*
%TO.P,U1,29*%
%TO.N,N/C*%
X203250800Y-115570000D03*
%TO.P,U1,28*%
X200710800Y-115570000D03*
%TO.P,U1,27*%
%TO.N,/SCSI_ACK*%
X198170800Y-115570000D03*
%TO.P,U1,26*%
%TO.N,/SCSI_BSY*%
X195630800Y-115570000D03*
%TO.P,U1,25*%
%TO.N,/SCSI_ATN*%
X193090800Y-115570000D03*
%TO.P,U1,24*%
%TO.N,/SCSI_DAT7*%
X190550800Y-115570000D03*
%TO.P,U1,23*%
%TO.N,/SCSI_DAT6*%
X188010800Y-115570000D03*
%TO.P,U1,22*%
%TO.N,/SCSI_DAT5*%
X185470800Y-115570000D03*
%TO.P,U1,21*%
%TO.N,/SCSI_DAT4*%
X182930800Y-115570000D03*
%TO.P,U1,20*%
%TO.N,GND*%
X182930800Y-100330000D03*
%TO.P,U1,19*%
X185470800Y-100330000D03*
%TO.P,U1,18*%
%TO.N,+3V3*%
X188010800Y-100330000D03*
%TO.P,U1,17*%
%TO.N,N/C*%
X190550800Y-100330000D03*
%TO.P,U1,16*%
%TO.N,/SCSI_DAT3*%
X193090800Y-100330000D03*
%TO.P,U1,15*%
%TO.N,/SCSI_DAT2*%
X195630800Y-100330000D03*
%TO.P,U1,14*%
%TO.N,N/C*%
X198170800Y-100330000D03*
%TO.P,U1,13*%
%TO.N,/SCSI_DBP*%
X200710800Y-100330000D03*
%TO.P,U1,12*%
%TO.N,/SD_MOSI*%
X203250800Y-100330000D03*
%TO.P,U1,11*%
%TO.N,/SD_MISO*%
X205790800Y-100330000D03*
%TO.P,U1,10*%
%TO.N,/SD_CLK*%
X208330800Y-100330000D03*
%TO.P,U1,9*%
%TO.N,/SD_CS*%
X210870800Y-100330000D03*
%TO.P,U1,8*%
%TO.N,N/C*%
X213410800Y-100330000D03*
%TO.P,U1,7*%
X215950800Y-100330000D03*
%TO.P,U1,6*%
X218490800Y-100330000D03*
%TO.P,U1,5*%
X221030800Y-100330000D03*
%TO.P,U1,4*%
X223570800Y-100330000D03*
%TO.P,U1,3*%
X226110800Y-100330000D03*
%TO.P,U1,2*%
X228650800Y-100330000D03*
D12*
%TO.P,U1,1*%
X231190800Y-100330000D03*
%TD*%
D13*
%TO.P,RN4,10*%
%TO.N,/SCSI_DAT7*%
X173990000Y-107950000D03*
%TO.P,RN4,9*%
%TO.N,/SCSI_DAT6*%
X173990000Y-105410000D03*
%TO.P,RN4,8*%
%TO.N,/SCSI_DAT5*%
X173990000Y-102870000D03*
%TO.P,RN4,7*%
%TO.N,/SCSI_DAT4*%
X173990000Y-100330000D03*
%TO.P,RN4,6*%
%TO.N,/SCSI_DAT3*%
X173990000Y-97790000D03*
%TO.P,RN4,5*%
%TO.N,/SCSI_DAT2*%
X173990000Y-95250000D03*
%TO.P,RN4,4*%
%TO.N,/SCSI_DAT1*%
X173990000Y-92710000D03*
%TO.P,RN4,3*%
%TO.N,/SCSI_DAT0*%
X173990000Y-90170000D03*
%TO.P,RN4,2*%
%TO.N,/SCSI_DBP*%
X173990000Y-87630000D03*
D14*
%TO.P,RN4,1*%
%TO.N,Net-(JP1-Pad1)*%
X173990000Y-85090000D03*
%TD*%
D13*
%TO.P,RN3,10*%
%TO.N,/SCSI_DAT7*%
X170180000Y-107950000D03*
%TO.P,RN3,9*%
%TO.N,/SCSI_DAT6*%
X170180000Y-105410000D03*
%TO.P,RN3,8*%
%TO.N,/SCSI_DAT5*%
X170180000Y-102870000D03*
%TO.P,RN3,7*%
%TO.N,/SCSI_DAT4*%
X170180000Y-100330000D03*
%TO.P,RN3,6*%
%TO.N,/SCSI_DAT3*%
X170180000Y-97790000D03*
%TO.P,RN3,5*%
%TO.N,/SCSI_DAT2*%
X170180000Y-95250000D03*
%TO.P,RN3,4*%
%TO.N,/SCSI_DAT1*%
X170180000Y-92710000D03*
%TO.P,RN3,3*%
%TO.N,/SCSI_DAT0*%
X170180000Y-90170000D03*
%TO.P,RN3,2*%
%TO.N,/SCSI_DBP*%
X170180000Y-87630000D03*
D14*
%TO.P,RN3,1*%
%TO.N,Net-(JP2-Pad1)*%
X170180000Y-85090000D03*
%TD*%
%TO.P,RN2,1*%
%TO.N,Net-(JP1-Pad1)*%
X166370000Y-85090000D03*
D13*
%TO.P,RN2,2*%
%TO.N,/SCSI_IO*%
X166370000Y-87630000D03*
%TO.P,RN2,3*%
%TO.N,/SCSI_REQ*%
X166370000Y-90170000D03*
%TO.P,RN2,4*%
%TO.N,/SCSI_CD*%
X166370000Y-92710000D03*
%TO.P,RN2,5*%
%TO.N,/SCSI_MSG*%
X166370000Y-95250000D03*
%TO.P,RN2,6*%
%TO.N,/SCSI_BSY*%
X166370000Y-97790000D03*
%TO.P,RN2,7*%
%TO.N,/SCSI_SEL*%
X166370000Y-100330000D03*
%TO.P,RN2,8*%
%TO.N,/SCSI_RST*%
X166370000Y-102870000D03*
%TO.P,RN2,9*%
%TO.N,/SCSI_ACK*%
X166370000Y-105410000D03*
%TO.P,RN2,10*%
%TO.N,/SCSI_ATN*%
X166370000Y-107950000D03*
%TD*%
%TO.P,RN1,10*%
%TO.N,/SCSI_ATN*%
X162560000Y-107950000D03*
%TO.P,RN1,9*%
%TO.N,/SCSI_ACK*%
X162560000Y-105410000D03*
%TO.P,RN1,8*%
%TO.N,/SCSI_RST*%
X162560000Y-102870000D03*
%TO.P,RN1,7*%
%TO.N,/SCSI_SEL*%
X162560000Y-100330000D03*
%TO.P,RN1,6*%
%TO.N,/SCSI_BSY*%
X162560000Y-97790000D03*
%TO.P,RN1,5*%
%TO.N,/SCSI_MSG*%
X162560000Y-95250000D03*
%TO.P,RN1,4*%
%TO.N,/SCSI_CD*%
X162560000Y-92710000D03*
%TO.P,RN1,3*%
%TO.N,/SCSI_REQ*%
X162560000Y-90170000D03*
%TO.P,RN1,2*%
%TO.N,/SCSI_IO*%
X162560000Y-87630000D03*
D14*
%TO.P,RN1,1*%
%TO.N,Net-(JP2-Pad1)*%
X162560000Y-85090000D03*
%TD*%
D15*
%TO.P,JP2,2*%
%TO.N,VCC*%
X162560000Y-119380000D03*
D16*
%TO.P,JP2,1*%
%TO.N,Net-(JP2-Pad1)*%
X162560000Y-121920000D03*
%TD*%
D15*
%TO.P,JP1,2*%
%TO.N,GND*%
X166370000Y-119380000D03*
D16*
%TO.P,JP1,1*%
%TO.N,Net-(JP1-Pad1)*%
X166370000Y-121920000D03*
%TD*%
D17*
%TO.P,J5,40*%
%TO.N,N/C*%
X149320000Y-123090000D03*
%TO.P,J5,39*%
X147320000Y-123090000D03*
%TO.P,J5,38*%
%TO.N,GND*%
X149320000Y-121090000D03*
%TO.P,J5,37*%
X147320000Y-121090000D03*
%TO.P,J5,36*%
%TO.N,/SCSI_REQ*%
X149320000Y-119090000D03*
%TO.P,J5,35*%
%TO.N,GND*%
X147320000Y-119090000D03*
%TO.P,J5,34*%
%TO.N,/SCSI_CD*%
X149320000Y-117090000D03*
%TO.P,J5,33*%
%TO.N,/SCSI_IO*%
X147320000Y-117090000D03*
%TO.P,J5,32*%
%TO.N,/SCSI_SEL*%
X149320000Y-115090000D03*
%TO.P,J5,31*%
%TO.N,GND*%
X147320000Y-115090000D03*
%TO.P,J5,30*%
%TO.N,/SCSI_MSG*%
X149320000Y-113090000D03*
%TO.P,J5,29*%
%TO.N,/SCSI_RST*%
X147320000Y-113090000D03*
%TO.P,J5,28*%
%TO.N,/SCSI_ACK*%
X149320000Y-111090000D03*
%TO.P,J5,27*%
%TO.N,GND*%
X147320000Y-111090000D03*
%TO.P,J5,26*%
%TO.N,/SCSI_BSY*%
X149320000Y-109090000D03*
%TO.P,J5,25*%
%TO.N,/SCSI_ATN*%
X147320000Y-109090000D03*
%TO.P,J5,24*%
%TO.N,N/C*%
X149320000Y-107090000D03*
%TO.P,J5,23*%
%TO.N,GND*%
X147320000Y-107090000D03*
%TO.P,J5,22*%
%TO.N,/SCSI_DBP*%
X149320000Y-105090000D03*
%TO.P,J5,21*%
%TO.N,GND*%
X147320000Y-105090000D03*
%TO.P,J5,20*%
%TO.N,/SCSI_DAT7*%
X149320000Y-103090000D03*
%TO.P,J5,19*%
%TO.N,GND*%
X147320000Y-103090000D03*
%TO.P,J5,18*%
%TO.N,/SCSI_DAT6*%
X149320000Y-101090000D03*
%TO.P,J5,17*%
%TO.N,N/C*%
X147320000Y-101090000D03*
%TO.P,J5,16*%
%TO.N,/SCSI_DAT5*%
X149320000Y-99090000D03*
%TO.P,J5,15*%
%TO.N,GND*%
X147320000Y-99090000D03*
%TO.P,J5,14*%
%TO.N,/SCSI_DAT4*%
X149320000Y-97090000D03*
%TO.P,J5,13*%
%TO.N,GND*%
X147320000Y-97090000D03*
%TO.P,J5,12*%
%TO.N,/SCSI_DAT3*%
X149320000Y-95090000D03*
%TO.P,J5,11*%
%TO.N,GND*%
X147320000Y-95090000D03*
%TO.P,J5,10*%
%TO.N,/SCSI_DAT2*%
X149320000Y-93090000D03*
%TO.P,J5,9*%
%TO.N,GND*%
X147320000Y-93090000D03*
%TO.P,J5,8*%
%TO.N,/SCSI_DAT1*%
X149320000Y-91090000D03*
%TO.P,J5,7*%
%TO.N,GND*%
X147320000Y-91090000D03*
%TO.P,J5,6*%
%TO.N,/SCSI_DAT0*%
X149320000Y-89090000D03*
%TO.P,J5,5*%
%TO.N,GND*%
X147320000Y-89090000D03*
%TO.P,J5,4*%
X149320000Y-87090000D03*
%TO.P,J5,3*%
X147320000Y-87090000D03*
%TO.P,J5,2*%
%TO.N,VCC*%
X149320000Y-85090000D03*
D18*
%TO.P,J5,1*%
%TO.N,N/C*%
X147320000Y-85090000D03*
%TD*%
D16*
%TO.P,J3,1*%
%TO.N,+3V3*%
X190500000Y-124460000D03*
D15*
%TO.P,J3,2*%
%TO.N,GND*%
X193040000Y-124460000D03*
%TO.P,J3,3*%
%TO.N,/SCSI_BSY*%
X195580000Y-124460000D03*
%TO.P,J3,4*%
%TO.N,/SCSI_ACK*%
X198120000Y-124460000D03*
%TD*%
D19*
%TO.N,/SD_CS*%
X227606300Y-83363900D03*
%TO.N,/SCSI_ACK*%
X156681000Y-110798000D03*
%TD*%
D20*
%TO.N,GND*%
X182931000Y-100330000D02*
X182930800Y-100330000D01*
X185470800Y-100330000D02*
X182931000Y-100330000D01*
X147320000Y-97090000D02*
X147320000Y-99090000D01*
X147320000Y-95090000D02*
X147320000Y-97090000D01*
X147320000Y-93090000D02*
X147320000Y-95090000D01*
X147320000Y-91090000D02*
X147320000Y-93090000D01*
X147320000Y-89090000D02*
X147320000Y-91090000D01*
X193040000Y-124460000D02*
X193040000Y-123285000D01*
X193040000Y-123285000D02*
X191865000Y-122109000D01*
X191865000Y-122109000D02*
X191865000Y-106724000D01*
X191865000Y-106724000D02*
X186660000Y-101519000D01*
X186660000Y-101519000D02*
X186660000Y-100330000D01*
X186660000Y-100330000D02*
X185470800Y-100330000D01*
X147320000Y-119090000D02*
X146317000Y-118087000D01*
X146317000Y-118087000D02*
X146317000Y-116093000D01*
X146317000Y-116093000D02*
X147320000Y-115090000D01*
X147320000Y-103090000D02*
X146318000Y-102088000D01*
X146318000Y-102088000D02*
X146318000Y-100092000D01*
X146318000Y-100092000D02*
X147320000Y-99090000D01*
X147320000Y-103090000D02*
X147320000Y-105090000D01*
X147320000Y-105090000D02*
X147320000Y-107090000D01*
X149320000Y-87090000D02*
X147320000Y-87090000D01*
%TO.N,+3V3*%
X194310000Y-124881000D02*
X195096000Y-125667000D01*
X195096000Y-125667000D02*
X220550000Y-125667000D01*
X220550000Y-125667000D02*
X230053000Y-116164000D01*
X230053000Y-116164000D02*
X230053000Y-115570000D01*
X230053000Y-115570000D02*
X231241600Y-115570000D01*
X188011000Y-100330000D02*
X188010800Y-100330000D01*
X188011000Y-100330000D02*
X189200000Y-100330000D01*
X189200000Y-100330000D02*
X189200000Y-101519000D01*
X189200000Y-101519000D02*
X194310000Y-106629000D01*
X194310000Y-106629000D02*
X194310000Y-124881000D01*
X231241600Y-115570000D02*
X231242000Y-115570000D01*
X190500000Y-124460000D02*
X191675000Y-124460000D01*
X191675000Y-124460000D02*
X191675000Y-124827000D01*
X191675000Y-124827000D02*
X192483000Y-125635000D01*
X192483000Y-125635000D02*
X193555000Y-125635000D01*
X193555000Y-125635000D02*
X194310000Y-124881000D01*
%TO.N,/SD_CS*%
X210870800Y-100330000D02*
X210870800Y-98879700D01*
X227606300Y-83363900D02*
X212090500Y-98879700D01*
X212090500Y-98879700D02*
X210870800Y-98879700D01*
%TO.N,/SCSI_ACK*%
X198170800Y-115570000D02*
X198171000Y-115570000D01*
X162560000Y-105410000D02*
X161435000Y-105410000D01*
X161435000Y-105410000D02*
X161435000Y-106044000D01*
X161435000Y-106044000D02*
X156681000Y-110798000D01*
X198120000Y-124460000D02*
X198120000Y-123285000D01*
X198120000Y-123285000D02*
X198171000Y-123234000D01*
X198171000Y-123234000D02*
X198171000Y-115570000D01*
%TO.N,/SCSI_BSY*%
X195630800Y-115570000D02*
X195631000Y-115570000D01*
X195580000Y-124460000D02*
X195580000Y-123285000D01*
X195580000Y-123285000D02*
X195631000Y-123234000D01*
X195631000Y-123234000D02*
X195631000Y-115570000D01*
X149320000Y-109090000D02*
X150320000Y-109090000D01*
X150320000Y-109090000D02*
X150320000Y-108904000D01*
X150320000Y-108904000D02*
X161435000Y-97790000D01*
X161435000Y-97790000D02*
X162560000Y-97790000D01*
%TO.N,/SCSI_REQ*%
X149320000Y-119090000D02*
X150320000Y-119090000D01*
X150320000Y-119090000D02*
X150320000Y-118598000D01*
X150320000Y-118598000D02*
X162238000Y-106680000D01*
X162238000Y-106680000D02*
X162962000Y-106680000D01*
X162962000Y-106680000D02*
X164720000Y-104921000D01*
X164720000Y-104921000D02*
X164720000Y-92663500D01*
X164720000Y-92663500D02*
X166089000Y-91295300D01*
X166089000Y-91295300D02*
X166370000Y-91295300D01*
X166370000Y-91295300D02*
X166370000Y-90170000D01*
%TO.N,/SCSI_CD*%
X149320000Y-117090000D02*
X149320000Y-116875000D01*
X149320000Y-116875000D02*
X162055000Y-104140000D01*
X162055000Y-104140000D02*
X162933000Y-104140000D01*
X162933000Y-104140000D02*
X164141000Y-102932000D01*
X164141000Y-102932000D02*
X164141000Y-95134800D01*
X164141000Y-95134800D02*
X162841000Y-93835300D01*
X162841000Y-93835300D02*
X162560000Y-93835300D01*
X162560000Y-93835300D02*
X162560000Y-92710000D01*
%TO.N,/SCSI_IO*%
X218490800Y-115570000D02*
X218491000Y-115570000D01*
X166370000Y-87630000D02*
X166370000Y-86504700D01*
X166370000Y-86504700D02*
X167098000Y-86504700D01*
X167098000Y-86504700D02*
X167495000Y-86107900D01*
X167495000Y-86107900D02*
X167495000Y-85710900D01*
X167495000Y-85710900D02*
X169242000Y-83964600D01*
X169242000Y-83964600D02*
X186317000Y-83964600D01*
X186317000Y-83964600D02*
X201981000Y-99628800D01*
X201981000Y-99628800D02*
X201981000Y-101013000D01*
X201981000Y-101013000D02*
X210269000Y-109301000D01*
X210269000Y-109301000D02*
X211627000Y-109301000D01*
X211627000Y-109301000D02*
X217302000Y-114976000D01*
X217302000Y-114976000D02*
X217302000Y-115570000D01*
X217302000Y-115570000D02*
X218490800Y-115570000D01*
%TO.N,/SCSI_SEL*%
X149320000Y-115090000D02*
X161435000Y-102975000D01*
X161435000Y-102975000D02*
X161435000Y-102299000D01*
X161435000Y-102299000D02*
X162279000Y-101455000D01*
X162279000Y-101455000D02*
X162560000Y-101455000D01*
X162560000Y-101455000D02*
X162560000Y-100330000D01*
%TO.N,/SCSI_MSG*%
X149320000Y-113090000D02*
X150771000Y-111639000D01*
X150771000Y-111639000D02*
X150771000Y-110522000D01*
X150771000Y-110522000D02*
X162232000Y-99060000D01*
X162232000Y-99060000D02*
X162891000Y-99060000D01*
X162891000Y-99060000D02*
X163685000Y-98265600D01*
X163685000Y-98265600D02*
X163685000Y-97219200D01*
X163685000Y-97219200D02*
X162841000Y-96375300D01*
X162841000Y-96375300D02*
X162560000Y-96375300D01*
X162560000Y-96375300D02*
X162560000Y-95250000D01*
%TO.N,/SCSI_RST*%
X166370000Y-102870000D02*
X166370000Y-103995000D01*
X166370000Y-103995000D02*
X166089000Y-103995000D01*
X166089000Y-103995000D02*
X165245000Y-104839000D01*
X165245000Y-104839000D02*
X165245000Y-108583000D01*
X165245000Y-108583000D02*
X149731000Y-124096000D01*
X149731000Y-124096000D02*
X146876000Y-124096000D01*
X146876000Y-124096000D02*
X145854000Y-123075000D01*
X145854000Y-123075000D02*
X145854000Y-114556000D01*
X145854000Y-114556000D02*
X147320000Y-113090000D01*
%TO.N,/SCSI_ATN*%
X147320000Y-109090000D02*
X145401000Y-111009000D01*
X145401000Y-111009000D02*
X145401000Y-123266000D01*
X145401000Y-123266000D02*
X146700000Y-124566000D01*
X146700000Y-124566000D02*
X150879000Y-124566000D01*
X150879000Y-124566000D02*
X166370000Y-109075000D01*
X166370000Y-109075000D02*
X166370000Y-107950000D01*
%TO.N,/SCSI_DBP*%
X200710800Y-100330000D02*
X200711000Y-100330000D01*
X173990000Y-87630000D02*
X187416000Y-87630000D01*
X187416000Y-87630000D02*
X199522000Y-99735600D01*
X199522000Y-99735600D02*
X199522000Y-100330000D01*
X199522000Y-100330000D02*
X200710800Y-100330000D01*
X149320000Y-105090000D02*
X161062000Y-93348300D01*
X161062000Y-93348300D02*
X161062000Y-92551600D01*
X161062000Y-92551600D02*
X162173000Y-91440000D01*
X162173000Y-91440000D02*
X162884000Y-91440000D01*
X162884000Y-91440000D02*
X165568000Y-88755300D01*
X165568000Y-88755300D02*
X167929000Y-88755300D01*
X167929000Y-88755300D02*
X169055000Y-87630000D01*
X169055000Y-87630000D02*
X170180000Y-87630000D01*
%TO.N,/SCSI_DAT7*%
X190550800Y-115570000D02*
X190551000Y-115570000D01*
X173990000Y-107950000D02*
X173990000Y-109906000D01*
X173990000Y-109906000D02*
X182063000Y-117978000D01*
X182063000Y-117978000D02*
X187548000Y-117978000D01*
X187548000Y-117978000D02*
X189362000Y-116164000D01*
X189362000Y-116164000D02*
X189362000Y-115570000D01*
X189362000Y-115570000D02*
X190550800Y-115570000D01*
%TO.N,/SCSI_DAT6*%
X188010800Y-115570000D02*
X188011000Y-115570000D01*
X173990000Y-105410000D02*
X173990000Y-106535000D01*
X173990000Y-106535000D02*
X174182000Y-106535000D01*
X174182000Y-106535000D02*
X175527000Y-107880000D01*
X175527000Y-107880000D02*
X175527000Y-110778000D01*
X175527000Y-110778000D02*
X182277000Y-117528000D01*
X182277000Y-117528000D02*
X185458000Y-117528000D01*
X185458000Y-117528000D02*
X186822000Y-116164000D01*
X186822000Y-116164000D02*
X186822000Y-115570000D01*
X186822000Y-115570000D02*
X188010800Y-115570000D01*
%TO.N,/SCSI_DAT5*%
X185470800Y-115570000D02*
X185471000Y-115570000D01*
X173990000Y-102870000D02*
X173990000Y-103995000D01*
X173990000Y-103995000D02*
X174271000Y-103995000D01*
X174271000Y-103995000D02*
X180865000Y-110589000D01*
X180865000Y-110589000D02*
X180865000Y-115466000D01*
X180865000Y-115466000D02*
X182419000Y-117020000D01*
X182419000Y-117020000D02*
X183426000Y-117020000D01*
X183426000Y-117020000D02*
X184282000Y-116164000D01*
X184282000Y-116164000D02*
X184282000Y-115570000D01*
X184282000Y-115570000D02*
X185470800Y-115570000D01*
%TO.N,/SCSI_DAT4*%
X182931000Y-111478500D02*
X182930800Y-111478700D01*
X182930800Y-111478700D02*
X182930800Y-115570000D01*
X182931000Y-111478500D02*
X182931000Y-112842000D01*
X173990000Y-100330000D02*
X173990000Y-101455000D01*
X173990000Y-101455000D02*
X174271000Y-101455000D01*
X174271000Y-101455000D02*
X182931000Y-110115000D01*
X182931000Y-110115000D02*
X182931000Y-111478500D01*
%TO.N,/SCSI_DAT3*%
X193090800Y-100330000D02*
X193091000Y-100330000D01*
X173990000Y-97790000D02*
X189956000Y-97790000D01*
X189956000Y-97790000D02*
X191902000Y-99735600D01*
X191902000Y-99735600D02*
X191902000Y-100330000D01*
X191902000Y-100330000D02*
X193090800Y-100330000D01*
%TO.N,/SCSI_DAT2*%
X195630800Y-100330000D02*
X195631000Y-100330000D01*
X173990000Y-95250000D02*
X189956000Y-95250000D01*
X189956000Y-95250000D02*
X194442000Y-99735600D01*
X194442000Y-99735600D02*
X194442000Y-100330000D01*
X194442000Y-100330000D02*
X195630800Y-100330000D01*
%TO.N,/SCSI_DAT0*%
X221030800Y-115570000D02*
X221031000Y-115570000D01*
X173990000Y-90170000D02*
X187450000Y-90170000D01*
X187450000Y-90170000D02*
X196901000Y-99620400D01*
X196901000Y-99620400D02*
X196901000Y-101003000D01*
X196901000Y-101003000D02*
X204180000Y-108283000D01*
X204180000Y-108283000D02*
X205585000Y-108283000D01*
X205585000Y-108283000D02*
X212141000Y-114839000D01*
X212141000Y-114839000D02*
X212141000Y-116245000D01*
X212141000Y-116245000D02*
X212940000Y-117045000D01*
X212940000Y-117045000D02*
X218962000Y-117045000D01*
X218962000Y-117045000D02*
X219842000Y-116164000D01*
X219842000Y-116164000D02*
X219842000Y-115570000D01*
X219842000Y-115570000D02*
X221030800Y-115570000D01*
%TO.N,VCC*%
X149320000Y-85090000D02*
X148320000Y-84089600D01*
X148320000Y-84089600D02*
X146445000Y-84089600D01*
X146445000Y-84089600D02*
X144901000Y-85632800D01*
X144901000Y-85632800D02*
X144901000Y-123451000D01*
X144901000Y-123451000D02*
X146486000Y-125035000D01*
X146486000Y-125035000D02*
X155730000Y-125035000D01*
X155730000Y-125035000D02*
X161385000Y-119380000D01*
X161385000Y-119380000D02*
X162560000Y-119380000D01*
%TO.N,Net-(JP1-Pad1)*%
X166370000Y-121920000D02*
X166370000Y-120745000D01*
X166370000Y-120745000D02*
X166737000Y-120745000D01*
X166737000Y-120745000D02*
X172414000Y-115068000D01*
X172414000Y-115068000D02*
X172414000Y-87509500D01*
X172414000Y-87509500D02*
X173709000Y-86215300D01*
X173709000Y-86215300D02*
X173990000Y-86215300D01*
X173990000Y-86215300D02*
X173990000Y-85090000D01*
%TO.N,Net-(JP2-Pad1)*%
X162560000Y-121920000D02*
X162560000Y-120745000D01*
X162560000Y-120745000D02*
X162865000Y-120745000D01*
X162865000Y-120745000D02*
X171305000Y-112304000D01*
X171305000Y-112304000D02*
X171305000Y-87059200D01*
X171305000Y-87059200D02*
X170461000Y-86215300D01*
X170461000Y-86215300D02*
X170180000Y-86215300D01*
X170180000Y-86215300D02*
X170180000Y-85090000D01*
%TD*%
D21*
%TO.N,GND*%
X173230001Y-109168044D02*
X173230001Y-109868689D01*
X173226324Y-109906047D01*
X173233774Y-109981637D01*
X173240998Y-110054986D01*
X173241005Y-110055008D01*
X173241007Y-110055032D01*
X173265172Y-110134679D01*
X173284455Y-110198247D01*
X173284464Y-110198264D01*
X173284472Y-110198290D01*
X173319593Y-110263985D01*
X173355027Y-110330276D01*
X173355042Y-110330294D01*
X173355053Y-110330315D01*
X173401862Y-110387345D01*
X173450000Y-110446001D01*
X173479018Y-110469815D01*
X181499217Y-118489023D01*
X181522999Y-118518001D01*
X181552014Y-118541813D01*
X181552032Y-118541831D01*
X181582459Y-118566799D01*
X181638724Y-118612974D01*
X181638745Y-118612985D01*
X181638763Y-118613000D01*
X181702522Y-118647075D01*
X181770753Y-118683546D01*
X181770777Y-118683553D01*
X181770797Y-118683564D01*
X181840186Y-118704608D01*
X181914014Y-118727003D01*
X181914038Y-118727005D01*
X181914060Y-118727012D01*
X181979828Y-118733485D01*
X182025667Y-118738000D01*
X182025699Y-118738000D01*
X182063047Y-118741676D01*
X182100347Y-118738000D01*
X187510678Y-118738000D01*
X187548000Y-118741676D01*
X187585322Y-118738000D01*
X187585333Y-118738000D01*
X187696986Y-118727003D01*
X187840247Y-118683546D01*
X187972276Y-118612974D01*
X188088001Y-118518001D01*
X188111803Y-118488998D01*
X189606070Y-116994733D01*
X189714195Y-117083469D01*
X189974537Y-117222625D01*
X190257024Y-117308316D01*
X190550800Y-117337251D01*
X190844577Y-117308316D01*
X191127064Y-117222625D01*
X191387406Y-117083469D01*
X191615597Y-116896197D01*
X191802869Y-116668006D01*
X191820800Y-116634460D01*
X191838731Y-116668006D01*
X192026003Y-116896197D01*
X192254195Y-117083469D01*
X192514537Y-117222625D01*
X192797024Y-117308316D01*
X193090800Y-117337251D01*
X193384577Y-117308316D01*
X193550001Y-117258136D01*
X193550001Y-123065986D01*
X193544099Y-123063175D01*
X193396890Y-123018524D01*
X193167000Y-123139845D01*
X193167000Y-124333000D01*
X193187000Y-124333000D01*
X193187000Y-124587000D01*
X193167000Y-124587000D01*
X193167000Y-124607000D01*
X192913000Y-124607000D01*
X192913000Y-124587000D01*
X192893000Y-124587000D01*
X192893000Y-124333000D01*
X192913000Y-124333000D01*
X192913000Y-123139845D01*
X192683110Y-123018524D01*
X192535901Y-123063175D01*
X192273080Y-123188359D01*
X192039731Y-123362412D01*
X191963966Y-123446466D01*
X191939502Y-123365820D01*
X191880537Y-123255506D01*
X191801185Y-123158815D01*
X191704494Y-123079463D01*
X191594180Y-123020498D01*
X191474482Y-122984188D01*
X191350000Y-122971928D01*
X189650000Y-122971928D01*
X189525518Y-122984188D01*
X189405820Y-123020498D01*
X189295506Y-123079463D01*
X189198815Y-123158815D01*
X189119463Y-123255506D01*
X189060498Y-123365820D01*
X189024188Y-123485518D01*
X189011928Y-123610000D01*
X189011928Y-125310000D01*
X189024188Y-125434482D01*
X189060498Y-125554180D01*
X189119463Y-125664494D01*
X189198815Y-125761185D01*
X189295506Y-125840537D01*
X189405820Y-125899502D01*
X189525518Y-125935812D01*
X189650000Y-125948072D01*
X191350000Y-125948072D01*
X191474482Y-125935812D01*
X191594180Y-125899502D01*
X191645349Y-125872151D01*
X191919201Y-126146002D01*
X191942999Y-126175001D01*
X191971997Y-126198799D01*
X192058724Y-126269974D01*
X192189732Y-126340000D01*
X144170000Y-126340000D01*
X144170000Y-123659346D01*
X144173664Y-123671412D01*
X144195455Y-123743247D01*
X144195512Y-123743353D01*
X144195547Y-123743469D01*
X144230895Y-123809550D01*
X144266027Y-123875276D01*
X144266102Y-123875367D01*
X144266160Y-123875476D01*
X144314453Y-123934283D01*
X144361000Y-123991001D01*
X144390089Y-124014873D01*
X145922280Y-125546099D01*
X145945999Y-125575001D01*
X145975086Y-125598872D01*
X145975175Y-125598961D01*
X146005123Y-125623523D01*
X146061724Y-125669974D01*
X146061829Y-125670030D01*
X146061924Y-125670108D01*
X146127827Y-125705307D01*
X146193753Y-125740546D01*
X146193870Y-125740582D01*
X146193976Y-125740638D01*
X146265271Y-125762240D01*
X146337014Y-125784003D01*
X146337134Y-125784015D01*
X146337250Y-125784050D01*
X146411734Y-125791362D01*
X146448667Y-125795000D01*
X146448787Y-125795000D01*
X146486241Y-125798677D01*
X146523453Y-125795000D01*
X155692678Y-125795000D01*
X155730000Y-125798676D01*
X155767322Y-125795000D01*
X155767333Y-125795000D01*
X155878986Y-125784003D01*
X156022247Y-125740546D01*
X156154276Y-125669974D01*
X156270001Y-125575001D01*
X156293804Y-125545997D01*
X161459847Y-120379954D01*
X161538380Y-120458487D01*
X161465820Y-120480498D01*
X161355506Y-120539463D01*
X161258815Y-120618815D01*
X161179463Y-120715506D01*
X161120498Y-120825820D01*
X161084188Y-120945518D01*
X161071928Y-121070000D01*
X161071928Y-122770000D01*
X161084188Y-122894482D01*
X161120498Y-123014180D01*
X161179463Y-123124494D01*
X161258815Y-123221185D01*
X161355506Y-123300537D01*
X161465820Y-123359502D01*
X161585518Y-123395812D01*
X161710000Y-123408072D01*
X163410000Y-123408072D01*
X163534482Y-123395812D01*
X163654180Y-123359502D01*
X163764494Y-123300537D01*
X163861185Y-123221185D01*
X163940537Y-123124494D01*
X163999502Y-123014180D01*
X164035812Y-122894482D01*
X164048072Y-122770000D01*
X164048072Y-121070000D01*
X164035812Y-120945518D01*
X163999502Y-120825820D01*
X163950532Y-120734205D01*
X164932994Y-119751627D01*
X164973175Y-119884099D01*
X165098359Y-120146920D01*
X165272412Y-120380269D01*
X165356466Y-120456034D01*
X165275820Y-120480498D01*
X165165506Y-120539463D01*
X165068815Y-120618815D01*
X164989463Y-120715506D01*
X164930498Y-120825820D01*
X164894188Y-120945518D01*
X164881928Y-121070000D01*
X164881928Y-122770000D01*
X164894188Y-122894482D01*
X164930498Y-123014180D01*
X164989463Y-123124494D01*
X165068815Y-123221185D01*
X165165506Y-123300537D01*
X165275820Y-123359502D01*
X165395518Y-123395812D01*
X165520000Y-123408072D01*
X167220000Y-123408072D01*
X167344482Y-123395812D01*
X167464180Y-123359502D01*
X167574494Y-123300537D01*
X167671185Y-123221185D01*
X167750537Y-123124494D01*
X167809502Y-123014180D01*
X167845812Y-122894482D01*
X167858072Y-122770000D01*
X167858072Y-121070000D01*
X167845812Y-120945518D01*
X167809502Y-120825820D01*
X167782151Y-120774650D01*
X172925009Y-115631794D01*
X172954001Y-115608001D01*
X172977795Y-115579008D01*
X172977799Y-115579004D01*
X173048973Y-115492277D01*
X173048974Y-115492276D01*
X173119546Y-115360247D01*
X173163003Y-115216986D01*
X173174000Y-115105333D01*
X173174000Y-115105324D01*
X173177676Y-115068001D01*
X173174000Y-115030678D01*
X173174000Y-109130626D01*
X173230001Y-109168044D01*
%TA.AperFunction,Conductor*%
D22*
G36*
X173230001Y-109168044D02*
G01*
X173230001Y-109868689D01*
X173226324Y-109906047D01*
X173233774Y-109981637D01*
X173240998Y-110054986D01*
X173241005Y-110055008D01*
X173241007Y-110055032D01*
X173265172Y-110134679D01*
X173284455Y-110198247D01*
X173284464Y-110198264D01*
X173284472Y-110198290D01*
X173319593Y-110263985D01*
X173355027Y-110330276D01*
X173355042Y-110330294D01*
X173355053Y-110330315D01*
X173401862Y-110387345D01*
X173450000Y-110446001D01*
X173479018Y-110469815D01*
X181499217Y-118489023D01*
X181522999Y-118518001D01*
X181552014Y-118541813D01*
X181552032Y-118541831D01*
X181582459Y-118566799D01*
X181638724Y-118612974D01*
X181638745Y-118612985D01*
X181638763Y-118613000D01*
X181702522Y-118647075D01*
X181770753Y-118683546D01*
X181770777Y-118683553D01*
X181770797Y-118683564D01*
X181840186Y-118704608D01*
X181914014Y-118727003D01*
X181914038Y-118727005D01*
X181914060Y-118727012D01*
X181979828Y-118733485D01*
X182025667Y-118738000D01*
X182025699Y-118738000D01*
X182063047Y-118741676D01*
X182100347Y-118738000D01*
X187510678Y-118738000D01*
X187548000Y-118741676D01*
X187585322Y-118738000D01*
X187585333Y-118738000D01*
X187696986Y-118727003D01*
X187840247Y-118683546D01*
X187972276Y-118612974D01*
X188088001Y-118518001D01*
X188111803Y-118488998D01*
X189606070Y-116994733D01*
X189714195Y-117083469D01*
X189974537Y-117222625D01*
X190257024Y-117308316D01*
X190550800Y-117337251D01*
X190844577Y-117308316D01*
X191127064Y-117222625D01*
X191387406Y-117083469D01*
X191615597Y-116896197D01*
X191802869Y-116668006D01*
X191820800Y-116634460D01*
X191838731Y-116668006D01*
X192026003Y-116896197D01*
X192254195Y-117083469D01*
X192514537Y-117222625D01*
X192797024Y-117308316D01*
X193090800Y-117337251D01*
X193384577Y-117308316D01*
X193550001Y-117258136D01*
X193550001Y-123065986D01*
X193544099Y-123063175D01*
X193396890Y-123018524D01*
X193167000Y-123139845D01*
X193167000Y-124333000D01*
X193187000Y-124333000D01*
X193187000Y-124587000D01*
X193167000Y-124587000D01*
X193167000Y-124607000D01*
X192913000Y-124607000D01*
X192913000Y-124587000D01*
X192893000Y-124587000D01*
X192893000Y-124333000D01*
X192913000Y-124333000D01*
X192913000Y-123139845D01*
X192683110Y-123018524D01*
X192535901Y-123063175D01*
X192273080Y-123188359D01*
X192039731Y-123362412D01*
X191963966Y-123446466D01*
X191939502Y-123365820D01*
X191880537Y-123255506D01*
X191801185Y-123158815D01*
X191704494Y-123079463D01*
X191594180Y-123020498D01*
X191474482Y-122984188D01*
X191350000Y-122971928D01*
X189650000Y-122971928D01*
X189525518Y-122984188D01*
X189405820Y-123020498D01*
X189295506Y-123079463D01*
X189198815Y-123158815D01*
X189119463Y-123255506D01*
X189060498Y-123365820D01*
X189024188Y-123485518D01*
X189011928Y-123610000D01*
X189011928Y-125310000D01*
X189024188Y-125434482D01*
X189060498Y-125554180D01*
X189119463Y-125664494D01*
X189198815Y-125761185D01*
X189295506Y-125840537D01*
X189405820Y-125899502D01*
X189525518Y-125935812D01*
X189650000Y-125948072D01*
X191350000Y-125948072D01*
X191474482Y-125935812D01*
X191594180Y-125899502D01*
X191645349Y-125872151D01*
X191919201Y-126146002D01*
X191942999Y-126175001D01*
X191971997Y-126198799D01*
X192058724Y-126269974D01*
X192189732Y-126340000D01*
X144170000Y-126340000D01*
X144170000Y-123659346D01*
X144173664Y-123671412D01*
X144195455Y-123743247D01*
X144195512Y-123743353D01*
X144195547Y-123743469D01*
X144230895Y-123809550D01*
X144266027Y-123875276D01*
X144266102Y-123875367D01*
X144266160Y-123875476D01*
X144314453Y-123934283D01*
X144361000Y-123991001D01*
X144390089Y-124014873D01*
X145922280Y-125546099D01*
X145945999Y-125575001D01*
X145975086Y-125598872D01*
X145975175Y-125598961D01*
X146005123Y-125623523D01*
X146061724Y-125669974D01*
X146061829Y-125670030D01*
X146061924Y-125670108D01*
X146127827Y-125705307D01*
X146193753Y-125740546D01*
X146193870Y-125740582D01*
X146193976Y-125740638D01*
X146265271Y-125762240D01*
X146337014Y-125784003D01*
X146337134Y-125784015D01*
X146337250Y-125784050D01*
X146411734Y-125791362D01*
X146448667Y-125795000D01*
X146448787Y-125795000D01*
X146486241Y-125798677D01*
X146523453Y-125795000D01*
X155692678Y-125795000D01*
X155730000Y-125798676D01*
X155767322Y-125795000D01*
X155767333Y-125795000D01*
X155878986Y-125784003D01*
X156022247Y-125740546D01*
X156154276Y-125669974D01*
X156270001Y-125575001D01*
X156293804Y-125545997D01*
X161459847Y-120379954D01*
X161538380Y-120458487D01*
X161465820Y-120480498D01*
X161355506Y-120539463D01*
X161258815Y-120618815D01*
X161179463Y-120715506D01*
X161120498Y-120825820D01*
X161084188Y-120945518D01*
X161071928Y-121070000D01*
X161071928Y-122770000D01*
X161084188Y-122894482D01*
X161120498Y-123014180D01*
X161179463Y-123124494D01*
X161258815Y-123221185D01*
X161355506Y-123300537D01*
X161465820Y-123359502D01*
X161585518Y-123395812D01*
X161710000Y-123408072D01*
X163410000Y-123408072D01*
X163534482Y-123395812D01*
X163654180Y-123359502D01*
X163764494Y-123300537D01*
X163861185Y-123221185D01*
X163940537Y-123124494D01*
X163999502Y-123014180D01*
X164035812Y-122894482D01*
X164048072Y-122770000D01*
X164048072Y-121070000D01*
X164035812Y-120945518D01*
X163999502Y-120825820D01*
X163950532Y-120734205D01*
X164932994Y-119751627D01*
X164973175Y-119884099D01*
X165098359Y-120146920D01*
X165272412Y-120380269D01*
X165356466Y-120456034D01*
X165275820Y-120480498D01*
X165165506Y-120539463D01*
X165068815Y-120618815D01*
X164989463Y-120715506D01*
X164930498Y-120825820D01*
X164894188Y-120945518D01*
X164881928Y-121070000D01*
X164881928Y-122770000D01*
X164894188Y-122894482D01*
X164930498Y-123014180D01*
X164989463Y-123124494D01*
X165068815Y-123221185D01*
X165165506Y-123300537D01*
X165275820Y-123359502D01*
X165395518Y-123395812D01*
X165520000Y-123408072D01*
X167220000Y-123408072D01*
X167344482Y-123395812D01*
X167464180Y-123359502D01*
X167574494Y-123300537D01*
X167671185Y-123221185D01*
X167750537Y-123124494D01*
X167809502Y-123014180D01*
X167845812Y-122894482D01*
X167858072Y-122770000D01*
X167858072Y-121070000D01*
X167845812Y-120945518D01*
X167809502Y-120825820D01*
X167782151Y-120774650D01*
X172925009Y-115631794D01*
X172954001Y-115608001D01*
X172977795Y-115579008D01*
X172977799Y-115579004D01*
X173048973Y-115492277D01*
X173048974Y-115492276D01*
X173119546Y-115360247D01*
X173163003Y-115216986D01*
X173174000Y-115105333D01*
X173174000Y-115105324D01*
X173177676Y-115068001D01*
X173174000Y-115030678D01*
X173174000Y-109130626D01*
X173230001Y-109168044D01*
G37*
%TD.AperFunction*%
D21*
X236830001Y-126340000D02*
X220903135Y-126340000D01*
X220974276Y-126301974D01*
X221090001Y-126207001D01*
X221113804Y-126177997D01*
X230296980Y-116994823D01*
X230404995Y-117083469D01*
X230665337Y-117222625D01*
X230947824Y-117308316D01*
X231241600Y-117337251D01*
X231535377Y-117308316D01*
X231817864Y-117222625D01*
X232078206Y-117083469D01*
X232306397Y-116896197D01*
X232493669Y-116668006D01*
X232632825Y-116407664D01*
X232718516Y-116125176D01*
X232740200Y-115905018D01*
X232740200Y-115234981D01*
X232718516Y-115014823D01*
X232632825Y-114732336D01*
X232493669Y-114471994D01*
X232306397Y-114243803D01*
X232078205Y-114056531D01*
X231817863Y-113917375D01*
X231535376Y-113831684D01*
X231241600Y-113802749D01*
X230947823Y-113831684D01*
X230665336Y-113917375D01*
X230404994Y-114056531D01*
X230176803Y-114243803D01*
X229989531Y-114471995D01*
X229945544Y-114554289D01*
X229826283Y-114370426D01*
X229620668Y-114159127D01*
X229377781Y-113992002D01*
X229106957Y-113875473D01*
X229009826Y-113853642D01*
X228777800Y-113974783D01*
X228777800Y-115443000D01*
X228797800Y-115443000D01*
X228797800Y-115697000D01*
X228777800Y-115697000D01*
X228777800Y-115717000D01*
X228523800Y-115717000D01*
X228523800Y-115697000D01*
X228503800Y-115697000D01*
X228503800Y-115443000D01*
X228523800Y-115443000D01*
X228523800Y-113974783D01*
X228291774Y-113853642D01*
X228194643Y-113875473D01*
X227923819Y-113992002D01*
X227680932Y-114159127D01*
X227475317Y-114370426D01*
X227383907Y-114511353D01*
X227362869Y-114471994D01*
X227175597Y-114243803D01*
X226947405Y-114056531D01*
X226687063Y-113917375D01*
X226404576Y-113831684D01*
X226110800Y-113802749D01*
X225817023Y-113831684D01*
X225534536Y-113917375D01*
X225274194Y-114056531D01*
X225046003Y-114243803D01*
X224858731Y-114471995D01*
X224840800Y-114505541D01*
X224822869Y-114471994D01*
X224635597Y-114243803D01*
X224407405Y-114056531D01*
X224147063Y-113917375D01*
X223864576Y-113831684D01*
X223570800Y-113802749D01*
X223277023Y-113831684D01*
X222994536Y-113917375D01*
X222734194Y-114056531D01*
X222506003Y-114243803D01*
X222318731Y-114471995D01*
X222300800Y-114505541D01*
X222282869Y-114471994D01*
X222095597Y-114243803D01*
X221867405Y-114056531D01*
X221607063Y-113917375D01*
X221324576Y-113831684D01*
X221030800Y-113802749D01*
X220737023Y-113831684D01*
X220454536Y-113917375D01*
X220194194Y-114056531D01*
X219966003Y-114243803D01*
X219778731Y-114471995D01*
X219760800Y-114505541D01*
X219742869Y-114471994D01*
X219555597Y-114243803D01*
X219327405Y-114056531D01*
X219067063Y-113917375D01*
X218784576Y-113831684D01*
X218490800Y-113802749D01*
X218197023Y-113831684D01*
X217914536Y-113917375D01*
X217654194Y-114056531D01*
X217546069Y-114145267D01*
X212190804Y-108790003D01*
X212167001Y-108760999D01*
X212051276Y-108666026D01*
X211919247Y-108595454D01*
X211775986Y-108551997D01*
X211664333Y-108541000D01*
X211664322Y-108541000D01*
X211627000Y-108537324D01*
X211589678Y-108541000D01*
X210583802Y-108541000D01*
X208585203Y-106542401D01*
X225882200Y-106542401D01*
X225882200Y-106837599D01*
X225939790Y-107127125D01*
X226052758Y-107399853D01*
X226216761Y-107645302D01*
X226425498Y-107854039D01*
X226584081Y-107960000D01*
X226425498Y-108065961D01*
X226216761Y-108274698D01*
X226052758Y-108520147D01*
X225939790Y-108792875D01*
X225882200Y-109082401D01*
X225882200Y-109377599D01*
X225939790Y-109667125D01*
X226052758Y-109939853D01*
X226216761Y-110185302D01*
X226425498Y-110394039D01*
X226670947Y-110558042D01*
X226943675Y-110671010D01*
X227233201Y-110728600D01*
X227528399Y-110728600D01*
X227817925Y-110671010D01*
X228090653Y-110558042D01*
X228336102Y-110394039D01*
X228544839Y-110185302D01*
X228708842Y-109939853D01*
X228821810Y-109667125D01*
X228879400Y-109377599D01*
X228879400Y-109082401D01*
X228821810Y-108792875D01*
X228708842Y-108520147D01*
X228544839Y-108274698D01*
X228336102Y-108065961D01*
X228177519Y-107960000D01*
X228336102Y-107854039D01*
X228544839Y-107645302D01*
X228708842Y-107399853D01*
X228821810Y-107127125D01*
X228879400Y-106837599D01*
X228879400Y-106542401D01*
X228821810Y-106252875D01*
X228708842Y-105980147D01*
X228544839Y-105734698D01*
X228336102Y-105525961D01*
X228090653Y-105361958D01*
X227817925Y-105248990D01*
X227528399Y-105191400D01*
X227233201Y-105191400D01*
X226943675Y-105248990D01*
X226670947Y-105361958D01*
X226425498Y-105525961D01*
X226216761Y-105734698D01*
X226052758Y-105980147D01*
X225939790Y-106252875D01*
X225882200Y-106542401D01*
X208585203Y-106542401D01*
X203956331Y-101913530D01*
X204087405Y-101843469D01*
X204315597Y-101656197D01*
X204502869Y-101428006D01*
X204520800Y-101394459D01*
X204538731Y-101428005D01*
X204726003Y-101656197D01*
X204954194Y-101843469D01*
X205214536Y-101982625D01*
X205497023Y-102068316D01*
X205790800Y-102097251D01*
X206084576Y-102068316D01*
X206367063Y-101982625D01*
X206627405Y-101843469D01*
X206855597Y-101656197D01*
X207042869Y-101428006D01*
X207060800Y-101394459D01*
X207078731Y-101428005D01*
X207266003Y-101656197D01*
X207494194Y-101843469D01*
X207754536Y-101982625D01*
X208037023Y-102068316D01*
X208330800Y-102097251D01*
X208624576Y-102068316D01*
X208907063Y-101982625D01*
X209167405Y-101843469D01*
X209395597Y-101656197D01*
X209582869Y-101428006D01*
X209600800Y-101394459D01*
X209618731Y-101428005D01*
X209806003Y-101656197D01*
X210034194Y-101843469D01*
X210294536Y-101982625D01*
X210577023Y-102068316D01*
X210870800Y-102097251D01*
X211164576Y-102068316D01*
X211447063Y-101982625D01*
X211707405Y-101843469D01*
X211935597Y-101656197D01*
X212122869Y-101428006D01*
X212140800Y-101394459D01*
X212158731Y-101428005D01*
X212346003Y-101656197D01*
X212574194Y-101843469D01*
X212834536Y-101982625D01*
X213117023Y-102068316D01*
X213410800Y-102097251D01*
X213704576Y-102068316D01*
X213987063Y-101982625D01*
X214247405Y-101843469D01*
X214475597Y-101656197D01*
X214662869Y-101428006D01*
X214680800Y-101394459D01*
X214698731Y-101428005D01*
X214886003Y-101656197D01*
X215114194Y-101843469D01*
X215374536Y-101982625D01*
X215657023Y-102068316D01*
X215950800Y-102097251D01*
X216244576Y-102068316D01*
X216527063Y-101982625D01*
X216787405Y-101843469D01*
X217015597Y-101656197D01*
X217202869Y-101428006D01*
X217220800Y-101394459D01*
X217238731Y-101428005D01*
X217426003Y-101656197D01*
X217654194Y-101843469D01*
X217914536Y-101982625D01*
X218197023Y-102068316D01*
X218490800Y-102097251D01*
X218784576Y-102068316D01*
X219067063Y-101982625D01*
X219327405Y-101843469D01*
X219555597Y-101656197D01*
X219742869Y-101428006D01*
X219760800Y-101394459D01*
X219778731Y-101428005D01*
X219966003Y-101656197D01*
X220194194Y-101843469D01*
X220454536Y-101982625D01*
X220737023Y-102068316D01*
X221030800Y-102097251D01*
X221324576Y-102068316D01*
X221607063Y-101982625D01*
X221867405Y-101843469D01*
X222095597Y-101656197D01*
X222282869Y-101428006D01*
X222300800Y-101394459D01*
X222318731Y-101428005D01*
X222506003Y-101656197D01*
X222734194Y-101843469D01*
X222994536Y-101982625D01*
X223277023Y-102068316D01*
X223570800Y-102097251D01*
X223864576Y-102068316D01*
X224147063Y-101982625D01*
X224407405Y-101843469D01*
X224635597Y-101656197D01*
X224822869Y-101428006D01*
X224840800Y-101394459D01*
X224858731Y-101428005D01*
X225046003Y-101656197D01*
X225274194Y-101843469D01*
X225534536Y-101982625D01*
X225817023Y-102068316D01*
X226110800Y-102097251D01*
X226404576Y-102068316D01*
X226687063Y-101982625D01*
X226947405Y-101843469D01*
X227175597Y-101656197D01*
X227362869Y-101428006D01*
X227380800Y-101394459D01*
X227398731Y-101428005D01*
X227586003Y-101656197D01*
X227814194Y-101843469D01*
X228074536Y-101982625D01*
X228357023Y-102068316D01*
X228650800Y-102097251D01*
X228944576Y-102068316D01*
X229227063Y-101982625D01*
X229487405Y-101843469D01*
X229715597Y-101656197D01*
X229722214Y-101648135D01*
X229737698Y-101699180D01*
X229796663Y-101809494D01*
X229876015Y-101906185D01*
X229972706Y-101985537D01*
X230083020Y-102044502D01*
X230202718Y-102080812D01*
X230327200Y-102093072D01*
X232054400Y-102093072D01*
X232178882Y-102080812D01*
X232298580Y-102044502D01*
X232408894Y-101985537D01*
X232505585Y-101906185D01*
X232584937Y-101809494D01*
X232643902Y-101699180D01*
X232680212Y-101579482D01*
X232692472Y-101455000D01*
X232692472Y-99205000D01*
X232680212Y-99080518D01*
X232643902Y-98960820D01*
X232584937Y-98850506D01*
X232505585Y-98753815D01*
X232408894Y-98674463D01*
X232298580Y-98615498D01*
X232178882Y-98579188D01*
X232054400Y-98566928D01*
X230327200Y-98566928D01*
X230202718Y-98579188D01*
X230083020Y-98615498D01*
X229972706Y-98674463D01*
X229876015Y-98753815D01*
X229796663Y-98850506D01*
X229737698Y-98960820D01*
X229722214Y-99011865D01*
X229715597Y-99003803D01*
X229487406Y-98816531D01*
X229227064Y-98677375D01*
X228944577Y-98591684D01*
X228650800Y-98562749D01*
X228357024Y-98591684D01*
X228074537Y-98677375D01*
X227814195Y-98816531D01*
X227586003Y-99003803D01*
X227398731Y-99231994D01*
X227380800Y-99265540D01*
X227362869Y-99231994D01*
X227175597Y-99003803D01*
X226947406Y-98816531D01*
X226687064Y-98677375D01*
X226404577Y-98591684D01*
X226110800Y-98562749D01*
X225817024Y-98591684D01*
X225534537Y-98677375D01*
X225274195Y-98816531D01*
X225046003Y-99003803D01*
X224858731Y-99231994D01*
X224840800Y-99265540D01*
X224822869Y-99231994D01*
X224635597Y-99003803D01*
X224407406Y-98816531D01*
X224147064Y-98677375D01*
X223864577Y-98591684D01*
X223570800Y-98562749D01*
X223277024Y-98591684D01*
X222994537Y-98677375D01*
X222734195Y-98816531D01*
X222506003Y-99003803D01*
X222318731Y-99231994D01*
X222300800Y-99265540D01*
X222282869Y-99231994D01*
X222095597Y-99003803D01*
X221867406Y-98816531D01*
X221607064Y-98677375D01*
X221324577Y-98591684D01*
X221030800Y-98562749D01*
X220737024Y-98591684D01*
X220454537Y-98677375D01*
X220194195Y-98816531D01*
X219966003Y-99003803D01*
X219778731Y-99231994D01*
X219760800Y-99265540D01*
X219742869Y-99231994D01*
X219555597Y-99003803D01*
X219327406Y-98816531D01*
X219067064Y-98677375D01*
X218784577Y-98591684D01*
X218490800Y-98562749D01*
X218197024Y-98591684D01*
X217914537Y-98677375D01*
X217654195Y-98816531D01*
X217426003Y-99003803D01*
X217238731Y-99231994D01*
X217220800Y-99265540D01*
X217202869Y-99231994D01*
X217015597Y-99003803D01*
X216787406Y-98816531D01*
X216527064Y-98677375D01*
X216244577Y-98591684D01*
X215950800Y-98562749D01*
X215657024Y-98591684D01*
X215374537Y-98677375D01*
X215114195Y-98816531D01*
X214886003Y-99003803D01*
X214698731Y-99231994D01*
X214680800Y-99265540D01*
X214662869Y-99231994D01*
X214475597Y-99003803D01*
X214247406Y-98816531D01*
X213987064Y-98677375D01*
X213704577Y-98591684D01*
X213475846Y-98569156D01*
X227646102Y-84398900D01*
X227708239Y-84398900D01*
X227908198Y-84359126D01*
X228096556Y-84281105D01*
X228266074Y-84167837D01*
X228410237Y-84023674D01*
X228523505Y-83854156D01*
X228601526Y-83665798D01*
X228641300Y-83465839D01*
X228641300Y-83261961D01*
X228601526Y-83062002D01*
X228523505Y-82873644D01*
X228410237Y-82704126D01*
X228266074Y-82559963D01*
X228096556Y-82446695D01*
X227908198Y-82368674D01*
X227708239Y-82328900D01*
X227504361Y-82328900D01*
X227304402Y-82368674D01*
X227116044Y-82446695D01*
X226946526Y-82559963D01*
X226802363Y-82704126D01*
X226689095Y-82873644D01*
X226611074Y-83062002D01*
X226571300Y-83261961D01*
X226571300Y-83324098D01*
X211775699Y-98119700D01*
X210908133Y-98119700D01*
X210870800Y-98116023D01*
X210833467Y-98119700D01*
X210721814Y-98130697D01*
X210578553Y-98174154D01*
X210446524Y-98244726D01*
X210330799Y-98339699D01*
X210235826Y-98455424D01*
X210165254Y-98587453D01*
X210121797Y-98730714D01*
X210117743Y-98771874D01*
X210034195Y-98816531D01*
X209806003Y-99003803D01*
X209618731Y-99231994D01*
X209600800Y-99265540D01*
X209582869Y-99231994D01*
X209395597Y-99003803D01*
X209167406Y-98816531D01*
X208907064Y-98677375D01*
X208624577Y-98591684D01*
X208330800Y-98562749D01*
X208037024Y-98591684D01*
X207754537Y-98677375D01*
X207494195Y-98816531D01*
X207266003Y-99003803D01*
X207078731Y-99231994D01*
X207060800Y-99265540D01*
X207042869Y-99231994D01*
X206855597Y-99003803D01*
X206627406Y-98816531D01*
X206367064Y-98677375D01*
X206084577Y-98591684D01*
X205790800Y-98562749D01*
X205497024Y-98591684D01*
X205214537Y-98677375D01*
X204954195Y-98816531D01*
X204726003Y-99003803D01*
X204538731Y-99231994D01*
X204520800Y-99265540D01*
X204502869Y-99231994D01*
X204315597Y-99003803D01*
X204087406Y-98816531D01*
X203827064Y-98677375D01*
X203544577Y-98591684D01*
X203250800Y-98562749D01*
X202957024Y-98591684D01*
X202674537Y-98677375D01*
X202414195Y-98816531D01*
X202320461Y-98893456D01*
X186880802Y-83453601D01*
X186857001Y-83424599D01*
X186741276Y-83329626D01*
X186614686Y-83261961D01*
X186609251Y-83259056D01*
X186609250Y-83259056D01*
X186609247Y-83259054D01*
X186465986Y-83215597D01*
X186354333Y-83204600D01*
X186354324Y-83204600D01*
X186317004Y-83200924D01*
X186279679Y-83204600D01*
X169279398Y-83204600D01*
X169242152Y-83200924D01*
X169204752Y-83204600D01*
X169204667Y-83204600D01*
X169163549Y-83208650D01*
X169093163Y-83215568D01*
X169093093Y-83215589D01*
X169093014Y-83215597D01*
X169019320Y-83237952D01*
X168949894Y-83258996D01*
X168949828Y-83259031D01*
X168949753Y-83259054D01*
X168881406Y-83295587D01*
X168817851Y-83329542D01*
X168817795Y-83329588D01*
X168817724Y-83329626D01*
X168758296Y-83378397D01*
X168731110Y-83400699D01*
X168731058Y-83400751D01*
X168701999Y-83424599D01*
X168678247Y-83453540D01*
X167808072Y-84323367D01*
X167808072Y-84290000D01*
X167795812Y-84165518D01*
X167759502Y-84045820D01*
X167700537Y-83935506D01*
X167621185Y-83838815D01*
X167524494Y-83759463D01*
X167414180Y-83700498D01*
X167294482Y-83664188D01*
X167170000Y-83651928D01*
X165570000Y-83651928D01*
X165445518Y-83664188D01*
X165325820Y-83700498D01*
X165215506Y-83759463D01*
X165118815Y-83838815D01*
X165039463Y-83935506D01*
X164980498Y-84045820D01*
X164944188Y-84165518D01*
X164931928Y-84290000D01*
X164931928Y-85890000D01*
X164944188Y-86014482D01*
X164980498Y-86134180D01*
X165039463Y-86244494D01*
X165118815Y-86341185D01*
X165215506Y-86420537D01*
X165325820Y-86479502D01*
X165445518Y-86515812D01*
X165453961Y-86516643D01*
X165255363Y-86715241D01*
X165098320Y-86950273D01*
X164990147Y-87211426D01*
X164935000Y-87488665D01*
X164935000Y-87771335D01*
X164990147Y-88048574D01*
X165051289Y-88196185D01*
X165027999Y-88215299D01*
X165004170Y-88244335D01*
X163802386Y-89446432D01*
X163674637Y-89255241D01*
X163474759Y-89055363D01*
X163242241Y-88900000D01*
X163474759Y-88744637D01*
X163674637Y-88544759D01*
X163831680Y-88309727D01*
X163939853Y-88048574D01*
X163995000Y-87771335D01*
X163995000Y-87488665D01*
X163939853Y-87211426D01*
X163831680Y-86950273D01*
X163674637Y-86715241D01*
X163476039Y-86516643D01*
X163484482Y-86515812D01*
X163604180Y-86479502D01*
X163714494Y-86420537D01*
X163811185Y-86341185D01*
X163890537Y-86244494D01*
X163949502Y-86134180D01*
X163985812Y-86014482D01*
X163998072Y-85890000D01*
X163998072Y-84290000D01*
X163985812Y-84165518D01*
X163949502Y-84045820D01*
X163890537Y-83935506D01*
X163811185Y-83838815D01*
X163714494Y-83759463D01*
X163604180Y-83700498D01*
X163484482Y-83664188D01*
X163360000Y-83651928D01*
X161760000Y-83651928D01*
X161635518Y-83664188D01*
X161515820Y-83700498D01*
X161405506Y-83759463D01*
X161308815Y-83838815D01*
X161229463Y-83935506D01*
X161170498Y-84045820D01*
X161134188Y-84165518D01*
X161121928Y-84290000D01*
X161121928Y-85890000D01*
X161134188Y-86014482D01*
X161170498Y-86134180D01*
X161229463Y-86244494D01*
X161308815Y-86341185D01*
X161405506Y-86420537D01*
X161515820Y-86479502D01*
X161635518Y-86515812D01*
X161643961Y-86516643D01*
X161445363Y-86715241D01*
X161288320Y-86950273D01*
X161180147Y-87211426D01*
X161125000Y-87488665D01*
X161125000Y-87771335D01*
X161180147Y-88048574D01*
X161288320Y-88309727D01*
X161445363Y-88544759D01*
X161645241Y-88744637D01*
X161877759Y-88900000D01*
X161645241Y-89055363D01*
X161445363Y-89255241D01*
X161288320Y-89490273D01*
X161180147Y-89751426D01*
X161125000Y-90028665D01*
X161125000Y-90311335D01*
X161180147Y-90588574D01*
X161288320Y-90849727D01*
X161445363Y-91084759D01*
X161449451Y-91088847D01*
X160550917Y-91987867D01*
X160522000Y-92011599D01*
X160498138Y-92040675D01*
X160498063Y-92040750D01*
X160473953Y-92070144D01*
X160427027Y-92127324D01*
X160426978Y-92127415D01*
X160426912Y-92127496D01*
X160390886Y-92194938D01*
X160356455Y-92259353D01*
X160356426Y-92259448D01*
X160356375Y-92259544D01*
X160334427Y-92331970D01*
X160312997Y-92402614D01*
X160312987Y-92402719D01*
X160312957Y-92402817D01*
X160305872Y-92474950D01*
X160302000Y-92514267D01*
X160302000Y-92514378D01*
X160298324Y-92551806D01*
X160302000Y-92589026D01*
X160302000Y-93033492D01*
X150587572Y-102747673D01*
X150579658Y-102707887D01*
X150480907Y-102469482D01*
X150337544Y-102254923D01*
X150172621Y-102090000D01*
X150337544Y-101925077D01*
X150480907Y-101710518D01*
X150579658Y-101472113D01*
X150630000Y-101219024D01*
X150630000Y-100960976D01*
X150579658Y-100707887D01*
X150480907Y-100469482D01*
X150337544Y-100254923D01*
X150172621Y-100090000D01*
X150337544Y-99925077D01*
X150480907Y-99710518D01*
X150579658Y-99472113D01*
X150630000Y-99219024D01*
X150630000Y-98960976D01*
X150579658Y-98707887D01*
X150480907Y-98469482D01*
X150337544Y-98254923D01*
X150172621Y-98090000D01*
X150337544Y-97925077D01*
X150480907Y-97710518D01*
X150579658Y-97472113D01*
X150630000Y-97219024D01*
X150630000Y-96960976D01*
X150579658Y-96707887D01*
X150480907Y-96469482D01*
X150337544Y-96254923D01*
X150172621Y-96090000D01*
X150337544Y-95925077D01*
X150480907Y-95710518D01*
X150579658Y-95472113D01*
X150630000Y-95219024D01*
X150630000Y-94960976D01*
X150579658Y-94707887D01*
X150480907Y-94469482D01*
X150337544Y-94254923D01*
X150172621Y-94090000D01*
X150337544Y-93925077D01*
X150480907Y-93710518D01*
X150579658Y-93472113D01*
X150630000Y-93219024D01*
X150630000Y-92960976D01*
X150579658Y-92707887D01*
X150480907Y-92469482D01*
X150337544Y-92254923D01*
X150172621Y-92090000D01*
X150337544Y-91925077D01*
X150480907Y-91710518D01*
X150579658Y-91472113D01*
X150630000Y-91219024D01*
X150630000Y-90960976D01*
X150579658Y-90707887D01*
X150480907Y-90469482D01*
X150337544Y-90254923D01*
X150172621Y-90090000D01*
X150337544Y-89925077D01*
X150480907Y-89710518D01*
X150579658Y-89472113D01*
X150630000Y-89219024D01*
X150630000Y-88960976D01*
X150579658Y-88707887D01*
X150480907Y-88469482D01*
X150337544Y-88254923D01*
X150165940Y-88083319D01*
X150298303Y-87961227D01*
X150449473Y-87753629D01*
X150557238Y-87520528D01*
X150587910Y-87419400D01*
X150464224Y-87217000D01*
X149447000Y-87217000D01*
X149447000Y-87237000D01*
X149193000Y-87237000D01*
X149193000Y-87217000D01*
X147447000Y-87217000D01*
X147447000Y-88963000D01*
X147467000Y-88963000D01*
X147467000Y-89217000D01*
X147447000Y-89217000D01*
X147447000Y-90963000D01*
X147467000Y-90963000D01*
X147467000Y-91217000D01*
X147447000Y-91217000D01*
X147447000Y-92963000D01*
X147467000Y-92963000D01*
X147467000Y-93217000D01*
X147447000Y-93217000D01*
X147447000Y-94963000D01*
X147467000Y-94963000D01*
X147467000Y-95217000D01*
X147447000Y-95217000D01*
X147447000Y-96963000D01*
X147467000Y-96963000D01*
X147467000Y-97217000D01*
X147447000Y-97217000D01*
X147447000Y-98963000D01*
X147467000Y-98963000D01*
X147467000Y-99217000D01*
X147447000Y-99217000D01*
X147447000Y-99237000D01*
X147193000Y-99237000D01*
X147193000Y-99217000D01*
X146175776Y-99217000D01*
X146052090Y-99419400D01*
X146082762Y-99520528D01*
X146190527Y-99753629D01*
X146341697Y-99961227D01*
X146474060Y-100083319D01*
X146302456Y-100254923D01*
X146159093Y-100469482D01*
X146060342Y-100707887D01*
X146010000Y-100960976D01*
X146010000Y-101219024D01*
X146060342Y-101472113D01*
X146159093Y-101710518D01*
X146302456Y-101925077D01*
X146474060Y-102096681D01*
X146341697Y-102218773D01*
X146190527Y-102426371D01*
X146082762Y-102659472D01*
X146052090Y-102760600D01*
X146175776Y-102963000D01*
X147193000Y-102963000D01*
X147193000Y-102943000D01*
X147447000Y-102943000D01*
X147447000Y-102963000D01*
X147467000Y-102963000D01*
X147467000Y-103217000D01*
X147447000Y-103217000D01*
X147447000Y-104963000D01*
X147467000Y-104963000D01*
X147467000Y-105217000D01*
X147447000Y-105217000D01*
X147447000Y-106963000D01*
X147467000Y-106963000D01*
X147467000Y-107217000D01*
X147447000Y-107217000D01*
X147447000Y-107237000D01*
X147193000Y-107237000D01*
X147193000Y-107217000D01*
X146175776Y-107217000D01*
X146052090Y-107419400D01*
X146082762Y-107520528D01*
X146190527Y-107753629D01*
X146341697Y-107961227D01*
X146474060Y-108083319D01*
X146302456Y-108254923D01*
X146159093Y-108469482D01*
X146060342Y-108707887D01*
X146010000Y-108960976D01*
X146010000Y-109219024D01*
X146027615Y-109307583D01*
X145661000Y-109674199D01*
X145661000Y-105419400D01*
X146052090Y-105419400D01*
X146082762Y-105520528D01*
X146190527Y-105753629D01*
X146341697Y-105961227D01*
X146481304Y-106090000D01*
X146341697Y-106218773D01*
X146190527Y-106426371D01*
X146082762Y-106659472D01*
X146052090Y-106760600D01*
X146175776Y-106963000D01*
X147193000Y-106963000D01*
X147193000Y-105217000D01*
X146175776Y-105217000D01*
X146052090Y-105419400D01*
X145661000Y-105419400D01*
X145661000Y-103419400D01*
X146052090Y-103419400D01*
X146082762Y-103520528D01*
X146190527Y-103753629D01*
X146341697Y-103961227D01*
X146481304Y-104090000D01*
X146341697Y-104218773D01*
X146190527Y-104426371D01*
X146082762Y-104659472D01*
X146052090Y-104760600D01*
X146175776Y-104963000D01*
X147193000Y-104963000D01*
X147193000Y-103217000D01*
X146175776Y-103217000D01*
X146052090Y-103419400D01*
X145661000Y-103419400D01*
X145661000Y-97419400D01*
X146052090Y-97419400D01*
X146082762Y-97520528D01*
X146190527Y-97753629D01*
X146341697Y-97961227D01*
X146481304Y-98090000D01*
X146341697Y-98218773D01*
X146190527Y-98426371D01*
X146082762Y-98659472D01*
X146052090Y-98760600D01*
X146175776Y-98963000D01*
X147193000Y-98963000D01*
X147193000Y-97217000D01*
X146175776Y-97217000D01*
X146052090Y-97419400D01*
X145661000Y-97419400D01*
X145661000Y-95419400D01*
X146052090Y-95419400D01*
X146082762Y-95520528D01*
X146190527Y-95753629D01*
X146341697Y-95961227D01*
X146481304Y-96090000D01*
X146341697Y-96218773D01*
X146190527Y-96426371D01*
X146082762Y-96659472D01*
X146052090Y-96760600D01*
X146175776Y-96963000D01*
X147193000Y-96963000D01*
X147193000Y-95217000D01*
X146175776Y-95217000D01*
X146052090Y-95419400D01*
X145661000Y-95419400D01*
X145661000Y-93419400D01*
X146052090Y-93419400D01*
X146082762Y-93520528D01*
X146190527Y-93753629D01*
X146341697Y-93961227D01*
X146481304Y-94090000D01*
X146341697Y-94218773D01*
X146190527Y-94426371D01*
X146082762Y-94659472D01*
X146052090Y-94760600D01*
X146175776Y-94963000D01*
X147193000Y-94963000D01*
X147193000Y-93217000D01*
X146175776Y-93217000D01*
X146052090Y-93419400D01*
X145661000Y-93419400D01*
X145661000Y-91419400D01*
X146052090Y-91419400D01*
X146082762Y-91520528D01*
X146190527Y-91753629D01*
X146341697Y-91961227D01*
X146481304Y-92090000D01*
X146341697Y-92218773D01*
X146190527Y-92426371D01*
X146082762Y-92659472D01*
X146052090Y-92760600D01*
X146175776Y-92963000D01*
X147193000Y-92963000D01*
X147193000Y-91217000D01*
X146175776Y-91217000D01*
X146052090Y-91419400D01*
X145661000Y-91419400D01*
X145661000Y-89419400D01*
X146052090Y-89419400D01*
X146082762Y-89520528D01*
X146190527Y-89753629D01*
X146341697Y-89961227D01*
X146481304Y-90090000D01*
X146341697Y-90218773D01*
X146190527Y-90426371D01*
X146082762Y-90659472D01*
X146052090Y-90760600D01*
X146175776Y-90963000D01*
X147193000Y-90963000D01*
X147193000Y-89217000D01*
X146175776Y-89217000D01*
X146052090Y-89419400D01*
X145661000Y-89419400D01*
X145661000Y-87419400D01*
X146052090Y-87419400D01*
X146082762Y-87520528D01*
X146190527Y-87753629D01*
X146341697Y-87961227D01*
X146481304Y-88090000D01*
X146341697Y-88218773D01*
X146190527Y-88426371D01*
X146082762Y-88659472D01*
X146052090Y-88760600D01*
X146175776Y-88963000D01*
X147193000Y-88963000D01*
X147193000Y-87217000D01*
X146175776Y-87217000D01*
X146052090Y-87419400D01*
X145661000Y-87419400D01*
X145661000Y-85947716D01*
X146006928Y-85601968D01*
X146006928Y-85765000D01*
X146019188Y-85889482D01*
X146055498Y-86009180D01*
X146114463Y-86119494D01*
X146193815Y-86216185D01*
X146287559Y-86293119D01*
X146190527Y-86426371D01*
X146082762Y-86659472D01*
X146052090Y-86760600D01*
X146175776Y-86963000D01*
X147193000Y-86963000D01*
X147193000Y-86943000D01*
X147447000Y-86943000D01*
X147447000Y-86963000D01*
X149193000Y-86963000D01*
X149193000Y-86943000D01*
X149447000Y-86943000D01*
X149447000Y-86963000D01*
X150464224Y-86963000D01*
X150587910Y-86760600D01*
X150557238Y-86659472D01*
X150449473Y-86426371D01*
X150298303Y-86218773D01*
X150239459Y-86164495D01*
X154225000Y-86164495D01*
X154225000Y-86555505D01*
X154301282Y-86939003D01*
X154450915Y-87300250D01*
X154668149Y-87625364D01*
X154944636Y-87901851D01*
X155269750Y-88119085D01*
X155630997Y-88268718D01*
X156014495Y-88345000D01*
X156405505Y-88345000D01*
X156789003Y-88268718D01*
X157150250Y-88119085D01*
X157475364Y-87901851D01*
X157751851Y-87625364D01*
X157969085Y-87300250D01*
X158118718Y-86939003D01*
X158195000Y-86555505D01*
X158195000Y-86164495D01*
X158118718Y-85780997D01*
X157969085Y-85419750D01*
X157751851Y-85094636D01*
X157475364Y-84818149D01*
X157150250Y-84600915D01*
X156789003Y-84451282D01*
X156405505Y-84375000D01*
X156014495Y-84375000D01*
X155630997Y-84451282D01*
X155269750Y-84600915D01*
X154944636Y-84818149D01*
X154668149Y-85094636D01*
X154450915Y-85419750D01*
X154301282Y-85780997D01*
X154225000Y-86164495D01*
X150239459Y-86164495D01*
X150165940Y-86096681D01*
X150337544Y-85925077D01*
X150480907Y-85710518D01*
X150579658Y-85472113D01*
X150630000Y-85219024D01*
X150630000Y-84960976D01*
X150579658Y-84707887D01*
X150480907Y-84469482D01*
X150337544Y-84254923D01*
X150155077Y-84072456D01*
X149940518Y-83929093D01*
X149702113Y-83830342D01*
X149449024Y-83780000D01*
X149190976Y-83780000D01*
X149102669Y-83797565D01*
X148883850Y-83578659D01*
X148860001Y-83549599D01*
X148801223Y-83501362D01*
X148744403Y-83454711D01*
X148744336Y-83454675D01*
X148744276Y-83454626D01*
X148675824Y-83418037D01*
X148612387Y-83384113D01*
X148612318Y-83384092D01*
X148612247Y-83384054D01*
X148537749Y-83361456D01*
X148469135Y-83340627D01*
X148469061Y-83340620D01*
X148468986Y-83340597D01*
X148391132Y-83332929D01*
X148320152Y-83325924D01*
X148282752Y-83329600D01*
X146482422Y-83329600D01*
X146445197Y-83325924D01*
X146407774Y-83329600D01*
X146407667Y-83329600D01*
X146367791Y-83333527D01*
X146296208Y-83340559D01*
X146296116Y-83340587D01*
X146296014Y-83340597D01*
X146222157Y-83363001D01*
X146152936Y-83383979D01*
X146152852Y-83384024D01*
X146152753Y-83384054D01*
X146084702Y-83420429D01*
X146020888Y-83454517D01*
X146020813Y-83454578D01*
X146020724Y-83454626D01*
X145962070Y-83502762D01*
X145934143Y-83525669D01*
X145934075Y-83525737D01*
X145904999Y-83549599D01*
X145881262Y-83578523D01*
X144390077Y-85068935D01*
X144360999Y-85092799D01*
X144313449Y-85150739D01*
X144266136Y-85208360D01*
X144266088Y-85208449D01*
X144266026Y-85208525D01*
X144230843Y-85274346D01*
X144195530Y-85340371D01*
X144195501Y-85340465D01*
X144195454Y-85340554D01*
X144173603Y-85412589D01*
X144170000Y-85424455D01*
X144170000Y-79400000D01*
X236830000Y-79400000D01*
X236830001Y-126340000D01*
%TA.AperFunction,Conductor*%
D22*
G36*
X236830001Y-126340000D02*
G01*
X220903135Y-126340000D01*
X220974276Y-126301974D01*
X221090001Y-126207001D01*
X221113804Y-126177997D01*
X230296980Y-116994823D01*
X230404995Y-117083469D01*
X230665337Y-117222625D01*
X230947824Y-117308316D01*
X231241600Y-117337251D01*
X231535377Y-117308316D01*
X231817864Y-117222625D01*
X232078206Y-117083469D01*
X232306397Y-116896197D01*
X232493669Y-116668006D01*
X232632825Y-116407664D01*
X232718516Y-116125176D01*
X232740200Y-115905018D01*
X232740200Y-115234981D01*
X232718516Y-115014823D01*
X232632825Y-114732336D01*
X232493669Y-114471994D01*
X232306397Y-114243803D01*
X232078205Y-114056531D01*
X231817863Y-113917375D01*
X231535376Y-113831684D01*
X231241600Y-113802749D01*
X230947823Y-113831684D01*
X230665336Y-113917375D01*
X230404994Y-114056531D01*
X230176803Y-114243803D01*
X229989531Y-114471995D01*
X229945544Y-114554289D01*
X229826283Y-114370426D01*
X229620668Y-114159127D01*
X229377781Y-113992002D01*
X229106957Y-113875473D01*
X229009826Y-113853642D01*
X228777800Y-113974783D01*
X228777800Y-115443000D01*
X228797800Y-115443000D01*
X228797800Y-115697000D01*
X228777800Y-115697000D01*
X228777800Y-115717000D01*
X228523800Y-115717000D01*
X228523800Y-115697000D01*
X228503800Y-115697000D01*
X228503800Y-115443000D01*
X228523800Y-115443000D01*
X228523800Y-113974783D01*
X228291774Y-113853642D01*
X228194643Y-113875473D01*
X227923819Y-113992002D01*
X227680932Y-114159127D01*
X227475317Y-114370426D01*
X227383907Y-114511353D01*
X227362869Y-114471994D01*
X227175597Y-114243803D01*
X226947405Y-114056531D01*
X226687063Y-113917375D01*
X226404576Y-113831684D01*
X226110800Y-113802749D01*
X225817023Y-113831684D01*
X225534536Y-113917375D01*
X225274194Y-114056531D01*
X225046003Y-114243803D01*
X224858731Y-114471995D01*
X224840800Y-114505541D01*
X224822869Y-114471994D01*
X224635597Y-114243803D01*
X224407405Y-114056531D01*
X224147063Y-113917375D01*
X223864576Y-113831684D01*
X223570800Y-113802749D01*
X223277023Y-113831684D01*
X222994536Y-113917375D01*
X222734194Y-114056531D01*
X222506003Y-114243803D01*
X222318731Y-114471995D01*
X222300800Y-114505541D01*
X222282869Y-114471994D01*
X222095597Y-114243803D01*
X221867405Y-114056531D01*
X221607063Y-113917375D01*
X221324576Y-113831684D01*
X221030800Y-113802749D01*
X220737023Y-113831684D01*
X220454536Y-113917375D01*
X220194194Y-114056531D01*
X219966003Y-114243803D01*
X219778731Y-114471995D01*
X219760800Y-114505541D01*
X219742869Y-114471994D01*
X219555597Y-114243803D01*
X219327405Y-114056531D01*
X219067063Y-113917375D01*
X218784576Y-113831684D01*
X218490800Y-113802749D01*
X218197023Y-113831684D01*
X217914536Y-113917375D01*
X217654194Y-114056531D01*
X217546069Y-114145267D01*
X212190804Y-108790003D01*
X212167001Y-108760999D01*
X212051276Y-108666026D01*
X211919247Y-108595454D01*
X211775986Y-108551997D01*
X211664333Y-108541000D01*
X211664322Y-108541000D01*
X211627000Y-108537324D01*
X211589678Y-108541000D01*
X210583802Y-108541000D01*
X208585203Y-106542401D01*
X225882200Y-106542401D01*
X225882200Y-106837599D01*
X225939790Y-107127125D01*
X226052758Y-107399853D01*
X226216761Y-107645302D01*
X226425498Y-107854039D01*
X226584081Y-107960000D01*
X226425498Y-108065961D01*
X226216761Y-108274698D01*
X226052758Y-108520147D01*
X225939790Y-108792875D01*
X225882200Y-109082401D01*
X225882200Y-109377599D01*
X225939790Y-109667125D01*
X226052758Y-109939853D01*
X226216761Y-110185302D01*
X226425498Y-110394039D01*
X226670947Y-110558042D01*
X226943675Y-110671010D01*
X227233201Y-110728600D01*
X227528399Y-110728600D01*
X227817925Y-110671010D01*
X228090653Y-110558042D01*
X228336102Y-110394039D01*
X228544839Y-110185302D01*
X228708842Y-109939853D01*
X228821810Y-109667125D01*
X228879400Y-109377599D01*
X228879400Y-109082401D01*
X228821810Y-108792875D01*
X228708842Y-108520147D01*
X228544839Y-108274698D01*
X228336102Y-108065961D01*
X228177519Y-107960000D01*
X228336102Y-107854039D01*
X228544839Y-107645302D01*
X228708842Y-107399853D01*
X228821810Y-107127125D01*
X228879400Y-106837599D01*
X228879400Y-106542401D01*
X228821810Y-106252875D01*
X228708842Y-105980147D01*
X228544839Y-105734698D01*
X228336102Y-105525961D01*
X228090653Y-105361958D01*
X227817925Y-105248990D01*
X227528399Y-105191400D01*
X227233201Y-105191400D01*
X226943675Y-105248990D01*
X226670947Y-105361958D01*
X226425498Y-105525961D01*
X226216761Y-105734698D01*
X226052758Y-105980147D01*
X225939790Y-106252875D01*
X225882200Y-106542401D01*
X208585203Y-106542401D01*
X203956331Y-101913530D01*
X204087405Y-101843469D01*
X204315597Y-101656197D01*
X204502869Y-101428006D01*
X204520800Y-101394459D01*
X204538731Y-101428005D01*
X204726003Y-101656197D01*
X204954194Y-101843469D01*
X205214536Y-101982625D01*
X205497023Y-102068316D01*
X205790800Y-102097251D01*
X206084576Y-102068316D01*
X206367063Y-101982625D01*
X206627405Y-101843469D01*
X206855597Y-101656197D01*
X207042869Y-101428006D01*
X207060800Y-101394459D01*
X207078731Y-101428005D01*
X207266003Y-101656197D01*
X207494194Y-101843469D01*
X207754536Y-101982625D01*
X208037023Y-102068316D01*
X208330800Y-102097251D01*
X208624576Y-102068316D01*
X208907063Y-101982625D01*
X209167405Y-101843469D01*
X209395597Y-101656197D01*
X209582869Y-101428006D01*
X209600800Y-101394459D01*
X209618731Y-101428005D01*
X209806003Y-101656197D01*
X210034194Y-101843469D01*
X210294536Y-101982625D01*
X210577023Y-102068316D01*
X210870800Y-102097251D01*
X211164576Y-102068316D01*
X211447063Y-101982625D01*
X211707405Y-101843469D01*
X211935597Y-101656197D01*
X212122869Y-101428006D01*
X212140800Y-101394459D01*
X212158731Y-101428005D01*
X212346003Y-101656197D01*
X212574194Y-101843469D01*
X212834536Y-101982625D01*
X213117023Y-102068316D01*
X213410800Y-102097251D01*
X213704576Y-102068316D01*
X213987063Y-101982625D01*
X214247405Y-101843469D01*
X214475597Y-101656197D01*
X214662869Y-101428006D01*
X214680800Y-101394459D01*
X214698731Y-101428005D01*
X214886003Y-101656197D01*
X215114194Y-101843469D01*
X215374536Y-101982625D01*
X215657023Y-102068316D01*
X215950800Y-102097251D01*
X216244576Y-102068316D01*
X216527063Y-101982625D01*
X216787405Y-101843469D01*
X217015597Y-101656197D01*
X217202869Y-101428006D01*
X217220800Y-101394459D01*
X217238731Y-101428005D01*
X217426003Y-101656197D01*
X217654194Y-101843469D01*
X217914536Y-101982625D01*
X218197023Y-102068316D01*
X218490800Y-102097251D01*
X218784576Y-102068316D01*
X219067063Y-101982625D01*
X219327405Y-101843469D01*
X219555597Y-101656197D01*
X219742869Y-101428006D01*
X219760800Y-101394459D01*
X219778731Y-101428005D01*
X219966003Y-101656197D01*
X220194194Y-101843469D01*
X220454536Y-101982625D01*
X220737023Y-102068316D01*
X221030800Y-102097251D01*
X221324576Y-102068316D01*
X221607063Y-101982625D01*
X221867405Y-101843469D01*
X222095597Y-101656197D01*
X222282869Y-101428006D01*
X222300800Y-101394459D01*
X222318731Y-101428005D01*
X222506003Y-101656197D01*
X222734194Y-101843469D01*
X222994536Y-101982625D01*
X223277023Y-102068316D01*
X223570800Y-102097251D01*
X223864576Y-102068316D01*
X224147063Y-101982625D01*
X224407405Y-101843469D01*
X224635597Y-101656197D01*
X224822869Y-101428006D01*
X224840800Y-101394459D01*
X224858731Y-101428005D01*
X225046003Y-101656197D01*
X225274194Y-101843469D01*
X225534536Y-101982625D01*
X225817023Y-102068316D01*
X226110800Y-102097251D01*
X226404576Y-102068316D01*
X226687063Y-101982625D01*
X226947405Y-101843469D01*
X227175597Y-101656197D01*
X227362869Y-101428006D01*
X227380800Y-101394459D01*
X227398731Y-101428005D01*
X227586003Y-101656197D01*
X227814194Y-101843469D01*
X228074536Y-101982625D01*
X228357023Y-102068316D01*
X228650800Y-102097251D01*
X228944576Y-102068316D01*
X229227063Y-101982625D01*
X229487405Y-101843469D01*
X229715597Y-101656197D01*
X229722214Y-101648135D01*
X229737698Y-101699180D01*
X229796663Y-101809494D01*
X229876015Y-101906185D01*
X229972706Y-101985537D01*
X230083020Y-102044502D01*
X230202718Y-102080812D01*
X230327200Y-102093072D01*
X232054400Y-102093072D01*
X232178882Y-102080812D01*
X232298580Y-102044502D01*
X232408894Y-101985537D01*
X232505585Y-101906185D01*
X232584937Y-101809494D01*
X232643902Y-101699180D01*
X232680212Y-101579482D01*
X232692472Y-101455000D01*
X232692472Y-99205000D01*
X232680212Y-99080518D01*
X232643902Y-98960820D01*
X232584937Y-98850506D01*
X232505585Y-98753815D01*
X232408894Y-98674463D01*
X232298580Y-98615498D01*
X232178882Y-98579188D01*
X232054400Y-98566928D01*
X230327200Y-98566928D01*
X230202718Y-98579188D01*
X230083020Y-98615498D01*
X229972706Y-98674463D01*
X229876015Y-98753815D01*
X229796663Y-98850506D01*
X229737698Y-98960820D01*
X229722214Y-99011865D01*
X229715597Y-99003803D01*
X229487406Y-98816531D01*
X229227064Y-98677375D01*
X228944577Y-98591684D01*
X228650800Y-98562749D01*
X228357024Y-98591684D01*
X228074537Y-98677375D01*
X227814195Y-98816531D01*
X227586003Y-99003803D01*
X227398731Y-99231994D01*
X227380800Y-99265540D01*
X227362869Y-99231994D01*
X227175597Y-99003803D01*
X226947406Y-98816531D01*
X226687064Y-98677375D01*
X226404577Y-98591684D01*
X226110800Y-98562749D01*
X225817024Y-98591684D01*
X225534537Y-98677375D01*
X225274195Y-98816531D01*
X225046003Y-99003803D01*
X224858731Y-99231994D01*
X224840800Y-99265540D01*
X224822869Y-99231994D01*
X224635597Y-99003803D01*
X224407406Y-98816531D01*
X224147064Y-98677375D01*
X223864577Y-98591684D01*
X223570800Y-98562749D01*
X223277024Y-98591684D01*
X222994537Y-98677375D01*
X222734195Y-98816531D01*
X222506003Y-99003803D01*
X222318731Y-99231994D01*
X222300800Y-99265540D01*
X222282869Y-99231994D01*
X222095597Y-99003803D01*
X221867406Y-98816531D01*
X221607064Y-98677375D01*
X221324577Y-98591684D01*
X221030800Y-98562749D01*
X220737024Y-98591684D01*
X220454537Y-98677375D01*
X220194195Y-98816531D01*
X219966003Y-99003803D01*
X219778731Y-99231994D01*
X219760800Y-99265540D01*
X219742869Y-99231994D01*
X219555597Y-99003803D01*
X219327406Y-98816531D01*
X219067064Y-98677375D01*
X218784577Y-98591684D01*
X218490800Y-98562749D01*
X218197024Y-98591684D01*
X217914537Y-98677375D01*
X217654195Y-98816531D01*
X217426003Y-99003803D01*
X217238731Y-99231994D01*
X217220800Y-99265540D01*
X217202869Y-99231994D01*
X217015597Y-99003803D01*
X216787406Y-98816531D01*
X216527064Y-98677375D01*
X216244577Y-98591684D01*
X215950800Y-98562749D01*
X215657024Y-98591684D01*
X215374537Y-98677375D01*
X215114195Y-98816531D01*
X214886003Y-99003803D01*
X214698731Y-99231994D01*
X214680800Y-99265540D01*
X214662869Y-99231994D01*
X214475597Y-99003803D01*
X214247406Y-98816531D01*
X213987064Y-98677375D01*
X213704577Y-98591684D01*
X213475846Y-98569156D01*
X227646102Y-84398900D01*
X227708239Y-84398900D01*
X227908198Y-84359126D01*
X228096556Y-84281105D01*
X228266074Y-84167837D01*
X228410237Y-84023674D01*
X228523505Y-83854156D01*
X228601526Y-83665798D01*
X228641300Y-83465839D01*
X228641300Y-83261961D01*
X228601526Y-83062002D01*
X228523505Y-82873644D01*
X228410237Y-82704126D01*
X228266074Y-82559963D01*
X228096556Y-82446695D01*
X227908198Y-82368674D01*
X227708239Y-82328900D01*
X227504361Y-82328900D01*
X227304402Y-82368674D01*
X227116044Y-82446695D01*
X226946526Y-82559963D01*
X226802363Y-82704126D01*
X226689095Y-82873644D01*
X226611074Y-83062002D01*
X226571300Y-83261961D01*
X226571300Y-83324098D01*
X211775699Y-98119700D01*
X210908133Y-98119700D01*
X210870800Y-98116023D01*
X210833467Y-98119700D01*
X210721814Y-98130697D01*
X210578553Y-98174154D01*
X210446524Y-98244726D01*
X210330799Y-98339699D01*
X210235826Y-98455424D01*
X210165254Y-98587453D01*
X210121797Y-98730714D01*
X210117743Y-98771874D01*
X210034195Y-98816531D01*
X209806003Y-99003803D01*
X209618731Y-99231994D01*
X209600800Y-99265540D01*
X209582869Y-99231994D01*
X209395597Y-99003803D01*
X209167406Y-98816531D01*
X208907064Y-98677375D01*
X208624577Y-98591684D01*
X208330800Y-98562749D01*
X208037024Y-98591684D01*
X207754537Y-98677375D01*
X207494195Y-98816531D01*
X207266003Y-99003803D01*
X207078731Y-99231994D01*
X207060800Y-99265540D01*
X207042869Y-99231994D01*
X206855597Y-99003803D01*
X206627406Y-98816531D01*
X206367064Y-98677375D01*
X206084577Y-98591684D01*
X205790800Y-98562749D01*
X205497024Y-98591684D01*
X205214537Y-98677375D01*
X204954195Y-98816531D01*
X204726003Y-99003803D01*
X204538731Y-99231994D01*
X204520800Y-99265540D01*
X204502869Y-99231994D01*
X204315597Y-99003803D01*
X204087406Y-98816531D01*
X203827064Y-98677375D01*
X203544577Y-98591684D01*
X203250800Y-98562749D01*
X202957024Y-98591684D01*
X202674537Y-98677375D01*
X202414195Y-98816531D01*
X202320461Y-98893456D01*
X186880802Y-83453601D01*
X186857001Y-83424599D01*
X186741276Y-83329626D01*
X186614686Y-83261961D01*
X186609251Y-83259056D01*
X186609250Y-83259056D01*
X186609247Y-83259054D01*
X186465986Y-83215597D01*
X186354333Y-83204600D01*
X186354324Y-83204600D01*
X186317004Y-83200924D01*
X186279679Y-83204600D01*
X169279398Y-83204600D01*
X169242152Y-83200924D01*
X169204752Y-83204600D01*
X169204667Y-83204600D01*
X169163549Y-83208650D01*
X169093163Y-83215568D01*
X169093093Y-83215589D01*
X169093014Y-83215597D01*
X169019320Y-83237952D01*
X168949894Y-83258996D01*
X168949828Y-83259031D01*
X168949753Y-83259054D01*
X168881406Y-83295587D01*
X168817851Y-83329542D01*
X168817795Y-83329588D01*
X168817724Y-83329626D01*
X168758296Y-83378397D01*
X168731110Y-83400699D01*
X168731058Y-83400751D01*
X168701999Y-83424599D01*
X168678247Y-83453540D01*
X167808072Y-84323367D01*
X167808072Y-84290000D01*
X167795812Y-84165518D01*
X167759502Y-84045820D01*
X167700537Y-83935506D01*
X167621185Y-83838815D01*
X167524494Y-83759463D01*
X167414180Y-83700498D01*
X167294482Y-83664188D01*
X167170000Y-83651928D01*
X165570000Y-83651928D01*
X165445518Y-83664188D01*
X165325820Y-83700498D01*
X165215506Y-83759463D01*
X165118815Y-83838815D01*
X165039463Y-83935506D01*
X164980498Y-84045820D01*
X164944188Y-84165518D01*
X164931928Y-84290000D01*
X164931928Y-85890000D01*
X164944188Y-86014482D01*
X164980498Y-86134180D01*
X165039463Y-86244494D01*
X165118815Y-86341185D01*
X165215506Y-86420537D01*
X165325820Y-86479502D01*
X165445518Y-86515812D01*
X165453961Y-86516643D01*
X165255363Y-86715241D01*
X165098320Y-86950273D01*
X164990147Y-87211426D01*
X164935000Y-87488665D01*
X164935000Y-87771335D01*
X164990147Y-88048574D01*
X165051289Y-88196185D01*
X165027999Y-88215299D01*
X165004170Y-88244335D01*
X163802386Y-89446432D01*
X163674637Y-89255241D01*
X163474759Y-89055363D01*
X163242241Y-88900000D01*
X163474759Y-88744637D01*
X163674637Y-88544759D01*
X163831680Y-88309727D01*
X163939853Y-88048574D01*
X163995000Y-87771335D01*
X163995000Y-87488665D01*
X163939853Y-87211426D01*
X163831680Y-86950273D01*
X163674637Y-86715241D01*
X163476039Y-86516643D01*
X163484482Y-86515812D01*
X163604180Y-86479502D01*
X163714494Y-86420537D01*
X163811185Y-86341185D01*
X163890537Y-86244494D01*
X163949502Y-86134180D01*
X163985812Y-86014482D01*
X163998072Y-85890000D01*
X163998072Y-84290000D01*
X163985812Y-84165518D01*
X163949502Y-84045820D01*
X163890537Y-83935506D01*
X163811185Y-83838815D01*
X163714494Y-83759463D01*
X163604180Y-83700498D01*
X163484482Y-83664188D01*
X163360000Y-83651928D01*
X161760000Y-83651928D01*
X161635518Y-83664188D01*
X161515820Y-83700498D01*
X161405506Y-83759463D01*
X161308815Y-83838815D01*
X161229463Y-83935506D01*
X161170498Y-84045820D01*
X161134188Y-84165518D01*
X161121928Y-84290000D01*
X161121928Y-85890000D01*
X161134188Y-86014482D01*
X161170498Y-86134180D01*
X161229463Y-86244494D01*
X161308815Y-86341185D01*
X161405506Y-86420537D01*
X161515820Y-86479502D01*
X161635518Y-86515812D01*
X161643961Y-86516643D01*
X161445363Y-86715241D01*
X161288320Y-86950273D01*
X161180147Y-87211426D01*
X161125000Y-87488665D01*
X161125000Y-87771335D01*
X161180147Y-88048574D01*
X161288320Y-88309727D01*
X161445363Y-88544759D01*
X161645241Y-88744637D01*
X161877759Y-88900000D01*
X161645241Y-89055363D01*
X161445363Y-89255241D01*
X161288320Y-89490273D01*
X161180147Y-89751426D01*
X161125000Y-90028665D01*
X161125000Y-90311335D01*
X161180147Y-90588574D01*
X161288320Y-90849727D01*
X161445363Y-91084759D01*
X161449451Y-91088847D01*
X160550917Y-91987867D01*
X160522000Y-92011599D01*
X160498138Y-92040675D01*
X160498063Y-92040750D01*
X160473953Y-92070144D01*
X160427027Y-92127324D01*
X160426978Y-92127415D01*
X160426912Y-92127496D01*
X160390886Y-92194938D01*
X160356455Y-92259353D01*
X160356426Y-92259448D01*
X160356375Y-92259544D01*
X160334427Y-92331970D01*
X160312997Y-92402614D01*
X160312987Y-92402719D01*
X160312957Y-92402817D01*
X160305872Y-92474950D01*
X160302000Y-92514267D01*
X160302000Y-92514378D01*
X160298324Y-92551806D01*
X160302000Y-92589026D01*
X160302000Y-93033492D01*
X150587572Y-102747673D01*
X150579658Y-102707887D01*
X150480907Y-102469482D01*
X150337544Y-102254923D01*
X150172621Y-102090000D01*
X150337544Y-101925077D01*
X150480907Y-101710518D01*
X150579658Y-101472113D01*
X150630000Y-101219024D01*
X150630000Y-100960976D01*
X150579658Y-100707887D01*
X150480907Y-100469482D01*
X150337544Y-100254923D01*
X150172621Y-100090000D01*
X150337544Y-99925077D01*
X150480907Y-99710518D01*
X150579658Y-99472113D01*
X150630000Y-99219024D01*
X150630000Y-98960976D01*
X150579658Y-98707887D01*
X150480907Y-98469482D01*
X150337544Y-98254923D01*
X150172621Y-98090000D01*
X150337544Y-97925077D01*
X150480907Y-97710518D01*
X150579658Y-97472113D01*
X150630000Y-97219024D01*
X150630000Y-96960976D01*
X150579658Y-96707887D01*
X150480907Y-96469482D01*
X150337544Y-96254923D01*
X150172621Y-96090000D01*
X150337544Y-95925077D01*
X150480907Y-95710518D01*
X150579658Y-95472113D01*
X150630000Y-95219024D01*
X150630000Y-94960976D01*
X150579658Y-94707887D01*
X150480907Y-94469482D01*
X150337544Y-94254923D01*
X150172621Y-94090000D01*
X150337544Y-93925077D01*
X150480907Y-93710518D01*
X150579658Y-93472113D01*
X150630000Y-93219024D01*
X150630000Y-92960976D01*
X150579658Y-92707887D01*
X150480907Y-92469482D01*
X150337544Y-92254923D01*
X150172621Y-92090000D01*
X150337544Y-91925077D01*
X150480907Y-91710518D01*
X150579658Y-91472113D01*
X150630000Y-91219024D01*
X150630000Y-90960976D01*
X150579658Y-90707887D01*
X150480907Y-90469482D01*
X150337544Y-90254923D01*
X150172621Y-90090000D01*
X150337544Y-89925077D01*
X150480907Y-89710518D01*
X150579658Y-89472113D01*
X150630000Y-89219024D01*
X150630000Y-88960976D01*
X150579658Y-88707887D01*
X150480907Y-88469482D01*
X150337544Y-88254923D01*
X150165940Y-88083319D01*
X150298303Y-87961227D01*
X150449473Y-87753629D01*
X150557238Y-87520528D01*
X150587910Y-87419400D01*
X150464224Y-87217000D01*
X149447000Y-87217000D01*
X149447000Y-87237000D01*
X149193000Y-87237000D01*
X149193000Y-87217000D01*
X147447000Y-87217000D01*
X147447000Y-88963000D01*
X147467000Y-88963000D01*
X147467000Y-89217000D01*
X147447000Y-89217000D01*
X147447000Y-90963000D01*
X147467000Y-90963000D01*
X147467000Y-91217000D01*
X147447000Y-91217000D01*
X147447000Y-92963000D01*
X147467000Y-92963000D01*
X147467000Y-93217000D01*
X147447000Y-93217000D01*
X147447000Y-94963000D01*
X147467000Y-94963000D01*
X147467000Y-95217000D01*
X147447000Y-95217000D01*
X147447000Y-96963000D01*
X147467000Y-96963000D01*
X147467000Y-97217000D01*
X147447000Y-97217000D01*
X147447000Y-98963000D01*
X147467000Y-98963000D01*
X147467000Y-99217000D01*
X147447000Y-99217000D01*
X147447000Y-99237000D01*
X147193000Y-99237000D01*
X147193000Y-99217000D01*
X146175776Y-99217000D01*
X146052090Y-99419400D01*
X146082762Y-99520528D01*
X146190527Y-99753629D01*
X146341697Y-99961227D01*
X146474060Y-100083319D01*
X146302456Y-100254923D01*
X146159093Y-100469482D01*
X146060342Y-100707887D01*
X146010000Y-100960976D01*
X146010000Y-101219024D01*
X146060342Y-101472113D01*
X146159093Y-101710518D01*
X146302456Y-101925077D01*
X146474060Y-102096681D01*
X146341697Y-102218773D01*
X146190527Y-102426371D01*
X146082762Y-102659472D01*
X146052090Y-102760600D01*
X146175776Y-102963000D01*
X147193000Y-102963000D01*
X147193000Y-102943000D01*
X147447000Y-102943000D01*
X147447000Y-102963000D01*
X147467000Y-102963000D01*
X147467000Y-103217000D01*
X147447000Y-103217000D01*
X147447000Y-104963000D01*
X147467000Y-104963000D01*
X147467000Y-105217000D01*
X147447000Y-105217000D01*
X147447000Y-106963000D01*
X147467000Y-106963000D01*
X147467000Y-107217000D01*
X147447000Y-107217000D01*
X147447000Y-107237000D01*
X147193000Y-107237000D01*
X147193000Y-107217000D01*
X146175776Y-107217000D01*
X146052090Y-107419400D01*
X146082762Y-107520528D01*
X146190527Y-107753629D01*
X146341697Y-107961227D01*
X146474060Y-108083319D01*
X146302456Y-108254923D01*
X146159093Y-108469482D01*
X146060342Y-108707887D01*
X146010000Y-108960976D01*
X146010000Y-109219024D01*
X146027615Y-109307583D01*
X145661000Y-109674199D01*
X145661000Y-105419400D01*
X146052090Y-105419400D01*
X146082762Y-105520528D01*
X146190527Y-105753629D01*
X146341697Y-105961227D01*
X146481304Y-106090000D01*
X146341697Y-106218773D01*
X146190527Y-106426371D01*
X146082762Y-106659472D01*
X146052090Y-106760600D01*
X146175776Y-106963000D01*
X147193000Y-106963000D01*
X147193000Y-105217000D01*
X146175776Y-105217000D01*
X146052090Y-105419400D01*
X145661000Y-105419400D01*
X145661000Y-103419400D01*
X146052090Y-103419400D01*
X146082762Y-103520528D01*
X146190527Y-103753629D01*
X146341697Y-103961227D01*
X146481304Y-104090000D01*
X146341697Y-104218773D01*
X146190527Y-104426371D01*
X146082762Y-104659472D01*
X146052090Y-104760600D01*
X146175776Y-104963000D01*
X147193000Y-104963000D01*
X147193000Y-103217000D01*
X146175776Y-103217000D01*
X146052090Y-103419400D01*
X145661000Y-103419400D01*
X145661000Y-97419400D01*
X146052090Y-97419400D01*
X146082762Y-97520528D01*
X146190527Y-97753629D01*
X146341697Y-97961227D01*
X146481304Y-98090000D01*
X146341697Y-98218773D01*
X146190527Y-98426371D01*
X146082762Y-98659472D01*
X146052090Y-98760600D01*
X146175776Y-98963000D01*
X147193000Y-98963000D01*
X147193000Y-97217000D01*
X146175776Y-97217000D01*
X146052090Y-97419400D01*
X145661000Y-97419400D01*
X145661000Y-95419400D01*
X146052090Y-95419400D01*
X146082762Y-95520528D01*
X146190527Y-95753629D01*
X146341697Y-95961227D01*
X146481304Y-96090000D01*
X146341697Y-96218773D01*
X146190527Y-96426371D01*
X146082762Y-96659472D01*
X146052090Y-96760600D01*
X146175776Y-96963000D01*
X147193000Y-96963000D01*
X147193000Y-95217000D01*
X146175776Y-95217000D01*
X146052090Y-95419400D01*
X145661000Y-95419400D01*
X145661000Y-93419400D01*
X146052090Y-93419400D01*
X146082762Y-93520528D01*
X146190527Y-93753629D01*
X146341697Y-93961227D01*
X146481304Y-94090000D01*
X146341697Y-94218773D01*
X146190527Y-94426371D01*
X146082762Y-94659472D01*
X146052090Y-94760600D01*
X146175776Y-94963000D01*
X147193000Y-94963000D01*
X147193000Y-93217000D01*
X146175776Y-93217000D01*
X146052090Y-93419400D01*
X145661000Y-93419400D01*
X145661000Y-91419400D01*
X146052090Y-91419400D01*
X146082762Y-91520528D01*
X146190527Y-91753629D01*
X146341697Y-91961227D01*
X146481304Y-92090000D01*
X146341697Y-92218773D01*
X146190527Y-92426371D01*
X146082762Y-92659472D01*
X146052090Y-92760600D01*
X146175776Y-92963000D01*
X147193000Y-92963000D01*
X147193000Y-91217000D01*
X146175776Y-91217000D01*
X146052090Y-91419400D01*
X145661000Y-91419400D01*
X145661000Y-89419400D01*
X146052090Y-89419400D01*
X146082762Y-89520528D01*
X146190527Y-89753629D01*
X146341697Y-89961227D01*
X146481304Y-90090000D01*
X146341697Y-90218773D01*
X146190527Y-90426371D01*
X146082762Y-90659472D01*
X146052090Y-90760600D01*
X146175776Y-90963000D01*
X147193000Y-90963000D01*
X147193000Y-89217000D01*
X146175776Y-89217000D01*
X146052090Y-89419400D01*
X145661000Y-89419400D01*
X145661000Y-87419400D01*
X146052090Y-87419400D01*
X146082762Y-87520528D01*
X146190527Y-87753629D01*
X146341697Y-87961227D01*
X146481304Y-88090000D01*
X146341697Y-88218773D01*
X146190527Y-88426371D01*
X146082762Y-88659472D01*
X146052090Y-88760600D01*
X146175776Y-88963000D01*
X147193000Y-88963000D01*
X147193000Y-87217000D01*
X146175776Y-87217000D01*
X146052090Y-87419400D01*
X145661000Y-87419400D01*
X145661000Y-85947716D01*
X146006928Y-85601968D01*
X146006928Y-85765000D01*
X146019188Y-85889482D01*
X146055498Y-86009180D01*
X146114463Y-86119494D01*
X146193815Y-86216185D01*
X146287559Y-86293119D01*
X146190527Y-86426371D01*
X146082762Y-86659472D01*
X146052090Y-86760600D01*
X146175776Y-86963000D01*
X147193000Y-86963000D01*
X147193000Y-86943000D01*
X147447000Y-86943000D01*
X147447000Y-86963000D01*
X149193000Y-86963000D01*
X149193000Y-86943000D01*
X149447000Y-86943000D01*
X149447000Y-86963000D01*
X150464224Y-86963000D01*
X150587910Y-86760600D01*
X150557238Y-86659472D01*
X150449473Y-86426371D01*
X150298303Y-86218773D01*
X150239459Y-86164495D01*
X154225000Y-86164495D01*
X154225000Y-86555505D01*
X154301282Y-86939003D01*
X154450915Y-87300250D01*
X154668149Y-87625364D01*
X154944636Y-87901851D01*
X155269750Y-88119085D01*
X155630997Y-88268718D01*
X156014495Y-88345000D01*
X156405505Y-88345000D01*
X156789003Y-88268718D01*
X157150250Y-88119085D01*
X157475364Y-87901851D01*
X157751851Y-87625364D01*
X157969085Y-87300250D01*
X158118718Y-86939003D01*
X158195000Y-86555505D01*
X158195000Y-86164495D01*
X158118718Y-85780997D01*
X157969085Y-85419750D01*
X157751851Y-85094636D01*
X157475364Y-84818149D01*
X157150250Y-84600915D01*
X156789003Y-84451282D01*
X156405505Y-84375000D01*
X156014495Y-84375000D01*
X155630997Y-84451282D01*
X155269750Y-84600915D01*
X154944636Y-84818149D01*
X154668149Y-85094636D01*
X154450915Y-85419750D01*
X154301282Y-85780997D01*
X154225000Y-86164495D01*
X150239459Y-86164495D01*
X150165940Y-86096681D01*
X150337544Y-85925077D01*
X150480907Y-85710518D01*
X150579658Y-85472113D01*
X150630000Y-85219024D01*
X150630000Y-84960976D01*
X150579658Y-84707887D01*
X150480907Y-84469482D01*
X150337544Y-84254923D01*
X150155077Y-84072456D01*
X149940518Y-83929093D01*
X149702113Y-83830342D01*
X149449024Y-83780000D01*
X149190976Y-83780000D01*
X149102669Y-83797565D01*
X148883850Y-83578659D01*
X148860001Y-83549599D01*
X148801223Y-83501362D01*
X148744403Y-83454711D01*
X148744336Y-83454675D01*
X148744276Y-83454626D01*
X148675824Y-83418037D01*
X148612387Y-83384113D01*
X148612318Y-83384092D01*
X148612247Y-83384054D01*
X148537749Y-83361456D01*
X148469135Y-83340627D01*
X148469061Y-83340620D01*
X148468986Y-83340597D01*
X148391132Y-83332929D01*
X148320152Y-83325924D01*
X148282752Y-83329600D01*
X146482422Y-83329600D01*
X146445197Y-83325924D01*
X146407774Y-83329600D01*
X146407667Y-83329600D01*
X146367791Y-83333527D01*
X146296208Y-83340559D01*
X146296116Y-83340587D01*
X146296014Y-83340597D01*
X146222157Y-83363001D01*
X146152936Y-83383979D01*
X146152852Y-83384024D01*
X146152753Y-83384054D01*
X146084702Y-83420429D01*
X146020888Y-83454517D01*
X146020813Y-83454578D01*
X146020724Y-83454626D01*
X145962070Y-83502762D01*
X145934143Y-83525669D01*
X145934075Y-83525737D01*
X145904999Y-83549599D01*
X145881262Y-83578523D01*
X144390077Y-85068935D01*
X144360999Y-85092799D01*
X144313449Y-85150739D01*
X144266136Y-85208360D01*
X144266088Y-85208449D01*
X144266026Y-85208525D01*
X144230843Y-85274346D01*
X144195530Y-85340371D01*
X144195501Y-85340465D01*
X144195454Y-85340554D01*
X144173603Y-85412589D01*
X144170000Y-85424455D01*
X144170000Y-79400000D01*
X236830000Y-79400000D01*
X236830001Y-126340000D01*
G37*
%TD.AperFunction*%
D21*
X164485001Y-108268183D02*
X150401555Y-122350722D01*
X150337544Y-122254923D01*
X150165940Y-122083319D01*
X150298303Y-121961227D01*
X150449473Y-121753629D01*
X150557238Y-121520528D01*
X150587910Y-121419400D01*
X150464224Y-121217000D01*
X149447000Y-121217000D01*
X149447000Y-121237000D01*
X149193000Y-121237000D01*
X149193000Y-121217000D01*
X147447000Y-121217000D01*
X147447000Y-121237000D01*
X147193000Y-121237000D01*
X147193000Y-121217000D01*
X147173000Y-121217000D01*
X147173000Y-120963000D01*
X147193000Y-120963000D01*
X147193000Y-119217000D01*
X147173000Y-119217000D01*
X147173000Y-118963000D01*
X147193000Y-118963000D01*
X147193000Y-118943000D01*
X147447000Y-118943000D01*
X147447000Y-118963000D01*
X147467000Y-118963000D01*
X147467000Y-119217000D01*
X147447000Y-119217000D01*
X147447000Y-120963000D01*
X149193000Y-120963000D01*
X149193000Y-120943000D01*
X149447000Y-120943000D01*
X149447000Y-120963000D01*
X150464224Y-120963000D01*
X150587910Y-120760600D01*
X150557238Y-120659472D01*
X150449473Y-120426371D01*
X150298303Y-120218773D01*
X150165940Y-120096681D01*
X150337544Y-119925077D01*
X150389848Y-119846797D01*
X150468986Y-119839003D01*
X150612247Y-119795546D01*
X150744276Y-119724974D01*
X150860001Y-119630001D01*
X150954974Y-119514276D01*
X151025546Y-119382247D01*
X151069003Y-119238986D01*
X151083677Y-119090000D01*
X151080000Y-119052667D01*
X151080000Y-118912801D01*
X161318263Y-108674539D01*
X161445363Y-108864759D01*
X161645241Y-109064637D01*
X161880273Y-109221680D01*
X162141426Y-109329853D01*
X162418665Y-109385000D01*
X162701335Y-109385000D01*
X162978574Y-109329853D01*
X163239727Y-109221680D01*
X163474759Y-109064637D01*
X163674637Y-108864759D01*
X163831680Y-108629727D01*
X163939853Y-108368574D01*
X163995000Y-108091335D01*
X163995000Y-107808665D01*
X163939853Y-107531426D01*
X163831680Y-107270273D01*
X163677370Y-107039331D01*
X164485000Y-106231242D01*
X164485001Y-108268183D01*
%TA.AperFunction,Conductor*%
D22*
G36*
X164485001Y-108268183D02*
G01*
X150401555Y-122350722D01*
X150337544Y-122254923D01*
X150165940Y-122083319D01*
X150298303Y-121961227D01*
X150449473Y-121753629D01*
X150557238Y-121520528D01*
X150587910Y-121419400D01*
X150464224Y-121217000D01*
X149447000Y-121217000D01*
X149447000Y-121237000D01*
X149193000Y-121237000D01*
X149193000Y-121217000D01*
X147447000Y-121217000D01*
X147447000Y-121237000D01*
X147193000Y-121237000D01*
X147193000Y-121217000D01*
X147173000Y-121217000D01*
X147173000Y-120963000D01*
X147193000Y-120963000D01*
X147193000Y-119217000D01*
X147173000Y-119217000D01*
X147173000Y-118963000D01*
X147193000Y-118963000D01*
X147193000Y-118943000D01*
X147447000Y-118943000D01*
X147447000Y-118963000D01*
X147467000Y-118963000D01*
X147467000Y-119217000D01*
X147447000Y-119217000D01*
X147447000Y-120963000D01*
X149193000Y-120963000D01*
X149193000Y-120943000D01*
X149447000Y-120943000D01*
X149447000Y-120963000D01*
X150464224Y-120963000D01*
X150587910Y-120760600D01*
X150557238Y-120659472D01*
X150449473Y-120426371D01*
X150298303Y-120218773D01*
X150165940Y-120096681D01*
X150337544Y-119925077D01*
X150389848Y-119846797D01*
X150468986Y-119839003D01*
X150612247Y-119795546D01*
X150744276Y-119724974D01*
X150860001Y-119630001D01*
X150954974Y-119514276D01*
X151025546Y-119382247D01*
X151069003Y-119238986D01*
X151083677Y-119090000D01*
X151080000Y-119052667D01*
X151080000Y-118912801D01*
X161318263Y-108674539D01*
X161445363Y-108864759D01*
X161645241Y-109064637D01*
X161880273Y-109221680D01*
X162141426Y-109329853D01*
X162418665Y-109385000D01*
X162701335Y-109385000D01*
X162978574Y-109329853D01*
X163239727Y-109221680D01*
X163474759Y-109064637D01*
X163674637Y-108864759D01*
X163831680Y-108629727D01*
X163939853Y-108368574D01*
X163995000Y-108091335D01*
X163995000Y-107808665D01*
X163939853Y-107531426D01*
X163831680Y-107270273D01*
X163677370Y-107039331D01*
X164485000Y-106231242D01*
X164485001Y-108268183D01*
G37*
%TD.AperFunction*%
D21*
X166497000Y-119253000D02*
X166517000Y-119253000D01*
X166517000Y-119507000D01*
X166497000Y-119507000D01*
X166497000Y-119527000D01*
X166243000Y-119527000D01*
X166243000Y-119507000D01*
X166223000Y-119507000D01*
X166223000Y-119253000D01*
X166243000Y-119253000D01*
X166243000Y-119233000D01*
X166497000Y-119233000D01*
X166497000Y-119253000D01*
%TA.AperFunction,Conductor*%
D22*
G36*
X166497000Y-119253000D02*
G01*
X166517000Y-119253000D01*
X166517000Y-119507000D01*
X166497000Y-119507000D01*
X166497000Y-119527000D01*
X166243000Y-119527000D01*
X166243000Y-119507000D01*
X166223000Y-119507000D01*
X166223000Y-119253000D01*
X166243000Y-119253000D01*
X166243000Y-119233000D01*
X166497000Y-119233000D01*
X166497000Y-119253000D01*
G37*
%TD.AperFunction*%
D21*
X147447000Y-114963000D02*
X147467000Y-114963000D01*
X147467000Y-115217000D01*
X147447000Y-115217000D01*
X147447000Y-115237000D01*
X147193000Y-115237000D01*
X147193000Y-115217000D01*
X147173000Y-115217000D01*
X147173000Y-114963000D01*
X147193000Y-114963000D01*
X147193000Y-114943000D01*
X147447000Y-114943000D01*
X147447000Y-114963000D01*
%TA.AperFunction,Conductor*%
D22*
G36*
X147447000Y-114963000D02*
G01*
X147467000Y-114963000D01*
X147467000Y-115217000D01*
X147447000Y-115217000D01*
X147447000Y-115237000D01*
X147193000Y-115237000D01*
X147193000Y-115217000D01*
X147173000Y-115217000D01*
X147173000Y-114963000D01*
X147193000Y-114963000D01*
X147193000Y-114943000D01*
X147447000Y-114943000D01*
X147447000Y-114963000D01*
G37*
%TD.AperFunction*%
D21*
X189840372Y-98749088D02*
X189714195Y-98816531D01*
X189486003Y-99003803D01*
X189298731Y-99231994D01*
X189280800Y-99265540D01*
X189262869Y-99231994D01*
X189075597Y-99003803D01*
X188847406Y-98816531D01*
X188587064Y-98677375D01*
X188304577Y-98591684D01*
X188010800Y-98562749D01*
X187717024Y-98591684D01*
X187434537Y-98677375D01*
X187174195Y-98816531D01*
X186946003Y-99003803D01*
X186758731Y-99231994D01*
X186737693Y-99271353D01*
X186646283Y-99130426D01*
X186440668Y-98919127D01*
X186197781Y-98752002D01*
X185926957Y-98635473D01*
X185829826Y-98613642D01*
X185597800Y-98734783D01*
X185597800Y-100203000D01*
X185617800Y-100203000D01*
X185617800Y-100457000D01*
X185597800Y-100457000D01*
X185597800Y-101925217D01*
X185829826Y-102046358D01*
X185926957Y-102024527D01*
X186197781Y-101907998D01*
X186440668Y-101740873D01*
X186646283Y-101529574D01*
X186737694Y-101388647D01*
X186758731Y-101428005D01*
X186946003Y-101656197D01*
X187174194Y-101843469D01*
X187434536Y-101982625D01*
X187717023Y-102068316D01*
X188010800Y-102097251D01*
X188304576Y-102068316D01*
X188587063Y-101982625D01*
X188594192Y-101978814D01*
X188617121Y-102006753D01*
X188660000Y-102059001D01*
X188688998Y-102082799D01*
X193550000Y-106943802D01*
X193550000Y-113881865D01*
X193384576Y-113831684D01*
X193090800Y-113802749D01*
X192797023Y-113831684D01*
X192514536Y-113917375D01*
X192254194Y-114056531D01*
X192026003Y-114243803D01*
X191838731Y-114471995D01*
X191820800Y-114505541D01*
X191802869Y-114471994D01*
X191615597Y-114243803D01*
X191387405Y-114056531D01*
X191127063Y-113917375D01*
X190844576Y-113831684D01*
X190550800Y-113802749D01*
X190257023Y-113831684D01*
X189974536Y-113917375D01*
X189714194Y-114056531D01*
X189486003Y-114243803D01*
X189298731Y-114471995D01*
X189280800Y-114505541D01*
X189262869Y-114471994D01*
X189075597Y-114243803D01*
X188847405Y-114056531D01*
X188587063Y-113917375D01*
X188304576Y-113831684D01*
X188010800Y-113802749D01*
X187717023Y-113831684D01*
X187434536Y-113917375D01*
X187174194Y-114056531D01*
X186946003Y-114243803D01*
X186758731Y-114471995D01*
X186740800Y-114505541D01*
X186722869Y-114471994D01*
X186535597Y-114243803D01*
X186307405Y-114056531D01*
X186047063Y-113917375D01*
X185764576Y-113831684D01*
X185470800Y-113802749D01*
X185177023Y-113831684D01*
X184894536Y-113917375D01*
X184634194Y-114056531D01*
X184406003Y-114243803D01*
X184218731Y-114471995D01*
X184200800Y-114505541D01*
X184182869Y-114471994D01*
X183995597Y-114243803D01*
X183767405Y-114056531D01*
X183690800Y-114015585D01*
X183690800Y-112881364D01*
X183691000Y-112879333D01*
X183691000Y-111515822D01*
X183694676Y-111478500D01*
X183691000Y-111441177D01*
X183691000Y-110152322D01*
X183694676Y-110114999D01*
X183691000Y-110077676D01*
X183691000Y-110077667D01*
X183680003Y-109966014D01*
X183636546Y-109822753D01*
X183565974Y-109690724D01*
X183535022Y-109653009D01*
X183494799Y-109603996D01*
X183494795Y-109603992D01*
X183471001Y-109574999D01*
X183442009Y-109551206D01*
X175117023Y-101226222D01*
X175261680Y-101009727D01*
X175369853Y-100748574D01*
X175425000Y-100471335D01*
X175425000Y-100457000D01*
X181432200Y-100457000D01*
X181432200Y-100718400D01*
X181485772Y-101008322D01*
X181594875Y-101282222D01*
X181755317Y-101529574D01*
X181960932Y-101740873D01*
X182203819Y-101907998D01*
X182474643Y-102024527D01*
X182571774Y-102046358D01*
X182803800Y-101925217D01*
X182803800Y-100457000D01*
X183057800Y-100457000D01*
X183057800Y-101925217D01*
X183289826Y-102046358D01*
X183386957Y-102024527D01*
X183657781Y-101907998D01*
X183900668Y-101740873D01*
X184106283Y-101529574D01*
X184200800Y-101383858D01*
X184295317Y-101529574D01*
X184500932Y-101740873D01*
X184743819Y-101907998D01*
X185014643Y-102024527D01*
X185111774Y-102046358D01*
X185343800Y-101925217D01*
X185343800Y-100457000D01*
X183057800Y-100457000D01*
X182803800Y-100457000D01*
X181432200Y-100457000D01*
X175425000Y-100457000D01*
X175425000Y-100188665D01*
X175375856Y-99941600D01*
X181432200Y-99941600D01*
X181432200Y-100203000D01*
X182803800Y-100203000D01*
X182803800Y-98734783D01*
X183057800Y-98734783D01*
X183057800Y-100203000D01*
X185343800Y-100203000D01*
X185343800Y-98734783D01*
X185111774Y-98613642D01*
X185014643Y-98635473D01*
X184743819Y-98752002D01*
X184500932Y-98919127D01*
X184295317Y-99130426D01*
X184200800Y-99276142D01*
X184106283Y-99130426D01*
X183900668Y-98919127D01*
X183657781Y-98752002D01*
X183386957Y-98635473D01*
X183289826Y-98613642D01*
X183057800Y-98734783D01*
X182803800Y-98734783D01*
X182571774Y-98613642D01*
X182474643Y-98635473D01*
X182203819Y-98752002D01*
X181960932Y-98919127D01*
X181755317Y-99130426D01*
X181594875Y-99377778D01*
X181485772Y-99651678D01*
X181432200Y-99941600D01*
X175375856Y-99941600D01*
X175369853Y-99911426D01*
X175261680Y-99650273D01*
X175104637Y-99415241D01*
X174904759Y-99215363D01*
X174672241Y-99060000D01*
X174904759Y-98904637D01*
X175104637Y-98704759D01*
X175208043Y-98550000D01*
X189641244Y-98550000D01*
X189840372Y-98749088D01*
%TA.AperFunction,Conductor*%
D22*
G36*
X189840372Y-98749088D02*
G01*
X189714195Y-98816531D01*
X189486003Y-99003803D01*
X189298731Y-99231994D01*
X189280800Y-99265540D01*
X189262869Y-99231994D01*
X189075597Y-99003803D01*
X188847406Y-98816531D01*
X188587064Y-98677375D01*
X188304577Y-98591684D01*
X188010800Y-98562749D01*
X187717024Y-98591684D01*
X187434537Y-98677375D01*
X187174195Y-98816531D01*
X186946003Y-99003803D01*
X186758731Y-99231994D01*
X186737693Y-99271353D01*
X186646283Y-99130426D01*
X186440668Y-98919127D01*
X186197781Y-98752002D01*
X185926957Y-98635473D01*
X185829826Y-98613642D01*
X185597800Y-98734783D01*
X185597800Y-100203000D01*
X185617800Y-100203000D01*
X185617800Y-100457000D01*
X185597800Y-100457000D01*
X185597800Y-101925217D01*
X185829826Y-102046358D01*
X185926957Y-102024527D01*
X186197781Y-101907998D01*
X186440668Y-101740873D01*
X186646283Y-101529574D01*
X186737694Y-101388647D01*
X186758731Y-101428005D01*
X186946003Y-101656197D01*
X187174194Y-101843469D01*
X187434536Y-101982625D01*
X187717023Y-102068316D01*
X188010800Y-102097251D01*
X188304576Y-102068316D01*
X188587063Y-101982625D01*
X188594192Y-101978814D01*
X188617121Y-102006753D01*
X188660000Y-102059001D01*
X188688998Y-102082799D01*
X193550000Y-106943802D01*
X193550000Y-113881865D01*
X193384576Y-113831684D01*
X193090800Y-113802749D01*
X192797023Y-113831684D01*
X192514536Y-113917375D01*
X192254194Y-114056531D01*
X192026003Y-114243803D01*
X191838731Y-114471995D01*
X191820800Y-114505541D01*
X191802869Y-114471994D01*
X191615597Y-114243803D01*
X191387405Y-114056531D01*
X191127063Y-113917375D01*
X190844576Y-113831684D01*
X190550800Y-113802749D01*
X190257023Y-113831684D01*
X189974536Y-113917375D01*
X189714194Y-114056531D01*
X189486003Y-114243803D01*
X189298731Y-114471995D01*
X189280800Y-114505541D01*
X189262869Y-114471994D01*
X189075597Y-114243803D01*
X188847405Y-114056531D01*
X188587063Y-113917375D01*
X188304576Y-113831684D01*
X188010800Y-113802749D01*
X187717023Y-113831684D01*
X187434536Y-113917375D01*
X187174194Y-114056531D01*
X186946003Y-114243803D01*
X186758731Y-114471995D01*
X186740800Y-114505541D01*
X186722869Y-114471994D01*
X186535597Y-114243803D01*
X186307405Y-114056531D01*
X186047063Y-113917375D01*
X185764576Y-113831684D01*
X185470800Y-113802749D01*
X185177023Y-113831684D01*
X184894536Y-113917375D01*
X184634194Y-114056531D01*
X184406003Y-114243803D01*
X184218731Y-114471995D01*
X184200800Y-114505541D01*
X184182869Y-114471994D01*
X183995597Y-114243803D01*
X183767405Y-114056531D01*
X183690800Y-114015585D01*
X183690800Y-112881364D01*
X183691000Y-112879333D01*
X183691000Y-111515822D01*
X183694676Y-111478500D01*
X183691000Y-111441177D01*
X183691000Y-110152322D01*
X183694676Y-110114999D01*
X183691000Y-110077676D01*
X183691000Y-110077667D01*
X183680003Y-109966014D01*
X183636546Y-109822753D01*
X183565974Y-109690724D01*
X183535022Y-109653009D01*
X183494799Y-109603996D01*
X183494795Y-109603992D01*
X183471001Y-109574999D01*
X183442009Y-109551206D01*
X175117023Y-101226222D01*
X175261680Y-101009727D01*
X175369853Y-100748574D01*
X175425000Y-100471335D01*
X175425000Y-100457000D01*
X181432200Y-100457000D01*
X181432200Y-100718400D01*
X181485772Y-101008322D01*
X181594875Y-101282222D01*
X181755317Y-101529574D01*
X181960932Y-101740873D01*
X182203819Y-101907998D01*
X182474643Y-102024527D01*
X182571774Y-102046358D01*
X182803800Y-101925217D01*
X182803800Y-100457000D01*
X183057800Y-100457000D01*
X183057800Y-101925217D01*
X183289826Y-102046358D01*
X183386957Y-102024527D01*
X183657781Y-101907998D01*
X183900668Y-101740873D01*
X184106283Y-101529574D01*
X184200800Y-101383858D01*
X184295317Y-101529574D01*
X184500932Y-101740873D01*
X184743819Y-101907998D01*
X185014643Y-102024527D01*
X185111774Y-102046358D01*
X185343800Y-101925217D01*
X185343800Y-100457000D01*
X183057800Y-100457000D01*
X182803800Y-100457000D01*
X181432200Y-100457000D01*
X175425000Y-100457000D01*
X175425000Y-100188665D01*
X175375856Y-99941600D01*
X181432200Y-99941600D01*
X181432200Y-100203000D01*
X182803800Y-100203000D01*
X182803800Y-98734783D01*
X183057800Y-98734783D01*
X183057800Y-100203000D01*
X185343800Y-100203000D01*
X185343800Y-98734783D01*
X185111774Y-98613642D01*
X185014643Y-98635473D01*
X184743819Y-98752002D01*
X184500932Y-98919127D01*
X184295317Y-99130426D01*
X184200800Y-99276142D01*
X184106283Y-99130426D01*
X183900668Y-98919127D01*
X183657781Y-98752002D01*
X183386957Y-98635473D01*
X183289826Y-98613642D01*
X183057800Y-98734783D01*
X182803800Y-98734783D01*
X182571774Y-98613642D01*
X182474643Y-98635473D01*
X182203819Y-98752002D01*
X181960932Y-98919127D01*
X181755317Y-99130426D01*
X181594875Y-99377778D01*
X181485772Y-99651678D01*
X181432200Y-99941600D01*
X175375856Y-99941600D01*
X175369853Y-99911426D01*
X175261680Y-99650273D01*
X175104637Y-99415241D01*
X174904759Y-99215363D01*
X174672241Y-99060000D01*
X174904759Y-98904637D01*
X175104637Y-98704759D01*
X175208043Y-98550000D01*
X189641244Y-98550000D01*
X189840372Y-98749088D01*
G37*
%TD.AperFunction*%
D21*
X147447000Y-110963000D02*
X147467000Y-110963000D01*
X147467000Y-111217000D01*
X147447000Y-111217000D01*
X147447000Y-111237000D01*
X147193000Y-111237000D01*
X147193000Y-111217000D01*
X147173000Y-111217000D01*
X147173000Y-110963000D01*
X147193000Y-110963000D01*
X147193000Y-110943000D01*
X147447000Y-110943000D01*
X147447000Y-110963000D01*
%TA.AperFunction,Conductor*%
D22*
G36*
X147447000Y-110963000D02*
G01*
X147467000Y-110963000D01*
X147467000Y-111217000D01*
X147447000Y-111217000D01*
X147447000Y-111237000D01*
X147193000Y-111237000D01*
X147193000Y-111217000D01*
X147173000Y-111217000D01*
X147173000Y-110963000D01*
X147193000Y-110963000D01*
X147193000Y-110943000D01*
X147447000Y-110943000D01*
X147447000Y-110963000D01*
G37*
%TD.AperFunction*%
%TD*%
M02*
