%TF.GenerationSoftware,KiCad,Pcbnew,(5.1.10)-1*%
%TF.CreationDate,2021-06-14T15:07:00+02:00*%
%TF.ProjectId,bluepill_scsi,626c7565-7069-46c6-9c5f-736373692e6b,rev?*%
%TF.SameCoordinates,Original*%
%TF.FileFunction,Legend,Top*%
%TF.FilePolarity,Positive*%
%FSLAX46Y46*%
G04 Gerber Fmt 4.6, Leading zero omitted, Abs format (unit mm)*
G04 Created by KiCad (PCBNEW (5.1.10)-1) date 2021-06-14 15:07:00*
%MOMM*%
%LPD*%
G01*
G04 APERTURE LIST*
%ADD10C,0.150000*%
%ADD11C,0.010000*%
%ADD12C,0.304800*%
%ADD13C,0.120000*%
%ADD14C,0.222250*%
G04 APERTURE END LIST*
D10*
X229711428Y-122975714D02*
X229949523Y-123642380D01*
X230187619Y-122975714D01*
X231092380Y-123642380D02*
X230520952Y-123642380D01*
X230806666Y-123642380D02*
X230806666Y-122642380D01*
X230711428Y-122785238D01*
X230616190Y-122880476D01*
X230520952Y-122928095D01*
X231520952Y-123547142D02*
X231568571Y-123594761D01*
X231520952Y-123642380D01*
X231473333Y-123594761D01*
X231520952Y-123547142D01*
X231520952Y-123642380D01*
X232187619Y-122642380D02*
X232282857Y-122642380D01*
X232378095Y-122690000D01*
X232425714Y-122737619D01*
X232473333Y-122832857D01*
X232520952Y-123023333D01*
X232520952Y-123261428D01*
X232473333Y-123451904D01*
X232425714Y-123547142D01*
X232378095Y-123594761D01*
X232282857Y-123642380D01*
X232187619Y-123642380D01*
X232092380Y-123594761D01*
X232044761Y-123547142D01*
X231997142Y-123451904D01*
X231949523Y-123261428D01*
X231949523Y-123023333D01*
X231997142Y-122832857D01*
X232044761Y-122737619D01*
X232092380Y-122690000D01*
X232187619Y-122642380D01*
X161226666Y-116292380D02*
X161560000Y-117292380D01*
X161893333Y-116292380D01*
X162798095Y-117197142D02*
X162750476Y-117244761D01*
X162607619Y-117292380D01*
X162512380Y-117292380D01*
X162369523Y-117244761D01*
X162274285Y-117149523D01*
X162226666Y-117054285D01*
X162179047Y-116863809D01*
X162179047Y-116720952D01*
X162226666Y-116530476D01*
X162274285Y-116435238D01*
X162369523Y-116340000D01*
X162512380Y-116292380D01*
X162607619Y-116292380D01*
X162750476Y-116340000D01*
X162798095Y-116387619D01*
X163798095Y-117197142D02*
X163750476Y-117244761D01*
X163607619Y-117292380D01*
X163512380Y-117292380D01*
X163369523Y-117244761D01*
X163274285Y-117149523D01*
X163226666Y-117054285D01*
X163179047Y-116863809D01*
X163179047Y-116720952D01*
X163226666Y-116530476D01*
X163274285Y-116435238D01*
X163369523Y-116340000D01*
X163512380Y-116292380D01*
X163607619Y-116292380D01*
X163750476Y-116340000D01*
X163798095Y-116387619D01*
X165608095Y-116340000D02*
X165512857Y-116292380D01*
X165370000Y-116292380D01*
X165227142Y-116340000D01*
X165131904Y-116435238D01*
X165084285Y-116530476D01*
X165036666Y-116720952D01*
X165036666Y-116863809D01*
X165084285Y-117054285D01*
X165131904Y-117149523D01*
X165227142Y-117244761D01*
X165370000Y-117292380D01*
X165465238Y-117292380D01*
X165608095Y-117244761D01*
X165655714Y-117197142D01*
X165655714Y-116863809D01*
X165465238Y-116863809D01*
X166084285Y-117292380D02*
X166084285Y-116292380D01*
X166655714Y-117292380D01*
X166655714Y-116292380D01*
X167131904Y-117292380D02*
X167131904Y-116292380D01*
X167370000Y-116292380D01*
X167512857Y-116340000D01*
X167608095Y-116435238D01*
X167655714Y-116530476D01*
X167703333Y-116720952D01*
X167703333Y-116863809D01*
X167655714Y-117054285D01*
X167608095Y-117149523D01*
X167512857Y-117244761D01*
X167370000Y-117292380D01*
X167131904Y-117292380D01*
X156234761Y-113752380D02*
X156806190Y-113752380D01*
X156520476Y-114752380D02*
X156520476Y-113752380D01*
X157520476Y-114704761D02*
X157425238Y-114752380D01*
X157234761Y-114752380D01*
X157139523Y-114704761D01*
X157091904Y-114609523D01*
X157091904Y-114228571D01*
X157139523Y-114133333D01*
X157234761Y-114085714D01*
X157425238Y-114085714D01*
X157520476Y-114133333D01*
X157568095Y-114228571D01*
X157568095Y-114323809D01*
X157091904Y-114419047D01*
X157996666Y-114752380D02*
X157996666Y-114085714D01*
X157996666Y-114276190D02*
X158044285Y-114180952D01*
X158091904Y-114133333D01*
X158187142Y-114085714D01*
X158282380Y-114085714D01*
X158615714Y-114752380D02*
X158615714Y-114085714D01*
X158615714Y-114180952D02*
X158663333Y-114133333D01*
X158758571Y-114085714D01*
X158901428Y-114085714D01*
X158996666Y-114133333D01*
X159044285Y-114228571D01*
X159044285Y-114752380D01*
X159044285Y-114228571D02*
X159091904Y-114133333D01*
X159187142Y-114085714D01*
X159330000Y-114085714D01*
X159425238Y-114133333D01*
X159472857Y-114228571D01*
X159472857Y-114752380D01*
X159949047Y-114752380D02*
X159949047Y-114085714D01*
X159949047Y-113752380D02*
X159901428Y-113800000D01*
X159949047Y-113847619D01*
X159996666Y-113800000D01*
X159949047Y-113752380D01*
X159949047Y-113847619D01*
X160425238Y-114085714D02*
X160425238Y-114752380D01*
X160425238Y-114180952D02*
X160472857Y-114133333D01*
X160568095Y-114085714D01*
X160710952Y-114085714D01*
X160806190Y-114133333D01*
X160853809Y-114228571D01*
X160853809Y-114752380D01*
X161758571Y-114752380D02*
X161758571Y-114228571D01*
X161710952Y-114133333D01*
X161615714Y-114085714D01*
X161425238Y-114085714D01*
X161330000Y-114133333D01*
X161758571Y-114704761D02*
X161663333Y-114752380D01*
X161425238Y-114752380D01*
X161330000Y-114704761D01*
X161282380Y-114609523D01*
X161282380Y-114514285D01*
X161330000Y-114419047D01*
X161425238Y-114371428D01*
X161663333Y-114371428D01*
X161758571Y-114323809D01*
X162091904Y-114085714D02*
X162472857Y-114085714D01*
X162234761Y-113752380D02*
X162234761Y-114609523D01*
X162282380Y-114704761D01*
X162377619Y-114752380D01*
X162472857Y-114752380D01*
X162806190Y-114752380D02*
X162806190Y-114085714D01*
X162806190Y-113752380D02*
X162758571Y-113800000D01*
X162806190Y-113847619D01*
X162853809Y-113800000D01*
X162806190Y-113752380D01*
X162806190Y-113847619D01*
X163425238Y-114752380D02*
X163330000Y-114704761D01*
X163282380Y-114657142D01*
X163234761Y-114561904D01*
X163234761Y-114276190D01*
X163282380Y-114180952D01*
X163330000Y-114133333D01*
X163425238Y-114085714D01*
X163568095Y-114085714D01*
X163663333Y-114133333D01*
X163710952Y-114180952D01*
X163758571Y-114276190D01*
X163758571Y-114561904D01*
X163710952Y-114657142D01*
X163663333Y-114704761D01*
X163568095Y-114752380D01*
X163425238Y-114752380D01*
X164187142Y-114085714D02*
X164187142Y-114752380D01*
X164187142Y-114180952D02*
X164234761Y-114133333D01*
X164330000Y-114085714D01*
X164472857Y-114085714D01*
X164568095Y-114133333D01*
X164615714Y-114228571D01*
X164615714Y-114752380D01*
X165853809Y-114085714D02*
X165853809Y-114942857D01*
X165806190Y-115038095D01*
X165710952Y-115085714D01*
X165663333Y-115085714D01*
X165853809Y-113752380D02*
X165806190Y-113800000D01*
X165853809Y-113847619D01*
X165901428Y-113800000D01*
X165853809Y-113752380D01*
X165853809Y-113847619D01*
X166758571Y-114085714D02*
X166758571Y-114752380D01*
X166330000Y-114085714D02*
X166330000Y-114609523D01*
X166377619Y-114704761D01*
X166472857Y-114752380D01*
X166615714Y-114752380D01*
X166710952Y-114704761D01*
X166758571Y-114657142D01*
X167234761Y-114752380D02*
X167234761Y-114085714D01*
X167234761Y-114180952D02*
X167282380Y-114133333D01*
X167377619Y-114085714D01*
X167520476Y-114085714D01*
X167615714Y-114133333D01*
X167663333Y-114228571D01*
X167663333Y-114752380D01*
X167663333Y-114228571D02*
X167710952Y-114133333D01*
X167806190Y-114085714D01*
X167949047Y-114085714D01*
X168044285Y-114133333D01*
X168091904Y-114228571D01*
X168091904Y-114752380D01*
X168568095Y-114085714D02*
X168568095Y-115085714D01*
X168568095Y-114133333D02*
X168663333Y-114085714D01*
X168853809Y-114085714D01*
X168949047Y-114133333D01*
X168996666Y-114180952D01*
X169044285Y-114276190D01*
X169044285Y-114561904D01*
X168996666Y-114657142D01*
X168949047Y-114704761D01*
X168853809Y-114752380D01*
X168663333Y-114752380D01*
X168568095Y-114704761D01*
X169853809Y-114704761D02*
X169758571Y-114752380D01*
X169568095Y-114752380D01*
X169472857Y-114704761D01*
X169425238Y-114609523D01*
X169425238Y-114228571D01*
X169472857Y-114133333D01*
X169568095Y-114085714D01*
X169758571Y-114085714D01*
X169853809Y-114133333D01*
X169901428Y-114228571D01*
X169901428Y-114323809D01*
X169425238Y-114419047D01*
X170330000Y-114752380D02*
X170330000Y-114085714D01*
X170330000Y-114276190D02*
X170377619Y-114180952D01*
X170425238Y-114133333D01*
X170520476Y-114085714D01*
X170615714Y-114085714D01*
X170901428Y-114704761D02*
X170996666Y-114752380D01*
X171187142Y-114752380D01*
X171282380Y-114704761D01*
X171330000Y-114609523D01*
X171330000Y-114561904D01*
X171282380Y-114466666D01*
X171187142Y-114419047D01*
X171044285Y-114419047D01*
X170949047Y-114371428D01*
X170901428Y-114276190D01*
X170901428Y-114228571D01*
X170949047Y-114133333D01*
X171044285Y-114085714D01*
X171187142Y-114085714D01*
X171282380Y-114133333D01*
X194818095Y-121372380D02*
X195389523Y-121372380D01*
X195103809Y-122372380D02*
X195103809Y-121372380D01*
X195627619Y-121372380D02*
X196294285Y-122372380D01*
X196294285Y-121372380D02*
X195627619Y-122372380D01*
X197953333Y-122372380D02*
X197620000Y-121896190D01*
X197381904Y-122372380D02*
X197381904Y-121372380D01*
X197762857Y-121372380D01*
X197858095Y-121420000D01*
X197905714Y-121467619D01*
X197953333Y-121562857D01*
X197953333Y-121705714D01*
X197905714Y-121800952D01*
X197858095Y-121848571D01*
X197762857Y-121896190D01*
X197381904Y-121896190D01*
X198286666Y-121372380D02*
X198953333Y-122372380D01*
X198953333Y-121372380D02*
X198286666Y-122372380D01*
X192278095Y-121420000D02*
X192182857Y-121372380D01*
X192040000Y-121372380D01*
X191897142Y-121420000D01*
X191801904Y-121515238D01*
X191754285Y-121610476D01*
X191706666Y-121800952D01*
X191706666Y-121943809D01*
X191754285Y-122134285D01*
X191801904Y-122229523D01*
X191897142Y-122324761D01*
X192040000Y-122372380D01*
X192135238Y-122372380D01*
X192278095Y-122324761D01*
X192325714Y-122277142D01*
X192325714Y-121943809D01*
X192135238Y-121943809D01*
X192754285Y-122372380D02*
X192754285Y-121372380D01*
X193325714Y-122372380D01*
X193325714Y-121372380D01*
X193801904Y-122372380D02*
X193801904Y-121372380D01*
X194040000Y-121372380D01*
X194182857Y-121420000D01*
X194278095Y-121515238D01*
X194325714Y-121610476D01*
X194373333Y-121800952D01*
X194373333Y-121943809D01*
X194325714Y-122134285D01*
X194278095Y-122229523D01*
X194182857Y-122324761D01*
X194040000Y-122372380D01*
X193801904Y-122372380D01*
X189309523Y-121372380D02*
X189928571Y-121372380D01*
X189595238Y-121753333D01*
X189738095Y-121753333D01*
X189833333Y-121800952D01*
X189880952Y-121848571D01*
X189928571Y-121943809D01*
X189928571Y-122181904D01*
X189880952Y-122277142D01*
X189833333Y-122324761D01*
X189738095Y-122372380D01*
X189452380Y-122372380D01*
X189357142Y-122324761D01*
X189309523Y-122277142D01*
X190261904Y-121705714D02*
X190500000Y-122372380D01*
X190738095Y-121705714D01*
X191023809Y-121372380D02*
X191642857Y-121372380D01*
X191309523Y-121753333D01*
X191452380Y-121753333D01*
X191547619Y-121800952D01*
X191595238Y-121848571D01*
X191642857Y-121943809D01*
X191642857Y-122181904D01*
X191595238Y-122277142D01*
X191547619Y-122324761D01*
X191452380Y-122372380D01*
X191166666Y-122372380D01*
X191071428Y-122324761D01*
X191023809Y-122277142D01*
X178165714Y-124912380D02*
X178165714Y-123912380D01*
X178546666Y-123912380D01*
X178641904Y-123960000D01*
X178689523Y-124007619D01*
X178737142Y-124102857D01*
X178737142Y-124245714D01*
X178689523Y-124340952D01*
X178641904Y-124388571D01*
X178546666Y-124436190D01*
X178165714Y-124436190D01*
X179165714Y-124912380D02*
X179165714Y-124245714D01*
X179165714Y-124436190D02*
X179213333Y-124340952D01*
X179260952Y-124293333D01*
X179356190Y-124245714D01*
X179451428Y-124245714D01*
X179927619Y-124912380D02*
X179832380Y-124864761D01*
X179784761Y-124817142D01*
X179737142Y-124721904D01*
X179737142Y-124436190D01*
X179784761Y-124340952D01*
X179832380Y-124293333D01*
X179927619Y-124245714D01*
X180070476Y-124245714D01*
X180165714Y-124293333D01*
X180213333Y-124340952D01*
X180260952Y-124436190D01*
X180260952Y-124721904D01*
X180213333Y-124817142D01*
X180165714Y-124864761D01*
X180070476Y-124912380D01*
X179927619Y-124912380D01*
X181118095Y-124245714D02*
X181118095Y-125055238D01*
X181070476Y-125150476D01*
X181022857Y-125198095D01*
X180927619Y-125245714D01*
X180784761Y-125245714D01*
X180689523Y-125198095D01*
X181118095Y-124864761D02*
X181022857Y-124912380D01*
X180832380Y-124912380D01*
X180737142Y-124864761D01*
X180689523Y-124817142D01*
X180641904Y-124721904D01*
X180641904Y-124436190D01*
X180689523Y-124340952D01*
X180737142Y-124293333D01*
X180832380Y-124245714D01*
X181022857Y-124245714D01*
X181118095Y-124293333D01*
X181594285Y-124912380D02*
X181594285Y-124245714D01*
X181594285Y-124436190D02*
X181641904Y-124340952D01*
X181689523Y-124293333D01*
X181784761Y-124245714D01*
X181880000Y-124245714D01*
X182641904Y-124912380D02*
X182641904Y-124388571D01*
X182594285Y-124293333D01*
X182499047Y-124245714D01*
X182308571Y-124245714D01*
X182213333Y-124293333D01*
X182641904Y-124864761D02*
X182546666Y-124912380D01*
X182308571Y-124912380D01*
X182213333Y-124864761D01*
X182165714Y-124769523D01*
X182165714Y-124674285D01*
X182213333Y-124579047D01*
X182308571Y-124531428D01*
X182546666Y-124531428D01*
X182641904Y-124483809D01*
X183118095Y-124912380D02*
X183118095Y-124245714D01*
X183118095Y-124340952D02*
X183165714Y-124293333D01*
X183260952Y-124245714D01*
X183403809Y-124245714D01*
X183499047Y-124293333D01*
X183546666Y-124388571D01*
X183546666Y-124912380D01*
X183546666Y-124388571D02*
X183594285Y-124293333D01*
X183689523Y-124245714D01*
X183832380Y-124245714D01*
X183927619Y-124293333D01*
X183975238Y-124388571D01*
X183975238Y-124912380D01*
X184451428Y-124912380D02*
X184451428Y-124245714D01*
X184451428Y-124340952D02*
X184499047Y-124293333D01*
X184594285Y-124245714D01*
X184737142Y-124245714D01*
X184832380Y-124293333D01*
X184880000Y-124388571D01*
X184880000Y-124912380D01*
X184880000Y-124388571D02*
X184927619Y-124293333D01*
X185022857Y-124245714D01*
X185165714Y-124245714D01*
X185260952Y-124293333D01*
X185308571Y-124388571D01*
X185308571Y-124912380D01*
X185784761Y-124912380D02*
X185784761Y-124245714D01*
X185784761Y-123912380D02*
X185737142Y-123960000D01*
X185784761Y-124007619D01*
X185832380Y-123960000D01*
X185784761Y-123912380D01*
X185784761Y-124007619D01*
X186260952Y-124245714D02*
X186260952Y-124912380D01*
X186260952Y-124340952D02*
X186308571Y-124293333D01*
X186403809Y-124245714D01*
X186546666Y-124245714D01*
X186641904Y-124293333D01*
X186689523Y-124388571D01*
X186689523Y-124912380D01*
X187594285Y-124245714D02*
X187594285Y-125055238D01*
X187546666Y-125150476D01*
X187499047Y-125198095D01*
X187403809Y-125245714D01*
X187260952Y-125245714D01*
X187165714Y-125198095D01*
X187594285Y-124864761D02*
X187499047Y-124912380D01*
X187308571Y-124912380D01*
X187213333Y-124864761D01*
X187165714Y-124817142D01*
X187118095Y-124721904D01*
X187118095Y-124436190D01*
X187165714Y-124340952D01*
X187213333Y-124293333D01*
X187308571Y-124245714D01*
X187499047Y-124245714D01*
X187594285Y-124293333D01*
X172704285Y-82002380D02*
X173323333Y-82002380D01*
X172990000Y-82383333D01*
X173132857Y-82383333D01*
X173228095Y-82430952D01*
X173275714Y-82478571D01*
X173323333Y-82573809D01*
X173323333Y-82811904D01*
X173275714Y-82907142D01*
X173228095Y-82954761D01*
X173132857Y-83002380D01*
X172847142Y-83002380D01*
X172751904Y-82954761D01*
X172704285Y-82907142D01*
X173656666Y-82002380D02*
X174275714Y-82002380D01*
X173942380Y-82383333D01*
X174085238Y-82383333D01*
X174180476Y-82430952D01*
X174228095Y-82478571D01*
X174275714Y-82573809D01*
X174275714Y-82811904D01*
X174228095Y-82907142D01*
X174180476Y-82954761D01*
X174085238Y-83002380D01*
X173799523Y-83002380D01*
X173704285Y-82954761D01*
X173656666Y-82907142D01*
X174894761Y-82002380D02*
X174990000Y-82002380D01*
X175085238Y-82050000D01*
X175132857Y-82097619D01*
X175180476Y-82192857D01*
X175228095Y-82383333D01*
X175228095Y-82621428D01*
X175180476Y-82811904D01*
X175132857Y-82907142D01*
X175085238Y-82954761D01*
X174990000Y-83002380D01*
X174894761Y-83002380D01*
X174799523Y-82954761D01*
X174751904Y-82907142D01*
X174704285Y-82811904D01*
X174656666Y-82621428D01*
X174656666Y-82383333D01*
X174704285Y-82192857D01*
X174751904Y-82097619D01*
X174799523Y-82050000D01*
X174894761Y-82002380D01*
X168941904Y-82097619D02*
X168989523Y-82050000D01*
X169084761Y-82002380D01*
X169322857Y-82002380D01*
X169418095Y-82050000D01*
X169465714Y-82097619D01*
X169513333Y-82192857D01*
X169513333Y-82288095D01*
X169465714Y-82430952D01*
X168894285Y-83002380D01*
X169513333Y-83002380D01*
X169894285Y-82097619D02*
X169941904Y-82050000D01*
X170037142Y-82002380D01*
X170275238Y-82002380D01*
X170370476Y-82050000D01*
X170418095Y-82097619D01*
X170465714Y-82192857D01*
X170465714Y-82288095D01*
X170418095Y-82430952D01*
X169846666Y-83002380D01*
X170465714Y-83002380D01*
X171084761Y-82002380D02*
X171180000Y-82002380D01*
X171275238Y-82050000D01*
X171322857Y-82097619D01*
X171370476Y-82192857D01*
X171418095Y-82383333D01*
X171418095Y-82621428D01*
X171370476Y-82811904D01*
X171322857Y-82907142D01*
X171275238Y-82954761D01*
X171180000Y-83002380D01*
X171084761Y-83002380D01*
X170989523Y-82954761D01*
X170941904Y-82907142D01*
X170894285Y-82811904D01*
X170846666Y-82621428D01*
X170846666Y-82383333D01*
X170894285Y-82192857D01*
X170941904Y-82097619D01*
X170989523Y-82050000D01*
X171084761Y-82002380D01*
X165084285Y-82002380D02*
X165703333Y-82002380D01*
X165370000Y-82383333D01*
X165512857Y-82383333D01*
X165608095Y-82430952D01*
X165655714Y-82478571D01*
X165703333Y-82573809D01*
X165703333Y-82811904D01*
X165655714Y-82907142D01*
X165608095Y-82954761D01*
X165512857Y-83002380D01*
X165227142Y-83002380D01*
X165131904Y-82954761D01*
X165084285Y-82907142D01*
X166036666Y-82002380D02*
X166655714Y-82002380D01*
X166322380Y-82383333D01*
X166465238Y-82383333D01*
X166560476Y-82430952D01*
X166608095Y-82478571D01*
X166655714Y-82573809D01*
X166655714Y-82811904D01*
X166608095Y-82907142D01*
X166560476Y-82954761D01*
X166465238Y-83002380D01*
X166179523Y-83002380D01*
X166084285Y-82954761D01*
X166036666Y-82907142D01*
X167274761Y-82002380D02*
X167370000Y-82002380D01*
X167465238Y-82050000D01*
X167512857Y-82097619D01*
X167560476Y-82192857D01*
X167608095Y-82383333D01*
X167608095Y-82621428D01*
X167560476Y-82811904D01*
X167512857Y-82907142D01*
X167465238Y-82954761D01*
X167370000Y-83002380D01*
X167274761Y-83002380D01*
X167179523Y-82954761D01*
X167131904Y-82907142D01*
X167084285Y-82811904D01*
X167036666Y-82621428D01*
X167036666Y-82383333D01*
X167084285Y-82192857D01*
X167131904Y-82097619D01*
X167179523Y-82050000D01*
X167274761Y-82002380D01*
X161321904Y-82097619D02*
X161369523Y-82050000D01*
X161464761Y-82002380D01*
X161702857Y-82002380D01*
X161798095Y-82050000D01*
X161845714Y-82097619D01*
X161893333Y-82192857D01*
X161893333Y-82288095D01*
X161845714Y-82430952D01*
X161274285Y-83002380D01*
X161893333Y-83002380D01*
X162274285Y-82097619D02*
X162321904Y-82050000D01*
X162417142Y-82002380D01*
X162655238Y-82002380D01*
X162750476Y-82050000D01*
X162798095Y-82097619D01*
X162845714Y-82192857D01*
X162845714Y-82288095D01*
X162798095Y-82430952D01*
X162226666Y-83002380D01*
X162845714Y-83002380D01*
X163464761Y-82002380D02*
X163560000Y-82002380D01*
X163655238Y-82050000D01*
X163702857Y-82097619D01*
X163750476Y-82192857D01*
X163798095Y-82383333D01*
X163798095Y-82621428D01*
X163750476Y-82811904D01*
X163702857Y-82907142D01*
X163655238Y-82954761D01*
X163560000Y-83002380D01*
X163464761Y-83002380D01*
X163369523Y-82954761D01*
X163321904Y-82907142D01*
X163274285Y-82811904D01*
X163226666Y-82621428D01*
X163226666Y-82383333D01*
X163274285Y-82192857D01*
X163321904Y-82097619D01*
X163369523Y-82050000D01*
X163464761Y-82002380D01*
D11*
%TO.C,G\u002A\u002A\u002A*%
G36*
X182925694Y-90854867D02*
G01*
X183564054Y-90868500D01*
X183708860Y-91026628D01*
X183782768Y-91112488D01*
X183826006Y-91187345D01*
X183846764Y-91278417D01*
X183853232Y-91412922D01*
X183853667Y-91507859D01*
X183851861Y-91673299D01*
X183840381Y-91781037D01*
X183810138Y-91858035D01*
X183752041Y-91931253D01*
X183689314Y-91995314D01*
X183605262Y-92076389D01*
X183536119Y-92125140D01*
X183456475Y-92149790D01*
X183340920Y-92158559D01*
X183181314Y-92159667D01*
X182837667Y-92159667D01*
X182837667Y-93218000D01*
X182287334Y-93218000D01*
X182287334Y-91101333D01*
X182837667Y-91101333D01*
X182837667Y-91905667D01*
X183345667Y-91905667D01*
X183345667Y-91101333D01*
X182837667Y-91101333D01*
X182287334Y-91101333D01*
X182287334Y-90841233D01*
X182925694Y-90854867D01*
G37*
X182925694Y-90854867D02*
X183564054Y-90868500D01*
X183708860Y-91026628D01*
X183782768Y-91112488D01*
X183826006Y-91187345D01*
X183846764Y-91278417D01*
X183853232Y-91412922D01*
X183853667Y-91507859D01*
X183851861Y-91673299D01*
X183840381Y-91781037D01*
X183810138Y-91858035D01*
X183752041Y-91931253D01*
X183689314Y-91995314D01*
X183605262Y-92076389D01*
X183536119Y-92125140D01*
X183456475Y-92149790D01*
X183340920Y-92158559D01*
X183181314Y-92159667D01*
X182837667Y-92159667D01*
X182837667Y-93218000D01*
X182287334Y-93218000D01*
X182287334Y-91101333D01*
X182837667Y-91101333D01*
X182837667Y-91905667D01*
X183345667Y-91905667D01*
X183345667Y-91101333D01*
X182837667Y-91101333D01*
X182287334Y-91101333D01*
X182287334Y-90841233D01*
X182925694Y-90854867D01*
G36*
X185763647Y-91562019D02*
G01*
X185928000Y-91726372D01*
X185928000Y-92283788D01*
X185922250Y-92588905D01*
X185899248Y-92819913D01*
X185850369Y-92986928D01*
X185766987Y-93100068D01*
X185640476Y-93169450D01*
X185462210Y-93205191D01*
X185223564Y-93217407D01*
X185131478Y-93218000D01*
X184930334Y-93215639D01*
X184793557Y-93206316D01*
X184700927Y-93186671D01*
X184632219Y-93153344D01*
X184599363Y-93129595D01*
X184501588Y-93039072D01*
X184434059Y-92936325D01*
X184391663Y-92804152D01*
X184369288Y-92625348D01*
X184361822Y-92382711D01*
X184361667Y-92329742D01*
X184370718Y-92023443D01*
X184403491Y-91790838D01*
X184457117Y-91651667D01*
X184912000Y-91651667D01*
X184912000Y-92964000D01*
X185420000Y-92964000D01*
X185420000Y-91651667D01*
X184912000Y-91651667D01*
X184457117Y-91651667D01*
X184468415Y-91622348D01*
X184573916Y-91508391D01*
X184728425Y-91439389D01*
X184940368Y-91405762D01*
X185181564Y-91397825D01*
X185599294Y-91397667D01*
X185763647Y-91562019D01*
G37*
X185763647Y-91562019D02*
X185928000Y-91726372D01*
X185928000Y-92283788D01*
X185922250Y-92588905D01*
X185899248Y-92819913D01*
X185850369Y-92986928D01*
X185766987Y-93100068D01*
X185640476Y-93169450D01*
X185462210Y-93205191D01*
X185223564Y-93217407D01*
X185131478Y-93218000D01*
X184930334Y-93215639D01*
X184793557Y-93206316D01*
X184700927Y-93186671D01*
X184632219Y-93153344D01*
X184599363Y-93129595D01*
X184501588Y-93039072D01*
X184434059Y-92936325D01*
X184391663Y-92804152D01*
X184369288Y-92625348D01*
X184361822Y-92382711D01*
X184361667Y-92329742D01*
X184370718Y-92023443D01*
X184403491Y-91790838D01*
X184457117Y-91651667D01*
X184912000Y-91651667D01*
X184912000Y-92964000D01*
X185420000Y-92964000D01*
X185420000Y-91651667D01*
X184912000Y-91651667D01*
X184457117Y-91651667D01*
X184468415Y-91622348D01*
X184573916Y-91508391D01*
X184728425Y-91439389D01*
X184940368Y-91405762D01*
X185181564Y-91397825D01*
X185599294Y-91397667D01*
X185763647Y-91562019D01*
G36*
X186986334Y-92964000D02*
G01*
X187494334Y-92964000D01*
X187494334Y-91397667D01*
X188002334Y-91397667D01*
X188002334Y-92964000D01*
X188121029Y-92964000D01*
X188255319Y-92922370D01*
X188375029Y-92824401D01*
X188510334Y-92684802D01*
X188510334Y-91397667D01*
X189060667Y-91397667D01*
X189060667Y-92521369D01*
X188710533Y-92869684D01*
X188360398Y-93218000D01*
X186436000Y-93218000D01*
X186436000Y-91397667D01*
X186986334Y-91397667D01*
X186986334Y-92964000D01*
G37*
X186986334Y-92964000D02*
X187494334Y-92964000D01*
X187494334Y-91397667D01*
X188002334Y-91397667D01*
X188002334Y-92964000D01*
X188121029Y-92964000D01*
X188255319Y-92922370D01*
X188375029Y-92824401D01*
X188510334Y-92684802D01*
X188510334Y-91397667D01*
X189060667Y-91397667D01*
X189060667Y-92521369D01*
X188710533Y-92869684D01*
X188360398Y-93218000D01*
X186436000Y-93218000D01*
X186436000Y-91397667D01*
X186986334Y-91397667D01*
X186986334Y-92964000D01*
G36*
X190627774Y-91373622D02*
G01*
X190839959Y-91432818D01*
X190989241Y-91539826D01*
X191082868Y-91701396D01*
X191128088Y-91924275D01*
X191135000Y-92090580D01*
X191135000Y-92413667D01*
X190119000Y-92413667D01*
X190119000Y-92921667D01*
X190415334Y-92921667D01*
X190585682Y-92916722D01*
X190695584Y-92898360D01*
X190768869Y-92861283D01*
X190796334Y-92837000D01*
X190858487Y-92761184D01*
X190881000Y-92710000D01*
X190917786Y-92680276D01*
X191006420Y-92667670D01*
X191008000Y-92667667D01*
X191101580Y-92681455D01*
X191134044Y-92731497D01*
X191135000Y-92749085D01*
X191101614Y-92850517D01*
X191015983Y-92968610D01*
X190899901Y-93078954D01*
X190775161Y-93157139D01*
X190767920Y-93160256D01*
X190607631Y-93201085D01*
X190404607Y-93217305D01*
X190192577Y-93209561D01*
X190005270Y-93178496D01*
X189908177Y-93143851D01*
X189784023Y-93056500D01*
X189675059Y-92940678D01*
X189664761Y-92925989D01*
X189622735Y-92854858D01*
X189595031Y-92778813D01*
X189578747Y-92678658D01*
X189570984Y-92535198D01*
X189568841Y-92329235D01*
X189568825Y-92290989D01*
X189571041Y-92067881D01*
X189579207Y-91910467D01*
X189595856Y-91799847D01*
X189623520Y-91717117D01*
X189653105Y-91661863D01*
X189661134Y-91651667D01*
X190119000Y-91651667D01*
X190119000Y-92159667D01*
X190584667Y-92159667D01*
X190584667Y-91651667D01*
X190119000Y-91651667D01*
X189661134Y-91651667D01*
X189768040Y-91515908D01*
X189911911Y-91421232D01*
X190101787Y-91370281D01*
X190345436Y-91355491D01*
X190627774Y-91373622D01*
G37*
X190627774Y-91373622D02*
X190839959Y-91432818D01*
X190989241Y-91539826D01*
X191082868Y-91701396D01*
X191128088Y-91924275D01*
X191135000Y-92090580D01*
X191135000Y-92413667D01*
X190119000Y-92413667D01*
X190119000Y-92921667D01*
X190415334Y-92921667D01*
X190585682Y-92916722D01*
X190695584Y-92898360D01*
X190768869Y-92861283D01*
X190796334Y-92837000D01*
X190858487Y-92761184D01*
X190881000Y-92710000D01*
X190917786Y-92680276D01*
X191006420Y-92667670D01*
X191008000Y-92667667D01*
X191101580Y-92681455D01*
X191134044Y-92731497D01*
X191135000Y-92749085D01*
X191101614Y-92850517D01*
X191015983Y-92968610D01*
X190899901Y-93078954D01*
X190775161Y-93157139D01*
X190767920Y-93160256D01*
X190607631Y-93201085D01*
X190404607Y-93217305D01*
X190192577Y-93209561D01*
X190005270Y-93178496D01*
X189908177Y-93143851D01*
X189784023Y-93056500D01*
X189675059Y-92940678D01*
X189664761Y-92925989D01*
X189622735Y-92854858D01*
X189595031Y-92778813D01*
X189578747Y-92678658D01*
X189570984Y-92535198D01*
X189568841Y-92329235D01*
X189568825Y-92290989D01*
X189571041Y-92067881D01*
X189579207Y-91910467D01*
X189595856Y-91799847D01*
X189623520Y-91717117D01*
X189653105Y-91661863D01*
X189661134Y-91651667D01*
X190119000Y-91651667D01*
X190119000Y-92159667D01*
X190584667Y-92159667D01*
X190584667Y-91651667D01*
X190119000Y-91651667D01*
X189661134Y-91651667D01*
X189768040Y-91515908D01*
X189911911Y-91421232D01*
X190101787Y-91370281D01*
X190345436Y-91355491D01*
X190627774Y-91373622D01*
G36*
X192955334Y-91513359D02*
G01*
X192946957Y-91596085D01*
X192906028Y-91639254D01*
X192808851Y-91664135D01*
X192782502Y-91668482D01*
X192640589Y-91705106D01*
X192476534Y-91766696D01*
X192401502Y-91801606D01*
X192193334Y-91907093D01*
X192193334Y-93218000D01*
X191643000Y-93218000D01*
X191643000Y-91397667D01*
X191918167Y-91397667D01*
X192066070Y-91399497D01*
X192148449Y-91409934D01*
X192184437Y-91436397D01*
X192193167Y-91486305D01*
X192193334Y-91504360D01*
X192193334Y-91611054D01*
X192365562Y-91523189D01*
X192519209Y-91462845D01*
X192694418Y-91418556D01*
X192746562Y-91410599D01*
X192955334Y-91385873D01*
X192955334Y-91513359D01*
G37*
X192955334Y-91513359D02*
X192946957Y-91596085D01*
X192906028Y-91639254D01*
X192808851Y-91664135D01*
X192782502Y-91668482D01*
X192640589Y-91705106D01*
X192476534Y-91766696D01*
X192401502Y-91801606D01*
X192193334Y-91907093D01*
X192193334Y-93218000D01*
X191643000Y-93218000D01*
X191643000Y-91397667D01*
X191918167Y-91397667D01*
X192066070Y-91399497D01*
X192148449Y-91409934D01*
X192184437Y-91436397D01*
X192193167Y-91486305D01*
X192193334Y-91504360D01*
X192193334Y-91611054D01*
X192365562Y-91523189D01*
X192519209Y-91462845D01*
X192694418Y-91418556D01*
X192746562Y-91410599D01*
X192955334Y-91385873D01*
X192955334Y-91513359D01*
G36*
X193770250Y-90847569D02*
G01*
X194093011Y-90853844D01*
X194341452Y-90876266D01*
X194525298Y-90920727D01*
X194654273Y-90993117D01*
X194738102Y-91099329D01*
X194786507Y-91245254D01*
X194809214Y-91436784D01*
X194811406Y-91478374D01*
X194816596Y-91649170D01*
X194809839Y-91760658D01*
X194786094Y-91837918D01*
X194740319Y-91906026D01*
X194720735Y-91929357D01*
X194615157Y-92052097D01*
X194716579Y-92172630D01*
X194774768Y-92257306D01*
X194805765Y-92354546D01*
X194817197Y-92494163D01*
X194818000Y-92569133D01*
X194798925Y-92804633D01*
X194737342Y-92978308D01*
X194626712Y-93104982D01*
X194562314Y-93148762D01*
X194495628Y-93177895D01*
X194401343Y-93197948D01*
X194264676Y-93210355D01*
X194070848Y-93216549D01*
X193848385Y-93218000D01*
X193251667Y-93218000D01*
X193251667Y-92968225D01*
X193802000Y-92968225D01*
X194288834Y-92942833D01*
X194288834Y-92180833D01*
X193802000Y-92155441D01*
X193802000Y-92968225D01*
X193251667Y-92968225D01*
X193251667Y-91143667D01*
X193802000Y-91143667D01*
X193802000Y-91905667D01*
X194310000Y-91905667D01*
X194310000Y-91143667D01*
X193802000Y-91143667D01*
X193251667Y-91143667D01*
X193251667Y-90847333D01*
X193770250Y-90847569D01*
G37*
X193770250Y-90847569D02*
X194093011Y-90853844D01*
X194341452Y-90876266D01*
X194525298Y-90920727D01*
X194654273Y-90993117D01*
X194738102Y-91099329D01*
X194786507Y-91245254D01*
X194809214Y-91436784D01*
X194811406Y-91478374D01*
X194816596Y-91649170D01*
X194809839Y-91760658D01*
X194786094Y-91837918D01*
X194740319Y-91906026D01*
X194720735Y-91929357D01*
X194615157Y-92052097D01*
X194716579Y-92172630D01*
X194774768Y-92257306D01*
X194805765Y-92354546D01*
X194817197Y-92494163D01*
X194818000Y-92569133D01*
X194798925Y-92804633D01*
X194737342Y-92978308D01*
X194626712Y-93104982D01*
X194562314Y-93148762D01*
X194495628Y-93177895D01*
X194401343Y-93197948D01*
X194264676Y-93210355D01*
X194070848Y-93216549D01*
X193848385Y-93218000D01*
X193251667Y-93218000D01*
X193251667Y-92968225D01*
X193802000Y-92968225D01*
X194288834Y-92942833D01*
X194288834Y-92180833D01*
X193802000Y-92155441D01*
X193802000Y-92968225D01*
X193251667Y-92968225D01*
X193251667Y-91143667D01*
X193802000Y-91143667D01*
X193802000Y-91905667D01*
X194310000Y-91905667D01*
X194310000Y-91143667D01*
X193802000Y-91143667D01*
X193251667Y-91143667D01*
X193251667Y-90847333D01*
X193770250Y-90847569D01*
G36*
X196685647Y-91562019D02*
G01*
X196850000Y-91726372D01*
X196850000Y-92283788D01*
X196844250Y-92588905D01*
X196821248Y-92819913D01*
X196772369Y-92986928D01*
X196688987Y-93100068D01*
X196562476Y-93169450D01*
X196384210Y-93205191D01*
X196145564Y-93217407D01*
X196053478Y-93218000D01*
X195852334Y-93215639D01*
X195715557Y-93206316D01*
X195622927Y-93186671D01*
X195554219Y-93153344D01*
X195521363Y-93129595D01*
X195423588Y-93039072D01*
X195356059Y-92936325D01*
X195313663Y-92804152D01*
X195291288Y-92625348D01*
X195283822Y-92382711D01*
X195283667Y-92329742D01*
X195292718Y-92023443D01*
X195325491Y-91790838D01*
X195379117Y-91651667D01*
X195834000Y-91651667D01*
X195834000Y-92964000D01*
X196342000Y-92964000D01*
X196342000Y-91651667D01*
X195834000Y-91651667D01*
X195379117Y-91651667D01*
X195390415Y-91622348D01*
X195495916Y-91508391D01*
X195650425Y-91439389D01*
X195862368Y-91405762D01*
X196103564Y-91397825D01*
X196521294Y-91397667D01*
X196685647Y-91562019D01*
G37*
X196685647Y-91562019D02*
X196850000Y-91726372D01*
X196850000Y-92283788D01*
X196844250Y-92588905D01*
X196821248Y-92819913D01*
X196772369Y-92986928D01*
X196688987Y-93100068D01*
X196562476Y-93169450D01*
X196384210Y-93205191D01*
X196145564Y-93217407D01*
X196053478Y-93218000D01*
X195852334Y-93215639D01*
X195715557Y-93206316D01*
X195622927Y-93186671D01*
X195554219Y-93153344D01*
X195521363Y-93129595D01*
X195423588Y-93039072D01*
X195356059Y-92936325D01*
X195313663Y-92804152D01*
X195291288Y-92625348D01*
X195283822Y-92382711D01*
X195283667Y-92329742D01*
X195292718Y-92023443D01*
X195325491Y-91790838D01*
X195379117Y-91651667D01*
X195834000Y-91651667D01*
X195834000Y-92964000D01*
X196342000Y-92964000D01*
X196342000Y-91651667D01*
X195834000Y-91651667D01*
X195379117Y-91651667D01*
X195390415Y-91622348D01*
X195495916Y-91508391D01*
X195650425Y-91439389D01*
X195862368Y-91405762D01*
X196103564Y-91397825D01*
X196521294Y-91397667D01*
X196685647Y-91562019D01*
G36*
X198759981Y-91562019D02*
G01*
X198924334Y-91726372D01*
X198924334Y-92283788D01*
X198918583Y-92588905D01*
X198895581Y-92819913D01*
X198846702Y-92986928D01*
X198763320Y-93100068D01*
X198636809Y-93169450D01*
X198458544Y-93205191D01*
X198219897Y-93217407D01*
X198127811Y-93218000D01*
X197926667Y-93215639D01*
X197789891Y-93206316D01*
X197697260Y-93186671D01*
X197628553Y-93153344D01*
X197595697Y-93129595D01*
X197497922Y-93039072D01*
X197430393Y-92936325D01*
X197387997Y-92804152D01*
X197365622Y-92625348D01*
X197358155Y-92382711D01*
X197358000Y-92329742D01*
X197367052Y-92023443D01*
X197399825Y-91790838D01*
X197453450Y-91651667D01*
X197908334Y-91651667D01*
X197908334Y-92964000D01*
X198416334Y-92964000D01*
X198416334Y-91651667D01*
X197908334Y-91651667D01*
X197453450Y-91651667D01*
X197464748Y-91622348D01*
X197570250Y-91508391D01*
X197724758Y-91439389D01*
X197936702Y-91405762D01*
X198177897Y-91397825D01*
X198595628Y-91397667D01*
X198759981Y-91562019D01*
G37*
X198759981Y-91562019D02*
X198924334Y-91726372D01*
X198924334Y-92283788D01*
X198918583Y-92588905D01*
X198895581Y-92819913D01*
X198846702Y-92986928D01*
X198763320Y-93100068D01*
X198636809Y-93169450D01*
X198458544Y-93205191D01*
X198219897Y-93217407D01*
X198127811Y-93218000D01*
X197926667Y-93215639D01*
X197789891Y-93206316D01*
X197697260Y-93186671D01*
X197628553Y-93153344D01*
X197595697Y-93129595D01*
X197497922Y-93039072D01*
X197430393Y-92936325D01*
X197387997Y-92804152D01*
X197365622Y-92625348D01*
X197358155Y-92382711D01*
X197358000Y-92329742D01*
X197367052Y-92023443D01*
X197399825Y-91790838D01*
X197453450Y-91651667D01*
X197908334Y-91651667D01*
X197908334Y-92964000D01*
X198416334Y-92964000D01*
X198416334Y-91651667D01*
X197908334Y-91651667D01*
X197453450Y-91651667D01*
X197464748Y-91622348D01*
X197570250Y-91508391D01*
X197724758Y-91439389D01*
X197936702Y-91405762D01*
X198177897Y-91397825D01*
X198595628Y-91397667D01*
X198759981Y-91562019D01*
G36*
X199982667Y-91882054D02*
G01*
X200248389Y-91618694D01*
X200514111Y-91355333D01*
X201018390Y-91355333D01*
X200089944Y-92286667D01*
X200554167Y-92752333D01*
X201018390Y-93218000D01*
X200455437Y-93218000D01*
X199982667Y-92695572D01*
X199982667Y-93218000D01*
X199432334Y-93218000D01*
X199432334Y-90847333D01*
X199982667Y-90847333D01*
X199982667Y-91882054D01*
G37*
X199982667Y-91882054D02*
X200248389Y-91618694D01*
X200514111Y-91355333D01*
X201018390Y-91355333D01*
X200089944Y-92286667D01*
X200554167Y-92752333D01*
X201018390Y-93218000D01*
X200455437Y-93218000D01*
X199982667Y-92695572D01*
X199982667Y-93218000D01*
X199432334Y-93218000D01*
X199432334Y-90847333D01*
X199982667Y-90847333D01*
X199982667Y-91882054D01*
G36*
X203581774Y-91373622D02*
G01*
X203793959Y-91432818D01*
X203943241Y-91539826D01*
X204036868Y-91701396D01*
X204082088Y-91924275D01*
X204089000Y-92090580D01*
X204089000Y-92413667D01*
X203073000Y-92413667D01*
X203073000Y-92921667D01*
X203369334Y-92921667D01*
X203539682Y-92916722D01*
X203649584Y-92898360D01*
X203722869Y-92861283D01*
X203750334Y-92837000D01*
X203812487Y-92761184D01*
X203835000Y-92710000D01*
X203871786Y-92680276D01*
X203960420Y-92667670D01*
X203962000Y-92667667D01*
X204055580Y-92681455D01*
X204088044Y-92731497D01*
X204089000Y-92749085D01*
X204055614Y-92850517D01*
X203969983Y-92968610D01*
X203853901Y-93078954D01*
X203729161Y-93157139D01*
X203721920Y-93160256D01*
X203561631Y-93201085D01*
X203358607Y-93217305D01*
X203146577Y-93209561D01*
X202959270Y-93178496D01*
X202862177Y-93143851D01*
X202738023Y-93056500D01*
X202629059Y-92940678D01*
X202618761Y-92925989D01*
X202576735Y-92854858D01*
X202549031Y-92778813D01*
X202532747Y-92678658D01*
X202524984Y-92535198D01*
X202522841Y-92329235D01*
X202522825Y-92290989D01*
X202525041Y-92067881D01*
X202533207Y-91910467D01*
X202549856Y-91799847D01*
X202577520Y-91717117D01*
X202607105Y-91661863D01*
X202615134Y-91651667D01*
X203073000Y-91651667D01*
X203073000Y-92159667D01*
X203538667Y-92159667D01*
X203538667Y-91651667D01*
X203073000Y-91651667D01*
X202615134Y-91651667D01*
X202722040Y-91515908D01*
X202865911Y-91421232D01*
X203055787Y-91370281D01*
X203299436Y-91355491D01*
X203581774Y-91373622D01*
G37*
X203581774Y-91373622D02*
X203793959Y-91432818D01*
X203943241Y-91539826D01*
X204036868Y-91701396D01*
X204082088Y-91924275D01*
X204089000Y-92090580D01*
X204089000Y-92413667D01*
X203073000Y-92413667D01*
X203073000Y-92921667D01*
X203369334Y-92921667D01*
X203539682Y-92916722D01*
X203649584Y-92898360D01*
X203722869Y-92861283D01*
X203750334Y-92837000D01*
X203812487Y-92761184D01*
X203835000Y-92710000D01*
X203871786Y-92680276D01*
X203960420Y-92667670D01*
X203962000Y-92667667D01*
X204055580Y-92681455D01*
X204088044Y-92731497D01*
X204089000Y-92749085D01*
X204055614Y-92850517D01*
X203969983Y-92968610D01*
X203853901Y-93078954D01*
X203729161Y-93157139D01*
X203721920Y-93160256D01*
X203561631Y-93201085D01*
X203358607Y-93217305D01*
X203146577Y-93209561D01*
X202959270Y-93178496D01*
X202862177Y-93143851D01*
X202738023Y-93056500D01*
X202629059Y-92940678D01*
X202618761Y-92925989D01*
X202576735Y-92854858D01*
X202549031Y-92778813D01*
X202532747Y-92678658D01*
X202524984Y-92535198D01*
X202522841Y-92329235D01*
X202522825Y-92290989D01*
X202525041Y-92067881D01*
X202533207Y-91910467D01*
X202549856Y-91799847D01*
X202577520Y-91717117D01*
X202607105Y-91661863D01*
X202615134Y-91651667D01*
X203073000Y-91651667D01*
X203073000Y-92159667D01*
X203538667Y-92159667D01*
X203538667Y-91651667D01*
X203073000Y-91651667D01*
X202615134Y-91651667D01*
X202722040Y-91515908D01*
X202865911Y-91421232D01*
X203055787Y-91370281D01*
X203299436Y-91355491D01*
X203581774Y-91373622D01*
G36*
X206163334Y-93218000D02*
G01*
X205581250Y-93217721D01*
X205339726Y-93216125D01*
X205166707Y-93210371D01*
X205046063Y-93198601D01*
X204961665Y-93178961D01*
X204897383Y-93149594D01*
X204876613Y-93136649D01*
X204763759Y-93051483D01*
X204684922Y-92958651D01*
X204634958Y-92841929D01*
X204608722Y-92685093D01*
X204601071Y-92471917D01*
X204604108Y-92277160D01*
X204612193Y-92048932D01*
X204623744Y-91888267D01*
X204641429Y-91778064D01*
X204667918Y-91701222D01*
X204698506Y-91651667D01*
X205147334Y-91651667D01*
X205147334Y-92964000D01*
X205655334Y-92964000D01*
X205655334Y-91651667D01*
X205147334Y-91651667D01*
X204698506Y-91651667D01*
X204702834Y-91644656D01*
X204814714Y-91523256D01*
X204944328Y-91447307D01*
X205113444Y-91408289D01*
X205333782Y-91397667D01*
X205655334Y-91397667D01*
X205655334Y-90847333D01*
X206163334Y-90847333D01*
X206163334Y-93218000D01*
G37*
X206163334Y-93218000D02*
X205581250Y-93217721D01*
X205339726Y-93216125D01*
X205166707Y-93210371D01*
X205046063Y-93198601D01*
X204961665Y-93178961D01*
X204897383Y-93149594D01*
X204876613Y-93136649D01*
X204763759Y-93051483D01*
X204684922Y-92958651D01*
X204634958Y-92841929D01*
X204608722Y-92685093D01*
X204601071Y-92471917D01*
X204604108Y-92277160D01*
X204612193Y-92048932D01*
X204623744Y-91888267D01*
X204641429Y-91778064D01*
X204667918Y-91701222D01*
X204698506Y-91651667D01*
X205147334Y-91651667D01*
X205147334Y-92964000D01*
X205655334Y-92964000D01*
X205655334Y-91651667D01*
X205147334Y-91651667D01*
X204698506Y-91651667D01*
X204702834Y-91644656D01*
X204814714Y-91523256D01*
X204944328Y-91447307D01*
X205113444Y-91408289D01*
X205333782Y-91397667D01*
X205655334Y-91397667D01*
X205655334Y-90847333D01*
X206163334Y-90847333D01*
X206163334Y-93218000D01*
G36*
X207221667Y-93218000D02*
G01*
X206671334Y-93218000D01*
X206671334Y-91397667D01*
X207221667Y-91397667D01*
X207221667Y-93218000D01*
G37*
X207221667Y-93218000D02*
X206671334Y-93218000D01*
X206671334Y-91397667D01*
X207221667Y-91397667D01*
X207221667Y-93218000D01*
G36*
X208534000Y-91397667D02*
G01*
X208661000Y-91397667D01*
X208750954Y-91408156D01*
X208784109Y-91457636D01*
X208788000Y-91524667D01*
X208777511Y-91614621D01*
X208728030Y-91647776D01*
X208661000Y-91651667D01*
X208534000Y-91651667D01*
X208534000Y-92964000D01*
X208661000Y-92964000D01*
X208750954Y-92974489D01*
X208784109Y-93023970D01*
X208788000Y-93091000D01*
X208788000Y-93218000D01*
X208477879Y-93218000D01*
X208309997Y-93214507D01*
X208202377Y-93200091D01*
X208130763Y-93168840D01*
X208075713Y-93120021D01*
X208041287Y-93078515D01*
X208016699Y-93029592D01*
X208000301Y-92959253D01*
X207990450Y-92853502D01*
X207985501Y-92698341D01*
X207983807Y-92479771D01*
X207983667Y-92336855D01*
X207983667Y-91651667D01*
X207856667Y-91651667D01*
X207766713Y-91641177D01*
X207733558Y-91591697D01*
X207729667Y-91524667D01*
X207740156Y-91434712D01*
X207789637Y-91401557D01*
X207856667Y-91397667D01*
X207983667Y-91397667D01*
X207983667Y-90847333D01*
X208534000Y-90847333D01*
X208534000Y-91397667D01*
G37*
X208534000Y-91397667D02*
X208661000Y-91397667D01*
X208750954Y-91408156D01*
X208784109Y-91457636D01*
X208788000Y-91524667D01*
X208777511Y-91614621D01*
X208728030Y-91647776D01*
X208661000Y-91651667D01*
X208534000Y-91651667D01*
X208534000Y-92964000D01*
X208661000Y-92964000D01*
X208750954Y-92974489D01*
X208784109Y-93023970D01*
X208788000Y-93091000D01*
X208788000Y-93218000D01*
X208477879Y-93218000D01*
X208309997Y-93214507D01*
X208202377Y-93200091D01*
X208130763Y-93168840D01*
X208075713Y-93120021D01*
X208041287Y-93078515D01*
X208016699Y-93029592D01*
X208000301Y-92959253D01*
X207990450Y-92853502D01*
X207985501Y-92698341D01*
X207983807Y-92479771D01*
X207983667Y-92336855D01*
X207983667Y-91651667D01*
X207856667Y-91651667D01*
X207766713Y-91641177D01*
X207733558Y-91591697D01*
X207729667Y-91524667D01*
X207740156Y-91434712D01*
X207789637Y-91401557D01*
X207856667Y-91397667D01*
X207983667Y-91397667D01*
X207983667Y-90847333D01*
X208534000Y-90847333D01*
X208534000Y-91397667D01*
G36*
X209846334Y-93218000D02*
G01*
X209296000Y-93218000D01*
X209296000Y-91397667D01*
X209846334Y-91397667D01*
X209846334Y-93218000D01*
G37*
X209846334Y-93218000D02*
X209296000Y-93218000D01*
X209296000Y-91397667D01*
X209846334Y-91397667D01*
X209846334Y-93218000D01*
G36*
X211756314Y-91562019D02*
G01*
X211920667Y-91726372D01*
X211920667Y-92283788D01*
X211914916Y-92588905D01*
X211891915Y-92819913D01*
X211843036Y-92986928D01*
X211759654Y-93100068D01*
X211633143Y-93169450D01*
X211454877Y-93205191D01*
X211216231Y-93217407D01*
X211124145Y-93218000D01*
X210923001Y-93215639D01*
X210786224Y-93206316D01*
X210693593Y-93186671D01*
X210624886Y-93153344D01*
X210592030Y-93129595D01*
X210494255Y-93039072D01*
X210426726Y-92936325D01*
X210384330Y-92804152D01*
X210361955Y-92625348D01*
X210354489Y-92382711D01*
X210354334Y-92329742D01*
X210363385Y-92023443D01*
X210396158Y-91790838D01*
X210449783Y-91651667D01*
X210904667Y-91651667D01*
X210904667Y-92964000D01*
X211412667Y-92964000D01*
X211412667Y-91651667D01*
X210904667Y-91651667D01*
X210449783Y-91651667D01*
X210461081Y-91622348D01*
X210566583Y-91508391D01*
X210721092Y-91439389D01*
X210933035Y-91405762D01*
X211174231Y-91397825D01*
X211591961Y-91397667D01*
X211756314Y-91562019D01*
G37*
X211756314Y-91562019D02*
X211920667Y-91726372D01*
X211920667Y-92283788D01*
X211914916Y-92588905D01*
X211891915Y-92819913D01*
X211843036Y-92986928D01*
X211759654Y-93100068D01*
X211633143Y-93169450D01*
X211454877Y-93205191D01*
X211216231Y-93217407D01*
X211124145Y-93218000D01*
X210923001Y-93215639D01*
X210786224Y-93206316D01*
X210693593Y-93186671D01*
X210624886Y-93153344D01*
X210592030Y-93129595D01*
X210494255Y-93039072D01*
X210426726Y-92936325D01*
X210384330Y-92804152D01*
X210361955Y-92625348D01*
X210354489Y-92382711D01*
X210354334Y-92329742D01*
X210363385Y-92023443D01*
X210396158Y-91790838D01*
X210449783Y-91651667D01*
X210904667Y-91651667D01*
X210904667Y-92964000D01*
X211412667Y-92964000D01*
X211412667Y-91651667D01*
X210904667Y-91651667D01*
X210449783Y-91651667D01*
X210461081Y-91622348D01*
X210566583Y-91508391D01*
X210721092Y-91439389D01*
X210933035Y-91405762D01*
X211174231Y-91397825D01*
X211591961Y-91397667D01*
X211756314Y-91562019D01*
G36*
X213010750Y-91397825D02*
G01*
X213252713Y-91399387D01*
X213426587Y-91405193D01*
X213548919Y-91417152D01*
X213636255Y-91437173D01*
X213705140Y-91467165D01*
X213728362Y-91480619D01*
X213819306Y-91543754D01*
X213887102Y-91615393D01*
X213935067Y-91708437D01*
X213966519Y-91835788D01*
X213984777Y-92010348D01*
X213993159Y-92245020D01*
X213995000Y-92517398D01*
X213995000Y-93218000D01*
X213487000Y-93218000D01*
X213487000Y-91651667D01*
X212979000Y-91651667D01*
X212979000Y-93218000D01*
X212428667Y-93218000D01*
X212428667Y-91397667D01*
X213010750Y-91397825D01*
G37*
X213010750Y-91397825D02*
X213252713Y-91399387D01*
X213426587Y-91405193D01*
X213548919Y-91417152D01*
X213636255Y-91437173D01*
X213705140Y-91467165D01*
X213728362Y-91480619D01*
X213819306Y-91543754D01*
X213887102Y-91615393D01*
X213935067Y-91708437D01*
X213966519Y-91835788D01*
X213984777Y-92010348D01*
X213993159Y-92245020D01*
X213995000Y-92517398D01*
X213995000Y-93218000D01*
X213487000Y-93218000D01*
X213487000Y-91651667D01*
X212979000Y-91651667D01*
X212979000Y-93218000D01*
X212428667Y-93218000D01*
X212428667Y-91397667D01*
X213010750Y-91397825D01*
G36*
X207221667Y-91101333D02*
G01*
X206671334Y-91101333D01*
X206671334Y-90847333D01*
X207221667Y-90847333D01*
X207221667Y-91101333D01*
G37*
X207221667Y-91101333D02*
X206671334Y-91101333D01*
X206671334Y-90847333D01*
X207221667Y-90847333D01*
X207221667Y-91101333D01*
G36*
X209846334Y-91101333D02*
G01*
X209296000Y-91101333D01*
X209296000Y-90847333D01*
X209846334Y-90847333D01*
X209846334Y-91101333D01*
G37*
X209846334Y-91101333D02*
X209296000Y-91101333D01*
X209296000Y-90847333D01*
X209846334Y-90847333D01*
X209846334Y-91101333D01*
G36*
X191165325Y-86701879D02*
G01*
X191395140Y-86713820D01*
X191566477Y-86737943D01*
X191692348Y-86777704D01*
X191785764Y-86836558D01*
X191859738Y-86917959D01*
X191896333Y-86972753D01*
X191943258Y-87070257D01*
X191969882Y-87190114D01*
X191980728Y-87357711D01*
X191981667Y-87451824D01*
X191979469Y-87624870D01*
X191968647Y-87737401D01*
X191942856Y-87813536D01*
X191895752Y-87877396D01*
X191859958Y-87914529D01*
X191738250Y-88036238D01*
X191859958Y-88172453D01*
X191925042Y-88254009D01*
X191961730Y-88334248D01*
X191977960Y-88441604D01*
X191981666Y-88604510D01*
X191981667Y-88608520D01*
X191963424Y-88865461D01*
X191905086Y-89059566D01*
X191801240Y-89205236D01*
X191736850Y-89259833D01*
X191685683Y-89291598D01*
X191622157Y-89314909D01*
X191532299Y-89331428D01*
X191402138Y-89342819D01*
X191217700Y-89350743D01*
X190965013Y-89356862D01*
X190912750Y-89357871D01*
X190203667Y-89371242D01*
X190203667Y-88180333D01*
X190796334Y-88180333D01*
X190796334Y-89069333D01*
X191389000Y-89069333D01*
X191389000Y-88180333D01*
X190796334Y-88180333D01*
X190203667Y-88180333D01*
X190203667Y-86995000D01*
X190796334Y-86995000D01*
X190796334Y-87884000D01*
X191389000Y-87884000D01*
X191389000Y-86995000D01*
X190796334Y-86995000D01*
X190203667Y-86995000D01*
X190203667Y-86698667D01*
X190864019Y-86698667D01*
X191165325Y-86701879D01*
G37*
X191165325Y-86701879D02*
X191395140Y-86713820D01*
X191566477Y-86737943D01*
X191692348Y-86777704D01*
X191785764Y-86836558D01*
X191859738Y-86917959D01*
X191896333Y-86972753D01*
X191943258Y-87070257D01*
X191969882Y-87190114D01*
X191980728Y-87357711D01*
X191981667Y-87451824D01*
X191979469Y-87624870D01*
X191968647Y-87737401D01*
X191942856Y-87813536D01*
X191895752Y-87877396D01*
X191859958Y-87914529D01*
X191738250Y-88036238D01*
X191859958Y-88172453D01*
X191925042Y-88254009D01*
X191961730Y-88334248D01*
X191977960Y-88441604D01*
X191981666Y-88604510D01*
X191981667Y-88608520D01*
X191963424Y-88865461D01*
X191905086Y-89059566D01*
X191801240Y-89205236D01*
X191736850Y-89259833D01*
X191685683Y-89291598D01*
X191622157Y-89314909D01*
X191532299Y-89331428D01*
X191402138Y-89342819D01*
X191217700Y-89350743D01*
X190965013Y-89356862D01*
X190912750Y-89357871D01*
X190203667Y-89371242D01*
X190203667Y-88180333D01*
X190796334Y-88180333D01*
X190796334Y-89069333D01*
X191389000Y-89069333D01*
X191389000Y-88180333D01*
X190796334Y-88180333D01*
X190203667Y-88180333D01*
X190203667Y-86995000D01*
X190796334Y-86995000D01*
X190796334Y-87884000D01*
X191389000Y-87884000D01*
X191389000Y-86995000D01*
X190796334Y-86995000D01*
X190203667Y-86995000D01*
X190203667Y-86698667D01*
X190864019Y-86698667D01*
X191165325Y-86701879D01*
G36*
X193124667Y-89365667D02*
G01*
X192532000Y-89365667D01*
X192532000Y-86698667D01*
X193124667Y-86698667D01*
X193124667Y-89365667D01*
G37*
X193124667Y-89365667D02*
X192532000Y-89365667D01*
X192532000Y-86698667D01*
X193124667Y-86698667D01*
X193124667Y-89365667D01*
G36*
X194310000Y-89069333D02*
G01*
X194902667Y-89069333D01*
X194902667Y-87291333D01*
X195495334Y-87291333D01*
X195495334Y-89365667D01*
X194828584Y-89365508D01*
X194570380Y-89364369D01*
X194381725Y-89360039D01*
X194247514Y-89350936D01*
X194152643Y-89335478D01*
X194082009Y-89312084D01*
X194023863Y-89281229D01*
X193925545Y-89215521D01*
X193850740Y-89145786D01*
X193796267Y-89059832D01*
X193758948Y-88945466D01*
X193735603Y-88790493D01*
X193723054Y-88582722D01*
X193718120Y-88309958D01*
X193717492Y-88106250D01*
X193717334Y-87291333D01*
X194310000Y-87291333D01*
X194310000Y-89069333D01*
G37*
X194310000Y-89069333D02*
X194902667Y-89069333D01*
X194902667Y-87291333D01*
X195495334Y-87291333D01*
X195495334Y-89365667D01*
X194828584Y-89365508D01*
X194570380Y-89364369D01*
X194381725Y-89360039D01*
X194247514Y-89350936D01*
X194152643Y-89335478D01*
X194082009Y-89312084D01*
X194023863Y-89281229D01*
X193925545Y-89215521D01*
X193850740Y-89145786D01*
X193796267Y-89059832D01*
X193758948Y-88945466D01*
X193735603Y-88790493D01*
X193723054Y-88582722D01*
X193718120Y-88309958D01*
X193717492Y-88106250D01*
X193717334Y-87291333D01*
X194310000Y-87291333D01*
X194310000Y-89069333D01*
G36*
X197219378Y-87300353D02*
G01*
X197419325Y-87331581D01*
X197567900Y-87391272D01*
X197680995Y-87485680D01*
X197770054Y-87613240D01*
X197820847Y-87719911D01*
X197850178Y-87837802D01*
X197863181Y-87994629D01*
X197865304Y-88127417D01*
X197866000Y-88476667D01*
X196680667Y-88476667D01*
X196680667Y-89069333D01*
X196979102Y-89069333D01*
X197231169Y-89050952D01*
X197414001Y-88996714D01*
X197523943Y-88907974D01*
X197548353Y-88858131D01*
X197592808Y-88796528D01*
X197688147Y-88773909D01*
X197725276Y-88773000D01*
X197823713Y-88778285D01*
X197858139Y-88806648D01*
X197849096Y-88876847D01*
X197847229Y-88884362D01*
X197758127Y-89073070D01*
X197593752Y-89245296D01*
X197572068Y-89262234D01*
X197506896Y-89300665D01*
X197419204Y-89326870D01*
X197290941Y-89343869D01*
X197104057Y-89354684D01*
X196998167Y-89358274D01*
X196789802Y-89363016D01*
X196646140Y-89360770D01*
X196547325Y-89348777D01*
X196473498Y-89324280D01*
X196404801Y-89284520D01*
X196388635Y-89273608D01*
X196275512Y-89184128D01*
X196194078Y-89084221D01*
X196139477Y-88958621D01*
X196106851Y-88792060D01*
X196091346Y-88569274D01*
X196088000Y-88328500D01*
X196092963Y-88046475D01*
X196111029Y-87833546D01*
X196146968Y-87674555D01*
X196189309Y-87587667D01*
X196680667Y-87587667D01*
X196680667Y-88180333D01*
X197273334Y-88180333D01*
X197273334Y-87587667D01*
X196680667Y-87587667D01*
X196189309Y-87587667D01*
X196205549Y-87554342D01*
X196291540Y-87457749D01*
X196384312Y-87386583D01*
X196459702Y-87342061D01*
X196542209Y-87313865D01*
X196653127Y-87298425D01*
X196813750Y-87292168D01*
X196952171Y-87291333D01*
X197219378Y-87300353D01*
G37*
X197219378Y-87300353D02*
X197419325Y-87331581D01*
X197567900Y-87391272D01*
X197680995Y-87485680D01*
X197770054Y-87613240D01*
X197820847Y-87719911D01*
X197850178Y-87837802D01*
X197863181Y-87994629D01*
X197865304Y-88127417D01*
X197866000Y-88476667D01*
X196680667Y-88476667D01*
X196680667Y-89069333D01*
X196979102Y-89069333D01*
X197231169Y-89050952D01*
X197414001Y-88996714D01*
X197523943Y-88907974D01*
X197548353Y-88858131D01*
X197592808Y-88796528D01*
X197688147Y-88773909D01*
X197725276Y-88773000D01*
X197823713Y-88778285D01*
X197858139Y-88806648D01*
X197849096Y-88876847D01*
X197847229Y-88884362D01*
X197758127Y-89073070D01*
X197593752Y-89245296D01*
X197572068Y-89262234D01*
X197506896Y-89300665D01*
X197419204Y-89326870D01*
X197290941Y-89343869D01*
X197104057Y-89354684D01*
X196998167Y-89358274D01*
X196789802Y-89363016D01*
X196646140Y-89360770D01*
X196547325Y-89348777D01*
X196473498Y-89324280D01*
X196404801Y-89284520D01*
X196388635Y-89273608D01*
X196275512Y-89184128D01*
X196194078Y-89084221D01*
X196139477Y-88958621D01*
X196106851Y-88792060D01*
X196091346Y-88569274D01*
X196088000Y-88328500D01*
X196092963Y-88046475D01*
X196111029Y-87833546D01*
X196146968Y-87674555D01*
X196189309Y-87587667D01*
X196680667Y-87587667D01*
X196680667Y-88180333D01*
X197273334Y-88180333D01*
X197273334Y-87587667D01*
X196680667Y-87587667D01*
X196189309Y-87587667D01*
X196205549Y-87554342D01*
X196291540Y-87457749D01*
X196384312Y-87386583D01*
X196459702Y-87342061D01*
X196542209Y-87313865D01*
X196653127Y-87298425D01*
X196813750Y-87292168D01*
X196952171Y-87291333D01*
X197219378Y-87300353D01*
G36*
X199449020Y-86719462D02*
G01*
X199638582Y-86785695D01*
X199783601Y-86904873D01*
X199855896Y-87005196D01*
X199927614Y-87145983D01*
X199936102Y-87235775D01*
X199879798Y-87281596D01*
X199792167Y-87291333D01*
X199694240Y-87280219D01*
X199645283Y-87252890D01*
X199644000Y-87247076D01*
X199616466Y-87189611D01*
X199549257Y-87108247D01*
X199540091Y-87098909D01*
X199440577Y-87026312D01*
X199314350Y-86997363D01*
X199243758Y-86995000D01*
X199051334Y-86995000D01*
X199051334Y-87476004D01*
X199408858Y-87817585D01*
X199613064Y-88019489D01*
X199759240Y-88183313D01*
X199856128Y-88323035D01*
X199912469Y-88452634D01*
X199937005Y-88586090D01*
X199940109Y-88667167D01*
X199905042Y-88916486D01*
X199802613Y-89122785D01*
X199648323Y-89269573D01*
X199490108Y-89336004D01*
X199286683Y-89368277D01*
X199070498Y-89365963D01*
X198874001Y-89328634D01*
X198765197Y-89281229D01*
X198644583Y-89181819D01*
X198540363Y-89051710D01*
X198473058Y-88919981D01*
X198458825Y-88847083D01*
X198480576Y-88794862D01*
X198558779Y-88774414D01*
X198606834Y-88773000D01*
X198704760Y-88784114D01*
X198753718Y-88811443D01*
X198755000Y-88817257D01*
X198782534Y-88874722D01*
X198849744Y-88956086D01*
X198858909Y-88965424D01*
X198958424Y-89038021D01*
X199084651Y-89066970D01*
X199155243Y-89069333D01*
X199347667Y-89069333D01*
X199347667Y-88548267D01*
X198985137Y-88202472D01*
X198789692Y-88012544D01*
X198649187Y-87864364D01*
X198554765Y-87744014D01*
X198497568Y-87637581D01*
X198468740Y-87531147D01*
X198459423Y-87410797D01*
X198459104Y-87376000D01*
X198490394Y-87126723D01*
X198584426Y-86934260D01*
X198741006Y-86798786D01*
X198959944Y-86720476D01*
X199199500Y-86698983D01*
X199449020Y-86719462D01*
G37*
X199449020Y-86719462D02*
X199638582Y-86785695D01*
X199783601Y-86904873D01*
X199855896Y-87005196D01*
X199927614Y-87145983D01*
X199936102Y-87235775D01*
X199879798Y-87281596D01*
X199792167Y-87291333D01*
X199694240Y-87280219D01*
X199645283Y-87252890D01*
X199644000Y-87247076D01*
X199616466Y-87189611D01*
X199549257Y-87108247D01*
X199540091Y-87098909D01*
X199440577Y-87026312D01*
X199314350Y-86997363D01*
X199243758Y-86995000D01*
X199051334Y-86995000D01*
X199051334Y-87476004D01*
X199408858Y-87817585D01*
X199613064Y-88019489D01*
X199759240Y-88183313D01*
X199856128Y-88323035D01*
X199912469Y-88452634D01*
X199937005Y-88586090D01*
X199940109Y-88667167D01*
X199905042Y-88916486D01*
X199802613Y-89122785D01*
X199648323Y-89269573D01*
X199490108Y-89336004D01*
X199286683Y-89368277D01*
X199070498Y-89365963D01*
X198874001Y-89328634D01*
X198765197Y-89281229D01*
X198644583Y-89181819D01*
X198540363Y-89051710D01*
X198473058Y-88919981D01*
X198458825Y-88847083D01*
X198480576Y-88794862D01*
X198558779Y-88774414D01*
X198606834Y-88773000D01*
X198704760Y-88784114D01*
X198753718Y-88811443D01*
X198755000Y-88817257D01*
X198782534Y-88874722D01*
X198849744Y-88956086D01*
X198858909Y-88965424D01*
X198958424Y-89038021D01*
X199084651Y-89066970D01*
X199155243Y-89069333D01*
X199347667Y-89069333D01*
X199347667Y-88548267D01*
X198985137Y-88202472D01*
X198789692Y-88012544D01*
X198649187Y-87864364D01*
X198554765Y-87744014D01*
X198497568Y-87637581D01*
X198468740Y-87531147D01*
X198459423Y-87410797D01*
X198459104Y-87376000D01*
X198490394Y-87126723D01*
X198584426Y-86934260D01*
X198741006Y-86798786D01*
X198959944Y-86720476D01*
X199199500Y-86698983D01*
X199449020Y-86719462D01*
G36*
X201749153Y-86706275D02*
G01*
X201948106Y-86731958D01*
X202092689Y-86781181D01*
X202197555Y-86859252D01*
X202277355Y-86971479D01*
X202287778Y-86991025D01*
X202348851Y-87140164D01*
X202347490Y-87235933D01*
X202282323Y-87283609D01*
X202209756Y-87291333D01*
X202105901Y-87279383D01*
X202054999Y-87231002D01*
X202039240Y-87184003D01*
X201994436Y-87098060D01*
X201903290Y-87040571D01*
X201754304Y-87007628D01*
X201535976Y-86995327D01*
X201482744Y-86995000D01*
X201168000Y-86995000D01*
X201168000Y-89069333D01*
X201500958Y-89069333D01*
X201684029Y-89065059D01*
X201806838Y-89049065D01*
X201893503Y-89016588D01*
X201945458Y-88981594D01*
X202022233Y-88904510D01*
X202056841Y-88836783D01*
X202057000Y-88833427D01*
X202094052Y-88787690D01*
X202205167Y-88773000D01*
X202306026Y-88781525D01*
X202347108Y-88817418D01*
X202353175Y-88868250D01*
X202316554Y-89013296D01*
X202221186Y-89157424D01*
X202088138Y-89271459D01*
X202045017Y-89294971D01*
X201935884Y-89331947D01*
X201786063Y-89354450D01*
X201577992Y-89364582D01*
X201453613Y-89365667D01*
X201246889Y-89363572D01*
X201103852Y-89355001D01*
X201003575Y-89336525D01*
X200925134Y-89304714D01*
X200867344Y-89269573D01*
X200775589Y-89201978D01*
X200705219Y-89129416D01*
X200653440Y-89040036D01*
X200617456Y-88921986D01*
X200594471Y-88763416D01*
X200581689Y-88552474D01*
X200576316Y-88277308D01*
X200575465Y-88032167D01*
X200577229Y-87703294D01*
X200584383Y-87447196D01*
X200599724Y-87252023D01*
X200626048Y-87105923D01*
X200666148Y-86997044D01*
X200722821Y-86913536D01*
X200798863Y-86843547D01*
X200867344Y-86794760D01*
X200940374Y-86751837D01*
X201018700Y-86723892D01*
X201122221Y-86707815D01*
X201270832Y-86700496D01*
X201481177Y-86698825D01*
X201749153Y-86706275D01*
G37*
X201749153Y-86706275D02*
X201948106Y-86731958D01*
X202092689Y-86781181D01*
X202197555Y-86859252D01*
X202277355Y-86971479D01*
X202287778Y-86991025D01*
X202348851Y-87140164D01*
X202347490Y-87235933D01*
X202282323Y-87283609D01*
X202209756Y-87291333D01*
X202105901Y-87279383D01*
X202054999Y-87231002D01*
X202039240Y-87184003D01*
X201994436Y-87098060D01*
X201903290Y-87040571D01*
X201754304Y-87007628D01*
X201535976Y-86995327D01*
X201482744Y-86995000D01*
X201168000Y-86995000D01*
X201168000Y-89069333D01*
X201500958Y-89069333D01*
X201684029Y-89065059D01*
X201806838Y-89049065D01*
X201893503Y-89016588D01*
X201945458Y-88981594D01*
X202022233Y-88904510D01*
X202056841Y-88836783D01*
X202057000Y-88833427D01*
X202094052Y-88787690D01*
X202205167Y-88773000D01*
X202306026Y-88781525D01*
X202347108Y-88817418D01*
X202353175Y-88868250D01*
X202316554Y-89013296D01*
X202221186Y-89157424D01*
X202088138Y-89271459D01*
X202045017Y-89294971D01*
X201935884Y-89331947D01*
X201786063Y-89354450D01*
X201577992Y-89364582D01*
X201453613Y-89365667D01*
X201246889Y-89363572D01*
X201103852Y-89355001D01*
X201003575Y-89336525D01*
X200925134Y-89304714D01*
X200867344Y-89269573D01*
X200775589Y-89201978D01*
X200705219Y-89129416D01*
X200653440Y-89040036D01*
X200617456Y-88921986D01*
X200594471Y-88763416D01*
X200581689Y-88552474D01*
X200576316Y-88277308D01*
X200575465Y-88032167D01*
X200577229Y-87703294D01*
X200584383Y-87447196D01*
X200599724Y-87252023D01*
X200626048Y-87105923D01*
X200666148Y-86997044D01*
X200722821Y-86913536D01*
X200798863Y-86843547D01*
X200867344Y-86794760D01*
X200940374Y-86751837D01*
X201018700Y-86723892D01*
X201122221Y-86707815D01*
X201270832Y-86700496D01*
X201481177Y-86698825D01*
X201749153Y-86706275D01*
G36*
X203894020Y-86719462D02*
G01*
X204083582Y-86785695D01*
X204228601Y-86904873D01*
X204300896Y-87005196D01*
X204372614Y-87145983D01*
X204381102Y-87235775D01*
X204324798Y-87281596D01*
X204237167Y-87291333D01*
X204139240Y-87280219D01*
X204090283Y-87252890D01*
X204089000Y-87247076D01*
X204061466Y-87189611D01*
X203994257Y-87108247D01*
X203985091Y-87098909D01*
X203885577Y-87026312D01*
X203759350Y-86997363D01*
X203688758Y-86995000D01*
X203496334Y-86995000D01*
X203496334Y-87476004D01*
X203853858Y-87817585D01*
X204058064Y-88019489D01*
X204204240Y-88183313D01*
X204301128Y-88323035D01*
X204357469Y-88452634D01*
X204382005Y-88586090D01*
X204385109Y-88667167D01*
X204350042Y-88916486D01*
X204247613Y-89122785D01*
X204093323Y-89269573D01*
X203935108Y-89336004D01*
X203731683Y-89368277D01*
X203515498Y-89365963D01*
X203319001Y-89328634D01*
X203210197Y-89281229D01*
X203089583Y-89181819D01*
X202985363Y-89051710D01*
X202918058Y-88919981D01*
X202903825Y-88847083D01*
X202925576Y-88794862D01*
X203003779Y-88774414D01*
X203051834Y-88773000D01*
X203149760Y-88784114D01*
X203198718Y-88811443D01*
X203200000Y-88817257D01*
X203227534Y-88874722D01*
X203294744Y-88956086D01*
X203303909Y-88965424D01*
X203403424Y-89038021D01*
X203529651Y-89066970D01*
X203600243Y-89069333D01*
X203792667Y-89069333D01*
X203792667Y-88548267D01*
X203430137Y-88202472D01*
X203234692Y-88012544D01*
X203094187Y-87864364D01*
X202999765Y-87744014D01*
X202942568Y-87637581D01*
X202913740Y-87531147D01*
X202904423Y-87410797D01*
X202904104Y-87376000D01*
X202935394Y-87126723D01*
X203029426Y-86934260D01*
X203186006Y-86798786D01*
X203404944Y-86720476D01*
X203644500Y-86698983D01*
X203894020Y-86719462D01*
G37*
X203894020Y-86719462D02*
X204083582Y-86785695D01*
X204228601Y-86904873D01*
X204300896Y-87005196D01*
X204372614Y-87145983D01*
X204381102Y-87235775D01*
X204324798Y-87281596D01*
X204237167Y-87291333D01*
X204139240Y-87280219D01*
X204090283Y-87252890D01*
X204089000Y-87247076D01*
X204061466Y-87189611D01*
X203994257Y-87108247D01*
X203985091Y-87098909D01*
X203885577Y-87026312D01*
X203759350Y-86997363D01*
X203688758Y-86995000D01*
X203496334Y-86995000D01*
X203496334Y-87476004D01*
X203853858Y-87817585D01*
X204058064Y-88019489D01*
X204204240Y-88183313D01*
X204301128Y-88323035D01*
X204357469Y-88452634D01*
X204382005Y-88586090D01*
X204385109Y-88667167D01*
X204350042Y-88916486D01*
X204247613Y-89122785D01*
X204093323Y-89269573D01*
X203935108Y-89336004D01*
X203731683Y-89368277D01*
X203515498Y-89365963D01*
X203319001Y-89328634D01*
X203210197Y-89281229D01*
X203089583Y-89181819D01*
X202985363Y-89051710D01*
X202918058Y-88919981D01*
X202903825Y-88847083D01*
X202925576Y-88794862D01*
X203003779Y-88774414D01*
X203051834Y-88773000D01*
X203149760Y-88784114D01*
X203198718Y-88811443D01*
X203200000Y-88817257D01*
X203227534Y-88874722D01*
X203294744Y-88956086D01*
X203303909Y-88965424D01*
X203403424Y-89038021D01*
X203529651Y-89066970D01*
X203600243Y-89069333D01*
X203792667Y-89069333D01*
X203792667Y-88548267D01*
X203430137Y-88202472D01*
X203234692Y-88012544D01*
X203094187Y-87864364D01*
X202999765Y-87744014D01*
X202942568Y-87637581D01*
X202913740Y-87531147D01*
X202904423Y-87410797D01*
X202904104Y-87376000D01*
X202935394Y-87126723D01*
X203029426Y-86934260D01*
X203186006Y-86798786D01*
X203404944Y-86720476D01*
X203644500Y-86698983D01*
X203894020Y-86719462D01*
G36*
X205867000Y-89365667D02*
G01*
X205274334Y-89365667D01*
X205274334Y-86698667D01*
X205867000Y-86698667D01*
X205867000Y-89365667D01*
G37*
X205867000Y-89365667D02*
X205274334Y-89365667D01*
X205274334Y-86698667D01*
X205867000Y-86698667D01*
X205867000Y-89365667D01*
G36*
X192946210Y-83687516D02*
G01*
X192934167Y-85293914D01*
X192803837Y-85454888D01*
X192631515Y-85627095D01*
X192434777Y-85738421D01*
X192195593Y-85796473D01*
X191962812Y-85809667D01*
X191760308Y-85803757D01*
X191611502Y-85782392D01*
X191486019Y-85740120D01*
X191432174Y-85714417D01*
X191244809Y-85586406D01*
X191093423Y-85421148D01*
X190998133Y-85242324D01*
X190982566Y-85185078D01*
X190955084Y-85047667D01*
X191172042Y-85047667D01*
X191302046Y-85052444D01*
X191367553Y-85071492D01*
X191388425Y-85111888D01*
X191389000Y-85124954D01*
X191418234Y-85205326D01*
X191489301Y-85296310D01*
X191496201Y-85302951D01*
X191582289Y-85364535D01*
X191694844Y-85400689D01*
X191861791Y-85420080D01*
X191876705Y-85421064D01*
X192150009Y-85438467D01*
X192161088Y-83771983D01*
X192172167Y-82105500D01*
X192565210Y-82093309D01*
X192958254Y-82081117D01*
X192946210Y-83687516D01*
G37*
X192946210Y-83687516D02*
X192934167Y-85293914D01*
X192803837Y-85454888D01*
X192631515Y-85627095D01*
X192434777Y-85738421D01*
X192195593Y-85796473D01*
X191962812Y-85809667D01*
X191760308Y-85803757D01*
X191611502Y-85782392D01*
X191486019Y-85740120D01*
X191432174Y-85714417D01*
X191244809Y-85586406D01*
X191093423Y-85421148D01*
X190998133Y-85242324D01*
X190982566Y-85185078D01*
X190955084Y-85047667D01*
X191172042Y-85047667D01*
X191302046Y-85052444D01*
X191367553Y-85071492D01*
X191388425Y-85111888D01*
X191389000Y-85124954D01*
X191418234Y-85205326D01*
X191489301Y-85296310D01*
X191496201Y-85302951D01*
X191582289Y-85364535D01*
X191694844Y-85400689D01*
X191861791Y-85420080D01*
X191876705Y-85421064D01*
X192150009Y-85438467D01*
X192161088Y-83771983D01*
X192172167Y-82105500D01*
X192565210Y-82093309D01*
X192958254Y-82081117D01*
X192946210Y-83687516D01*
G36*
X211107210Y-83687516D02*
G01*
X211095167Y-85293914D01*
X210964837Y-85454888D01*
X210792515Y-85627095D01*
X210595777Y-85738421D01*
X210356593Y-85796473D01*
X210123812Y-85809667D01*
X209921308Y-85803757D01*
X209772502Y-85782392D01*
X209647019Y-85740120D01*
X209593174Y-85714417D01*
X209405809Y-85586406D01*
X209254423Y-85421148D01*
X209159133Y-85242324D01*
X209143566Y-85185078D01*
X209116084Y-85047667D01*
X209333042Y-85047667D01*
X209463046Y-85052444D01*
X209528553Y-85071492D01*
X209549425Y-85111888D01*
X209550000Y-85124954D01*
X209579234Y-85205326D01*
X209650301Y-85296310D01*
X209657201Y-85302951D01*
X209743289Y-85364535D01*
X209855844Y-85400689D01*
X210022791Y-85420080D01*
X210037705Y-85421064D01*
X210311009Y-85438467D01*
X210322088Y-83771983D01*
X210333167Y-82105500D01*
X210726210Y-82093309D01*
X211119254Y-82081117D01*
X211107210Y-83687516D01*
G37*
X211107210Y-83687516D02*
X211095167Y-85293914D01*
X210964837Y-85454888D01*
X210792515Y-85627095D01*
X210595777Y-85738421D01*
X210356593Y-85796473D01*
X210123812Y-85809667D01*
X209921308Y-85803757D01*
X209772502Y-85782392D01*
X209647019Y-85740120D01*
X209593174Y-85714417D01*
X209405809Y-85586406D01*
X209254423Y-85421148D01*
X209159133Y-85242324D01*
X209143566Y-85185078D01*
X209116084Y-85047667D01*
X209333042Y-85047667D01*
X209463046Y-85052444D01*
X209528553Y-85071492D01*
X209549425Y-85111888D01*
X209550000Y-85124954D01*
X209579234Y-85205326D01*
X209650301Y-85296310D01*
X209657201Y-85302951D01*
X209743289Y-85364535D01*
X209855844Y-85400689D01*
X210022791Y-85420080D01*
X210037705Y-85421064D01*
X210311009Y-85438467D01*
X210322088Y-83771983D01*
X210333167Y-82105500D01*
X210726210Y-82093309D01*
X211119254Y-82081117D01*
X211107210Y-83687516D01*
G36*
X182668334Y-84878333D02*
G01*
X180902148Y-84878333D01*
X180738182Y-84767063D01*
X180597820Y-84662764D01*
X180501276Y-84560643D01*
X180419648Y-84426892D01*
X180380941Y-84349167D01*
X180349122Y-84271782D01*
X180326606Y-84182975D01*
X180311843Y-84066981D01*
X180303282Y-83908033D01*
X180299374Y-83690365D01*
X180298597Y-83511723D01*
X180301184Y-83210252D01*
X180312093Y-82978439D01*
X180334621Y-82801425D01*
X180372064Y-82664351D01*
X180427719Y-82552356D01*
X180461601Y-82507667D01*
X181102000Y-82507667D01*
X181102000Y-84455000D01*
X181906334Y-84455000D01*
X181906334Y-82507667D01*
X181102000Y-82507667D01*
X180461601Y-82507667D01*
X180504881Y-82450583D01*
X180543329Y-82408539D01*
X180670755Y-82290977D01*
X180804112Y-82210108D01*
X180962777Y-82159832D01*
X181166127Y-82134051D01*
X181433541Y-82126668D01*
X181438980Y-82126667D01*
X181906334Y-82126667D01*
X181906334Y-81322333D01*
X182668334Y-81322333D01*
X182668334Y-84878333D01*
G37*
X182668334Y-84878333D02*
X180902148Y-84878333D01*
X180738182Y-84767063D01*
X180597820Y-84662764D01*
X180501276Y-84560643D01*
X180419648Y-84426892D01*
X180380941Y-84349167D01*
X180349122Y-84271782D01*
X180326606Y-84182975D01*
X180311843Y-84066981D01*
X180303282Y-83908033D01*
X180299374Y-83690365D01*
X180298597Y-83511723D01*
X180301184Y-83210252D01*
X180312093Y-82978439D01*
X180334621Y-82801425D01*
X180372064Y-82664351D01*
X180427719Y-82552356D01*
X180461601Y-82507667D01*
X181102000Y-82507667D01*
X181102000Y-84455000D01*
X181906334Y-84455000D01*
X181906334Y-82507667D01*
X181102000Y-82507667D01*
X180461601Y-82507667D01*
X180504881Y-82450583D01*
X180543329Y-82408539D01*
X180670755Y-82290977D01*
X180804112Y-82210108D01*
X180962777Y-82159832D01*
X181166127Y-82134051D01*
X181433541Y-82126668D01*
X181438980Y-82126667D01*
X181906334Y-82126667D01*
X181906334Y-81322333D01*
X182668334Y-81322333D01*
X182668334Y-84878333D01*
G36*
X185007390Y-82131293D02*
G01*
X185166301Y-82135529D01*
X185264431Y-82143059D01*
X185278077Y-82145618D01*
X185391681Y-82201338D01*
X185525629Y-82305129D01*
X185654943Y-82433542D01*
X185754649Y-82563132D01*
X185786305Y-82622723D01*
X185816336Y-82746345D01*
X185835703Y-82942060D01*
X185843270Y-83197833D01*
X185843334Y-83225973D01*
X185843334Y-83693000D01*
X184277000Y-83693000D01*
X184277000Y-84455000D01*
X184736958Y-84455000D01*
X184993344Y-84447921D01*
X185178575Y-84423395D01*
X185305233Y-84376492D01*
X185385899Y-84302278D01*
X185433157Y-84195821D01*
X185437216Y-84180503D01*
X185464417Y-84113827D01*
X185518943Y-84082665D01*
X185626984Y-84074128D01*
X185653640Y-84074000D01*
X185772175Y-84079466D01*
X185828126Y-84102460D01*
X185843232Y-84152879D01*
X185843334Y-84160353D01*
X185816996Y-84278587D01*
X185749544Y-84425271D01*
X185658319Y-84567604D01*
X185582292Y-84654063D01*
X185467464Y-84744530D01*
X185337559Y-84808050D01*
X185175891Y-84848602D01*
X184965772Y-84870165D01*
X184690512Y-84876720D01*
X184648777Y-84876676D01*
X184367012Y-84870169D01*
X184155403Y-84853032D01*
X184020265Y-84825831D01*
X184001834Y-84818734D01*
X183803394Y-84690822D01*
X183632988Y-84504951D01*
X183572012Y-84407900D01*
X183543453Y-84345672D01*
X183522694Y-84270335D01*
X183508546Y-84168108D01*
X183499818Y-84025210D01*
X183495321Y-83827861D01*
X183493865Y-83562281D01*
X183493834Y-83502500D01*
X183496253Y-83186671D01*
X183505994Y-82941805D01*
X183526781Y-82754272D01*
X183562337Y-82610446D01*
X183611173Y-82507667D01*
X184277000Y-82507667D01*
X184277000Y-83312000D01*
X185039000Y-83312000D01*
X185039000Y-82507667D01*
X184277000Y-82507667D01*
X183611173Y-82507667D01*
X183616386Y-82496698D01*
X183692651Y-82399401D01*
X183794857Y-82304925D01*
X183828671Y-82277089D01*
X183894131Y-82225975D01*
X183953925Y-82190147D01*
X184024642Y-82166453D01*
X184122869Y-82151743D01*
X184265193Y-82142867D01*
X184468201Y-82136675D01*
X184582285Y-82133960D01*
X184806463Y-82130665D01*
X185007390Y-82131293D01*
G37*
X185007390Y-82131293D02*
X185166301Y-82135529D01*
X185264431Y-82143059D01*
X185278077Y-82145618D01*
X185391681Y-82201338D01*
X185525629Y-82305129D01*
X185654943Y-82433542D01*
X185754649Y-82563132D01*
X185786305Y-82622723D01*
X185816336Y-82746345D01*
X185835703Y-82942060D01*
X185843270Y-83197833D01*
X185843334Y-83225973D01*
X185843334Y-83693000D01*
X184277000Y-83693000D01*
X184277000Y-84455000D01*
X184736958Y-84455000D01*
X184993344Y-84447921D01*
X185178575Y-84423395D01*
X185305233Y-84376492D01*
X185385899Y-84302278D01*
X185433157Y-84195821D01*
X185437216Y-84180503D01*
X185464417Y-84113827D01*
X185518943Y-84082665D01*
X185626984Y-84074128D01*
X185653640Y-84074000D01*
X185772175Y-84079466D01*
X185828126Y-84102460D01*
X185843232Y-84152879D01*
X185843334Y-84160353D01*
X185816996Y-84278587D01*
X185749544Y-84425271D01*
X185658319Y-84567604D01*
X185582292Y-84654063D01*
X185467464Y-84744530D01*
X185337559Y-84808050D01*
X185175891Y-84848602D01*
X184965772Y-84870165D01*
X184690512Y-84876720D01*
X184648777Y-84876676D01*
X184367012Y-84870169D01*
X184155403Y-84853032D01*
X184020265Y-84825831D01*
X184001834Y-84818734D01*
X183803394Y-84690822D01*
X183632988Y-84504951D01*
X183572012Y-84407900D01*
X183543453Y-84345672D01*
X183522694Y-84270335D01*
X183508546Y-84168108D01*
X183499818Y-84025210D01*
X183495321Y-83827861D01*
X183493865Y-83562281D01*
X183493834Y-83502500D01*
X183496253Y-83186671D01*
X183505994Y-82941805D01*
X183526781Y-82754272D01*
X183562337Y-82610446D01*
X183611173Y-82507667D01*
X184277000Y-82507667D01*
X184277000Y-83312000D01*
X185039000Y-83312000D01*
X185039000Y-82507667D01*
X184277000Y-82507667D01*
X183611173Y-82507667D01*
X183616386Y-82496698D01*
X183692651Y-82399401D01*
X183794857Y-82304925D01*
X183828671Y-82277089D01*
X183894131Y-82225975D01*
X183953925Y-82190147D01*
X184024642Y-82166453D01*
X184122869Y-82151743D01*
X184265193Y-82142867D01*
X184468201Y-82136675D01*
X184582285Y-82133960D01*
X184806463Y-82130665D01*
X185007390Y-82131293D01*
G36*
X187409667Y-82119938D02*
G01*
X187956226Y-82133886D01*
X188181094Y-82140335D01*
X188338989Y-82148571D01*
X188447587Y-82162156D01*
X188524561Y-82184651D01*
X188587588Y-82219620D01*
X188654341Y-82270625D01*
X188660853Y-82275894D01*
X188751054Y-82351601D01*
X188822170Y-82423129D01*
X188876467Y-82501352D01*
X188916213Y-82597140D01*
X188943673Y-82721366D01*
X188961114Y-82884903D01*
X188970803Y-83098623D01*
X188975006Y-83373398D01*
X188975990Y-83720101D01*
X188976000Y-83787589D01*
X188976000Y-84878333D01*
X188214000Y-84878333D01*
X188214000Y-82507667D01*
X187409667Y-82507667D01*
X187409667Y-84878333D01*
X186605334Y-84878333D01*
X186605334Y-81322333D01*
X187409667Y-81322333D01*
X187409667Y-82119938D01*
G37*
X187409667Y-82119938D02*
X187956226Y-82133886D01*
X188181094Y-82140335D01*
X188338989Y-82148571D01*
X188447587Y-82162156D01*
X188524561Y-82184651D01*
X188587588Y-82219620D01*
X188654341Y-82270625D01*
X188660853Y-82275894D01*
X188751054Y-82351601D01*
X188822170Y-82423129D01*
X188876467Y-82501352D01*
X188916213Y-82597140D01*
X188943673Y-82721366D01*
X188961114Y-82884903D01*
X188970803Y-83098623D01*
X188975006Y-83373398D01*
X188975990Y-83720101D01*
X188976000Y-83787589D01*
X188976000Y-84878333D01*
X188214000Y-84878333D01*
X188214000Y-82507667D01*
X187409667Y-82507667D01*
X187409667Y-84878333D01*
X186605334Y-84878333D01*
X186605334Y-81322333D01*
X187409667Y-81322333D01*
X187409667Y-82119938D01*
G36*
X190584667Y-84878333D02*
G01*
X189780334Y-84878333D01*
X189780334Y-82126667D01*
X190584667Y-82126667D01*
X190584667Y-84878333D01*
G37*
X190584667Y-84878333D02*
X189780334Y-84878333D01*
X189780334Y-82126667D01*
X190584667Y-82126667D01*
X190584667Y-84878333D01*
G36*
X194521667Y-84878333D02*
G01*
X193717334Y-84878333D01*
X193717334Y-84074000D01*
X194521667Y-84074000D01*
X194521667Y-84878333D01*
G37*
X194521667Y-84878333D02*
X193717334Y-84878333D01*
X193717334Y-84074000D01*
X194521667Y-84074000D01*
X194521667Y-84878333D01*
G36*
X196088000Y-82119938D02*
G01*
X196634559Y-82133886D01*
X196859427Y-82140335D01*
X197017323Y-82148571D01*
X197125920Y-82162156D01*
X197202895Y-82184651D01*
X197265921Y-82219620D01*
X197332675Y-82270625D01*
X197339186Y-82275894D01*
X197429387Y-82351601D01*
X197500503Y-82423129D01*
X197554801Y-82501352D01*
X197594546Y-82597140D01*
X197622006Y-82721366D01*
X197639447Y-82884903D01*
X197649136Y-83098623D01*
X197653339Y-83373398D01*
X197654323Y-83720101D01*
X197654334Y-83787589D01*
X197654334Y-84878333D01*
X196892334Y-84878333D01*
X196892334Y-82507667D01*
X196088000Y-82507667D01*
X196088000Y-84878333D01*
X195283667Y-84878333D01*
X195283667Y-81322333D01*
X196088000Y-81322333D01*
X196088000Y-82119938D01*
G37*
X196088000Y-82119938D02*
X196634559Y-82133886D01*
X196859427Y-82140335D01*
X197017323Y-82148571D01*
X197125920Y-82162156D01*
X197202895Y-82184651D01*
X197265921Y-82219620D01*
X197332675Y-82270625D01*
X197339186Y-82275894D01*
X197429387Y-82351601D01*
X197500503Y-82423129D01*
X197554801Y-82501352D01*
X197594546Y-82597140D01*
X197622006Y-82721366D01*
X197639447Y-82884903D01*
X197649136Y-83098623D01*
X197653339Y-83373398D01*
X197654323Y-83720101D01*
X197654334Y-83787589D01*
X197654334Y-84878333D01*
X196892334Y-84878333D01*
X196892334Y-82507667D01*
X196088000Y-82507667D01*
X196088000Y-84878333D01*
X195283667Y-84878333D01*
X195283667Y-81322333D01*
X196088000Y-81322333D01*
X196088000Y-82119938D01*
G36*
X199263000Y-84878333D02*
G01*
X198458667Y-84878333D01*
X198458667Y-82126667D01*
X199263000Y-82126667D01*
X199263000Y-84878333D01*
G37*
X199263000Y-84878333D02*
X198458667Y-84878333D01*
X198458667Y-82126667D01*
X199263000Y-82126667D01*
X199263000Y-84878333D01*
G36*
X202395667Y-84878333D02*
G01*
X200629482Y-84878333D01*
X200465515Y-84767063D01*
X200325154Y-84662764D01*
X200228609Y-84560643D01*
X200146981Y-84426892D01*
X200108274Y-84349167D01*
X200076455Y-84271782D01*
X200053939Y-84182975D01*
X200039176Y-84066981D01*
X200030616Y-83908033D01*
X200026707Y-83690365D01*
X200025930Y-83511723D01*
X200028517Y-83210252D01*
X200039427Y-82978439D01*
X200061955Y-82801425D01*
X200099398Y-82664351D01*
X200155052Y-82552356D01*
X200188934Y-82507667D01*
X200829334Y-82507667D01*
X200829334Y-84455000D01*
X201633667Y-84455000D01*
X201633667Y-82507667D01*
X200829334Y-82507667D01*
X200188934Y-82507667D01*
X200232214Y-82450583D01*
X200270663Y-82408539D01*
X200398089Y-82290977D01*
X200531445Y-82210108D01*
X200690110Y-82159832D01*
X200893461Y-82134051D01*
X201160874Y-82126668D01*
X201166314Y-82126667D01*
X201633667Y-82126667D01*
X201633667Y-81322333D01*
X202395667Y-81322333D01*
X202395667Y-84878333D01*
G37*
X202395667Y-84878333D02*
X200629482Y-84878333D01*
X200465515Y-84767063D01*
X200325154Y-84662764D01*
X200228609Y-84560643D01*
X200146981Y-84426892D01*
X200108274Y-84349167D01*
X200076455Y-84271782D01*
X200053939Y-84182975D01*
X200039176Y-84066981D01*
X200030616Y-83908033D01*
X200026707Y-83690365D01*
X200025930Y-83511723D01*
X200028517Y-83210252D01*
X200039427Y-82978439D01*
X200061955Y-82801425D01*
X200099398Y-82664351D01*
X200155052Y-82552356D01*
X200188934Y-82507667D01*
X200829334Y-82507667D01*
X200829334Y-84455000D01*
X201633667Y-84455000D01*
X201633667Y-82507667D01*
X200829334Y-82507667D01*
X200188934Y-82507667D01*
X200232214Y-82450583D01*
X200270663Y-82408539D01*
X200398089Y-82290977D01*
X200531445Y-82210108D01*
X200690110Y-82159832D01*
X200893461Y-82134051D01*
X201160874Y-82126668D01*
X201166314Y-82126667D01*
X201633667Y-82126667D01*
X201633667Y-81322333D01*
X202395667Y-81322333D01*
X202395667Y-84878333D01*
G36*
X205570667Y-84878333D02*
G01*
X203804482Y-84878333D01*
X203640515Y-84767063D01*
X203500154Y-84662764D01*
X203403609Y-84560643D01*
X203321981Y-84426892D01*
X203283274Y-84349167D01*
X203251455Y-84271782D01*
X203228939Y-84182975D01*
X203214176Y-84066981D01*
X203205616Y-83908033D01*
X203201707Y-83690365D01*
X203200930Y-83511723D01*
X203203517Y-83210252D01*
X203214427Y-82978439D01*
X203236955Y-82801425D01*
X203274398Y-82664351D01*
X203330052Y-82552356D01*
X203363934Y-82507667D01*
X204004334Y-82507667D01*
X204004334Y-84455000D01*
X204808667Y-84455000D01*
X204808667Y-82507667D01*
X204004334Y-82507667D01*
X203363934Y-82507667D01*
X203407214Y-82450583D01*
X203445663Y-82408539D01*
X203573089Y-82290977D01*
X203706445Y-82210108D01*
X203865110Y-82159832D01*
X204068461Y-82134051D01*
X204335874Y-82126668D01*
X204341314Y-82126667D01*
X204808667Y-82126667D01*
X204808667Y-81322333D01*
X205570667Y-81322333D01*
X205570667Y-84878333D01*
G37*
X205570667Y-84878333D02*
X203804482Y-84878333D01*
X203640515Y-84767063D01*
X203500154Y-84662764D01*
X203403609Y-84560643D01*
X203321981Y-84426892D01*
X203283274Y-84349167D01*
X203251455Y-84271782D01*
X203228939Y-84182975D01*
X203214176Y-84066981D01*
X203205616Y-83908033D01*
X203201707Y-83690365D01*
X203200930Y-83511723D01*
X203203517Y-83210252D01*
X203214427Y-82978439D01*
X203236955Y-82801425D01*
X203274398Y-82664351D01*
X203330052Y-82552356D01*
X203363934Y-82507667D01*
X204004334Y-82507667D01*
X204004334Y-84455000D01*
X204808667Y-84455000D01*
X204808667Y-82507667D01*
X204004334Y-82507667D01*
X203363934Y-82507667D01*
X203407214Y-82450583D01*
X203445663Y-82408539D01*
X203573089Y-82290977D01*
X203706445Y-82210108D01*
X203865110Y-82159832D01*
X204068461Y-82134051D01*
X204335874Y-82126668D01*
X204341314Y-82126667D01*
X204808667Y-82126667D01*
X204808667Y-81322333D01*
X205570667Y-81322333D01*
X205570667Y-84878333D01*
G36*
X207909723Y-82131293D02*
G01*
X208068634Y-82135529D01*
X208166764Y-82143059D01*
X208180411Y-82145618D01*
X208294015Y-82201338D01*
X208427962Y-82305129D01*
X208557277Y-82433542D01*
X208656983Y-82563132D01*
X208688638Y-82622723D01*
X208718669Y-82746345D01*
X208738036Y-82942060D01*
X208745603Y-83197833D01*
X208745667Y-83225973D01*
X208745667Y-83693000D01*
X207179334Y-83693000D01*
X207179334Y-84455000D01*
X207639291Y-84455000D01*
X207895677Y-84447921D01*
X208080908Y-84423395D01*
X208207566Y-84376492D01*
X208288233Y-84302278D01*
X208335490Y-84195821D01*
X208339549Y-84180503D01*
X208366751Y-84113827D01*
X208421277Y-84082665D01*
X208529317Y-84074128D01*
X208555973Y-84074000D01*
X208674508Y-84079466D01*
X208730459Y-84102460D01*
X208745565Y-84152879D01*
X208745667Y-84160353D01*
X208719329Y-84278587D01*
X208651877Y-84425271D01*
X208560653Y-84567604D01*
X208484626Y-84654063D01*
X208369797Y-84744530D01*
X208239893Y-84808050D01*
X208078225Y-84848602D01*
X207868105Y-84870165D01*
X207592846Y-84876720D01*
X207551110Y-84876676D01*
X207269345Y-84870169D01*
X207057736Y-84853032D01*
X206922599Y-84825831D01*
X206904167Y-84818734D01*
X206705728Y-84690822D01*
X206535321Y-84504951D01*
X206474345Y-84407900D01*
X206445786Y-84345672D01*
X206425027Y-84270335D01*
X206410879Y-84168108D01*
X206402151Y-84025210D01*
X206397654Y-83827861D01*
X206396198Y-83562281D01*
X206396167Y-83502500D01*
X206398586Y-83186671D01*
X206408328Y-82941805D01*
X206429114Y-82754272D01*
X206464670Y-82610446D01*
X206513506Y-82507667D01*
X207179334Y-82507667D01*
X207179334Y-83312000D01*
X207941334Y-83312000D01*
X207941334Y-82507667D01*
X207179334Y-82507667D01*
X206513506Y-82507667D01*
X206518719Y-82496698D01*
X206594984Y-82399401D01*
X206697191Y-82304925D01*
X206731005Y-82277089D01*
X206796464Y-82225975D01*
X206856259Y-82190147D01*
X206926976Y-82166453D01*
X207025202Y-82151743D01*
X207167526Y-82142867D01*
X207370534Y-82136675D01*
X207484618Y-82133960D01*
X207708796Y-82130665D01*
X207909723Y-82131293D01*
G37*
X207909723Y-82131293D02*
X208068634Y-82135529D01*
X208166764Y-82143059D01*
X208180411Y-82145618D01*
X208294015Y-82201338D01*
X208427962Y-82305129D01*
X208557277Y-82433542D01*
X208656983Y-82563132D01*
X208688638Y-82622723D01*
X208718669Y-82746345D01*
X208738036Y-82942060D01*
X208745603Y-83197833D01*
X208745667Y-83225973D01*
X208745667Y-83693000D01*
X207179334Y-83693000D01*
X207179334Y-84455000D01*
X207639291Y-84455000D01*
X207895677Y-84447921D01*
X208080908Y-84423395D01*
X208207566Y-84376492D01*
X208288233Y-84302278D01*
X208335490Y-84195821D01*
X208339549Y-84180503D01*
X208366751Y-84113827D01*
X208421277Y-84082665D01*
X208529317Y-84074128D01*
X208555973Y-84074000D01*
X208674508Y-84079466D01*
X208730459Y-84102460D01*
X208745565Y-84152879D01*
X208745667Y-84160353D01*
X208719329Y-84278587D01*
X208651877Y-84425271D01*
X208560653Y-84567604D01*
X208484626Y-84654063D01*
X208369797Y-84744530D01*
X208239893Y-84808050D01*
X208078225Y-84848602D01*
X207868105Y-84870165D01*
X207592846Y-84876720D01*
X207551110Y-84876676D01*
X207269345Y-84870169D01*
X207057736Y-84853032D01*
X206922599Y-84825831D01*
X206904167Y-84818734D01*
X206705728Y-84690822D01*
X206535321Y-84504951D01*
X206474345Y-84407900D01*
X206445786Y-84345672D01*
X206425027Y-84270335D01*
X206410879Y-84168108D01*
X206402151Y-84025210D01*
X206397654Y-83827861D01*
X206396198Y-83562281D01*
X206396167Y-83502500D01*
X206398586Y-83186671D01*
X206408328Y-82941805D01*
X206429114Y-82754272D01*
X206464670Y-82610446D01*
X206513506Y-82507667D01*
X207179334Y-82507667D01*
X207179334Y-83312000D01*
X207941334Y-83312000D01*
X207941334Y-82507667D01*
X207179334Y-82507667D01*
X206513506Y-82507667D01*
X206518719Y-82496698D01*
X206594984Y-82399401D01*
X206697191Y-82304925D01*
X206731005Y-82277089D01*
X206796464Y-82225975D01*
X206856259Y-82190147D01*
X206926976Y-82166453D01*
X207025202Y-82151743D01*
X207167526Y-82142867D01*
X207370534Y-82136675D01*
X207484618Y-82133960D01*
X207708796Y-82130665D01*
X207909723Y-82131293D01*
G36*
X212682667Y-84878333D02*
G01*
X211878334Y-84878333D01*
X211878334Y-84074000D01*
X212682667Y-84074000D01*
X212682667Y-84878333D01*
G37*
X212682667Y-84878333D02*
X211878334Y-84878333D01*
X211878334Y-84074000D01*
X212682667Y-84074000D01*
X212682667Y-84878333D01*
G36*
X214372182Y-82134958D02*
G01*
X215299697Y-82147833D01*
X215459526Y-82277284D01*
X215556033Y-82355657D01*
X215631957Y-82423739D01*
X215689883Y-82492571D01*
X215732397Y-82573190D01*
X215762085Y-82676636D01*
X215781533Y-82813948D01*
X215793326Y-82996164D01*
X215800051Y-83234323D01*
X215804293Y-83539465D01*
X215806724Y-83759506D01*
X215819281Y-84878333D01*
X215053334Y-84878333D01*
X215053334Y-82507667D01*
X214249000Y-82507667D01*
X214249000Y-84878333D01*
X213444667Y-84878333D01*
X213444667Y-82122084D01*
X214372182Y-82134958D01*
G37*
X214372182Y-82134958D02*
X215299697Y-82147833D01*
X215459526Y-82277284D01*
X215556033Y-82355657D01*
X215631957Y-82423739D01*
X215689883Y-82492571D01*
X215732397Y-82573190D01*
X215762085Y-82676636D01*
X215781533Y-82813948D01*
X215793326Y-82996164D01*
X215800051Y-83234323D01*
X215804293Y-83539465D01*
X215806724Y-83759506D01*
X215819281Y-84878333D01*
X215053334Y-84878333D01*
X215053334Y-82507667D01*
X214249000Y-82507667D01*
X214249000Y-84878333D01*
X213444667Y-84878333D01*
X213444667Y-82122084D01*
X214372182Y-82134958D01*
G36*
X217424000Y-84878333D02*
G01*
X216619667Y-84878333D01*
X216619667Y-81322333D01*
X217424000Y-81322333D01*
X217424000Y-84878333D01*
G37*
X217424000Y-84878333D02*
X216619667Y-84878333D01*
X216619667Y-81322333D01*
X217424000Y-81322333D01*
X217424000Y-84878333D01*
G36*
X190584667Y-81703333D02*
G01*
X189780334Y-81703333D01*
X189780334Y-81322333D01*
X190584667Y-81322333D01*
X190584667Y-81703333D01*
G37*
X190584667Y-81703333D02*
X189780334Y-81703333D01*
X189780334Y-81322333D01*
X190584667Y-81322333D01*
X190584667Y-81703333D01*
G36*
X192955334Y-81703333D02*
G01*
X192151000Y-81703333D01*
X192151000Y-81322333D01*
X192955334Y-81322333D01*
X192955334Y-81703333D01*
G37*
X192955334Y-81703333D02*
X192151000Y-81703333D01*
X192151000Y-81322333D01*
X192955334Y-81322333D01*
X192955334Y-81703333D01*
G36*
X199263000Y-81703333D02*
G01*
X198458667Y-81703333D01*
X198458667Y-81322333D01*
X199263000Y-81322333D01*
X199263000Y-81703333D01*
G37*
X199263000Y-81703333D02*
X198458667Y-81703333D01*
X198458667Y-81322333D01*
X199263000Y-81322333D01*
X199263000Y-81703333D01*
G36*
X211116334Y-81703333D02*
G01*
X210312000Y-81703333D01*
X210312000Y-81322333D01*
X211116334Y-81322333D01*
X211116334Y-81703333D01*
G37*
X211116334Y-81703333D02*
X210312000Y-81703333D01*
X210312000Y-81322333D01*
X211116334Y-81322333D01*
X211116334Y-81703333D01*
D12*
%TO.C,U1*%
X233730000Y-119450000D02*
X180330000Y-119450000D01*
X180330000Y-119450000D02*
X180330000Y-96450000D01*
X180330000Y-96450000D02*
X233730000Y-96450000D01*
X233730000Y-96450000D02*
X233730000Y-119450000D01*
D13*
%TO.C,RN4*%
X175390000Y-83650000D02*
X172590000Y-83650000D01*
X172590000Y-83650000D02*
X172590000Y-109390000D01*
X172590000Y-109390000D02*
X175390000Y-109390000D01*
X175390000Y-109390000D02*
X175390000Y-83650000D01*
X175390000Y-86360000D02*
X172590000Y-86360000D01*
%TO.C,RN3*%
X171580000Y-83650000D02*
X168780000Y-83650000D01*
X168780000Y-83650000D02*
X168780000Y-109390000D01*
X168780000Y-109390000D02*
X171580000Y-109390000D01*
X171580000Y-109390000D02*
X171580000Y-83650000D01*
X171580000Y-86360000D02*
X168780000Y-86360000D01*
%TO.C,RN2*%
X167770000Y-86360000D02*
X164970000Y-86360000D01*
X167770000Y-109390000D02*
X167770000Y-83650000D01*
X164970000Y-109390000D02*
X167770000Y-109390000D01*
X164970000Y-83650000D02*
X164970000Y-109390000D01*
X167770000Y-83650000D02*
X164970000Y-83650000D01*
%TO.C,RN1*%
X163960000Y-83650000D02*
X161160000Y-83650000D01*
X161160000Y-83650000D02*
X161160000Y-109390000D01*
X161160000Y-109390000D02*
X163960000Y-109390000D01*
X163960000Y-109390000D02*
X163960000Y-83650000D01*
X163960000Y-86360000D02*
X161160000Y-86360000D01*
%TO.C,JP2*%
X163890000Y-120650000D02*
X161230000Y-120650000D01*
X163890000Y-120650000D02*
X163890000Y-118050000D01*
X163890000Y-118050000D02*
X161230000Y-118050000D01*
X161230000Y-120650000D02*
X161230000Y-118050000D01*
X161230000Y-123250000D02*
X161230000Y-121920000D01*
X162560000Y-123250000D02*
X161230000Y-123250000D01*
%TO.C,JP1*%
X167700000Y-120650000D02*
X165040000Y-120650000D01*
X167700000Y-120650000D02*
X167700000Y-118050000D01*
X167700000Y-118050000D02*
X165040000Y-118050000D01*
X165040000Y-120650000D02*
X165040000Y-118050000D01*
X165040000Y-123250000D02*
X165040000Y-121920000D01*
X166370000Y-123250000D02*
X165040000Y-123250000D01*
%TO.C,J5*%
X146260000Y-124150000D02*
X150380000Y-124150000D01*
X146260000Y-86090000D02*
X146260000Y-124150000D01*
X150380000Y-84030000D02*
X150380000Y-124150000D01*
X146260000Y-86090000D02*
X148320000Y-86090000D01*
X148320000Y-86090000D02*
X148320000Y-84030000D01*
X148320000Y-84030000D02*
X150380000Y-84030000D01*
X146260000Y-85090000D02*
X146260000Y-84030000D01*
X146260000Y-84030000D02*
X147320000Y-84030000D01*
%TO.C,J3*%
X189170000Y-125790000D02*
X189170000Y-124460000D01*
X190500000Y-125790000D02*
X189170000Y-125790000D01*
X191770000Y-125790000D02*
X191770000Y-123130000D01*
X191770000Y-123130000D02*
X199450000Y-123130000D01*
X191770000Y-125790000D02*
X199450000Y-125790000D01*
X199450000Y-125790000D02*
X199450000Y-123130000D01*
%TO.C,MicroSD*%
X223800000Y-83180000D02*
X223800000Y-87630000D01*
X223800000Y-89030000D02*
X223800000Y-91330000D01*
X223800000Y-92730000D02*
X223800000Y-93450000D01*
X223800000Y-93450000D02*
X226480000Y-93450000D01*
X228780000Y-93450000D02*
X232450000Y-93450000D01*
X234750000Y-93450000D02*
X235980000Y-93450000D01*
X235980000Y-93450000D02*
X235980000Y-83630000D01*
X225280000Y-81810000D02*
X226140000Y-81810000D01*
%TO.C,U1*%
D14*
X181046966Y-108170133D02*
X181766633Y-108170133D01*
X181851300Y-108127800D01*
X181893633Y-108085466D01*
X181935966Y-108000800D01*
X181935966Y-107831466D01*
X181893633Y-107746800D01*
X181851300Y-107704466D01*
X181766633Y-107662133D01*
X181046966Y-107662133D01*
X181935966Y-106773133D02*
X181935966Y-107281133D01*
X181935966Y-107027133D02*
X181046966Y-107027133D01*
X181173966Y-107111800D01*
X181258633Y-107196466D01*
X181300966Y-107281133D01*
D12*
D14*
X200715033Y-108242100D02*
X200842033Y-108284433D01*
X200884366Y-108326766D01*
X200926700Y-108411433D01*
X200926700Y-108538433D01*
X200884366Y-108623100D01*
X200842033Y-108665433D01*
X200757366Y-108707766D01*
X200418700Y-108707766D01*
X200418700Y-107818766D01*
X200715033Y-107818766D01*
X200799700Y-107861100D01*
X200842033Y-107903433D01*
X200884366Y-107988100D01*
X200884366Y-108072766D01*
X200842033Y-108157433D01*
X200799700Y-108199766D01*
X200715033Y-108242100D01*
X200418700Y-108242100D01*
X201434700Y-108707766D02*
X201350033Y-108665433D01*
X201307700Y-108580766D01*
X201307700Y-107818766D01*
X202154366Y-108115100D02*
X202154366Y-108707766D01*
X201773366Y-108115100D02*
X201773366Y-108580766D01*
X201815700Y-108665433D01*
X201900366Y-108707766D01*
X202027366Y-108707766D01*
X202112033Y-108665433D01*
X202154366Y-108623100D01*
X202916366Y-108665433D02*
X202831700Y-108707766D01*
X202662366Y-108707766D01*
X202577700Y-108665433D01*
X202535366Y-108580766D01*
X202535366Y-108242100D01*
X202577700Y-108157433D01*
X202662366Y-108115100D01*
X202831700Y-108115100D01*
X202916366Y-108157433D01*
X202958700Y-108242100D01*
X202958700Y-108326766D01*
X202535366Y-108411433D01*
X203339700Y-108707766D02*
X203339700Y-107818766D01*
X203678366Y-107818766D01*
X203763033Y-107861100D01*
X203805366Y-107903433D01*
X203847700Y-107988100D01*
X203847700Y-108115100D01*
X203805366Y-108199766D01*
X203763033Y-108242100D01*
X203678366Y-108284433D01*
X203339700Y-108284433D01*
X204228700Y-108707766D02*
X204228700Y-108115100D01*
X204228700Y-107818766D02*
X204186366Y-107861100D01*
X204228700Y-107903433D01*
X204271033Y-107861100D01*
X204228700Y-107818766D01*
X204228700Y-107903433D01*
X204779033Y-108707766D02*
X204694366Y-108665433D01*
X204652033Y-108580766D01*
X204652033Y-107818766D01*
X205244700Y-108707766D02*
X205160033Y-108665433D01*
X205117700Y-108580766D01*
X205117700Y-107818766D01*
X205371700Y-108792433D02*
X206049033Y-108792433D01*
X206218366Y-108665433D02*
X206345366Y-108707766D01*
X206557033Y-108707766D01*
X206641700Y-108665433D01*
X206684033Y-108623100D01*
X206726366Y-108538433D01*
X206726366Y-108453766D01*
X206684033Y-108369100D01*
X206641700Y-108326766D01*
X206557033Y-108284433D01*
X206387700Y-108242100D01*
X206303033Y-108199766D01*
X206260700Y-108157433D01*
X206218366Y-108072766D01*
X206218366Y-107988100D01*
X206260700Y-107903433D01*
X206303033Y-107861100D01*
X206387700Y-107818766D01*
X206599366Y-107818766D01*
X206726366Y-107861100D01*
X206980366Y-107818766D02*
X207488366Y-107818766D01*
X207234366Y-108707766D02*
X207234366Y-107818766D01*
X207784700Y-108707766D02*
X207784700Y-107818766D01*
X208081033Y-108453766D01*
X208377366Y-107818766D01*
X208377366Y-108707766D01*
X208716033Y-107818766D02*
X209266366Y-107818766D01*
X208970033Y-108157433D01*
X209097033Y-108157433D01*
X209181700Y-108199766D01*
X209224033Y-108242100D01*
X209266366Y-108326766D01*
X209266366Y-108538433D01*
X209224033Y-108623100D01*
X209181700Y-108665433D01*
X209097033Y-108707766D01*
X208843033Y-108707766D01*
X208758366Y-108665433D01*
X208716033Y-108623100D01*
X209605033Y-107903433D02*
X209647366Y-107861100D01*
X209732033Y-107818766D01*
X209943700Y-107818766D01*
X210028366Y-107861100D01*
X210070700Y-107903433D01*
X210113033Y-107988100D01*
X210113033Y-108072766D01*
X210070700Y-108199766D01*
X209562700Y-108707766D01*
X210113033Y-108707766D01*
X210790366Y-108242100D02*
X210494033Y-108242100D01*
X210494033Y-108707766D02*
X210494033Y-107818766D01*
X210917366Y-107818766D01*
X211721700Y-108707766D02*
X211213700Y-108707766D01*
X211467700Y-108707766D02*
X211467700Y-107818766D01*
X211383033Y-107945766D01*
X211298366Y-108030433D01*
X211213700Y-108072766D01*
X212272033Y-107818766D02*
X212356700Y-107818766D01*
X212441366Y-107861100D01*
X212483700Y-107903433D01*
X212526033Y-107988100D01*
X212568366Y-108157433D01*
X212568366Y-108369100D01*
X212526033Y-108538433D01*
X212483700Y-108623100D01*
X212441366Y-108665433D01*
X212356700Y-108707766D01*
X212272033Y-108707766D01*
X212187366Y-108665433D01*
X212145033Y-108623100D01*
X212102700Y-108538433D01*
X212060366Y-108369100D01*
X212060366Y-108157433D01*
X212102700Y-107988100D01*
X212145033Y-107903433D01*
X212187366Y-107861100D01*
X212272033Y-107818766D01*
X212864700Y-107818766D02*
X213415033Y-107818766D01*
X213118700Y-108157433D01*
X213245700Y-108157433D01*
X213330366Y-108199766D01*
X213372700Y-108242100D01*
X213415033Y-108326766D01*
X213415033Y-108538433D01*
X213372700Y-108623100D01*
X213330366Y-108665433D01*
X213245700Y-108707766D01*
X212991700Y-108707766D01*
X212907033Y-108665433D01*
X212864700Y-108623100D01*
X214304033Y-108623100D02*
X214261700Y-108665433D01*
X214134700Y-108707766D01*
X214050033Y-108707766D01*
X213923033Y-108665433D01*
X213838366Y-108580766D01*
X213796033Y-108496100D01*
X213753700Y-108326766D01*
X213753700Y-108199766D01*
X213796033Y-108030433D01*
X213838366Y-107945766D01*
X213923033Y-107861100D01*
X214050033Y-107818766D01*
X214134700Y-107818766D01*
X214261700Y-107861100D01*
X214304033Y-107903433D01*
%TO.C,J5*%
D10*
X147986666Y-82482380D02*
X147986666Y-83196666D01*
X147939047Y-83339523D01*
X147843809Y-83434761D01*
X147700952Y-83482380D01*
X147605714Y-83482380D01*
X148939047Y-82482380D02*
X148462857Y-82482380D01*
X148415238Y-82958571D01*
X148462857Y-82910952D01*
X148558095Y-82863333D01*
X148796190Y-82863333D01*
X148891428Y-82910952D01*
X148939047Y-82958571D01*
X148986666Y-83053809D01*
X148986666Y-83291904D01*
X148939047Y-83387142D01*
X148891428Y-83434761D01*
X148796190Y-83482380D01*
X148558095Y-83482380D01*
X148462857Y-83434761D01*
X148415238Y-83387142D01*
%TO.C,MicroSD*%
X227131904Y-95702380D02*
X227131904Y-94702380D01*
X227465238Y-95416666D01*
X227798571Y-94702380D01*
X227798571Y-95702380D01*
X228274761Y-95702380D02*
X228274761Y-95035714D01*
X228274761Y-94702380D02*
X228227142Y-94750000D01*
X228274761Y-94797619D01*
X228322380Y-94750000D01*
X228274761Y-94702380D01*
X228274761Y-94797619D01*
X229179523Y-95654761D02*
X229084285Y-95702380D01*
X228893809Y-95702380D01*
X228798571Y-95654761D01*
X228750952Y-95607142D01*
X228703333Y-95511904D01*
X228703333Y-95226190D01*
X228750952Y-95130952D01*
X228798571Y-95083333D01*
X228893809Y-95035714D01*
X229084285Y-95035714D01*
X229179523Y-95083333D01*
X229608095Y-95702380D02*
X229608095Y-95035714D01*
X229608095Y-95226190D02*
X229655714Y-95130952D01*
X229703333Y-95083333D01*
X229798571Y-95035714D01*
X229893809Y-95035714D01*
X230370000Y-95702380D02*
X230274761Y-95654761D01*
X230227142Y-95607142D01*
X230179523Y-95511904D01*
X230179523Y-95226190D01*
X230227142Y-95130952D01*
X230274761Y-95083333D01*
X230370000Y-95035714D01*
X230512857Y-95035714D01*
X230608095Y-95083333D01*
X230655714Y-95130952D01*
X230703333Y-95226190D01*
X230703333Y-95511904D01*
X230655714Y-95607142D01*
X230608095Y-95654761D01*
X230512857Y-95702380D01*
X230370000Y-95702380D01*
X231084285Y-95654761D02*
X231227142Y-95702380D01*
X231465238Y-95702380D01*
X231560476Y-95654761D01*
X231608095Y-95607142D01*
X231655714Y-95511904D01*
X231655714Y-95416666D01*
X231608095Y-95321428D01*
X231560476Y-95273809D01*
X231465238Y-95226190D01*
X231274761Y-95178571D01*
X231179523Y-95130952D01*
X231131904Y-95083333D01*
X231084285Y-94988095D01*
X231084285Y-94892857D01*
X231131904Y-94797619D01*
X231179523Y-94750000D01*
X231274761Y-94702380D01*
X231512857Y-94702380D01*
X231655714Y-94750000D01*
X232084285Y-95702380D02*
X232084285Y-94702380D01*
X232322380Y-94702380D01*
X232465238Y-94750000D01*
X232560476Y-94845238D01*
X232608095Y-94940476D01*
X232655714Y-95130952D01*
X232655714Y-95273809D01*
X232608095Y-95464285D01*
X232560476Y-95559523D01*
X232465238Y-95654761D01*
X232322380Y-95702380D01*
X232084285Y-95702380D01*
%TD*%
M02*
