%TF.GenerationSoftware,KiCad,Pcbnew,(5.1.10)-1*%
%TF.CreationDate,2021-06-14T15:07:00+02:00*%
%TF.ProjectId,bluepill_scsi,626c7565-7069-46c6-9c5f-736373692e6b,rev?*%
%TF.SameCoordinates,Original*%
%TF.FileFunction,Soldermask,Top*%
%TF.FilePolarity,Negative*%
%FSLAX46Y46*%
G04 Gerber Fmt 4.6, Leading zero omitted, Abs format (unit mm)*
G04 Created by KiCad (PCBNEW (5.1.10)-1) date 2021-06-14 15:07:00*
%MOMM*%
%LPD*%
G01*
G04 APERTURE LIST*
%ADD10C,2.800000*%
%ADD11O,1.827200X1.827200*%
%ADD12O,1.827200X2.350000*%
%ADD13O,1.700000X1.700000*%
%ADD14O,1.800000X1.800000*%
%ADD15O,1.450000X1.450000*%
G04 APERTURE END LIST*
D10*
%TO.C,H2*%
X156210000Y-86360000D03*
%TD*%
%TO.C,H1*%
X218440000Y-123190000D03*
%TD*%
D11*
%TO.C,U1*%
X227380800Y-106690000D03*
X227380800Y-109230000D03*
D12*
X231241600Y-115570000D03*
X228650800Y-115570000D03*
X226110800Y-115570000D03*
X223570800Y-115570000D03*
X221030800Y-115570000D03*
X218490800Y-115570000D03*
X215950800Y-115570000D03*
X213410800Y-115570000D03*
X210870800Y-115570000D03*
X208330800Y-115570000D03*
X205790800Y-115570000D03*
X203250800Y-115570000D03*
X200710800Y-115570000D03*
X198170800Y-115570000D03*
X195630800Y-115570000D03*
X193090800Y-115570000D03*
X190550800Y-115570000D03*
X188010800Y-115570000D03*
X185470800Y-115570000D03*
X182930800Y-115570000D03*
X182930800Y-100330000D03*
X185470800Y-100330000D03*
X188010800Y-100330000D03*
X190550800Y-100330000D03*
X193090800Y-100330000D03*
X195630800Y-100330000D03*
X198170800Y-100330000D03*
X200710800Y-100330000D03*
X203250800Y-100330000D03*
X205790800Y-100330000D03*
X208330800Y-100330000D03*
X210870800Y-100330000D03*
X213410800Y-100330000D03*
X215950800Y-100330000D03*
X218490800Y-100330000D03*
X221030800Y-100330000D03*
X223570800Y-100330000D03*
X226110800Y-100330000D03*
X228650800Y-100330000D03*
G36*
G01*
X232104400Y-99205000D02*
X232104400Y-101455000D01*
G75*
G02*
X232054400Y-101505000I-50000J0D01*
G01*
X230327200Y-101505000D01*
G75*
G02*
X230277200Y-101455000I0J50000D01*
G01*
X230277200Y-99205000D01*
G75*
G02*
X230327200Y-99155000I50000J0D01*
G01*
X232054400Y-99155000D01*
G75*
G02*
X232104400Y-99205000I0J-50000D01*
G01*
G37*
%TD*%
D13*
%TO.C,RN4*%
X173990000Y-107950000D03*
X173990000Y-105410000D03*
X173990000Y-102870000D03*
X173990000Y-100330000D03*
X173990000Y-97790000D03*
X173990000Y-95250000D03*
X173990000Y-92710000D03*
X173990000Y-90170000D03*
X173990000Y-87630000D03*
G36*
G01*
X173190000Y-84240000D02*
X174790000Y-84240000D01*
G75*
G02*
X174840000Y-84290000I0J-50000D01*
G01*
X174840000Y-85890000D01*
G75*
G02*
X174790000Y-85940000I-50000J0D01*
G01*
X173190000Y-85940000D01*
G75*
G02*
X173140000Y-85890000I0J50000D01*
G01*
X173140000Y-84290000D01*
G75*
G02*
X173190000Y-84240000I50000J0D01*
G01*
G37*
%TD*%
%TO.C,RN3*%
X170180000Y-107950000D03*
X170180000Y-105410000D03*
X170180000Y-102870000D03*
X170180000Y-100330000D03*
X170180000Y-97790000D03*
X170180000Y-95250000D03*
X170180000Y-92710000D03*
X170180000Y-90170000D03*
X170180000Y-87630000D03*
G36*
G01*
X169380000Y-84240000D02*
X170980000Y-84240000D01*
G75*
G02*
X171030000Y-84290000I0J-50000D01*
G01*
X171030000Y-85890000D01*
G75*
G02*
X170980000Y-85940000I-50000J0D01*
G01*
X169380000Y-85940000D01*
G75*
G02*
X169330000Y-85890000I0J50000D01*
G01*
X169330000Y-84290000D01*
G75*
G02*
X169380000Y-84240000I50000J0D01*
G01*
G37*
%TD*%
%TO.C,RN2*%
G36*
G01*
X165570000Y-84240000D02*
X167170000Y-84240000D01*
G75*
G02*
X167220000Y-84290000I0J-50000D01*
G01*
X167220000Y-85890000D01*
G75*
G02*
X167170000Y-85940000I-50000J0D01*
G01*
X165570000Y-85940000D01*
G75*
G02*
X165520000Y-85890000I0J50000D01*
G01*
X165520000Y-84290000D01*
G75*
G02*
X165570000Y-84240000I50000J0D01*
G01*
G37*
X166370000Y-87630000D03*
X166370000Y-90170000D03*
X166370000Y-92710000D03*
X166370000Y-95250000D03*
X166370000Y-97790000D03*
X166370000Y-100330000D03*
X166370000Y-102870000D03*
X166370000Y-105410000D03*
X166370000Y-107950000D03*
%TD*%
%TO.C,RN1*%
X162560000Y-107950000D03*
X162560000Y-105410000D03*
X162560000Y-102870000D03*
X162560000Y-100330000D03*
X162560000Y-97790000D03*
X162560000Y-95250000D03*
X162560000Y-92710000D03*
X162560000Y-90170000D03*
X162560000Y-87630000D03*
G36*
G01*
X161760000Y-84240000D02*
X163360000Y-84240000D01*
G75*
G02*
X163410000Y-84290000I0J-50000D01*
G01*
X163410000Y-85890000D01*
G75*
G02*
X163360000Y-85940000I-50000J0D01*
G01*
X161760000Y-85940000D01*
G75*
G02*
X161710000Y-85890000I0J50000D01*
G01*
X161710000Y-84290000D01*
G75*
G02*
X161760000Y-84240000I50000J0D01*
G01*
G37*
%TD*%
D14*
%TO.C,JP2*%
X162560000Y-119380000D03*
G36*
G01*
X163460000Y-121070000D02*
X163460000Y-122770000D01*
G75*
G02*
X163410000Y-122820000I-50000J0D01*
G01*
X161710000Y-122820000D01*
G75*
G02*
X161660000Y-122770000I0J50000D01*
G01*
X161660000Y-121070000D01*
G75*
G02*
X161710000Y-121020000I50000J0D01*
G01*
X163410000Y-121020000D01*
G75*
G02*
X163460000Y-121070000I0J-50000D01*
G01*
G37*
%TD*%
%TO.C,JP1*%
X166370000Y-119380000D03*
G36*
G01*
X167270000Y-121070000D02*
X167270000Y-122770000D01*
G75*
G02*
X167220000Y-122820000I-50000J0D01*
G01*
X165520000Y-122820000D01*
G75*
G02*
X165470000Y-122770000I0J50000D01*
G01*
X165470000Y-121070000D01*
G75*
G02*
X165520000Y-121020000I50000J0D01*
G01*
X167220000Y-121020000D01*
G75*
G02*
X167270000Y-121070000I0J-50000D01*
G01*
G37*
%TD*%
D15*
%TO.C,J5*%
X149320000Y-123090000D03*
X147320000Y-123090000D03*
X149320000Y-121090000D03*
X147320000Y-121090000D03*
X149320000Y-119090000D03*
X147320000Y-119090000D03*
X149320000Y-117090000D03*
X147320000Y-117090000D03*
X149320000Y-115090000D03*
X147320000Y-115090000D03*
X149320000Y-113090000D03*
X147320000Y-113090000D03*
X149320000Y-111090000D03*
X147320000Y-111090000D03*
X149320000Y-109090000D03*
X147320000Y-109090000D03*
X149320000Y-107090000D03*
X147320000Y-107090000D03*
X149320000Y-105090000D03*
X147320000Y-105090000D03*
X149320000Y-103090000D03*
X147320000Y-103090000D03*
X149320000Y-101090000D03*
X147320000Y-101090000D03*
X149320000Y-99090000D03*
X147320000Y-99090000D03*
X149320000Y-97090000D03*
X147320000Y-97090000D03*
X149320000Y-95090000D03*
X147320000Y-95090000D03*
X149320000Y-93090000D03*
X147320000Y-93090000D03*
X149320000Y-91090000D03*
X147320000Y-91090000D03*
X149320000Y-89090000D03*
X147320000Y-89090000D03*
X149320000Y-87090000D03*
X147320000Y-87090000D03*
X149320000Y-85090000D03*
G36*
G01*
X146595000Y-85765000D02*
X146595000Y-84415000D01*
G75*
G02*
X146645000Y-84365000I50000J0D01*
G01*
X147995000Y-84365000D01*
G75*
G02*
X148045000Y-84415000I0J-50000D01*
G01*
X148045000Y-85765000D01*
G75*
G02*
X147995000Y-85815000I-50000J0D01*
G01*
X146645000Y-85815000D01*
G75*
G02*
X146595000Y-85765000I0J50000D01*
G01*
G37*
%TD*%
%TO.C,J3*%
G36*
G01*
X191350000Y-125360000D02*
X189650000Y-125360000D01*
G75*
G02*
X189600000Y-125310000I0J50000D01*
G01*
X189600000Y-123610000D01*
G75*
G02*
X189650000Y-123560000I50000J0D01*
G01*
X191350000Y-123560000D01*
G75*
G02*
X191400000Y-123610000I0J-50000D01*
G01*
X191400000Y-125310000D01*
G75*
G02*
X191350000Y-125360000I-50000J0D01*
G01*
G37*
D14*
X193040000Y-124460000D03*
X195580000Y-124460000D03*
X198120000Y-124460000D03*
%TD*%
%TO.C,MicroSD*%
G36*
G01*
X226290000Y-82730000D02*
X226290000Y-81630000D01*
G75*
G02*
X226340000Y-81580000I50000J0D01*
G01*
X227190000Y-81580000D01*
G75*
G02*
X227240000Y-81630000I0J-50000D01*
G01*
X227240000Y-82730000D01*
G75*
G02*
X227190000Y-82780000I-50000J0D01*
G01*
X226340000Y-82780000D01*
G75*
G02*
X226290000Y-82730000I0J50000D01*
G01*
G37*
G36*
G01*
X233990000Y-82730000D02*
X233990000Y-81630000D01*
G75*
G02*
X234040000Y-81580000I50000J0D01*
G01*
X234790000Y-81580000D01*
G75*
G02*
X234840000Y-81630000I0J-50000D01*
G01*
X234840000Y-82730000D01*
G75*
G02*
X234790000Y-82780000I-50000J0D01*
G01*
X234040000Y-82780000D01*
G75*
G02*
X233990000Y-82730000I0J50000D01*
G01*
G37*
G36*
G01*
X227390000Y-82730000D02*
X227390000Y-81630000D01*
G75*
G02*
X227440000Y-81580000I50000J0D01*
G01*
X228290000Y-81580000D01*
G75*
G02*
X228340000Y-81630000I0J-50000D01*
G01*
X228340000Y-82730000D01*
G75*
G02*
X228290000Y-82780000I-50000J0D01*
G01*
X227440000Y-82780000D01*
G75*
G02*
X227390000Y-82730000I0J50000D01*
G01*
G37*
G36*
G01*
X228490000Y-82730000D02*
X228490000Y-81630000D01*
G75*
G02*
X228540000Y-81580000I50000J0D01*
G01*
X229390000Y-81580000D01*
G75*
G02*
X229440000Y-81630000I0J-50000D01*
G01*
X229440000Y-82730000D01*
G75*
G02*
X229390000Y-82780000I-50000J0D01*
G01*
X228540000Y-82780000D01*
G75*
G02*
X228490000Y-82730000I0J50000D01*
G01*
G37*
G36*
G01*
X229590000Y-82730000D02*
X229590000Y-81630000D01*
G75*
G02*
X229640000Y-81580000I50000J0D01*
G01*
X230490000Y-81580000D01*
G75*
G02*
X230540000Y-81630000I0J-50000D01*
G01*
X230540000Y-82730000D01*
G75*
G02*
X230490000Y-82780000I-50000J0D01*
G01*
X229640000Y-82780000D01*
G75*
G02*
X229590000Y-82730000I0J50000D01*
G01*
G37*
G36*
G01*
X230690000Y-82730000D02*
X230690000Y-81630000D01*
G75*
G02*
X230740000Y-81580000I50000J0D01*
G01*
X231590000Y-81580000D01*
G75*
G02*
X231640000Y-81630000I0J-50000D01*
G01*
X231640000Y-82730000D01*
G75*
G02*
X231590000Y-82780000I-50000J0D01*
G01*
X230740000Y-82780000D01*
G75*
G02*
X230690000Y-82730000I0J50000D01*
G01*
G37*
G36*
G01*
X231790000Y-82730000D02*
X231790000Y-81630000D01*
G75*
G02*
X231840000Y-81580000I50000J0D01*
G01*
X232690000Y-81580000D01*
G75*
G02*
X232740000Y-81630000I0J-50000D01*
G01*
X232740000Y-82730000D01*
G75*
G02*
X232690000Y-82780000I-50000J0D01*
G01*
X231840000Y-82780000D01*
G75*
G02*
X231790000Y-82730000I0J50000D01*
G01*
G37*
G36*
G01*
X232890000Y-82730000D02*
X232890000Y-81630000D01*
G75*
G02*
X232940000Y-81580000I50000J0D01*
G01*
X233790000Y-81580000D01*
G75*
G02*
X233840000Y-81630000I0J-50000D01*
G01*
X233840000Y-82730000D01*
G75*
G02*
X233790000Y-82780000I-50000J0D01*
G01*
X232940000Y-82780000D01*
G75*
G02*
X232890000Y-82730000I0J50000D01*
G01*
G37*
G36*
G01*
X234990000Y-83430000D02*
X234990000Y-81630000D01*
G75*
G02*
X235040000Y-81580000I50000J0D01*
G01*
X236210000Y-81580000D01*
G75*
G02*
X236260000Y-81630000I0J-50000D01*
G01*
X236260000Y-83430000D01*
G75*
G02*
X236210000Y-83480000I-50000J0D01*
G01*
X235040000Y-83480000D01*
G75*
G02*
X234990000Y-83430000I0J50000D01*
G01*
G37*
G36*
G01*
X223480000Y-82980000D02*
X223480000Y-81630000D01*
G75*
G02*
X223530000Y-81580000I50000J0D01*
G01*
X225080000Y-81580000D01*
G75*
G02*
X225130000Y-81630000I0J-50000D01*
G01*
X225130000Y-82980000D01*
G75*
G02*
X225080000Y-83030000I-50000J0D01*
G01*
X223530000Y-83030000D01*
G75*
G02*
X223480000Y-82980000I0J50000D01*
G01*
G37*
G36*
G01*
X223480000Y-92530000D02*
X223480000Y-91530000D01*
G75*
G02*
X223530000Y-91480000I50000J0D01*
G01*
X224730000Y-91480000D01*
G75*
G02*
X224780000Y-91530000I0J-50000D01*
G01*
X224780000Y-92530000D01*
G75*
G02*
X224730000Y-92580000I-50000J0D01*
G01*
X223530000Y-92580000D01*
G75*
G02*
X223480000Y-92530000I0J50000D01*
G01*
G37*
G36*
G01*
X223480000Y-88830000D02*
X223480000Y-87830000D01*
G75*
G02*
X223530000Y-87780000I50000J0D01*
G01*
X224730000Y-87780000D01*
G75*
G02*
X224780000Y-87830000I0J-50000D01*
G01*
X224780000Y-88830000D01*
G75*
G02*
X224730000Y-88880000I-50000J0D01*
G01*
X223530000Y-88880000D01*
G75*
G02*
X223480000Y-88830000I0J50000D01*
G01*
G37*
G36*
G01*
X226630000Y-93680000D02*
X226630000Y-92330000D01*
G75*
G02*
X226680000Y-92280000I50000J0D01*
G01*
X228580000Y-92280000D01*
G75*
G02*
X228630000Y-92330000I0J-50000D01*
G01*
X228630000Y-93680000D01*
G75*
G02*
X228580000Y-93730000I-50000J0D01*
G01*
X226680000Y-93730000D01*
G75*
G02*
X226630000Y-93680000I0J50000D01*
G01*
G37*
G36*
G01*
X232600000Y-93680000D02*
X232600000Y-92330000D01*
G75*
G02*
X232650000Y-92280000I50000J0D01*
G01*
X234550000Y-92280000D01*
G75*
G02*
X234600000Y-92330000I0J-50000D01*
G01*
X234600000Y-93680000D01*
G75*
G02*
X234550000Y-93730000I-50000J0D01*
G01*
X232650000Y-93730000D01*
G75*
G02*
X232600000Y-93680000I0J50000D01*
G01*
G37*
%TD*%
M02*
